<svg width="143" height="123" viewBox="0 0 143 123" fill="none" xmlns="http://www.w3.org/2000/svg">
<circle cx="70" cy="56" r="54" fill="#F1F3F8"/>
<path d="M101.251 93.426C90.2299 76.2072 92.0036 47.7617 92.0036 47.7617H110.491C110.491 47.7617 112.265 76.2072 101.244 93.426H101.251Z" fill="white" stroke="black" stroke-linecap="round" stroke-linejoin="round"/>
<path d="M93.1914 56.3558C95.8287 48.4373 95.2175 37.0312 95.2175 37.0312H107.74C107.74 37.0312 106.816 47.8926 109.64 56.3558H93.1914Z" fill="white" stroke="black" stroke-linecap="round" stroke-linejoin="round"/>
<path d="M99.4307 61.5176H103.011L104.546 67.0114L105.961 108.238L101.158 114.981L96.541 108.238L97.956 67.0114L99.4307 61.5176Z" fill="#0080C5" stroke="black" stroke-linecap="round" stroke-linejoin="round"/>
<path d="M97.0323 56.5099C97.0124 54.6498 99.57 54.5303 101.324 54.5103C103.078 54.4904 105.695 54.5436 105.715 56.4036C105.735 58.2637 103.795 62.2163 101.384 62.2163C98.9522 62.2163 97.0523 58.3699 97.0323 56.5099Z" fill="#0080C5" stroke="black" stroke-linecap="round" stroke-linejoin="round"/>
<path d="M76.8772 94.4424L75.5752 55.1289C75.5752 55.1289 91.9171 47.257 91.9902 48.4328C92.3024 53.6608 89.2134 54.5111 101.483 78.4659C113.66 56.3513 110.385 53.6343 110.697 48.4062C110.77 47.2304 127.537 55.1489 127.537 55.1489L126.095 94.4424L127.537 115.999L126.102 121.719L76.9702 121.779L75.5752 114.611L76.8772 94.4424Z" fill="#0F2A43"/>
<path d="M76.9571 121.266L75.7813 115.467L76.8841 94.3087L75.582 54.9952C75.582 54.9952 91.9239 47.1232 91.997 48.299C92.3092 53.5271 89.2202 54.3774 101.49 78.3322C113.667 56.2175 110.392 53.5005 110.704 48.2724C110.777 47.0966 127.544 55.0151 127.544 55.0151L126.102 94.3087L127.544 115.865L126.182 121.279" stroke="black" stroke-linecap="round" stroke-linejoin="round"/>
<path d="M101.49 78.4639C101.49 78.4639 101.045 101.927 101.49 120.654" stroke="black" stroke-linecap="round" stroke-linejoin="round"/>
<path d="M91.3699 71.1367H80.7344V73.2426L85.8163 74.8302L91.3699 73.3821V72.3923" stroke="black" stroke-linecap="round" stroke-linejoin="round"/>
<path d="M91.3699 73.6691L91.0178 81.767C90.9846 82.305 90.5395 82.7236 90.0014 82.7236H82.4748C81.9434 82.7236 81.505 82.3183 81.4651 81.7869L80.7344 73.2373" stroke="black" stroke-linecap="round" stroke-linejoin="round"/>
<path d="M122.17 71.1367H111.535V73.2426L116.849 74.8302L122.17 73.3821V72.3923" stroke="black" stroke-linecap="round" stroke-linejoin="round"/>
<path d="M122.17 73.6691L121.818 81.767C121.785 82.305 121.34 82.7236 120.802 82.7236H113.275C112.744 82.7236 112.305 82.3183 112.265 81.7869L111.535 73.2373" stroke="black" stroke-linecap="round" stroke-linejoin="round"/>
<path d="M110.31 50.3048C110.37 50.1388 107.906 46.0267 107.932 46.2991C108.165 48.5046 107.009 50.5174 101.734 54.0714C101.329 54.3438 103.395 55.5861 105.72 58.23C107.434 60.1764 108.683 63.5112 108.683 63.5112C111.612 56.3566 110.31 50.3115 110.31 50.3115V50.3048Z" fill="white" stroke="black" stroke-linecap="round" stroke-linejoin="round"/>
<path d="M92.1216 49.2835C92.0618 49.1174 95.0711 45.9022 95.0445 46.1746C94.812 48.3801 96.1406 50.7317 101.415 54.2791C101.794 54.5382 98.645 55.7804 96.9046 58.338C95.3169 60.663 94.0813 63.5063 94.0813 63.5063C91.238 56.1524 92.1149 49.2769 92.1149 49.2769L92.1216 49.2835Z" fill="white" stroke="black" stroke-linecap="round" stroke-linejoin="round"/>
<path d="M94.8522 46.2323C94.8522 46.2323 92.4275 45.269 90.3416 48.285C90.3416 48.285 84.1636 56.1038 84.4758 63.5042C84.4758 63.5042 97.0046 68.1809 98.579 72.6251C98.579 72.6251 88.6078 53.9714 94.8522 46.2256V46.2323Z" fill="#0F2A43" stroke="black" stroke-linecap="round" stroke-linejoin="round"/>
<path d="M108.099 46.2323C108.099 46.2323 110.524 45.269 112.61 48.285C112.61 48.285 118.788 56.1038 118.476 63.5042C118.476 63.5042 106.153 68.1809 104.579 72.6251C104.579 72.6251 114.344 53.9714 108.106 46.2256L108.099 46.2323Z" fill="#0F2A43" stroke="black" stroke-linecap="round" stroke-linejoin="round"/>
<path d="M112.89 23.1274C112.89 23.1274 114.291 26.4888 113.434 30.5344C113.275 31.2718 113.321 33.072 112.325 34.7129C111.654 35.8223 110.458 36.5331 109.156 37.5029L108.837 35.6695C108.837 35.6695 112.558 29.8302 111.209 22.9414L112.89 23.1274Z" fill="#CCCDCD" stroke="black" stroke-linecap="round" stroke-linejoin="round"/>
<path d="M107.324 28.6412C106.865 30.8334 105.822 34.6731 107.842 35.0916C109.868 35.5101 111.867 34.4539 113.269 30.1492C113.96 28.0168 112.857 25.426 110.831 25.0075C108.805 24.589 107.775 26.449 107.324 28.6412Z" fill="white" stroke="black" stroke-linecap="round" stroke-linejoin="round"/>
<path d="M94.8871 7.69031C89.6922 8.21511 84.6037 11.9884 83.8796 20.5977C83.8796 20.5977 82.2321 43.9547 95.8304 46.1668C95.8304 46.1668 105.489 46.0074 108.519 35.3652C108.519 35.3652 109.987 26.8688 109.223 19.1894C108.804 14.9844 106.247 6.54771 94.8804 7.69031H94.8871Z" fill="white"/>
<path d="M84.3716 28.2588C84.3716 28.2588 85.2352 44.8465 95.5385 46.5205" stroke="black" stroke-linecap="round" stroke-linejoin="round"/>
<path d="M95.3311 46.4721C95.3311 46.4721 98.9449 47.0235 103.176 43.5625" stroke="black" stroke-linecap="round" stroke-linejoin="round"/>
<path d="M108.518 34.3223C108.518 34.3223 108.857 36.7403 105.867 40.6531" stroke="black" stroke-linecap="round" stroke-linejoin="round"/>
<path d="M99.7565 28.7148C99.8295 29.4123 99.3645 30.0301 98.7201 30.0899C98.0757 30.1497 97.4978 29.6448 97.4314 28.9473C97.3583 28.2498 97.8233 27.632 98.4677 27.5722C99.1121 27.5058 99.69 28.0173 99.7565 28.7148Z" fill="#121212"/>
<path d="M89.5462 29.7575C89.6192 30.455 89.1941 31.0661 88.6029 31.1259C88.0116 31.1857 87.4735 30.6676 87.4071 29.9767C87.334 29.2792 87.7592 28.668 88.3504 28.6082C88.9417 28.5484 89.4797 29.0666 89.5462 29.7575Z" fill="#121212"/>
<path d="M85.833 27.2816C85.833 27.2816 87.5336 25.1292 89.9716 26.5907" stroke="black" stroke-linecap="round" stroke-linejoin="round"/>
<path d="M101.577 25.6798C101.577 25.6798 98.4418 23.7533 96.2031 25.7595" stroke="black" stroke-linecap="round" stroke-linejoin="round"/>
<path d="M92.4688 32.2295L91.7314 35.272L92.4888 35.8832" stroke="black" stroke-linecap="round" stroke-linejoin="round"/>
<path d="M92.1167 39.4836C92.1167 39.4836 94.0963 41.3635 96.4014 39.0186" stroke="black" stroke-linecap="round" stroke-linejoin="round"/>
<path d="M83.1289 23.4328C82.8897 24.5223 82.5377 25.5719 82.8964 27.3589C83.1356 28.5413 83.8264 28.6277 84.7764 31.0391L83.9394 23.373L83.1223 23.4328H83.1289Z" fill="#CCCDCD" stroke="black" stroke-linecap="round" stroke-linejoin="round"/>
<path d="M104.566 21.3012C104.566 21.3012 106.121 27.373 107.702 30.6148C107.702 30.6148 107.755 29.7312 108.246 27.0807C108.612 25.1143 110.605 24.5032 111.488 25.1874L110.492 17.415L104.035 18.83L104.566 21.3012Z" fill="#262728" stroke="black" stroke-linecap="round" stroke-linejoin="round"/>
<path d="M106.406 22.6488C108.631 22.9079 112.544 25.0336 112.544 25.0336L112.497 23.0806C110.956 22.4561 106.406 22.6421 106.406 22.6421V22.6488Z" fill="#CCCDCD"/>
<path d="M111.72 24.87C111.72 24.87 108.027 22.8705 106.419 22.4453C106.419 22.4453 110.943 22.3523 112.484 22.9768" stroke="black" stroke-linecap="round" stroke-linejoin="round"/>
<path d="M112.862 12.8637C109.959 2.75298 99.9351 2.77955 99.9351 2.77955C99.4501 2.62012 97.4639 1.00586 97.4639 1.00586L93.1725 1.28487C92.4285 1.28487 92.3089 1.37787 91.6246 3.24456C88.1836 4.86546 86.5029 7.11081 86.5029 7.11081C82.0985 11.2295 82.1849 21.0944 82.1849 21.0944L79.6738 22.1972C79.8465 23.6254 80.0392 23.745 84.324 23.0807C84.324 23.0807 98.9918 20.5497 108.086 22.1972C109.534 22.4629 115.002 23.4062 115.154 23.0342C115.433 22.3632 115.36 22.1307 115.36 22.1307L114.164 21.1941C114.164 21.1941 114.809 19.6529 112.862 12.8637Z" fill="white"/>
<path d="M114.144 20.0721C114.19 19.1221 114.171 17.4148 112.869 12.8644C110.61 4.99237 103.914 3.25854 101.11 2.87988" stroke="black" stroke-linecap="round" stroke-linejoin="round"/>
<path d="M99.1119 2.42825C98.348 1.9101 97.4644 1 97.4644 1L92.7279 1.31887C92.3692 1.35872 92.2297 1.51151 91.5455 3.37821C88.1044 4.99911 86.4968 7.10495 86.4968 7.10495C82.0924 11.2236 82.1788 21.0885 82.1788 21.0885L79.5083 22.2644C79.6744 23.666 79.9002 23.8653 84.5105 23.3007C84.5105 23.3007 98.9259 21.0288 108.073 22.1979C109.535 22.3839 115.308 23.6727 115.474 23.3007C116.065 21.9654 114.65 21.0487 114.65 21.0487" stroke="black" stroke-linecap="round" stroke-linejoin="round"/>
<path d="M97.6046 1.07324C97.6046 1.07324 95.0337 5.49086 95.698 13.8544" stroke="black" stroke-linecap="round" stroke-linejoin="round"/>
<path d="M90.3758 14.1672C90.3758 14.1672 89.6518 6.49454 91.6247 3.24609" stroke="black" stroke-linecap="round" stroke-linejoin="round"/>
<path d="M104.028 21.9014C104.028 21.9014 105.323 33.9518 107.383 38.2632L108.917 35.865C108.917 35.865 106.991 28.4381 106.366 22.0674L104.028 21.9014Z" fill="#CCCDCD" stroke="black" stroke-linecap="round" stroke-linejoin="round"/>
<path d="M92.4751 45.4633C92.4751 45.4633 92.9335 47.0775 97.2714 46.9845C101.131 46.8982 106.804 44.2675 110.338 34.7148L108.897 35.1732C108.897 35.1732 108.405 36.1298 107.515 37.4584C106.412 39.0992 104.712 41.2981 102.592 42.919C99.9751 44.9185 97.9091 46.2671 92.4751 45.4699V45.4633Z" fill="#CCCDCD" stroke="black" stroke-linecap="round" stroke-linejoin="round"/>
<path d="M99.1299 45.0576C99.1299 45.0576 99.8075 46.3065 99.8207 46.4062" stroke="black" stroke-linecap="round" stroke-linejoin="round"/>
<path d="M101.457 44.0361C101.457 44.0361 101.922 44.8466 101.935 44.9529" stroke="black" stroke-linecap="round" stroke-linejoin="round"/>
<path d="M75.6735 54.8027C72.6243 55.4936 68.5322 58.4896 67.0907 64.0033C66.3467 66.8466 67.1305 72.6061 66.9379 76.8576C66.2935 90.7615 68.8644 93.5516 74.3449 95.6109C75.3878 96.0029 78.1646 94.8204 79.274 94.3753L75.6735 54.8027Z" fill="#0F2A43" stroke="black" stroke-linecap="round" stroke-linejoin="round"/>
<path d="M69.0912 76.2461C69.0912 76.2461 72.8246 74.6584 74.2927 75.4822C74.2927 75.4822 69.0381 78.4582 67.9287 82.8626" stroke="black" stroke-linecap="round" stroke-linejoin="round"/>
<path d="M90.7608 57.1876C93.531 58.7155 95.8295 61.2133 95.039 62.6415C94.2484 64.0698 91.3454 63.824 88.5753 62.2961C85.8051 60.7682 84.4367 57.4467 85.8317 56.5963C86.3897 56.2576 87.9907 55.653 90.7608 57.1876Z" fill="#0F2A43" stroke="black" stroke-linecap="round" stroke-linejoin="round"/>
<path d="M101.98 41.2106L92.4077 47.4285C91.956 45.6947 91.6903 44.6849 91.6903 44.6849C91.3249 43.1902 90.5875 42.0543 90.0295 41.6756C88.9068 40.9183 88.103 42.1871 88.103 42.1871C89.6575 44.7646 88.9932 47.9467 88.9932 47.9467C88.9932 47.9467 88.1163 49.4746 87.173 51.3346C86.3692 52.9156 85.6584 58.1238 85.4658 59.6052L83.2271 64.2885L85.0804 68.9187L90.1292 69.4502L92.4276 62.8337C92.4276 62.8337 95.7757 60.4754 97.4631 58.6884C99.3962 56.6357 102.319 51.4143 102.319 51.4143C102.445 50.2186 101.555 49.913 101.263 49.8466L101.522 49.5941C101.675 48.1659 100.373 48.0064 100.373 48.0064L99.9741 48.3253L101.382 46.9303C101.502 45.7877 100.698 45.4622 100.373 45.3758L103.229 42.8514C104.578 40.4002 101.98 41.2239 101.98 41.2239V41.2106Z" fill="white"/>
<path d="M91.2916 66.0827L92.6401 62.4291C92.6401 62.4291 95.769 60.4627 97.4563 58.6758C99.3894 56.6231 102.312 51.4016 102.312 51.4016C102.439 50.2059 101.548 49.9003 101.256 49.8339L101.515 49.5814C101.668 48.1532 100.366 47.9937 100.366 47.9937L99.9674 48.3126L101.376 46.9176C101.495 45.775 100.691 45.4495 100.366 45.3631L103.222 42.8388C104.571 40.3875 101.974 41.2112 101.974 41.2112L92.401 47.4291C91.9492 45.6953 91.6835 44.6855 91.6835 44.6855C91.3181 43.1908 90.5808 42.0549 90.0227 41.6762C88.9001 40.9189 88.0963 42.1877 88.0963 42.1877C89.6507 44.7652 88.9864 47.9472 88.9864 47.9472C88.9864 47.9472 88.1096 49.4751 87.1662 51.3352C86.3624 52.9162 85.8443 57.7723 85.6583 59.2471L84.1304 62.0571" stroke="black" stroke-linecap="round" stroke-linejoin="round"/>
<path d="M100.478 45.3623C100.478 45.3623 97.4749 47.9531 96.04 48.5111" stroke="black" stroke-linecap="round" stroke-linejoin="round"/>
<path d="M100.06 48.1719L98.0474 49.9256" stroke="black" stroke-linecap="round" stroke-linejoin="round"/>
<path d="M101.204 49.9131L99.7158 51.7997" stroke="black" stroke-linecap="round" stroke-linejoin="round"/>
<path d="M85.1995 57.2459C85.1995 57.2459 82.8013 61.4244 80.37 66.3402C76.4572 74.2454 69.947 82.5758 69.9404 87.1861C69.9404 87.1861 68.7978 95.2308 75.2814 97.4031C78.5564 98.4992 81.7451 95.7689 83.7048 92.919C87.5976 87.2459 89.9891 78.4173 92.6596 68.7317C93.2707 66.5196 94.4399 64.8655 95.0378 62.6334C95.0378 62.6334 90.3212 62.2016 89.2982 61.7432C87.4581 60.9261 85.1995 57.2393 85.1995 57.2393V57.2459Z" fill="#0F2A43" stroke="black" stroke-linecap="round" stroke-linejoin="round"/>
<path d="M83.9634 63.3379C83.9634 63.3379 85.8567 68.5792 91.1379 67.2307" stroke="black" stroke-linecap="round" stroke-linejoin="round"/>
<path d="M127.031 54.8438C127.031 54.8438 130.618 55.6409 134.683 61.6529C136.577 64.4496 137.294 70.0231 138.809 75.3309C139.553 77.9349 142.024 96.5089 142.024 96.5089C142.024 96.5089 132.458 97.9371 129.608 98.6081C129.608 98.6081 124.659 90.5833 126.094 78.1608L127.031 54.8438Z" fill="#0F2A43" stroke="black" stroke-linecap="round" stroke-linejoin="round"/>
<path d="M123.178 72.0684L126.074 106.559L100.81 115.726L97.6948 81.1162L123.178 72.0684Z" fill="#7D7D7C" stroke="black" stroke-linecap="round" stroke-linejoin="round"/>
<path d="M107.678 81.4407C108.236 81.4407 108.688 81.0065 108.688 80.4709C108.688 79.9352 108.236 79.501 107.678 79.501C107.121 79.501 106.668 79.9352 106.668 80.4709C106.668 81.0065 107.121 81.4407 107.678 81.4407Z" fill="#121212"/>
<path d="M115.251 78.8245C115.809 78.8245 116.261 78.3903 116.261 77.8547C116.261 77.319 115.809 76.8848 115.251 76.8848C114.694 76.8848 114.242 77.319 114.242 77.8547C114.242 78.3903 114.694 78.8245 115.251 78.8245Z" fill="#121212"/>
<path d="M117.472 100.239L114.045 99.4549L111.925 97.7875C111.208 96.9571 109.428 94.9642 108.464 94.6188C107.242 94.187 104.578 93.7286 104.578 93.7286L102.453 92.958C102.453 92.958 100.347 94.4793 103.09 96.0072C103.09 96.0072 105.967 96.9771 106.046 96.9903C106.08 96.997 107.096 97.8672 107.096 97.8672L105.369 99.156L101.994 99.621C101.994 99.621 101.323 99.4748 100.719 99.2689C100.114 99.0563 99.3901 98.2326 99.3901 98.2326L98.759 96.4124L98.1611 95.8544C98.1611 95.8544 96.9986 96.0935 97.0251 98.2326C97.0251 98.4452 96.6996 99.6475 97.2045 100.059C98.6128 101.202 101.097 102.737 97.6363 100.398C97.0783 100.026 96.8856 100.837 96.972 101.933C97.0451 102.856 97.9352 103.295 97.9352 103.295L97.2443 102.743L97.7426 105.055L99.0978 106.556L99.5694 107.407L101.522 108.808C101.522 108.808 104.857 109.28 106.319 108.954C107.78 108.629 110.165 108.303 110.165 108.303L114.995 108.204C114.995 108.204 120.096 104.59 117.472 100.232V100.239Z" fill="white" stroke="black" stroke-linecap="round" stroke-linejoin="round"/>
<path d="M98.7588 101.243C98.7588 101.243 101.057 102.632 102.16 102.632C103.263 102.632 102.831 102.725 105.203 102.027" stroke="black" stroke-linecap="round" stroke-linejoin="round"/>
<path d="M97.2441 102.744L100.24 105.142C100.24 105.142 101.011 105.249 102.658 105.395C103.522 105.474 104.073 105.222 105.017 104.83" stroke="black" stroke-linecap="round" stroke-linejoin="round"/>
<path d="M99.5771 107.08C99.5771 107.08 101.876 107.459 103.065 107.459C104.254 107.459 104.865 107.08 104.865 107.08" stroke="black" stroke-linecap="round" stroke-linejoin="round"/>
<path d="M133.449 93.8955L121.446 98.6386L115.008 99.7414C115.008 99.7414 115.155 99.6218 115.726 103.295C116.118 105.78 114.318 107.507 113.348 108.636C113.348 108.636 115.321 108.47 118.39 108.729C120.868 108.935 125.192 109.028 128.713 108.636C132.167 108.251 138.345 104.989 139.747 104.026C143.208 101.641 141.321 94.6993 141.321 94.6993L133.456 93.8955H133.449Z" fill="#0F2A43"/>
<path d="M121.066 100.213C121.066 100.213 122.694 104.079 120.86 107.268" stroke="black" stroke-linecap="round" stroke-linejoin="round"/>
<path d="M129.603 95.1514L121.439 98.639L114.284 99.5756C114.284 99.5756 115.148 99.6221 115.726 103.296C116.118 105.78 114.995 107.189 113.348 108.451C113.348 108.451 115.075 108.511 118.39 108.73C120.861 108.889 125.498 108.896 128.713 108.637C132.174 108.358 136.798 106.033 139.747 104.026C142.823 101.934 141.926 95.251 141.926 95.251" stroke="black" stroke-linecap="round" stroke-linejoin="round"/>
<path d="M136.119 93.2849C136.119 93.2849 132.539 93.71 129.603 95.1516C129.603 95.1516 131.33 90.7738 135.495 90.3154" stroke="black" stroke-linecap="round" stroke-linejoin="round"/>
<path d="M46.413 52.4441C46.413 52.4441 54.2451 53.2745 56.5038 58.0774C56.5038 58.0774 70.1419 85.2209 65.5051 97.8759C65.5051 97.8759 61.506 101.344 55.4741 98.3276C54.9427 98.0619 43.3838 54.0318 46.413 52.4375V52.4441Z" fill="#0F2A43" stroke="black" stroke-linecap="round" stroke-linejoin="round"/>
<path d="M10.5791 111.343C10.4795 117.607 10.1872 116.996 10.6389 120.165C10.7053 120.61 10.8913 121.321 11.0508 121.985H57.18C57.18 121.646 57.18 121.287 57.18 120.889C57.1601 119.188 57.9971 119.421 57.944 116.086C57.8643 111.084 57.1402 103.962 56.8213 97.4456C56.3961 88.7167 56.8213 78.1542 55.7318 70.9598C54.3501 61.8854 51.5268 54.8903 48.6105 52.924C45.6942 50.9576 40.2403 50.2003 40.2403 50.2003L24.649 49.2637C24.649 49.2637 14.7377 50.5856 8.93164 55.0963C8.93164 55.0963 11.4361 76.3938 11.9343 90.2579C12.1004 94.9346 10.7186 102.687 10.5858 111.336L10.5791 111.343Z" fill="#0F2A43"/>
<path d="M10.9049 121.386C10.4532 118.211 10.4864 117.613 10.5794 111.342C10.7123 102.693 12.094 94.9404 11.9279 90.2637C11.4297 76.4063 8.92529 55.1021 8.92529 55.1021C14.7313 50.5915 24.6427 49.2695 24.6427 49.2695L40.2339 50.2062C40.2339 50.2062 45.6945 50.9635 48.6042 52.9298C51.5205 54.8962 54.3371 61.8847 55.7255 70.9657C56.8216 78.1601 56.3964 88.7225 56.815 97.4515C57.1272 103.968 57.8579 111.09 57.9376 116.092C57.9908 119.427 57.1537 119.825 57.1803 121.526" stroke="black" stroke-linecap="round" stroke-linejoin="round"/>
<path d="M24.0444 49.7668C24.0444 49.7668 26.9408 57.2469 33.6901 66.7265C41.2698 77.3753 44.8371 80.1322 44.8371 80.1322C44.8371 80.1322 48.1321 57.5658 44.5316 53.3674C44.5316 53.3674 42.8243 50.9028 40.3398 49.3151C35.4638 46.1929 27.7645 42.7518 25.187 44.7912C24.7685 45.1234 24.7486 46.1862 24.6357 46.8373C24.4762 47.7606 24.0909 48.2987 24.0444 49.7735V49.7668Z" fill="white" stroke="black" stroke-linecap="round" stroke-linejoin="round"/>
<path d="M41.9276 61.1611L45.5215 68.495L46.0596 75.3174L44.8373 80.1336L39.3567 74.1682L38.2739 68.0101L39.762 61.1611H41.9276Z" fill="#8AC650" stroke="black" stroke-linecap="round" stroke-linejoin="round"/>
<path d="M45.0027 61.9176C45.0027 61.9176 45.1754 59.9313 43.0962 57.8056C41.0169 55.6798 39.4026 54.876 39.4026 54.876C39.4026 54.876 37.6289 55.6399 36.3535 58.1909C35.7755 59.3534 35.2574 61.3862 35.1245 63.0004" stroke="black" stroke-linecap="round" stroke-linejoin="round"/>
<path d="M43.0432 58.0971C43.0432 58.0971 42.7177 60.0036 41.9139 61.4252C41.9139 61.4252 41.6416 62.1161 40.5122 62.0829C39.3829 62.0497 37.9281 60.5683 36.3604 58.1901C36.3604 58.1901 37.1575 56.3167 39.4693 54.8818C39.4693 54.8818 42.8905 57.0674 43.0432 58.0971Z" fill="#8AC650" stroke="black" stroke-linecap="round" stroke-linejoin="round"/>
<path d="M24.3292 47.1357C24.3292 47.1357 21.3731 48.4112 21.0011 51.8191C20.3766 57.5387 19.9448 59.0666 19.9448 59.0666C19.9448 59.0666 29.9426 63.6105 39.3558 74.1729C39.3558 74.1729 38.18 70.2535 31.5834 59.1796C30.0622 56.6286 24.0369 49.401 24.3292 47.149V47.1357Z" fill="#0F2A43" stroke="black" stroke-linecap="round" stroke-linejoin="round"/>
<path d="M39.7815 49.5561C39.7815 49.5561 40.0008 49.0778 42.4321 50.3001C43.9268 51.0507 50.2178 59.5206 50.2178 59.5206C50.2178 59.5206 49.3143 62.1513 46.0526 75.3178C46.0526 75.3178 46.6039 60.6366 45.5477 57.7934C44.9432 56.1792 42.0468 52.2797 39.7749 49.5561H39.7815Z" fill="#0F2A43" stroke="black" stroke-linecap="round" stroke-linejoin="round"/>
<path d="M39.7693 36.2213C39.384 39.3436 39.384 43.0304 39.3707 46.0796C39.364 47.9064 39.6962 49.6403 40.0151 50.1385C40.3538 50.6567 38.9588 53.7124 38.9588 53.7124C38.9588 53.7124 37.3379 53.3139 32.2161 50.9024C27.4531 48.6571 25.9717 45.2293 25.9717 45.2293C25.9717 44.1664 27.0279 39.9414 26.709 34.4941L39.7693 36.2213Z" fill="white" stroke="black" stroke-linecap="round" stroke-linejoin="round"/>
<path d="M44.8369 80.6973C44.8369 80.6973 47.2815 94.0498 46.2386 120.894" stroke="black" stroke-linecap="round" stroke-linejoin="round"/>
<path d="M19.9443 72.668H30.7326V74.8934L26.0294 76.8531L19.9443 75.0462V73.9966" stroke="black" stroke-linecap="round" stroke-linejoin="round"/>
<path d="M19.9443 75.3502L20.3031 83.9197C20.3363 84.491 25.6972 86.8426 30.7326 84.026V74.8984" stroke="black" stroke-linecap="round" stroke-linejoin="round"/>
<path d="M51.2148 72.96L55.7188 72.8271L55.7786 74.8666L53.8654 76.72L51.2813 75.1389L51.2547 74.1757" stroke="black" stroke-linecap="round" stroke-linejoin="round"/>
<path d="M51.2886 75.4168L51.6672 83.2689C51.6938 83.787 53.8063 84.5443 56.0184 83.2423L55.7793 74.8721" stroke="black" stroke-linecap="round" stroke-linejoin="round"/>
<path d="M14.4307 108.266C14.4307 108.266 16.7358 111.335 14.8558 120.143" stroke="black" stroke-linecap="round" stroke-linejoin="round"/>
<path d="M67.1579 93.761C66.8722 97.0094 64.9922 100.457 61.7106 100.942C60.3222 101.148 58.5153 101.181 56.7416 99.846C54.2637 97.9793 53.7921 92.904 54.1973 88.2805C54.6025 83.6569 56.4825 84.0024 59.7243 83.0192C62.6738 82.1224 63.4377 81.7371 64.8394 85.3576C66.2876 89.0976 67.3638 91.4094 67.1645 93.761H67.1579Z" fill="#0F2A43" stroke="black" stroke-linecap="round" stroke-linejoin="round"/>
<path d="M56.9424 91.1258C56.9424 91.1258 61.8184 94.919 64.8343 89.4385" stroke="black" stroke-linecap="round" stroke-linejoin="round"/>
<path d="M71.4235 82.521H50.3518C49.6011 82.521 48.9767 82.0028 48.9501 81.3451L47.8607 55.1118C47.8341 54.4209 48.4652 53.8496 49.2624 53.8496H72.513C73.3035 53.8496 73.9412 54.4209 73.9147 55.1118L72.8252 81.3451C72.7986 82.0028 72.1808 82.521 71.4235 82.521Z" fill="white" stroke="black" stroke-linecap="round" stroke-linejoin="round"/>
<path d="M50.438 56.2607H71.0115" stroke="black" stroke-linecap="round" stroke-linejoin="round"/>
<path d="M67.3707 81.9296C67.59 80.0895 67.4969 79.0199 67.57 78.1298C67.6829 76.6816 67.0784 74.5359 66.8061 74.5226C65.5904 74.4628 65.1918 75.4194 65.3911 79.6776C65.2649 80.1825 64.1754 82.7002 64.0824 82.7334C63.9163 81.6771 64.3149 80.9663 64.1621 79.7241C63.9894 78.3756 63.9828 77.5585 63.8101 76.6417C63.2985 73.8583 63.7171 72.636 62.0497 72.9615C61.5315 73.0611 61.1728 75.0208 61.206 76.748C61.2259 77.5917 61.4053 78.9336 61.392 79.8437C61.3521 82.8264 60.907 82.8197 60.6148 83.318C60.5218 82.946 60.1564 79.8636 60.1232 79.4584C59.904 76.9207 59.5984 75.2002 59.1599 74.4894C58.7348 73.7985 58.1967 74.0111 57.6453 74.5691C57.1272 75.1005 57.5988 79.6311 57.5988 79.6311L57.3995 84.2679C57.3995 84.2679 56.7087 83.3778 56.1374 81.6041C55.6723 80.1692 54.5297 77.5585 54.0448 77.5983C52.9819 77.6847 52.9553 78.2493 53.6196 81.0328C53.799 81.7701 53.8654 82.7533 54.2441 83.8096C54.5696 84.7263 54.4699 84.3875 55.0545 86.3273C56.2702 88.7586 58.4159 89.8215 60.07 89.7152C61.7972 89.6023 64.2086 88.2471 64.2086 88.2471C64.2086 88.2471 67.1449 83.7033 67.3574 81.9296H67.3707Z" fill="white" stroke="black" stroke-linecap="round" stroke-linejoin="round"/>
<path d="M21.0021 26.2571C21.0021 26.2571 19.8927 29.7248 21.0885 33.6841C21.3077 34.4082 21.414 36.2018 22.5433 37.7496C23.3073 38.7992 24.5628 39.4037 25.9379 40.2607L26.104 38.4073C26.104 38.4073 21.8989 32.9068 22.6629 25.9316L21.0021 26.2638V26.2571Z" fill="#CCCDCD" stroke="black" stroke-linecap="round" stroke-linejoin="round"/>
<path d="M27.0141 31.2717C27.6519 33.4174 29.027 37.1508 27.0473 37.742C25.0677 38.3332 22.9818 37.4497 21.2214 33.2779C20.3512 31.2119 21.2347 28.5348 23.2143 27.9435C25.1939 27.3523 26.383 29.1193 27.0208 31.2717H27.0141Z" fill="white" stroke="black" stroke-linecap="round" stroke-linejoin="round"/>
<path d="M37.6299 9.34435C42.8513 9.42407 48.2455 12.7522 49.6936 21.2686C49.6936 21.2686 53.3207 44.3997 39.9616 47.761C39.9616 47.761 30.3225 48.4187 26.3965 38.0821C26.3965 38.0821 24.2109 29.7385 24.3172 22.0193C24.377 17.7943 26.2039 9.17163 37.6232 9.34435H37.6299Z" fill="white"/>
<path d="M49.8524 28.9395C49.8524 28.9395 50.4038 45.5404 40.2798 48.0847" stroke="black" stroke-linecap="round" stroke-linejoin="round"/>
<path d="M40.4787 48.0172C40.4787 48.0172 36.9247 48.8742 32.4141 45.7852" stroke="black" stroke-linecap="round" stroke-linejoin="round"/>
<path d="M26.3098 37.0371C26.3098 37.0371 26.177 39.4751 29.4852 43.1221" stroke="black" stroke-linecap="round" stroke-linejoin="round"/>
<path d="M35.6959 31.2241C35.6892 31.8751 36.1675 32.4132 36.7654 32.4199C37.3633 32.4265 37.8615 31.9083 37.8682 31.2573C37.8748 30.6063 37.3965 30.0682 36.7986 30.0616C36.2007 30.0549 35.7025 30.5731 35.6959 31.2241Z" fill="#121212"/>
<path d="M45.2091 31.5454C45.2024 32.1964 45.6409 32.7345 46.1922 32.7412C46.7436 32.7478 47.202 32.2296 47.2152 31.5786C47.2219 30.9276 46.7835 30.3895 46.2321 30.3829C45.6807 30.3762 45.2223 30.8944 45.2091 31.5454Z" fill="#121212"/>
<path d="M48.279 28.1428C48.279 28.1428 46.7046 26.2164 44.4526 27.9502" stroke="black" stroke-linecap="round" stroke-linejoin="round"/>
<path d="M34.2544 27.7569C34.2544 27.7569 36.1144 26.043 38.6388 27.6639" stroke="black" stroke-linecap="round" stroke-linejoin="round"/>
<path d="M42.1528 34.3867L43.1427 37.3562L42.4385 38.0271" stroke="black" stroke-linecap="round" stroke-linejoin="round"/>
<path d="M38.367 40.293C38.8719 42.0069 39.6557 42.7509 41.0109 42.8173C42.871 42.9103 43.5021 40.5388 43.5021 40.5388C43.5021 40.5388 42.3927 40.5122 41.2966 40.4524C40.2005 40.3926 38.3604 40.2996 38.3604 40.2996L38.367 40.293Z" fill="white" stroke="black" stroke-linecap="round" stroke-linejoin="round"/>
<path d="M50.6835 24.0244C51.0156 25.0939 51.4541 26.1037 51.2481 27.9172C51.1086 29.113 50.4244 29.2658 49.687 31.7436L49.8664 24.0311H50.6835V24.0244Z" fill="#CCCDCD" stroke="black" stroke-linecap="round" stroke-linejoin="round"/>
<path d="M29.1393 23.7323C29.1393 23.7323 28.103 29.9169 26.8076 33.2783C26.8076 33.2783 26.6814 32.4014 25.9639 29.7974C25.4325 27.8709 23.3997 27.4325 22.5693 28.1898L22.9015 20.3643L29.4582 21.2279L29.1393 23.7389V23.7323Z" fill="#262728" stroke="black" stroke-linecap="round" stroke-linejoin="round"/>
<path d="M27.4196 25.2266C25.2207 25.6783 21.5073 28.1296 21.5073 28.1296L21.3877 26.1832C22.8691 25.4325 27.4196 25.2332 27.4196 25.2332V25.2266Z" fill="#CCCDCD"/>
<path d="M22.3111 27.8913C22.3111 27.8913 25.8186 25.5861 27.3864 25.0215C27.3864 25.0215 22.8691 25.3138 21.3877 26.0644" stroke="black" stroke-linecap="round" stroke-linejoin="round"/>
<path d="M20.1522 16.0256C22.185 5.7023 32.1761 4.87192 32.1761 4.87192C32.6478 4.67263 34.4879 2.89894 34.4879 2.89894L38.7859 2.81258C39.5233 2.74615 39.6495 2.83251 40.4932 4.63277C44.0605 5.95474 45.9272 8.0473 45.9272 8.0473C50.6637 11.774 51.4143 21.6124 51.4143 21.6124L54.0118 22.4959C54.8621 22.9676 55.1677 24.2762 49.2753 24.0105C49.2753 24.0105 34.6207 22.5025 25.6991 24.914C24.2775 25.2993 18.6044 26.9999 18.4184 26.6412C18.0862 25.9968 18.4449 25.4653 18.4449 25.4653L19.5543 24.4357C19.5543 24.4357 18.7771 22.9543 20.1456 16.0256H20.1522Z" fill="white"/>
<path d="M19.4958 23.3197C19.363 22.3764 19.2434 20.6758 20.1535 16.0257C21.7345 7.98758 28.258 5.68909 31.0149 5.07129" stroke="black" stroke-linecap="round" stroke-linejoin="round"/>
<path d="M32.9672 4.46095C33.6846 3.88301 34.4884 2.89983 34.4884 2.89983L39.2316 2.81348C39.5903 2.82676 39.7431 2.95962 40.5867 4.76653C44.1541 6.08849 45.9344 8.04819 45.9344 8.04819C50.6709 11.7749 51.4215 21.6133 51.4215 21.6133L54.185 22.5566C54.1385 23.9649 53.9326 24.1841 49.2891 24.0181C49.2891 24.0181 34.7342 22.9817 25.713 24.9215C24.2714 25.2337 18.6315 27.0074 18.4322 26.6487C17.7347 25.3666 19.0567 24.3369 19.0567 24.3369" stroke="black" stroke-linecap="round" stroke-linejoin="round"/>
<path d="M34.3555 2.97852C34.3555 2.97852 37.2917 7.16363 37.3382 15.5538" stroke="black" stroke-linecap="round" stroke-linejoin="round"/>
<path d="M42.6645 15.4156C42.6645 15.4156 42.7375 7.70971 40.4922 4.64062" stroke="black" stroke-linecap="round" stroke-linejoin="round"/>
<path d="M24.4556 28.0234L30.8927 29.6776" stroke="black" stroke-linecap="round" stroke-linejoin="round"/>
<path d="M42.8965 30.8195C42.8965 30.8195 41.0962 30.2017 39.9204 30.8395" stroke="black" stroke-linecap="round" stroke-linejoin="round"/>
<path d="M49.7992 30.1561C49.8457 30.7672 49.5999 31.2455 50.0052 31.2189C50.4104 31.1924 51.1611 30.6344 51.1146 30.0232C51.0681 29.412 50.251 28.9736 49.8457 29.0002C49.4405 29.0267 49.7527 29.5449 49.7992 30.1561Z" fill="#121212"/>
<path d="M31.4575 30.1625C31.3911 30.7737 31.6169 31.2586 31.2117 31.2187C30.8065 31.1789 30.0824 30.5943 30.1488 29.9831C30.2152 29.372 31.0523 28.9667 31.4575 29.0066C31.8627 29.0465 31.5306 29.5513 31.4575 30.1625Z" fill="#121212"/>
<path d="M48.9777 29.2773L44.1424 29.1887C43.5481 29.1778 43.0576 29.6507 43.0467 30.2449L43.0083 32.3371C42.9974 32.9314 43.4704 33.422 44.0646 33.4329L48.8999 33.5215C49.4942 33.5324 49.9847 33.0595 49.9956 32.4652L50.034 30.373C50.0449 29.7787 49.572 29.2882 48.9777 29.2773Z" stroke="black" stroke-linecap="round" stroke-linejoin="round"/>
<path d="M38.5343 29.0852L32.6031 28.9765C31.9575 28.9647 31.4245 29.4784 31.4127 30.1241L31.3777 32.0303C31.3659 32.6759 31.8797 33.2089 32.5253 33.2207L38.4565 33.3294C39.1021 33.3412 39.6351 32.8275 39.6469 32.1818L39.6819 30.2756C39.6937 29.63 39.1799 29.097 38.5343 29.0852Z" stroke="black" stroke-linecap="round" stroke-linejoin="round"/>
<path d="M29.7235 24.2773C29.7235 24.2773 29.4578 36.3942 27.7705 40.865L25.9702 39.2574C25.9702 39.2574 27.518 29.1268 27.4051 24.6427L29.7235 24.2773Z" fill="#CCCDCD" stroke="black" stroke-linecap="round" stroke-linejoin="round"/>
<path d="M43.2427 46.7701C43.2427 46.7701 42.9239 48.4176 38.5926 48.69C34.7397 48.9358 28.8606 46.7967 24.5293 37.5762L26.0041 37.9083C26.0041 37.9083 26.5754 38.8251 27.5718 40.0673C28.8074 41.6085 30.694 43.6545 32.946 45.0894C35.7228 46.8631 37.9017 48.0257 43.2427 46.7701Z" fill="#CCCDCD" stroke="black" stroke-linecap="round" stroke-linejoin="round"/>
<path d="M36.3544 47.083C36.3544 47.083 35.7964 48.1193 35.7964 48.2256" stroke="black" stroke-linecap="round" stroke-linejoin="round"/>
<path d="M34.0152 45.8672C34.0152 45.8672 33.5635 46.8437 33.5635 46.9434" stroke="black" stroke-linecap="round" stroke-linejoin="round"/>
<path d="M15.336 91.3976C17.96 78.2577 15.243 58.694 9.39046 54.8809C9.39046 54.8809 7.66992 55.4588 4.5809 61.969C2.95336 65.3968 2.87365 73.0961 2.6345 76.7431C2.25585 82.4561 1.00032 89.79 1.00032 89.79C0.987032 89.8697 1.3856 96.8781 3.03972 100.02C6.5406 106.65 15.7545 91.7099 15.336 91.3976Z" fill="#0F2A43" stroke="black" stroke-linecap="round" stroke-linejoin="round"/>
<path d="M14.0478 100.732C10.6266 102.765 11.1448 102.386 7.98268 102.552C4.76745 102.725 2.5354 100.493 2.63504 96.4141C2.74797 92.0031 3.17312 90.9469 8.31483 86.1639C10.507 84.1245 17.0106 80.2516 19.8073 77.1692C21.8334 74.9372 24.1452 73.8411 25.6332 75.1697C26.7626 76.1728 28.0114 79.4079 27.5199 80.7498C27.1744 81.6865 26.4902 82.8955 24.2714 86.7219C22.4247 89.9106 18.1399 98.2941 14.0478 100.725V100.732Z" fill="#0F2A43"/>
<path d="M8.71927 85.8973C10.7454 83.6919 18.0062 79.6994 20.4841 76.3579C24.3437 71.1631 27.3929 76.5838 27.8645 80.3438C27.9907 81.3336 26.3565 83.1139 24.1378 86.947C22.291 90.1356 19.4544 94.4669 16.671 98.3265C14.7246 101.024 10.1143 102.95 8.71262 102.95C5.43096 102.95 3.03947 101.708 2.44824 98.6254" stroke="black" stroke-linecap="round" stroke-linejoin="round"/>
<path d="M18.1673 80.6367C18.1673 80.6367 17.9282 84.8019 22.3192 85.6987" stroke="black" stroke-linecap="round" stroke-linejoin="round"/>
<path d="M4.16873 90.123C4.16873 90.123 5.78962 87.758 8.72584 85.9046C8.72584 85.9046 6.94551 85.3001 3.43799 86.1903" stroke="black" stroke-linecap="round" stroke-linejoin="round"/>
<path d="M39.0992 75.8196C38.9597 76.1385 37.4384 76.5836 36.4021 75.9259C35.3658 75.2682 34.8875 74.1589 35.3393 73.4414C35.791 72.724 36.7741 73.1093 37.8171 73.7669C38.8534 74.4246 39.3516 75.255 39.1059 75.8196H39.0992Z" fill="white" stroke="black" stroke-linecap="round" stroke-linejoin="round"/>
<path d="M45.0848 70.6529L41.1189 70.0019L38.1228 69.4106L34.9608 68.3278C33.3731 67.4709 32.4763 68.5802 32.4763 68.5802C30.8686 67.7764 29.9187 69.6697 29.9187 69.6697C29.0684 69.5966 27.959 69.9819 26.7101 71.3836C26.3912 71.7357 25.335 72.6126 25.0228 73.0178C22.8904 75.7481 21.9338 75.7481 21.4555 77.3225C21.1897 78.1927 21.5352 79.9199 21.9205 80.6573C22.5848 81.9195 24.7571 83.2215 25.2221 83.082C26.0525 82.8362 26.6836 82.3712 27.6136 79.993L28.424 80.7237C28.424 80.7237 29.5467 81.6272 30.2841 81.2751C31.3935 80.7437 31.2805 79.4881 31.2672 79.5014L30.1246 77.3225C29.9586 76.904 31.2672 79.5014 31.2672 79.5014C31.2672 79.5014 32.6955 80.0926 33.4196 79.3088C34.1902 78.4717 34.0972 77.6081 34.0972 77.6081L32.4563 74.4593L34.5423 78.3721C34.5423 78.3721 34.8412 78.6644 35.7446 78.3522C36.6481 78.0333 36.6348 77.1166 36.6348 77.1166L36.854 74.8048L35.7446 72.8185L37.9036 72.2273C37.9036 72.2273 41.8629 73.3167 42.7198 73.1772C46.4134 72.5926 45.0848 70.6595 45.0848 70.6595V70.6529Z" fill="white"/>
<path d="M31.2672 79.5014C31.2805 79.4881 31.3935 80.7437 30.2841 81.2751C29.5467 81.6272 28.424 80.7237 28.424 80.7237L27.6136 79.993C26.6836 82.3712 26.0525 82.8362 25.2221 83.082C24.7571 83.2215 22.5848 81.9195 21.9205 80.6573C21.5352 79.9199 21.1897 78.1927 21.4555 77.3225C21.9338 75.7481 22.8904 75.7481 25.0228 73.0178C25.335 72.6126 26.3912 71.7357 26.7101 71.3836C27.959 69.9819 29.0684 69.5966 29.9187 69.6697C29.9187 69.6697 30.8686 67.7764 32.4763 68.5802C32.4763 68.5802 33.3731 67.4709 34.9608 68.3278L38.1228 69.4106L41.1189 70.0019L45.0848 70.6529V70.6595C45.0848 70.6595 46.4134 72.5926 42.7198 73.1772C41.8629 73.3167 37.9036 72.2273 37.9036 72.2273L35.7446 72.8185L36.854 74.8048L36.6348 77.1166C36.6348 77.1166 36.6481 78.0333 35.7446 78.3522C34.8412 78.6644 34.5423 78.3721 34.5423 78.3721L32.4563 74.4593L34.0972 77.6081C34.0972 77.6081 34.1902 78.4717 33.4196 79.3088C32.6955 80.0926 31.2672 79.5014 31.2672 79.5014ZM31.2672 79.5014L30.1246 77.3225C29.9586 76.904 31.2672 79.5014 31.2672 79.5014Z" stroke="black" stroke-linecap="round" stroke-linejoin="round"/>
<path d="M25.8857 77.3223C25.8857 77.3223 26.9154 78.5579 27.4469 79.7935" stroke="black" stroke-linecap="round" stroke-linejoin="round"/>
<path d="M34.1104 70.7451C34.1104 70.7451 35.0138 71.715 35.698 72.8111" stroke="black" stroke-linecap="round" stroke-linejoin="round"/>
<path d="M31.2212 72.8105C31.8058 73.4084 32.4701 74.5045 33.0148 75.5408" stroke="black" stroke-linecap="round" stroke-linejoin="round"/>
<path d="M28.4771 75.0361C28.4771 75.0361 29.8256 76.5175 30.078 77.3147" stroke="black" stroke-linecap="round" stroke-linejoin="round"/>
</svg>
