<svg width="78" height="70" viewBox="0 0 78 70" fill="none" xmlns="http://www.w3.org/2000/svg">
<path d="M51.5105 4.32251H7.54819C3.50606 4.32251 0.229492 7.59842 0.229492 11.6412V62.6813C0.229492 66.7234 3.50606 70 7.54819 70H51.5105C55.5526 70 58.8285 66.7234 58.8285 62.6813V11.6418C58.8285 7.59907 55.5526 4.32251 51.5105 4.32251Z" fill="white"/>
<path d="M43.3915 25.0891H15.6664C14.2489 25.0891 13.0996 26.2384 13.0996 27.6559C13.0996 29.0735 14.2489 30.2228 15.6664 30.2228H43.3915C44.8091 30.2228 45.9584 29.0735 45.9584 27.6559C45.9584 26.2384 44.8091 25.0891 43.3915 25.0891Z" fill="#1464FF" fill-opacity="0.5"/>
<path d="M43.3915 35.6372H15.6664C14.2489 35.6372 13.0996 36.7865 13.0996 38.204C13.0996 39.6216 14.2489 40.7709 15.6664 40.7709H43.3915C44.8091 40.7709 45.9584 39.6216 45.9584 38.204C45.9584 36.7865 44.8091 35.6372 43.3915 35.6372Z" fill="#1464FF" fill-opacity="0.5"/>
<path d="M25.7272 46.1865H15.6664C14.2489 46.1865 13.0996 47.3358 13.0996 48.7534C13.0996 50.1709 14.2489 51.3202 15.6664 51.3202H25.7278C27.1454 51.3202 28.2947 50.1709 28.2947 48.7534C28.2947 47.3358 27.1447 46.1865 25.7272 46.1865Z" fill="#1464FF" fill-opacity="0.5"/>
<path d="M35.1978 46.1865H33.9272C32.5097 46.1865 31.3604 47.3358 31.3604 48.7534C31.3604 50.1709 32.5097 51.3202 33.9272 51.3202H35.1978C36.6153 51.3202 37.7646 50.1709 37.7646 48.7534C37.7646 47.3358 36.6153 46.1865 35.1978 46.1865Z" fill="#1464FF" fill-opacity="0.5"/>
<path d="M42.4356 12.9146H16.6241C14.1676 12.9146 12.1758 10.9227 12.1758 8.46629V4.44856C12.1758 1.9921 14.1676 0.000244141 16.6241 0.000244141H42.4363C44.8927 0.000244141 46.8846 1.9921 46.8846 4.44856V8.46629C46.884 10.9234 44.8927 12.9146 42.4356 12.9146Z" fill="#1464FF"/>
<path d="M76.5943 27.0007L74.0249 24.4307C72.4572 22.8636 69.8929 22.8636 68.3246 24.4307L65.3291 27.4268L44.1514 48.6038C42.7512 50.0046 41.2245 54.6673 40.2588 58.0433C39.7826 59.7047 41.3201 61.2416 42.9809 60.7661C46.3576 59.7996 51.0196 58.273 52.4211 56.8735L73.5988 35.6958L76.5943 32.6997C78.162 31.1326 78.162 28.5684 76.5943 27.0007Z" fill="#1464FF"/>
</svg>
