<svg width="130" height="120" viewBox="0 0 130 120" fill="none" xmlns="http://www.w3.org/2000/svg">
<circle cx="72" cy="54" r="54" fill="#F1F3F8"/>
<path d="M21.5849 81.5761C20.3958 86.3392 17.5127 92.2382 17.5127 92.2382C17.5127 92.2382 24.634 98.6819 30.2142 94.623L31.0977 70.9605C31.0977 70.9605 24.5078 69.9176 21.5915 81.5761H21.5849Z" fill="white"/>
<path d="M28.4936 71.8828C28.4936 71.8828 23.9365 72.1153 21.3391 82.2792C20.1234 87.0356 17.7651 92.2969 17.7651 92.2969C17.7651 92.2969 24.7005 98.8801 30.274 94.8212" stroke="#121212" stroke-linecap="round" stroke-linejoin="round"/>
<path d="M62.1077 88.3657C62.5395 92.4379 63.2104 96.3506 63.2104 96.5101C63.4895 97.6593 64.4328 104.176 64.3663 107.471C64.3265 109.324 64.6055 118.831 64.6055 118.831L59.5966 118.864C59.3442 116.864 57.8097 109.391 57.3513 106.9C56.8597 104.256 57.1387 100.376 56.873 96.8356C56.6073 93.2948 56.2419 89.9401 55.9629 87.6084L62.1011 88.3724L62.1077 88.3657Z" fill="white"/>
<path d="M59.7563 118.565C59.5038 116.565 58.0689 109.384 57.6106 106.893C57.119 104.249 57.398 100.369 57.1323 96.8287C56.8665 93.288 56.5012 89.9333 56.2222 87.6016L62.3603 88.3655C62.7921 92.4377 63.4631 96.3504 63.4631 96.5099C63.7421 97.6591 64.6854 104.176 64.619 107.471C64.5791 109.324 64.7784 118.445 64.7784 118.445" stroke="#121212" stroke-linecap="round" stroke-linejoin="round"/>
<path d="M63.888 81.8703C65.0771 86.6333 68.5249 92.7981 68.5249 92.7981C68.5249 92.7981 60.8322 98.6705 55.2587 94.6182L54.3818 71.2613C54.3818 71.2613 60.9717 70.2184 63.888 81.8769V81.8703Z" fill="white"/>
<path d="M56.787 71.6797C56.787 71.6797 61.0319 71.7129 63.6293 81.8768C64.845 86.6332 68.2661 92.8045 68.2661 92.8045C68.2661 92.8045 60.5735 98.677 55 94.6247" stroke="#121212" stroke-linecap="round" stroke-linejoin="round"/>
<path d="M56.8478 105.829L55.114 72.1091C55.114 72.1091 49.8261 69.1064 41.1636 69.1064C33.5573 69.1064 29.4054 72.1622 29.4054 72.1622L27.6118 106.022L56.8545 105.829H56.8478Z" fill="white"/>
<path d="M28.7737 85.7471C28.7737 85.7471 28.1094 99.3121 27.8569 104.381" stroke="#121212" stroke-linecap="round" stroke-linejoin="round"/>
<path d="M55.6646 85.873C55.6646 85.873 56.0366 99.106 56.289 104.181" stroke="#121212" stroke-linecap="round" stroke-linejoin="round"/>
<path d="M35.5171 76.8677C35.5171 76.8677 42.1402 79.7176 49.3014 76.5488" stroke="#121212" stroke-linecap="round" stroke-linejoin="round"/>
<path d="M51.4875 72.7011C51.9259 74.6011 47.1363 75.9429 42.3599 75.9429C37.5836 75.9429 32.8338 74.7206 33.0663 72.7875C33.2789 71.0005 35.0526 69.001 42.2603 69.001C49.84 69.001 51.1819 71.3792 51.4875 72.7011Z" fill="white" stroke="#121212" stroke-linecap="round" stroke-linejoin="round"/>
<path d="M29.332 71.5971C29.332 71.5971 33.7629 70.1157 35.158 70.0293" stroke="#121212" stroke-linecap="round" stroke-linejoin="round"/>
<path d="M54.4621 71.4851C54.4621 71.4851 50.835 70.2428 49.4399 70.1631" stroke="#121212" stroke-linecap="round" stroke-linejoin="round"/>
<path d="M37.7824 62.9355C37.6894 65.4865 37.809 68.6419 36.9653 71.4253H47.3418C46.538 68.7681 46.611 65.5529 46.4915 62.9355H37.7824Z" fill="white"/>
<path d="M37.7359 64.0234C37.5898 66.5212 37.6695 68.4411 36.9653 70.8392" stroke="#121212" stroke-linecap="round" stroke-linejoin="round"/>
<path d="M47.3341 70.8392C46.6764 68.5939 46.703 66.3684 46.5303 64.0234" stroke="#121212" stroke-linecap="round" stroke-linejoin="round"/>
<path d="M57.3059 119.03L57.1265 113.742C57.1265 113.742 55.964 100.755 55.8975 100.13C55.3794 95.2275 53.9777 89.1624 53.9777 89.1624L53.9378 82.3799C53.9378 82.3799 46.0924 83.0774 42.0999 83.0575C38.1075 83.0375 30.3617 82.3799 30.3617 82.3799L30.1491 88.9698C30.1491 88.9698 28.7342 94.6097 28.3555 99.7049C28.3223 100.143 26.3892 113.828 26.3892 113.828V119.03H57.3191H57.3059Z" fill="#8AC650" stroke="#121212" stroke-linecap="round" stroke-linejoin="round"/>
<path d="M27.293 111.231C27.293 111.231 44.5715 113.955 56.323 110.853" stroke="#121212" stroke-linecap="round" stroke-linejoin="round"/>
<path d="M28.9741 114.088C28.9741 114.088 28.715 117.237 26.855 118.632" stroke="#121212" stroke-linecap="round" stroke-linejoin="round"/>
<path d="M55.213 114.088C55.213 114.088 55.1067 117.237 56.9668 118.632" stroke="#121212" stroke-linecap="round" stroke-linejoin="round"/>
<path d="M31.1987 115.243C31.1987 115.243 43.3621 116.997 52.6624 115.184" stroke="#121212" stroke-linecap="round" stroke-linejoin="round"/>
<path d="M57.6516 118.711L57.3659 114.021C57.3659 114.021 55.9576 100.755 55.8912 100.13C55.373 95.2275 53.9713 89.1624 53.9713 89.1624L53.9315 82.3799C53.9315 82.3799 45.2955 82.8848 42.1866 82.898C39.0777 82.9113 30.3487 82.3799 30.3487 82.3799L30.1361 88.9698C30.1361 88.9698 28.7212 94.6097 28.3425 99.7049C28.3093 100.143 26.7814 113.828 26.7814 113.828L26.3828 118.691" stroke="#121212" stroke-linecap="round" stroke-linejoin="round"/>
<path d="M51.293 79.1975L51.1934 82.3862H53.8439L53.9303 79.0713L51.293 79.1975Z" stroke="#121212" stroke-linecap="round" stroke-linejoin="round"/>
<path d="M52.5156 85.1171C53.231 85.1171 53.811 84.5372 53.811 83.8218C53.811 83.1063 53.231 82.5264 52.5156 82.5264C51.8002 82.5264 51.2202 83.1063 51.2202 83.8218C51.2202 84.5372 51.8002 85.1171 52.5156 85.1171Z" fill="#D0D0D0" stroke="#121212" stroke-linecap="round" stroke-linejoin="round"/>
<path d="M56.6877 71.2511C56.6877 71.2511 54.3228 76.9907 54.3228 79.907H50.9614C50.9614 79.907 51.6191 72.7125 53.2068 70.1151C53.2068 70.1151 53.4924 69.7963 54.9472 70.1816C56.3954 70.5602 56.6877 71.2577 56.6877 71.2577V71.2511Z" fill="#8AC650" stroke="#121212" stroke-linecap="round" stroke-linejoin="round"/>
<path d="M54.1104 77.7966C54.1104 77.7966 52.6556 77.3183 51.2871 77.7966" stroke="#121212" stroke-linecap="round" stroke-linejoin="round"/>
<path d="M33.1471 79.1975L33.2467 82.3862H30.6028L30.5098 79.0713L33.1471 79.1975Z" stroke="#121212" stroke-linecap="round" stroke-linejoin="round"/>
<path d="M31.9302 85.1171C32.6456 85.1171 33.2256 84.5372 33.2256 83.8218C33.2256 83.1063 32.6456 82.5264 31.9302 82.5264C31.2147 82.5264 30.6348 83.1063 30.6348 83.8218C30.6348 84.5372 31.2147 85.1171 31.9302 85.1171Z" fill="#D0D0D0" stroke="#121212" stroke-linecap="round" stroke-linejoin="round"/>
<path d="M27.7593 71.2511C27.7593 71.2511 30.1242 76.9907 30.1242 79.907H33.4856C33.4856 79.907 32.8279 72.7125 31.2402 70.1151C31.2402 70.1151 30.9546 69.7963 29.4998 70.1816C28.0516 70.5602 27.7593 71.2577 27.7593 71.2577V71.2511Z" fill="#8AC650" stroke="#121212" stroke-linecap="round" stroke-linejoin="round"/>
<path d="M30.3291 77.7966C30.3291 77.7966 31.7839 77.3183 33.1524 77.7966" stroke="#121212" stroke-linecap="round" stroke-linejoin="round"/>
<path d="M33.8638 97.6663C33.2925 95.9524 33.5649 87.7483 33.5649 87.7483C33.5649 87.7483 44.2137 88.6385 50.1725 87.6221C50.1725 87.6221 50.3452 96.9688 49.3952 98.3041C49.3952 98.3041 40.6264 98.9817 35.1725 98.2177" stroke="#121212" stroke-linecap="round" stroke-linejoin="round"/>
<path d="M29.3087 58.5391C29.3087 58.5391 27.8938 59.5887 29.0962 62.2857" stroke="#121212" stroke-linecap="round" stroke-linejoin="round"/>
<path d="M55.5093 58.5391C55.5093 58.5391 57.0106 59.5887 55.8016 62.2857" stroke="#121212" stroke-linecap="round" stroke-linejoin="round"/>
<path d="M24.5322 56.2999C25.5021 58.3326 27.6744 59.3224 29.3883 58.5053C31.1022 57.6882 31.7001 55.3765 30.7302 53.3437C29.7603 51.3109 27.588 50.3211 25.8741 51.1382C24.1602 51.9553 23.5623 54.2671 24.5322 56.2999Z" fill="white" stroke="#121212" stroke-linecap="round" stroke-linejoin="round"/>
<path d="M60.4587 56.2999C59.4888 58.3326 57.3165 59.3224 55.6026 58.5053C53.8887 57.6882 53.2909 55.3765 54.2607 53.3437C55.2306 51.3109 57.4029 50.3211 59.1168 51.1382C60.8307 51.9553 61.4286 54.2671 60.4587 56.2999Z" fill="white" stroke="#121212" stroke-linecap="round" stroke-linejoin="round"/>
<path d="M56.8183 51.2115C56.8183 63.6672 48.0163 67.4205 42.4228 67.4205C37.2014 67.4205 28.0805 63.2553 28.0407 50.8793C28.0074 41.9378 34.2253 34.6836 42.4228 34.6836C50.6203 34.6836 56.8183 42.2699 56.8183 51.2115Z" fill="white"/>
<path d="M56.1945 54.5342C56.1945 54.5342 55.1316 67.0962 43.2871 67.0962" stroke="#121212" stroke-linecap="round" stroke-linejoin="round"/>
<path d="M28.998 54.7861C28.998 54.7861 30.1938 67.0957 41.4803 67.0957" stroke="#121212" stroke-linecap="round" stroke-linejoin="round"/>
<path d="M47.2798 53.8295C47.2798 54.8061 47.9707 55.5966 48.8276 55.5966C49.6846 55.5966 50.3754 54.8061 50.3754 53.8295C50.3754 52.853 49.6846 52.0625 48.8276 52.0625C47.9707 52.0625 47.2798 52.853 47.2798 53.8295Z" fill="#121212"/>
<path d="M34.6841 53.8295C34.6841 54.8061 35.375 55.5966 36.2319 55.5966C37.0889 55.5966 37.7797 54.8061 37.7797 53.8295C37.7797 52.853 37.0889 52.0625 36.2319 52.0625C35.375 52.0625 34.6841 52.853 34.6841 53.8295Z" fill="#121212"/>
<path d="M33.4814 50.1225C33.4814 50.1225 35.9992 47.3789 38.4305 49.3851" stroke="#121212" stroke-linecap="round" stroke-linejoin="round"/>
<path d="M51.6112 50.1225C51.6112 50.1225 49.0935 47.3789 46.6621 49.3851" stroke="#121212" stroke-linecap="round" stroke-linejoin="round"/>
<path d="M42.4956 58.1543V58.3809" stroke="#121212" stroke-linecap="round" stroke-linejoin="round"/>
<path d="M39.8525 61.0153C39.8525 62.3572 41.3539 63.7456 42.5895 63.7456C43.8251 63.7456 45.3264 62.3505 45.3264 61.0153C45.3264 60.7762 39.8525 60.7762 39.8525 61.0153Z" fill="white" stroke="#121212" stroke-linecap="round" stroke-linejoin="round"/>
<path d="M55.4709 39.5851C55.4709 39.5851 56.7197 32.3774 51.6312 29.0625C51.6312 29.0625 49.532 35.5195 53.7902 38.7481L55.4709 39.5851Z" fill="#FAB1BD" stroke="#121212" stroke-linecap="round" stroke-linejoin="round"/>
<path d="M56.1484 39.2877C56.1484 39.2877 57.4771 38.1118 59.3836 38.909" stroke="#121212" stroke-linecap="round" stroke-linejoin="round"/>
<path d="M31.6432 35.3682C39.7544 28.0144 50.4696 32.7708 50.4696 32.7708C60.7663 38.6964 56.9399 51.0392 56.9399 51.0392C56.4948 48.6277 55.4851 43.9776 55.4851 43.9776L53.8974 43.2801V41.1543L51.8248 40.2442L51.5258 38.258L48.2508 38.2712L48.377 36.843L46.2247 37.0356C46.2247 37.0356 42.2389 42.4099 36.6986 46.0303C30.9723 49.777 27.8301 51.0857 27.8301 51.0857C26.6277 46.1432 28.1158 38.5503 31.6366 35.3682H31.6432Z" fill="#262728"/>
<path d="M48.5757 35.5809C48.5757 35.5809 53.1262 34.3586 55.6638 38.0322C55.6638 38.0322 55.5509 38.8094 54.0296 39.6996" stroke="#121212" stroke-linecap="round" stroke-linejoin="round"/>
<path d="M46.1644 37.1025C46.1644 37.1025 37.2959 47.8775 29.2246 49.9037" stroke="#121212" stroke-linecap="round" stroke-linejoin="round"/>
<path d="M43.4272 31.376C61.111 31.376 57.4906 50.8534 57.4906 50.8534" stroke="#121212" stroke-linecap="round" stroke-linejoin="round"/>
<path d="M27.8156 51.0259C27.8156 51.0259 24.5538 32.4453 41.2278 31.4355" stroke="#121212" stroke-linecap="round" stroke-linejoin="round"/>
<path d="M34.2808 39.8711C34.2808 39.8711 29.9694 41.1399 29.438 47.7896" stroke="#121212" stroke-linecap="round" stroke-linejoin="round"/>
<path d="M46.3379 36.9969L48.4504 36.957L48.2843 38.1793H51.3268L51.7055 40.2055L54.1966 41.0956L54.0704 43.4606L55.6315 43.7994L55.7179 46.5429C55.7179 46.5429 56.4752 49.0806 56.5217 51.3193" stroke="#121212" stroke-linecap="round" stroke-linejoin="round"/>
<path d="M25.3439 76.5013C26.6128 75.0066 26.6659 72.3959 26.2275 70.2967C25.902 68.7356 25.1646 67.872 24.2346 67.4602C24.1881 66.6829 23.0853 58.4057 21.5175 58.698C20.076 58.9637 21.3116 66.3109 21.564 67.2011C21.4777 66.8423 21.378 66.5434 21.212 66.1581C20.541 64.5505 17.5517 65.3078 18.754 67.7923C18.8205 67.9318 18.754 68.0979 18.7939 68.244C18.1429 67.8787 17.4454 67.8189 16.9737 68.1909C16.5353 68.543 16.4423 69.1807 16.615 69.8516C16.2563 69.7985 15.9108 69.8384 15.6517 70.0509C15.014 70.5691 15.0937 71.725 15.8311 72.6351C16.0105 72.8543 16.0304 74.0235 16.6681 75.1262C17.1066 75.8835 18.6411 77.2918 19.3453 77.7369L22.6269 78.3282L25.3439 76.4814V76.5013Z" fill="white"/>
<path d="M25.2775 76.2282C26.5463 74.7335 26.6725 72.455 26.2341 70.3491C25.9086 68.788 25.1712 67.9244 24.2412 67.5126C24.1947 66.7353 22.8594 58.2854 21.5175 58.6242C20.1026 58.9829 21.3116 66.3633 21.564 67.2535C21.4777 66.8948 21.378 66.5958 21.212 66.2105C20.541 64.6029 17.5517 65.3602 18.754 67.8447C18.8205 67.9842 18.754 68.1503 18.7939 68.2964C18.1429 67.9311 17.4454 67.8713 16.9737 68.2433C16.5353 68.5954 16.4423 69.2398 16.615 69.9041C16.2563 69.8509 15.9108 69.8908 15.6517 70.1033C15.014 70.6215 15.0937 71.7774 15.8311 72.6875C16.0105 72.9067 16.0304 74.0759 16.6681 75.1786C17.1066 75.9359 18.4684 76.9789 19.1726 77.4306" stroke="#121212" stroke-linecap="round" stroke-linejoin="round"/>
<path d="M16.3032 73.1599C17.6584 74.5749 19.1531 73.5452 18.8342 72.562C18.5884 71.7981 18.0902 71.167 17.5056 70.6621" stroke="#121212" stroke-miterlimit="10" stroke-linecap="round"/>
<path d="M18.9536 72.6151C19.4585 73.1133 20.5612 72.7546 20.9332 72.2763C21.1657 71.9707 21.1192 71.5323 20.9598 71.1536C20.6476 70.4229 19.8172 69.2271 19.2061 68.7422" stroke="#121212" stroke-miterlimit="10" stroke-linecap="round"/>
<path d="M26.3399 70.9141C26.2867 69.0341 24.3868 66.5629 22.2478 67.2405C21.0387 67.6258 19.2451 67.3999 19.3248 68.0975C19.4976 69.539 21.4905 69.5257 22.4271 69.4394C22.6796 69.4128 22.8789 70.3893 22.8456 70.9207C22.8456 70.9207 21.9289 71.7711 21.816 74.3087" stroke="#121212" stroke-miterlimit="10" stroke-linecap="round"/>
<path d="M22.4345 69.439C22.6205 69.2995 22.7999 69.3061 22.9328 69.3593C23.0789 69.4058 23.1719 69.5187 23.2184 69.6449C23.2981 69.8974 23.2184 70.1897 22.7866 70.3159L22.388 70.11C22.3017 70.0635 22.2618 70.0435 22.2485 70.0103C22.2352 69.9771 22.2485 69.9439 22.295 69.8575C22.3283 69.7778 22.388 69.6715 22.4279 69.4457L22.4345 69.439Z" fill="#121212"/>
<path d="M22.5747 70.2295C22.5747 70.2295 22.2824 70.9802 21.2129 71.0067" stroke="#121212" stroke-miterlimit="10" stroke-linecap="round"/>
<path d="M25.497 77.713L24.6467 76.4375L19.8969 77.0022L19.5781 79.0814C19.5781 79.0814 18.1897 92.8923 19.8837 96.6456C20.8934 98.891 21.6308 99.8409 25.2446 99.2829C31.7215 98.2798 25.497 77.713 25.497 77.713Z" fill="white"/>
<path d="M19.4385 77.2409L19.4053 81.0872C19.4053 81.0872 18.1962 92.8852 19.8836 96.6452C20.8933 98.8906 22.3349 100.08 25.8623 99.1961C31.2299 97.8542 25.9221 80.3764 25.9221 80.3764L25.2113 76.4902" stroke="#121212" stroke-linecap="round" stroke-linejoin="round"/>
<path d="M123.702 17.9814L121.025 20.5656" stroke="#121212" stroke-linecap="round" stroke-linejoin="round"/>
<path d="M118.042 15.3008L118.514 18.9943" stroke="#121212" stroke-linecap="round" stroke-linejoin="round"/>
<path d="M126.039 23.5254L122.366 22.9209" stroke="#121212" stroke-linecap="round" stroke-linejoin="round"/>
<path d="M12.1122 35.2407C13.4076 37.6587 13.5271 42.3288 11.2552 43.5445C8.98331 44.7601 5.17021 42.0564 3.87481 39.6384C2.57942 37.2203 3.37659 34.2708 5.65515 33.0551C7.92707 31.8394 10.8234 32.816 12.1122 35.234V35.2407Z" fill="#FFCC00" stroke="#121212" stroke-linecap="round" stroke-linejoin="round"/>
<path d="M9.8457 44.0227C9.8457 44.0227 8.11186 41.5249 9.3674 41.2725" stroke="#121212" stroke-linecap="round" stroke-linejoin="round"/>
<path d="M12.2788 42.7217C12.2788 42.7217 11.1694 39.8917 10.2593 40.7952" stroke="#121212" stroke-linecap="round" stroke-linejoin="round"/>
<path d="M12.682 46.3419C11.9845 46.7139 11.1408 46.5212 10.8153 45.9101L10.0182 44.4154C9.69266 43.8042 10.523 43.9836 11.2206 43.6049C11.9181 43.2329 12.2369 42.4424 12.5624 43.0536L13.3596 44.5482C13.6851 45.1594 13.3795 45.9632 12.682 46.3419Z" fill="#BFC0C0" stroke="#121212" stroke-miterlimit="10"/>
<path d="M10.5562 45.2046C10.5562 45.2046 12.2634 45.55 13.1004 43.8428" stroke="#121212" stroke-miterlimit="10"/>
<path d="M10.8895 41.4789C11.1486 41.9506 11.0755 42.482 10.7367 42.668C10.3913 42.854 9.90631 42.6282 9.65388 42.1565C9.40144 41.6848 9.46787 41.1534 9.80667 40.9674C10.1455 40.7814 10.637 41.0073 10.8895 41.4789Z" stroke="#121212" stroke-linecap="round" stroke-linejoin="round"/>
<path d="M3.76123 29.7607L4.77097 31.6075" stroke="#121212" stroke-linecap="round" stroke-linejoin="round"/>
<path d="M1.3501 31.9668L3.25665 32.8636" stroke="#121212" stroke-linecap="round" stroke-linejoin="round"/>
<path d="M6.97793 28.8906L6.70557 30.9765" stroke="#121212" stroke-linecap="round" stroke-linejoin="round"/>
<path d="M124.432 87.5298C124.897 91.6019 125.621 95.5147 125.621 95.6741C125.92 96.8234 126.937 103.34 126.87 106.635C126.831 108.489 127.023 118.32 127.023 118.32L121.629 118.353C121.357 116.354 119.809 108.555 119.311 106.064C118.786 103.42 119.085 99.5404 118.792 95.9996C118.5 92.4589 118.108 89.1042 117.816 86.7725L124.432 87.5364V87.5298Z" fill="white"/>
<path d="M121.782 117.855C121.51 115.855 120.081 108.548 119.583 106.057C119.058 103.413 119.357 99.5335 119.065 95.9928C118.773 92.4521 118.381 89.0973 118.088 86.7656L124.705 87.5296C125.17 91.6018 125.894 95.5145 125.894 95.6739C126.193 96.8232 127.209 103.34 127.143 106.635C127.103 108.488 127.236 117.862 127.236 117.862" stroke="#121212" stroke-linecap="round" stroke-linejoin="round"/>
<path d="M118.946 69.8252C118.946 69.8252 124.347 71.5391 125.715 80.1285C125.715 80.1285 128.665 88.6781 129.455 89.9802C129.455 89.9802 124.18 94.5838 117.464 93.4611L118.946 69.8252Z" fill="#FFCC00"/>
<path d="M120.115 70.3652C120.115 70.3652 124.021 72.0791 125.715 80.1305C125.715 80.1305 128.665 88.6801 129.455 89.9821C129.455 89.9821 124.18 94.5857 117.464 93.4631" stroke="#121212" stroke-linecap="round" stroke-linejoin="round"/>
<path d="M85.198 69.8252C85.198 69.8252 80.0563 71.5723 78.6878 80.1618C78.6878 80.1618 75.7383 88.7114 74.9478 90.0134C74.9478 90.0134 80.2223 94.617 86.9384 93.4943L85.198 69.8252Z" fill="#FFCC00"/>
<path d="M84.0554 70.2383C84.0554 70.2383 80.0563 71.5735 78.6878 80.1563C78.6878 80.1563 75.7383 88.7059 74.9478 90.008C74.9478 90.008 80.2223 94.6116 86.9384 93.4889" stroke="#121212" stroke-linecap="round" stroke-linejoin="round"/>
<path d="M110.846 68.4557H92.6577L92.8437 62.2311C92.8437 62.2311 95.3681 59.2949 101.752 59.2949C108.136 59.2949 110.846 62.1381 110.846 62.1381V68.4557Z" fill="#FFCC00" stroke="#121212" stroke-linecap="round" stroke-linejoin="round"/>
<path d="M87.0777 118.391H116.134L115.171 101.285L116.878 70.5946C116.878 70.5946 114.653 68.9139 112.335 67.8976C109.916 66.8347 107.392 66.4361 107.047 66.363C105.838 66.1039 97.6202 65.8714 96.4112 66.2368C96.1189 66.3298 93.754 66.9144 91.6348 67.8378C88.9112 69.0269 86.3403 70.6013 86.3403 70.6013L88.0476 101.199L87.0844 118.398L87.0777 118.391Z" fill="white"/>
<path d="M95.7539 72.8667C95.7539 72.8667 101.52 75.0855 108.555 72.6143" stroke="#121212" stroke-linecap="round" stroke-linejoin="round"/>
<path d="M89.7871 79.6757C89.7871 79.6757 101.28 82.7182 114.466 79.3369" stroke="#4C6F9C" stroke-miterlimit="10" stroke-linecap="round"/>
<path d="M89.7871 89.1435C89.7871 89.1435 101.113 91.3423 114.466 88.8047" stroke="#4C6F9C" stroke-miterlimit="10" stroke-linecap="round"/>
<path d="M89.7871 98.2236C89.7871 98.2236 101.705 100.675 114.466 97.8848" stroke="#4C6F9C" stroke-miterlimit="10" stroke-linecap="round"/>
<path d="M89.7871 106.933C89.7871 106.933 101.618 109.47 114.466 106.594" stroke="#4C6F9C" stroke-miterlimit="10" stroke-linecap="round"/>
<path d="M111.776 68.0905C111.776 70.0436 106.521 71.4984 101.745 71.4984C96.9682 71.4984 92.1919 70.0237 92.1919 68.0706C92.1919 66.1176 94.4372 64.5498 101.645 64.5498C109.225 64.5498 111.776 66.1308 111.776 68.0839V68.0905Z" fill="white" stroke="#121212" stroke-linecap="round" stroke-linejoin="round"/>
<path d="M97.647 58.9277C97.554 61.4787 97.6138 64.6341 96.7568 67.4175H107.22C106.409 64.7603 106.549 61.5451 106.422 58.9277H97.6404H97.647Z" fill="white"/>
<path d="M97.5075 60.0254C97.3547 62.5232 97.4676 64.443 96.7568 66.8345" stroke="#121212" stroke-linecap="round" stroke-linejoin="round"/>
<path d="M107.225 66.8413C106.561 64.596 106.468 62.3706 106.295 60.0322" stroke="#121212" stroke-linecap="round" stroke-linejoin="round"/>
<path d="M85.0242 101.087C84.9046 108.421 84.247 114.639 83.7554 118.392H94.1849C94.278 105.803 95.4936 86.9969 94.3776 78.8592C93.8129 74.7471 94.2979 66.0049 94.2979 66.0049C88.2726 66.9283 85.2567 69.9907 85.2567 69.9907C83.4564 72.0434 85.2501 87.0434 85.0176 101.087H85.0242Z" fill="#FFCC00"/>
<path d="M120.459 118.392C120.06 114.705 119.535 108.62 119.416 101.359C119.183 87.2892 121.455 72.1962 119.648 70.1369C119.648 70.1369 116.061 66.9216 110.036 66.0049C110.036 66.0049 110.295 74.7405 109.73 78.8592C108.614 86.9969 109.83 105.81 109.923 118.392H120.452H120.459Z" fill="#FFCC00"/>
<path d="M120.333 117.886C119.363 107.596 119.37 95.7317 119.709 85.415" stroke="#121212" stroke-linecap="round" stroke-linejoin="round"/>
<path d="M119.668 69.6578C116.798 67.718 113.45 66.5355 110.035 66.0107C109.863 83.1564 109.67 101.332 109.969 117.953" stroke="#121212" stroke-linecap="round" stroke-linejoin="round"/>
<path d="M83.9087 117.966C84.8786 107.716 84.9317 95.7117 84.6593 85.415" stroke="#121212" stroke-linecap="round" stroke-linejoin="round"/>
<path d="M85.0713 69.4784C87.7351 67.605 90.9304 66.5554 94.139 66.0771C94.4446 83.6214 94.5243 101.292 94.2254 117.893" stroke="#121212" stroke-linecap="round" stroke-linejoin="round"/>
<path d="M110.66 61.4874C108.043 59.614 106.342 59.8266 106.342 59.8266C106.342 60.3248 110.421 59.9528 110.036 65.42C109.989 66.1308 110.182 70.9404 110.182 70.9404C110.507 70.3359 111.511 67.1871 111.511 67.1871C111.511 67.1871 112.945 68.8279 113.543 70.8607C114.194 73.0795 115.43 74.6738 115.43 74.6738C113.782 66.2969 112.248 62.63 110.654 61.4874H110.66Z" fill="#FFCC00" stroke="#121212" stroke-linecap="round" stroke-linejoin="round"/>
<path d="M93.5083 61.4874C96.1256 59.614 97.5937 59.8266 97.5937 59.8266C97.5937 60.3248 93.7474 59.9528 94.1261 65.42C94.1726 66.1308 93.9799 70.9404 93.9799 70.9404C93.6544 70.3359 92.6513 67.1871 92.6513 67.1871C92.6513 67.1871 91.2164 68.8279 90.6186 70.8607C89.9675 73.0795 88.7319 74.6738 88.7319 74.6738C90.3794 66.2969 91.9139 62.63 93.5083 61.4874Z" fill="#FFCC00" stroke="#121212" stroke-linecap="round" stroke-linejoin="round"/>
<path d="M117.994 88.6509L116.386 89.1358C115.522 89.3949 114.599 89.4215 113.722 89.2023L111.882 88.7505L111.769 81.875C111.769 81.875 114.24 82.4064 115.861 82.4064C117.482 82.4064 118.352 81.9281 118.352 81.9281L117.994 88.6509Z" fill="#FFCC00" stroke="#121212" stroke-linecap="round" stroke-linejoin="round"/>
<path d="M116.525 81.0921C116.665 81.0921 118.04 81.0523 118.226 81.8428" stroke="#121212" stroke-linecap="round" stroke-linejoin="round"/>
<path d="M111.769 81.8084C111.769 81.8084 112.307 81.2172 112.885 81.1973" stroke="#121212" stroke-linecap="round" stroke-linejoin="round"/>
<path d="M119.875 51.9418C118.951 53.8749 116.885 54.8116 115.265 54.041C113.637 53.2637 113.066 51.0715 113.989 49.1384C114.912 47.2053 116.978 46.2686 118.599 47.0392C120.227 47.8164 120.798 50.0086 119.875 51.9418Z" fill="white" stroke="#121212" stroke-linecap="round" stroke-linejoin="round"/>
<path d="M84.5867 51.9418C85.5101 53.8749 87.5761 54.8116 89.197 54.041C90.8246 53.2637 91.3959 51.0715 90.4725 49.1384C89.5491 47.2053 87.4831 46.2686 85.8622 47.0392C84.2347 47.8164 83.6634 50.0086 84.5867 51.9418Z" fill="white" stroke="#121212" stroke-linecap="round" stroke-linejoin="round"/>
<path d="M87.9756 46.5212C87.9756 59.9335 96.6514 63.0225 102.119 63.0225C107.227 63.0225 116.7 59.6213 116.7 46.5212C116.7 38.0248 110.197 31.1426 102.178 31.1426C94.1603 31.1426 87.9756 38.0314 87.9756 46.5212Z" fill="white"/>
<path d="M97.675 49.3166C97.675 50.24 97.0173 50.9907 96.2069 50.9907C95.3964 50.9907 94.7388 50.24 94.7388 49.3166C94.7388 48.3932 95.3964 47.6426 96.2069 47.6426C97.0173 47.6426 97.675 48.3932 97.675 49.3166Z" fill="#121212"/>
<path d="M109.632 49.3166C109.632 50.24 108.974 50.9907 108.163 50.9907C107.353 50.9907 106.695 50.24 106.695 49.3166C106.695 48.3932 107.353 47.6426 108.163 47.6426C108.974 47.6426 109.632 48.3932 109.632 49.3166Z" fill="#121212"/>
<path d="M93.7954 45.3004C93.7954 45.3004 95.6289 43.4935 98.2595 45.2605" stroke="#121212" stroke-linecap="round" stroke-linejoin="round"/>
<path d="M110.176 45.3004C110.176 45.3004 108.343 43.4935 105.712 45.2605" stroke="#121212" stroke-linecap="round" stroke-linejoin="round"/>
<path d="M102.178 53.4375V53.6508" stroke="#121212" stroke-linecap="round" stroke-linejoin="round"/>
<path d="M88.6118 51.2783C88.6118 51.2783 89.967 62.2991 101.34 62.9036" stroke="#121212" stroke-linecap="round" stroke-linejoin="round"/>
<path d="M115.949 50.8125C115.949 50.8125 114.341 62.2983 102.961 62.9028" stroke="#121212" stroke-linecap="round" stroke-linejoin="round"/>
<path d="M99.3744 55.8544C99.0423 55.8079 98.7633 56.1068 98.8297 56.4324C99.1353 57.9204 100.451 59.0364 102.025 59.0364C103.599 59.0364 104.915 57.9204 105.22 56.4324C105.287 56.1068 105.008 55.8079 104.682 55.8544C103.925 55.9541 102.616 55.9673 102.078 55.974C101.527 55.9806 100.185 55.9607 99.3744 55.8544Z" fill="white" stroke="#121212" stroke-linecap="round" stroke-linejoin="round"/>
<path d="M97.8729 39.8259L96.923 35.3285L92.6116 40.9087L91.9806 37.7997L89.3831 43.5061L88.3667 48.515C88.3667 48.515 87.2242 46.9937 86.5266 41.5398L84.8792 42.2971C84.8792 42.2971 84.5935 40.9818 86.9717 37.1022C87.264 36.6239 83.9093 37.7067 84.3079 37.1687C84.6931 36.6439 87.8619 32.1 88.3667 31.5287C88.3667 31.5287 91.9141 26.3339 101.294 26.201L100.344 24.4074C100.344 24.4074 103.041 23.8759 104.748 25.9087L106.27 24.8325L107.857 24.6399L107.399 26.8587C107.399 26.8587 114.5 27.2838 117.669 34.631C117.669 34.631 119.868 38.6899 117.902 45.2798L116.188 48.3887L115.112 43.0012L113.232 37.9326L111.498 41.4202L107.95 34.9565L106.303 39.7727L102.403 34.724C102.403 34.724 99.3942 38.019 97.8729 39.8392V39.8259Z" fill="#262728" stroke="#121212" stroke-linecap="round" stroke-linejoin="round"/>
<path d="M82.8952 74.4671L82.6161 72.1221L76.9829 74.0087V76.0282C76.9829 76.0282 75.5945 91.7655 77.2884 96.0503C78.2982 98.6079 79.0356 99.6907 82.6494 99.0529C89.1263 97.9103 82.9018 74.4671 82.9018 74.4671H82.8952Z" fill="white"/>
<path d="M76.9034 74.8725L76.8037 78.3136C76.8037 78.3136 75.5947 91.7658 77.282 96.0439C78.2918 98.6015 79.7333 99.9633 83.2607 98.9535C88.6283 97.419 83.3205 77.5032 83.3205 77.5032L82.6097 73.0723" stroke="#121212" stroke-linecap="round" stroke-linejoin="round"/>
<path d="M82.88 73.9302C84.0891 72.4754 84.2419 69.6056 83.7901 67.5861C83.458 66.0848 82.7405 65.261 81.8437 64.8757C81.7906 64.1251 80.4354 56.1866 79.1334 56.459C77.7516 56.7446 79.0138 63.8062 79.2662 64.6565C79.1799 64.3111 79.0802 64.0254 78.9208 63.6534C78.2565 62.1122 75.6258 62.7699 76.5692 65.261C76.6223 65.4005 76.5692 65.56 76.609 65.6995C75.9779 65.354 75.3003 65.3009 74.8553 65.6729C74.4367 66.0183 74.357 66.6361 74.5231 67.2805C74.1777 67.234 73.8455 67.2805 73.5931 67.4798C72.9819 67.9847 73.0749 69.1007 73.7924 69.9709C73.9651 70.1835 73.9983 71.3062 74.6227 72.3624C75.0545 73.0865 75.8052 74.7074 76.4894 75.1326L80.5018 74.8669L82.88 73.9368V73.9302Z" fill="white"/>
<path d="M82.5077 74.4686C83.7168 73.0138 84.2482 69.6591 83.7965 67.6396C83.4643 66.1382 82.7469 65.3145 81.8501 64.9292C81.7969 64.1785 80.4218 56.0475 79.1331 56.3863C77.7712 56.745 79.0201 63.853 79.2726 64.7034C79.1862 64.3579 79.0866 64.0723 78.9271 63.7003C78.2628 62.1591 75.6853 62.8499 76.5755 65.3079C76.6286 65.454 76.5755 65.6068 76.6154 65.7463C75.9843 65.4009 75.3067 65.3477 74.8616 65.7197C74.4431 66.0652 74.3634 66.683 74.5294 67.3274C74.184 67.2808 73.8519 67.3274 73.5994 67.5266C72.9883 68.0315 73.0813 69.1475 73.7987 70.0178C73.9714 70.2304 74.0046 71.353 74.6291 72.4093C75.0609 73.1334 75.6322 74.5882 77.0272 75.4252" stroke="#121212" stroke-linecap="round" stroke-linejoin="round"/>
<path d="M74.2505 70.4493C75.5725 71.7979 77.0007 70.7948 76.6818 69.8514C76.4361 69.1141 75.9511 68.5162 75.3798 68.0312" stroke="#121212" stroke-miterlimit="10" stroke-linecap="round"/>
<path d="M76.8022 69.9004C77.3005 70.3787 78.3567 70.02 78.7022 69.5549C78.928 69.256 78.8749 68.8309 78.7154 68.4721C78.4032 67.768 77.5928 66.6254 76.9949 66.167" stroke="#121212" stroke-miterlimit="10" stroke-linecap="round"/>
<path d="M83.9105 68.1845C83.844 66.371 81.984 64.0127 79.9313 64.6903C78.7687 65.0756 77.0349 64.8763 77.1213 65.5472C77.3006 66.9356 79.2205 66.9024 80.1239 66.8094C80.3697 66.7828 80.569 67.7195 80.5424 68.2376C80.5424 68.2376 79.6722 69.068 79.5858 71.5193" stroke="#121212" stroke-miterlimit="10" stroke-linecap="round"/>
<path d="M80.123 66.8032C80.3023 66.6571 80.4817 66.6637 80.6145 66.7102C80.754 66.7567 80.8537 66.863 80.9002 66.9826C80.9799 67.2284 80.9002 67.5207 80.4684 67.6402L80.0632 67.4476C79.9768 67.4077 79.937 67.3878 79.9303 67.3546C79.917 67.328 79.937 67.2948 79.9835 67.2151C80.0167 67.1354 80.0765 67.0291 80.123 66.8032Z" fill="#121212"/>
<path d="M80.2701 67.5605C80.2701 67.5605 79.9977 68.2846 78.9614 68.3245" stroke="#121212" stroke-miterlimit="10" stroke-linecap="round"/>
<path d="M117.988 41.8983L116.779 41.885C117.583 59.7415 105.227 62.6644 101.919 63.156C98.6104 62.6644 86.3341 59.788 87.1445 41.9382L85.7694 41.7721C85.8292 40.8421 84.587 63.435 101.812 63.435L101.919 63.4151L102.025 63.435C119.317 63.435 117.982 41.8983 117.982 41.8983H117.988Z" fill="#E3E4E4" stroke="#121212" stroke-linecap="round" stroke-linejoin="round"/>
<path d="M58.1415 45.9901L56.9324 45.9768C57.7363 63.8333 45.3802 66.7562 42.072 67.2478C38.7637 66.7562 26.4874 63.8798 27.2979 46.03L25.9228 45.8639C25.9825 44.9339 24.7403 67.5268 41.9657 67.5268L42.072 67.5069L42.1783 67.5268C59.4701 67.5268 58.1348 45.9901 58.1348 45.9901H58.1415Z" fill="#E3E4E4" stroke="#121212" stroke-linecap="round" stroke-linejoin="round"/>
<path d="M60.4329 42.7151C60.4329 32.3653 55.9422 26.8051 49.1663 23.9751C47.6583 21.5969 44.8417 21.4375 42.1446 21.4375C39.4475 21.4375 36.4847 21.5836 34.9967 24.1678C28.5928 27.2103 23.9892 31.0168 23.9892 42.6886C22.0959 43.0141 22.4015 44.8011 22.4015 45.2129C22.4015 46.422 30.2934 47.2789 41.9652 47.2789C53.6371 47.2789 61.7814 46.422 61.7814 45.2129C61.7814 44.7811 62.4856 43.0539 60.4262 42.7151H60.4329Z" fill="white" stroke="#121212" stroke-linecap="round" stroke-linejoin="round"/>
<path d="M35.1241 24.1689C35.1241 24.1689 32.7259 33.5157 33.7755 41.7398" stroke="#121212" stroke-linecap="round" stroke-linejoin="round"/>
<path d="M49.167 24.1689C49.167 24.1689 51.5651 33.5157 50.5155 41.7398" stroke="#121212" stroke-linecap="round" stroke-linejoin="round"/>
<path d="M120.281 38.6234C120.281 28.2735 115.79 22.7133 109.014 19.8833C107.506 17.5051 104.69 17.3457 101.993 17.3457C99.2957 17.3457 96.3329 17.4919 94.8448 20.076C88.4409 23.1185 83.8373 26.925 83.8373 38.5968C81.9441 38.9223 82.2496 40.7093 82.2496 41.1211C82.2496 42.3302 90.1416 43.1871 101.813 43.1871C113.485 43.1871 121.63 42.3302 121.63 41.1211C121.63 40.6893 122.334 38.9621 120.274 38.6234H120.281Z" fill="white" stroke="#121212" stroke-linecap="round" stroke-linejoin="round"/>
<path d="M94.9732 20.0771C94.9732 20.0771 92.575 29.4239 93.6246 37.648" stroke="#121212" stroke-linecap="round" stroke-linejoin="round"/>
<path d="M109.016 20.0762C109.016 20.0762 111.414 29.4229 110.364 37.647" stroke="#121212" stroke-linecap="round" stroke-linejoin="round"/>
</svg>
