<svg width="64" height="73" viewBox="0 0 64 73" fill="none" xmlns="http://www.w3.org/2000/svg">
<path d="M38.0223 5.30273V9.10549H21.5434V5.30273H6.96582V62.3441H50.6984V5.30273H38.0223Z" fill="#8AC650" fill-opacity="0.3"/>
<path d="M49.9374 71.4992C57.0075 71.4992 62.739 65.7678 62.739 58.6978C62.739 51.6279 57.0075 45.8965 49.9374 45.8965C42.8672 45.8965 37.1357 51.6279 37.1357 58.6978C37.1357 65.7678 42.8672 71.4992 49.9374 71.4992Z" fill="#8AC650"/>
<path d="M38.022 16.0762H20.2754V33.8224H38.022V16.0762Z" fill="white"/>
<path d="M29.1293 18.7324C31.4851 18.7324 31.7741 20.2497 31.7741 22.1213C31.7741 23.9929 30.5902 25.5102 29.1293 25.5102C27.6683 25.5102 26.4844 23.9929 26.4844 22.1213C26.4844 20.2497 26.774 18.7324 29.1293 18.7324Z" stroke="#10075E" stroke-width="2" stroke-miterlimit="10"/>
<path d="M22.7744 31.7806C23.1198 30.5396 24.7823 28.5812 26.8352 28.1191" stroke="#10075E" stroke-width="2" stroke-miterlimit="10"/>
<path d="M31.4688 28.1191C33.2605 28.5229 34.7214 30.0662 35.2931 31.278C35.3768 31.4542 35.4408 31.6234 35.4852 31.7806" stroke="#10075E" stroke-width="2" stroke-miterlimit="10"/>
<path d="M21.5425 5.30273H1.26074V66.7807H34.2187" stroke="#10075E" stroke-width="2" stroke-miterlimit="10"/>
<path d="M55.7681 42.6965V5.30273H38.0215" stroke="#10075E" stroke-width="2" stroke-miterlimit="10"/>
<path d="M44.3594 58.5411L50.2037 62.1943L56.9297 54.668" stroke="white" stroke-width="2" stroke-miterlimit="10"/>
<path d="M32.9512 39.5273H43.0921" stroke="#10075E" stroke-width="2" stroke-miterlimit="10"/>
<path d="M15.2051 39.5273H25.346" stroke="#10075E" stroke-width="2" stroke-miterlimit="10"/>
<path d="M15.2051 48.4004H34.8531" stroke="#10075E" stroke-width="2" stroke-miterlimit="10"/>
<path d="M36.1468 9.10552H23.4155C22.3805 9.10552 21.542 8.26638 21.542 7.23139V3.37349C21.542 2.33914 22.3805 1.5 23.4155 1.5H36.1468C37.1818 1.5 38.021 2.33914 38.021 3.37413V7.23203C38.021 8.26638 37.1818 9.10552 36.1468 9.10552Z" stroke="#10075E" stroke-width="2" stroke-miterlimit="10"/>
<path d="M49.9374 71.4992C57.0075 71.4992 62.739 65.7678 62.739 58.6978C62.739 51.6279 57.0075 45.8965 49.9374 45.8965C42.8672 45.8965 37.1357 51.6279 37.1357 58.6978C37.1357 65.7678 42.8672 71.4992 49.9374 71.4992Z" stroke="#10075E" stroke-width="2" stroke-miterlimit="10"/>
</svg>
