<svg width="16" height="17" viewBox="0 0 16 17" fill="none" xmlns="http://www.w3.org/2000/svg">
<path d="M7.56152 12.8729C7.68262 12.9943 7.84118 13.0548 7.99999 13.0548C8.15881 13.0548 8.31737 12.9943 8.43847 12.8729L11.7523 9.55911C13.8212 7.4899 13.8212 4.12349 11.7523 2.05454C10.7504 1.05239 9.41752 0.5 7.99999 0.5C6.58272 0.5 5.25011 1.05213 4.24771 2.05454C2.1785 4.12374 2.1785 7.49016 4.24771 9.55911L7.56152 12.8729ZM6.53782 4.34439C6.92806 3.9539 7.44735 3.73838 7.99999 3.73838C8.55238 3.73838 9.07167 3.9539 9.46268 4.34439C9.85317 4.73514 10.0684 5.25418 10.0684 5.80682C10.0684 6.35895 9.85317 6.87824 9.46242 7.26951C9.07193 7.65975 8.55264 7.875 7.99999 7.875C7.44735 7.875 6.92831 7.65949 6.53731 7.26899C6.14681 6.87824 5.93181 6.35895 5.93181 5.80682C5.93181 5.25418 6.14681 4.73514 6.53782 4.34439Z" fill="#034EA1"/>
<path d="M13.2043 11.6113C13.6417 11.9592 13.8908 12.3561 13.8908 12.7777C13.8908 14.1536 11.2533 15.2692 8.00008 15.2692C4.74682 15.2692 2.10931 14.1536 2.10931 12.7777C2.10931 12.3561 2.35792 11.9595 2.79537 11.6113C1.25931 12.1257 0.295898 12.8644 0.295898 13.6857C0.295898 15.2399 3.74518 16.4999 8.00008 16.4999C12.2547 16.4999 15.704 15.2399 15.704 13.6857C15.7037 12.8641 14.7406 12.1255 13.2043 11.6113Z" fill="#034EA1"/>
</svg>
