<svg width="16" height="16" viewBox="0 0 16 16" fill="none" xmlns="http://www.w3.org/2000/svg">
<path d="M14.581 1.41505C12.6922 -0.471684 9.62165 -0.471684 7.73391 1.41505L5.46323 3.68573L7.06701 5.28951L9.33769 3.01882C10.3405 2.01696 11.9723 2.01596 12.9762 3.01882C13.979 4.02168 13.979 5.65445 12.9762 6.65731L10.7055 8.92799L12.3093 10.5318L14.581 8.26109C16.4687 6.37435 16.4687 3.30379 14.581 1.41505ZM6.65907 12.9754C6.17314 13.4614 5.52723 13.7293 4.84032 13.7293C4.15342 13.7293 3.50751 13.4614 3.02158 12.9754C2.53665 12.4895 2.26768 11.8436 2.26768 11.1567C2.26768 10.4698 2.53665 9.82386 3.02158 9.33793L5.29226 7.06726L3.68848 5.46348L1.4178 7.73416C0.503929 8.64903 0 9.86386 0 11.1577C0 12.4505 0.503929 13.6663 1.4178 14.5812C2.33167 15.4961 3.5485 16 4.84132 16C6.13414 16 7.34997 15.4961 8.26484 14.5812L10.5355 12.3105L8.93174 10.7067L6.65907 12.9754ZM11.3384 6.26237L9.73463 4.65859L4.80832 9.5839L6.4121 11.1877L11.3384 6.26237Z" fill="#1464FF"/>
</svg>
