<svg width="80" height="66" viewBox="0 0 80 66" fill="none" xmlns="http://www.w3.org/2000/svg">
<path d="M74.6254 0.0019989L54.7364 0C51.7654 0 49.3604 2.405 49.3584 5.374L49.3574 18.001C49.3574 20.246 50.7324 22.17 52.6884 22.975C52.8234 23.031 52.8784 23.192 52.8084 23.321L50.6554 27.182C50.5484 27.378 50.7324 27.604 50.9444 27.536L64.0134 23.39C64.0374 23.382 64.0634 23.379 64.0884 23.379L74.6194 23.38C77.5884 23.38 79.9964 20.975 79.9964 18.005L79.9994 5.379C79.9994 2.409 77.5944 0.0039989 74.6254 0.0019989ZM57.4784 13.09C56.7464 13.09 56.1554 12.499 56.1554 11.767C56.1554 11.037 56.7464 10.446 57.4784 10.446C58.2074 10.446 58.7994 11.036 58.7994 11.767C58.8004 12.499 58.2084 13.09 57.4784 13.09ZM64.6794 13.09C63.9484 13.09 63.3564 12.499 63.3564 11.767C63.3564 11.037 63.9484 10.446 64.6794 10.446C65.4084 10.446 66.0014 11.036 66.0014 11.767C66.0014 12.499 65.4084 13.09 64.6794 13.09ZM71.8794 13.09C71.1484 13.09 70.5574 12.499 70.5574 11.767C70.5574 11.037 71.1484 10.446 71.8794 10.446C72.6084 10.446 73.2004 11.036 73.2004 11.767C73.2004 12.499 72.6084 13.09 71.8794 13.09Z" fill="#A3C1E7"/>
<path d="M39.7264 39.2654C43.9264 39.2654 47.3454 35.8484 47.3454 31.6464C47.3454 27.4444 43.9264 24.0254 39.7264 24.0254C35.5244 24.0254 32.1074 27.4434 32.1074 31.6464C32.1074 35.8494 35.5244 39.2654 39.7264 39.2654Z" fill="#0080C5"/>
<path d="M43.5813 40.8398C43.0013 40.8398 42.4293 40.9858 41.9243 41.2658C41.9223 41.2668 41.9213 41.2668 41.9193 41.2678C40.5443 42.0318 38.9053 42.0318 37.5323 41.2678C37.0243 40.9878 36.4503 40.8398 35.8693 40.8398C31.2263 40.8398 27.4473 44.6149 27.4473 49.2589V51.4938C27.4473 51.9208 27.7943 52.2658 28.2203 52.2658H51.2303C51.6563 52.2658 52.0023 51.9198 52.0023 51.4938V49.2589C52.0033 44.6149 48.2253 40.8398 43.5813 40.8398Z" fill="#0080C5"/>
<path d="M9.0005 10.5586H47.0935C47.2065 10.5586 47.2995 10.6506 47.2995 10.7646V16.1386C47.2995 16.2526 47.2065 16.3456 47.0935 16.3456H10.5835C9.9235 16.3456 9.3855 16.9016 9.3855 17.5846V54.8536H3.6875V15.9666C3.6885 12.9836 6.0705 10.5586 9.0005 10.5586Z" fill="#DFE3EB"/>
<path d="M75.7664 25.6454V54.8524H70.0684V25.6454C70.0684 25.5314 70.1604 25.4395 70.2744 25.4395H75.5594C75.6734 25.4395 75.7664 25.5314 75.7664 25.6454Z" fill="#DFE3EB"/>
<path d="M78.68 56.9141H59.381C56.379 56.9141 53.36 57.3031 50.402 58.0691C48.249 58.6251 43.798 58.7001 39.727 58.7001C35.656 58.7001 31.206 58.6251 29.052 58.0691C26.093 57.3021 23.073 56.9141 20.072 56.9141H0.772999C0.345999 56.9141 0 57.2601 0 57.6871V61.1871C0 63.6921 2.039 65.7311 4.545 65.7311H74.91C77.414 65.7311 79.453 63.6941 79.453 61.1871V57.6871C79.453 57.2601 79.106 56.9141 78.68 56.9141ZM42.128 62.9871H37.325C36.898 62.9871 36.552 62.6401 36.552 62.2161C36.552 61.7881 36.899 61.4431 37.325 61.4431H42.128C42.555 61.4431 42.901 61.7891 42.901 62.2161C42.901 62.6411 42.555 62.9871 42.128 62.9871Z" fill="#DFE3EB"/>
</svg>
