<svg width="22" height="22" viewBox="0 0 22 22" fill="none" xmlns="http://www.w3.org/2000/svg">
<path d="M15.1875 11C15.0219 11 14.8878 11.1342 14.8877 11.2998C14.8877 11.4655 15.0218 11.5996 15.1875 11.5996C15.3531 11.5995 15.4873 11.4654 15.4873 11.2998C15.4872 11.1343 15.353 11.0001 15.1875 11Z" fill="#034EA1" stroke="#034EA1" stroke-width="2"/>
<path d="M11.2441 11C11.0785 11 10.9444 11.1342 10.9443 11.2998C10.9443 11.4655 11.0785 11.5996 11.2441 11.5996C11.4097 11.5995 11.5439 11.4654 11.5439 11.2998C11.5438 11.1343 11.4097 11.0001 11.2441 11Z" fill="#034EA1" stroke="#034EA1" stroke-width="2"/>
<path d="M7.2998 11C7.13418 11 7.00011 11.1342 7 11.2998C7 11.4655 7.13412 11.5996 7.2998 11.5996C7.4654 11.5995 7.59961 11.4654 7.59961 11.2998C7.5995 11.1343 7.46534 11.0001 7.2998 11Z" fill="#034EA1" stroke="#034EA1" stroke-width="2"/>
<path d="M0.999999 11.0001C0.999999 5.47714 5.47714 1 11.0001 1C16.5229 1 21 5.47714 21 11.0001C21 16.5232 16.5229 21 11.0001 21H0.999999L4.59576 18.6771C2.39913 16.8429 0.999999 14.0856 0.999999 11.0001Z" stroke="#034EA1" stroke-width="2" stroke-miterlimit="10" stroke-linecap="round" stroke-linejoin="round"/>
</svg>
