<svg width="112" height="100" viewBox="0 0 112 100" fill="none" xmlns="http://www.w3.org/2000/svg">
<path d="M7.13768 62.9542C5.99069 67.5486 3.20972 73.2387 3.20972 73.2387C3.20972 73.2387 10.0788 79.4542 15.4614 75.539L16.3136 52.7146C16.3136 52.7146 9.9571 51.7086 7.14409 62.9542H7.13768Z" fill="white"/>
<path d="M13.8017 53.6055C13.8017 53.6055 9.40594 53.8297 6.90051 63.6336C5.72788 68.2216 3.45312 73.2965 3.45312 73.2965C3.45312 73.2965 10.1428 79.6466 15.519 75.7315" stroke="#121212" stroke-linecap="round" stroke-linejoin="round"/>
<path d="M46.2248 69.5C46.6413 73.428 47.2885 77.2022 47.2885 77.3559C47.5576 78.4645 48.4675 84.7505 48.4034 87.9288C48.365 89.7165 48.6341 98.886 48.6341 98.886L43.8027 98.9181C43.5592 96.9893 42.079 89.7806 41.6368 87.3777C41.1627 84.8274 41.4318 81.0853 41.1755 77.6699C40.9192 74.2546 40.5667 71.0187 40.2976 68.7695L46.2184 69.5064L46.2248 69.5Z" fill="white"/>
<path d="M43.9565 98.6361C43.713 96.7074 42.329 89.7806 41.8868 87.3777C41.4127 84.8274 41.6818 81.0853 41.4255 77.6699C41.1692 74.2546 40.8167 71.0187 40.5476 68.7695L46.4684 69.5064C46.8849 73.4344 47.5321 77.2086 47.5321 77.3624C47.8012 78.4709 48.7111 84.7569 48.647 87.9352C48.6086 89.7229 48.8008 98.5208 48.8008 98.5208" stroke="#121212" stroke-linecap="round" stroke-linejoin="round"/>
<path d="M47.9422 63.2368C49.0892 67.8312 52.4148 73.7776 52.4148 73.7776C52.4148 73.7776 44.9946 79.4421 39.6185 75.5334L38.7727 53.0036C38.7727 53.0036 45.1292 51.9976 47.9422 63.2433V63.2368Z" fill="white"/>
<path d="M41.0921 53.4141C41.0921 53.4141 45.1867 53.4461 47.6921 63.25C48.8647 67.838 52.1647 73.7908 52.1647 73.7908C52.1647 73.7908 44.7445 79.4552 39.3684 75.5465" stroke="#121212" stroke-linecap="round" stroke-linejoin="round"/>
<path d="M41.1501 86.3557L39.4776 53.8299C39.4776 53.8299 34.377 50.9336 26.0213 50.9336C18.6844 50.9336 14.6796 53.8812 14.6796 53.8812L12.9495 86.5416L41.1565 86.3557H41.1501Z" fill="white"/>
<path d="M14.0705 66.9883C14.0705 66.9883 13.4298 80.0729 13.1863 84.9621" stroke="#121212" stroke-linecap="round" stroke-linejoin="round"/>
<path d="M40.0093 67.1016C40.0093 67.1016 40.3681 79.8658 40.6116 84.7614" stroke="#121212" stroke-linecap="round" stroke-linejoin="round"/>
<path d="M20.5745 58.413C20.5745 58.413 26.963 61.162 33.8706 58.1055" stroke="#121212" stroke-linecap="round" stroke-linejoin="round"/>
<path d="M35.9788 54.3933C36.4017 56.226 31.7817 57.5203 27.1745 57.5203C22.5673 57.5203 17.9858 56.3413 18.2101 54.4766C18.4151 52.753 20.126 50.8242 27.0784 50.8242C34.3897 50.8242 35.684 53.1182 35.9788 54.3933Z" fill="white" stroke="#121212" stroke-linecap="round" stroke-linejoin="round"/>
<path d="M14.6089 53.3365C14.6089 53.3365 18.8829 51.9075 20.2285 51.8242" stroke="#121212" stroke-linecap="round" stroke-linejoin="round"/>
<path d="M38.8496 53.2283C38.8496 53.2283 35.351 52.03 34.0054 51.9531" stroke="#121212" stroke-linecap="round" stroke-linejoin="round"/>
<path d="M22.7593 44.9727C22.6696 47.4332 22.785 50.4769 21.9712 53.1618H31.9801C31.2048 50.5987 31.2753 47.4973 31.1599 44.9727H22.7593Z" fill="white"/>
<path d="M22.7145 46.0273C22.5735 48.4367 22.6504 50.2885 21.9712 52.6017" stroke="#121212" stroke-linecap="round" stroke-linejoin="round"/>
<path d="M31.9738 52.6056C31.3395 50.4398 31.3651 48.2932 31.1985 46.0312" stroke="#121212" stroke-linecap="round" stroke-linejoin="round"/>
<path d="M41.592 99.0821L41.419 93.9816C41.419 93.9816 40.2977 81.4544 40.2336 80.852C39.7338 76.1231 38.3817 70.2728 38.3817 70.2728L38.3433 63.7305C38.3433 63.7305 30.7757 64.4033 26.9246 64.3841C23.0736 64.3648 15.6021 63.7305 15.6021 63.7305L15.3971 70.087C15.3971 70.087 14.0322 75.5272 13.667 80.4419C13.6349 80.8648 11.7703 94.0648 11.7703 94.0648V99.0821H41.6048H41.592Z" fill="#8AC650" stroke="#121212" stroke-linecap="round" stroke-linejoin="round"/>
<path d="M12.6418 91.5606C12.6418 91.5606 29.3085 94.1877 40.6438 91.1953" stroke="#121212" stroke-linecap="round" stroke-linejoin="round"/>
<path d="M14.2628 94.3125C14.2628 94.3125 14.0129 97.3498 12.2188 98.6954" stroke="#121212" stroke-linecap="round" stroke-linejoin="round"/>
<path d="M39.5733 94.3125C39.5733 94.3125 39.4708 97.3498 41.265 98.6954" stroke="#121212" stroke-linecap="round" stroke-linejoin="round"/>
<path d="M16.4094 95.4366C16.4094 95.4366 28.142 97.1282 37.1129 95.3789" stroke="#121212" stroke-linecap="round" stroke-linejoin="round"/>
<path d="M41.9253 98.7824L41.6498 94.2585C41.6498 94.2585 40.2913 81.4622 40.2272 80.8598C39.7274 76.1309 38.3754 70.2806 38.3754 70.2806L38.3369 63.7383C38.3369 63.7383 30.0068 64.2253 27.008 64.2381C24.0092 64.2509 15.5894 63.7383 15.5894 63.7383L15.3843 70.0948C15.3843 70.0948 14.0195 75.535 13.6542 80.4497C13.6222 80.8727 12.1484 94.0727 12.1484 94.0727L11.7639 98.7631" stroke="#121212" stroke-linecap="round" stroke-linejoin="round"/>
<path d="M35.7929 60.6686L35.6968 63.7379H38.2535L38.3368 60.5469L35.7929 60.6686Z" stroke="#121212" stroke-linecap="round" stroke-linejoin="round"/>
<path d="M36.9719 66.3701C37.662 66.3701 38.2214 65.8107 38.2214 65.1206C38.2214 64.4305 37.662 63.8711 36.9719 63.8711C36.2818 63.8711 35.7224 64.4305 35.7224 65.1206C35.7224 65.8107 36.2818 66.3701 36.9719 66.3701Z" fill="#D0D0D0" stroke="#121212" stroke-linecap="round" stroke-linejoin="round"/>
<path d="M40.9959 53.0043C40.9959 53.0043 38.7147 58.5406 38.7147 61.3536H35.4724C35.4724 61.3536 36.1068 54.414 37.6382 51.9086C37.6382 51.9086 37.9138 51.601 39.3171 51.9727C40.714 52.3379 40.9959 53.0107 40.9959 53.0107V53.0043Z" fill="#8AC650" stroke="#121212" stroke-linecap="round" stroke-linejoin="round"/>
<path d="M38.5099 59.3144C38.5099 59.3144 37.1066 58.8531 35.7866 59.3144" stroke="#121212" stroke-linecap="round" stroke-linejoin="round"/>
<path d="M18.2868 60.6686L18.3829 63.7379H15.8326L15.7429 60.5469L18.2868 60.6686Z" stroke="#121212" stroke-linecap="round" stroke-linejoin="round"/>
<path d="M17.1143 66.3701C17.8043 66.3701 18.3638 65.8107 18.3638 65.1206C18.3638 64.4305 17.8043 63.8711 17.1143 63.8711C16.4242 63.8711 15.8647 64.4305 15.8647 65.1206C15.8647 65.8107 16.4242 66.3701 17.1143 66.3701Z" fill="#D0D0D0" stroke="#121212" stroke-linecap="round" stroke-linejoin="round"/>
<path d="M13.0903 53.0043C13.0903 53.0043 15.3715 58.5406 15.3715 61.3536H18.6138C18.6138 61.3536 17.9795 54.414 16.448 51.9086C16.448 51.9086 16.1725 51.601 14.7692 51.9727C13.3723 52.3379 13.0903 53.0107 13.0903 53.0107V53.0043Z" fill="#8AC650" stroke="#121212" stroke-linecap="round" stroke-linejoin="round"/>
<path d="M15.5701 59.3144C15.5701 59.3144 16.9734 58.8531 18.2934 59.3144" stroke="#121212" stroke-linecap="round" stroke-linejoin="round"/>
<path d="M18.9791 78.4776C18.428 76.8244 18.6908 68.9108 18.6908 68.9108C18.6908 68.9108 28.9624 69.7695 34.7102 68.7891C34.7102 68.7891 34.8768 77.8048 33.9605 79.0928C33.9605 79.0928 25.5022 79.7463 20.2414 79.0095" stroke="#121212" stroke-linecap="round" stroke-linejoin="round"/>
<path d="M14.5897 40.7383C14.5897 40.7383 13.2249 41.7507 14.3847 44.3523" stroke="#121212" stroke-linecap="round" stroke-linejoin="round"/>
<path d="M39.8618 40.7383C39.8618 40.7383 41.31 41.7507 40.1438 44.3523" stroke="#121212" stroke-linecap="round" stroke-linejoin="round"/>
<path d="M9.98258 38.5717C10.9181 40.5325 13.0135 41.4873 14.6667 40.6991C16.3199 39.911 16.8966 37.6811 15.961 35.7203C15.0255 33.7595 12.9302 32.8048 11.277 33.5929C9.62375 34.3811 9.04705 36.611 9.98258 38.5717Z" fill="white" stroke="#121212" stroke-linecap="round" stroke-linejoin="round"/>
<path d="M44.6358 38.5717C43.7003 40.5325 41.605 41.4873 39.9518 40.6991C38.2986 39.911 37.7219 37.6811 38.6574 35.7203C39.5929 33.7595 41.6883 32.8048 43.3415 33.5929C44.9947 34.3811 45.5714 36.611 44.6358 38.5717Z" fill="white" stroke="#121212" stroke-linecap="round" stroke-linejoin="round"/>
<path d="M41.1243 33.6691C41.1243 45.6837 32.634 49.304 27.2387 49.304C22.2022 49.304 13.4043 45.2864 13.3659 33.3487C13.3338 24.7238 19.3315 17.7266 27.2387 17.7266C35.1459 17.7266 41.1243 25.0442 41.1243 33.6691Z" fill="white"/>
<path d="M40.5218 36.875C40.5218 36.875 39.4966 48.9921 28.0715 48.9921" stroke="#121212" stroke-linecap="round" stroke-linejoin="round"/>
<path d="M14.2883 37.1172C14.2883 37.1172 15.4417 48.9908 26.3285 48.9908" stroke="#121212" stroke-linecap="round" stroke-linejoin="round"/>
<path d="M31.9229 36.1888C31.9229 37.1308 32.5893 37.8933 33.4159 37.8933C34.2425 37.8933 34.9089 37.1308 34.9089 36.1888C34.9089 35.2469 34.2425 34.4844 33.4159 34.4844C32.5893 34.4844 31.9229 35.2469 31.9229 36.1888Z" fill="#121212"/>
<path d="M19.7734 36.1888C19.7734 37.1308 20.4398 37.8933 21.2664 37.8933C22.0931 37.8933 22.7595 37.1308 22.7595 36.1888C22.7595 35.2469 22.0931 34.4844 21.2664 34.4844C20.4398 34.4844 19.7734 35.2469 19.7734 36.1888Z" fill="#121212"/>
<path d="M18.6138 32.6222C18.6138 32.6222 21.0423 29.9758 23.3876 31.9109" stroke="#121212" stroke-linecap="round" stroke-linejoin="round"/>
<path d="M36.1005 32.6222C36.1005 32.6222 33.6719 29.9758 31.3267 31.9109" stroke="#121212" stroke-linecap="round" stroke-linejoin="round"/>
<path d="M27.3091 40.3672V40.585" stroke="#121212" stroke-linecap="round" stroke-linejoin="round"/>
<path d="M24.7588 43.1222C24.7588 44.4166 26.2069 45.7558 27.3988 45.7558C28.5906 45.7558 30.0388 44.4102 30.0388 43.1222C30.0388 42.8915 24.7588 42.8915 24.7588 43.1222Z" fill="white" stroke="#121212" stroke-linecap="round" stroke-linejoin="round"/>
<path d="M39.8236 22.4546C39.8236 22.4546 41.0283 15.5022 36.1199 12.3047C36.1199 12.3047 34.0951 18.533 38.2025 21.6472L39.8236 22.4546Z" fill="#FAB1BD" stroke="#121212" stroke-linecap="round" stroke-linejoin="round"/>
<path d="M40.4771 22.1639C40.4771 22.1639 41.7586 21.0297 43.5976 21.7986" stroke="#121212" stroke-linecap="round" stroke-linejoin="round"/>
<path d="M16.8386 18.3867C24.6625 11.2933 34.9982 15.8813 34.9982 15.8813C44.9303 21.597 41.2394 33.5027 41.2394 33.5027C40.8101 31.1766 39.8361 26.6912 39.8361 26.6912L38.3046 26.0184V23.9679L36.3054 23.09L36.0171 21.1741L32.858 21.1869L32.9798 19.8093L30.9037 19.9951C30.9037 19.9951 27.059 25.179 21.7149 28.6712C16.1914 32.2852 13.1605 33.5475 13.1605 33.5475C12.0007 28.7801 13.4361 21.4561 16.8322 18.3867H16.8386Z" fill="#877F78"/>
<path d="M33.1721 18.5945C33.1721 18.5945 37.5614 17.4155 40.0092 20.959C40.0092 20.959 39.9003 21.7087 38.4329 22.5673" stroke="#121212" stroke-linecap="round" stroke-linejoin="round"/>
<path d="M30.8462 20.0547C30.8462 20.0547 22.2918 30.4481 14.5063 32.4025" stroke="#121212" stroke-linecap="round" stroke-linejoin="round"/>
<path d="M28.2061 14.5352C45.2635 14.5352 41.7713 33.3227 41.7713 33.3227" stroke="#121212" stroke-linecap="round" stroke-linejoin="round"/>
<path d="M13.1477 33.4903C13.1477 33.4903 10.0015 15.5677 26.085 14.5938" stroke="#121212" stroke-linecap="round" stroke-linejoin="round"/>
<path d="M19.3824 22.7344C19.3824 22.7344 15.2238 23.9583 14.7112 30.3724" stroke="#121212" stroke-linecap="round" stroke-linejoin="round"/>
<path d="M31.0129 19.9603L33.0506 19.9219L32.8904 21.1009H35.8252L36.1904 23.0553L38.5933 23.9139L38.4716 26.1951L39.9774 26.5219L40.0607 29.1683C40.0607 29.1683 40.7912 31.6161 40.8361 33.7755" stroke="#121212" stroke-linecap="round" stroke-linejoin="round"/>
<path d="M10.7642 58.059C11.9881 56.6173 12.0394 54.099 11.6165 52.0742C11.3025 50.5683 10.5912 49.7353 9.69415 49.338C9.64929 48.5883 8.5856 40.6043 7.07337 40.8862C5.68288 41.1425 6.87473 48.2295 7.11822 49.0881C7.03492 48.7421 6.93881 48.4538 6.77861 48.0821C6.13143 46.5314 3.24793 47.2619 4.40774 49.6584C4.47181 49.793 4.40774 49.9532 4.44618 50.0942C3.81822 49.7417 3.1454 49.6841 2.69045 50.0429C2.26754 50.3825 2.17783 50.9977 2.34443 51.6448C1.99841 51.5936 1.66521 51.632 1.41531 51.8371C0.80016 52.3369 0.877054 53.4518 1.58832 54.3297C1.76133 54.5412 1.78055 55.6689 2.3957 56.7326C2.81861 57.4631 4.2988 58.8215 4.97803 59.2509L8.14346 59.8212L10.7642 58.0398V58.059Z" fill="white"/>
<path d="M10.7002 57.8027C11.924 56.3609 12.0458 54.163 11.6229 52.1318C11.3089 50.626 10.5976 49.7929 9.70055 49.3957C9.6557 48.6459 8.36774 40.4953 7.07337 40.8221C5.70851 41.1681 6.87473 48.2871 7.11822 49.1458C7.03492 48.7997 6.93881 48.5114 6.77861 48.1397C6.13143 46.5891 3.24793 47.3195 4.40774 49.716C4.47181 49.8506 4.40774 50.0108 4.44618 50.1518C3.81822 49.7993 3.1454 49.7417 2.69045 50.1005C2.26754 50.4401 2.17783 51.0617 2.34443 51.7025C1.99841 51.6512 1.66521 51.6896 1.41531 51.8947C0.80016 52.3945 0.877054 53.5094 1.58832 54.3873C1.76133 54.5988 1.78055 55.7265 2.3957 56.7902C2.81861 57.5207 4.1322 58.5267 4.81143 58.9625" stroke="#121212" stroke-linecap="round" stroke-linejoin="round"/>
<path d="M2.04346 54.8351C3.35064 56.2 4.79239 55.2068 4.48482 54.2584C4.24773 53.5215 3.76715 52.9128 3.20326 52.4258" stroke="#121212" stroke-miterlimit="10" stroke-linecap="round"/>
<path d="M4.6001 54.3178C5.08709 54.7983 6.15078 54.4523 6.50961 53.991C6.73388 53.6962 6.68903 53.2733 6.53524 52.9081C6.23408 52.2032 5.43311 51.0498 4.84359 50.582" stroke="#121212" stroke-miterlimit="10" stroke-linecap="round"/>
<path d="M11.7254 52.6735C11.6741 50.8601 9.84149 48.4764 7.77819 49.13C6.61198 49.5017 4.88188 49.2838 4.95878 49.9566C5.12538 51.3471 7.04771 51.3343 7.9512 51.251C8.1947 51.2253 8.38693 52.1673 8.35489 52.6799C8.35489 52.6799 7.47062 53.5001 7.36169 55.9479" stroke="#121212" stroke-miterlimit="10" stroke-linecap="round"/>
<path d="M7.95757 51.2514C8.13698 51.1168 8.30999 51.1232 8.43815 51.1745C8.57912 51.2193 8.66883 51.3282 8.71368 51.45C8.79058 51.6935 8.71368 51.9754 8.29718 52.0972L7.91271 51.8985C7.82941 51.8537 7.79096 51.8345 7.77815 51.8024C7.76533 51.7704 7.77815 51.7383 7.823 51.655C7.85504 51.5781 7.91271 51.4756 7.95116 51.2578H7.95757V51.2514Z" fill="#121212"/>
<path d="M8.09216 52.0156C8.09216 52.0156 7.81022 52.7397 6.77856 52.7653" stroke="#121212" stroke-miterlimit="10" stroke-linecap="round"/>
<path d="M10.9117 59.2303L10.0915 58L5.50999 58.5447L5.20242 60.5503C5.20242 60.5503 3.86319 73.872 5.49717 77.4924C6.47115 79.6583 7.18242 80.5746 10.6682 80.0363C16.9158 79.0687 10.9117 59.2303 10.9117 59.2303Z" fill="white"/>
<path d="M5.06772 58.7709L5.03568 62.4811C5.03568 62.4811 3.86947 73.8612 5.49704 77.488C6.47102 79.6539 7.86151 80.8009 11.264 79.9486C16.4415 78.6543 11.3217 61.7954 11.3217 61.7954L10.6361 58.0469" stroke="#121212" stroke-linecap="round" stroke-linejoin="round"/>
<path d="M106.343 68.7031C106.791 72.6311 107.49 76.4053 107.49 76.5591C107.778 77.6676 108.758 83.9536 108.694 87.1319C108.656 88.9197 108.842 98.4032 108.842 98.4032L103.639 98.4352C103.376 96.5065 101.883 88.9837 101.402 86.5808C100.896 84.0305 101.184 80.2884 100.902 76.873C100.62 73.4577 100.242 70.2218 99.9604 67.9727L106.343 68.7096V68.7031Z" fill="white"/>
<path d="M103.786 97.9454C103.523 96.0166 102.145 88.9681 101.665 86.5652C101.159 84.0149 101.447 80.2728 101.165 76.8574C100.883 73.4421 100.505 70.2062 100.223 67.957L106.605 68.6939C107.054 72.6219 107.752 76.3961 107.752 76.5498C108.041 77.6584 109.021 83.9444 108.957 87.1227C108.918 88.9104 109.047 97.9518 109.047 97.9518" stroke="#121212" stroke-linecap="round" stroke-linejoin="round"/>
<path d="M101.05 51.625C101.05 51.625 106.259 53.2782 107.579 61.5634C107.579 61.5634 110.424 69.8102 111.187 71.0662C111.187 71.0662 106.099 75.5068 99.6208 74.4238L101.05 51.625Z" fill="#FFCC00"/>
<path d="M102.178 52.1445C102.178 52.1445 105.945 53.7977 107.579 61.564C107.579 61.564 110.424 69.8108 111.187 71.0667C111.187 71.0667 106.099 75.5073 99.6208 74.4243" stroke="#121212" stroke-linecap="round" stroke-linejoin="round"/>
<path d="M68.4983 51.625C68.4983 51.625 63.5387 53.3102 62.2187 61.5955C62.2187 61.5955 59.3736 69.8423 58.6111 71.0982C58.6111 71.0982 63.6989 75.5388 70.1771 74.4559L68.4983 51.625Z" fill="#FFCC00"/>
<path d="M67.3961 52.0234C67.3961 52.0234 63.5387 53.3114 62.2187 61.5902C62.2187 61.5902 59.3736 69.837 58.6111 71.093C58.6111 71.093 63.6989 75.5335 70.1771 74.4506" stroke="#121212" stroke-linecap="round" stroke-linejoin="round"/>
<path d="M93.2386 50.3012H75.6941L75.8735 44.2971C75.8735 44.2971 78.3085 41.4648 84.4663 41.4648C90.6242 41.4648 93.2386 44.2074 93.2386 44.2074V50.3012Z" fill="#FFCC00" stroke="#121212" stroke-linecap="round" stroke-linejoin="round"/>
<path d="M70.3114 98.4701H98.3389L97.4098 81.9701L99.0566 52.3662C99.0566 52.3662 96.91 50.7451 94.6737 49.7647C92.3413 48.7394 89.9063 48.355 89.5731 48.2845C88.4069 48.0346 80.4805 47.8103 79.3143 48.1627C79.0323 48.2524 76.7512 48.8163 74.7071 49.707C72.0799 50.854 69.6001 52.3726 69.6001 52.3726L71.2469 81.8868L70.3178 98.4765H70.3114V98.4701Z" fill="white"/>
<path d="M78.6802 54.5521C78.6802 54.5521 84.2421 56.6923 91.0279 54.3086" stroke="#121212" stroke-linecap="round" stroke-linejoin="round"/>
<path d="M72.926 61.1198C72.926 61.1198 84.0115 64.0545 96.7309 60.793" stroke="#4C6F9C" stroke-miterlimit="10" stroke-linecap="round"/>
<path d="M72.926 70.2526C72.926 70.2526 83.8513 72.3735 96.7309 69.9258" stroke="#4C6F9C" stroke-miterlimit="10" stroke-linecap="round"/>
<path d="M72.926 79.0143C72.926 79.0143 84.4216 81.3788 96.7309 78.6875" stroke="#4C6F9C" stroke-miterlimit="10" stroke-linecap="round"/>
<path d="M72.926 87.4205C72.926 87.4205 84.3383 89.8683 96.7309 87.0938" stroke="#4C6F9C" stroke-miterlimit="10" stroke-linecap="round"/>
<path d="M94.1357 49.9505C94.1357 51.8344 89.0672 53.2377 84.46 53.2377C79.8528 53.2377 75.2456 51.8152 75.2456 49.9313C75.2456 48.0474 77.4114 46.5352 84.3639 46.5352C91.6751 46.5352 94.1357 48.0602 94.1357 49.9441V49.9505Z" fill="white" stroke="#121212" stroke-linecap="round" stroke-linejoin="round"/>
<path d="M80.5061 41.1094C80.4164 43.57 80.4741 46.6136 79.6475 49.2985H89.7397C88.9579 46.7354 89.0925 43.634 88.9708 41.1094H80.4997H80.5061Z" fill="white"/>
<path d="M80.3715 42.1758C80.2242 44.5851 80.3331 46.4369 79.6475 48.7437" stroke="#121212" stroke-linecap="round" stroke-linejoin="round"/>
<path d="M89.7462 48.7477C89.1054 46.5818 89.0157 44.4352 88.8491 42.1797" stroke="#121212" stroke-linecap="round" stroke-linejoin="round"/>
<path d="M68.3316 81.7808C68.2162 88.855 67.5818 94.8527 67.1077 98.4731H77.1679C77.2576 86.3304 78.4302 68.19 77.3537 60.3404C76.809 56.374 77.2768 47.9414 77.2768 47.9414C71.4649 48.8321 68.5558 51.7861 68.5558 51.7861C66.8193 53.7661 68.5558 68.2348 68.3251 81.7808H68.3316Z" fill="#FFCC00"/>
<path d="M102.511 98.4731C102.126 94.9168 101.62 89.0472 101.504 82.0436C101.28 68.4719 103.472 53.9134 101.729 51.927C101.729 51.927 98.2686 48.8257 92.4567 47.9414C92.4567 47.9414 92.7066 56.3676 92.162 60.3404C91.0854 68.19 92.2581 86.3368 92.3478 98.4731H102.511Z" fill="#FFCC00"/>
<path d="M102.389 97.9813C101.453 88.0557 101.46 76.6114 101.787 66.6602" stroke="#121212" stroke-linecap="round" stroke-linejoin="round"/>
<path d="M101.748 51.4671C98.98 49.596 95.7505 48.4554 92.4569 47.9492C92.2903 64.4877 92.1045 82.0193 92.3928 98.0516" stroke="#121212" stroke-linecap="round" stroke-linejoin="round"/>
<path d="M67.2551 98.0621C68.1907 88.1749 68.2419 76.5961 67.9792 66.6641" stroke="#121212" stroke-linecap="round" stroke-linejoin="round"/>
<path d="M68.3765 51.2925C70.946 49.4855 74.0281 48.4731 77.1231 48.0117C77.4178 64.9346 77.4947 81.9793 77.2064 97.9923" stroke="#121212" stroke-linecap="round" stroke-linejoin="round"/>
<path d="M93.0591 43.5855C90.5344 41.7785 88.894 41.9836 88.894 41.9836C88.894 42.4642 92.8284 42.1053 92.4568 47.3789C92.4119 48.0646 92.5977 52.7038 92.5977 52.7038C92.9117 52.1207 93.8793 49.0834 93.8793 49.0834C93.8793 49.0834 95.2634 50.6661 95.8401 52.6269C96.468 54.7671 97.6599 56.3049 97.6599 56.3049C96.0707 48.2248 94.5905 44.6877 93.0527 43.5855H93.0591Z" fill="#FFCC00" stroke="#121212" stroke-linecap="round" stroke-linejoin="round"/>
<path d="M76.5144 43.5855C79.0391 41.7785 80.4552 41.9836 80.4552 41.9836C80.4552 42.4642 76.7451 42.1053 77.1103 47.3789C77.1552 48.0646 76.9694 52.7038 76.9694 52.7038C76.6554 52.1207 75.6878 49.0834 75.6878 49.0834C75.6878 49.0834 74.3037 50.6661 73.727 52.6269C73.0991 54.7671 71.9072 56.3049 71.9072 56.3049C73.4964 48.2248 74.9765 44.6877 76.5144 43.5855Z" fill="#FFCC00" stroke="#121212" stroke-linecap="round" stroke-linejoin="round"/>
<path d="M100.133 69.7859L98.5825 70.2537C97.7495 70.5036 96.8589 70.5292 96.013 70.3178L94.2381 69.882L94.1292 63.25C94.1292 63.25 96.5128 63.7626 98.0763 63.7626C99.6398 63.7626 100.479 63.3013 100.479 63.3013L100.133 69.7859Z" fill="#FFCC00" stroke="#121212" stroke-linecap="round" stroke-linejoin="round"/>
<path d="M98.717 62.4847C98.8516 62.4847 100.178 62.4463 100.357 63.2088" stroke="#121212" stroke-linecap="round" stroke-linejoin="round"/>
<path d="M94.1292 63.1833C94.1292 63.1833 94.6482 62.613 95.2057 62.5938" stroke="#121212" stroke-linecap="round" stroke-linejoin="round"/>
<path d="M101.947 34.3758C101.056 36.2404 99.0631 37.1439 97.4996 36.4006C95.9297 35.6509 95.3787 33.5364 96.2693 31.6717C97.16 29.807 99.1528 28.9035 100.716 29.6468C102.286 30.3965 102.837 32.5111 101.947 34.3758Z" fill="white" stroke="#121212" stroke-linecap="round" stroke-linejoin="round"/>
<path d="M67.9087 34.3758C68.7994 36.2404 70.7922 37.1439 72.3557 36.4006C73.9256 35.6509 74.4767 33.5364 73.586 31.6717C72.6953 29.807 70.7025 28.9035 69.139 29.6468C67.5691 30.3965 67.0181 32.5111 67.9087 34.3758Z" fill="white" stroke="#121212" stroke-linecap="round" stroke-linejoin="round"/>
<path d="M71.1765 29.1387C71.1765 42.076 79.5451 45.0556 84.8187 45.0556C89.7462 45.0556 98.8837 41.7748 98.8837 29.1387C98.8837 20.9431 92.6105 14.3047 84.8763 14.3047C77.1422 14.3047 71.1765 20.9495 71.1765 29.1387Z" fill="white"/>
<path d="M80.5322 31.8452C80.5322 32.7359 79.8978 33.46 79.1161 33.46C78.3343 33.46 77.7 32.7359 77.7 31.8452C77.7 30.9545 78.3343 30.2305 79.1161 30.2305C79.8978 30.2305 80.5322 30.9545 80.5322 31.8452Z" fill="#121212"/>
<path d="M92.0661 31.8452C92.0661 32.7359 91.4317 33.46 90.65 33.46C89.8683 33.46 89.2339 32.7359 89.2339 31.8452C89.2339 30.9545 89.8683 30.2305 90.65 30.2305C91.4317 30.2305 92.0661 30.9545 92.0661 31.8452Z" fill="#121212"/>
<path d="M76.7898 27.9658C76.7898 27.9658 78.5583 26.2229 81.0958 27.9274" stroke="#121212" stroke-linecap="round" stroke-linejoin="round"/>
<path d="M92.5914 27.9658C92.5914 27.9658 90.8229 26.2229 88.2854 27.9274" stroke="#121212" stroke-linecap="round" stroke-linejoin="round"/>
<path d="M84.8767 35.8164V36.0215" stroke="#121212" stroke-linecap="round" stroke-linejoin="round"/>
<path d="M71.7917 33.7344C71.7917 33.7344 73.0989 44.3649 84.069 44.948" stroke="#121212" stroke-linecap="round" stroke-linejoin="round"/>
<path d="M98.1597 33.2852C98.1597 33.2852 96.6091 44.3642 85.6326 44.9473" stroke="#121212" stroke-linecap="round" stroke-linejoin="round"/>
<path d="M82.1724 38.1492C81.852 38.1043 81.5829 38.3927 81.647 38.7066C81.9417 40.142 83.2105 41.2185 84.7291 41.2185C86.2477 41.2185 87.5165 40.142 87.8112 38.7066C87.8753 38.3927 87.6062 38.1043 87.2922 38.1492C86.5617 38.2453 85.2994 38.2581 84.7804 38.2645C84.2485 38.2709 82.9541 38.2517 82.1724 38.1492Z" fill="white" stroke="#121212" stroke-linecap="round" stroke-linejoin="round"/>
<path d="M80.7244 22.6868L79.808 18.3487L75.6494 23.7312L75.0407 20.7324L72.5352 26.2367L71.5548 31.0681C71.5548 31.0681 70.4527 29.6008 69.7799 24.34L68.1908 25.0705C68.1908 25.0705 67.9152 23.8017 70.2092 20.0596C70.4911 19.5982 67.2552 20.6427 67.6397 20.1237C68.0113 19.6174 71.0679 15.2345 71.5548 14.6835C71.5548 14.6835 74.9766 9.67259 84.0244 9.54444L83.108 7.81434C83.108 7.81434 85.7096 7.30172 87.3564 9.26249L88.8238 8.22444L90.3552 8.03861L89.9131 10.1788C89.9131 10.1788 96.763 10.5889 99.8195 17.6759C99.8195 17.6759 101.94 21.591 100.044 27.9475L98.3906 30.9464L97.3525 25.7497L95.5391 20.8606L93.8667 24.2246L90.4449 17.9899L88.8558 22.6355L85.0945 17.7656C85.0945 17.7656 82.1917 20.9439 80.7244 22.6996V22.6868Z" fill="#6C6B63" stroke="#121212" stroke-linecap="round" stroke-linejoin="round"/>
<path d="M66.2747 56.0979L66.0056 53.8359L60.5718 55.6557V57.6037C60.5718 57.6037 59.2326 72.7837 60.8666 76.9167C61.8405 79.3837 62.5518 80.4282 66.0376 79.813C72.2852 78.7109 66.2811 56.0979 66.2811 56.0979H66.2747Z" fill="white"/>
<path d="M60.4948 56.4865L60.3987 59.8057C60.3987 59.8057 59.2325 72.7815 60.8601 76.9081C61.8341 79.3751 63.2245 80.6886 66.6271 79.7147C71.8046 78.2345 66.6847 59.024 66.6847 59.024L65.9991 54.75" stroke="#121212" stroke-linecap="round" stroke-linejoin="round"/>
<path d="M66.2619 55.5856C67.4281 54.1823 67.5755 51.4141 67.1398 49.4662C66.8194 48.018 66.1273 47.2235 65.2623 46.8518C65.211 46.1277 63.9038 38.4704 62.6479 38.7332C61.3151 39.0087 62.5326 45.8202 62.7761 46.6404C62.6928 46.3072 62.5967 46.0316 62.4429 45.6728C61.8021 44.1862 59.2646 44.8205 60.1745 47.2235C60.2258 47.358 60.1745 47.5118 60.213 47.6464C59.6042 47.3132 58.9506 47.2619 58.5213 47.6207C58.1176 47.9539 58.0407 48.5499 58.2009 49.1714C57.8677 49.1266 57.5473 49.1714 57.3038 49.3637C56.7143 49.8507 56.804 50.9272 57.4961 51.7666C57.6627 51.9716 57.6947 53.0545 58.297 54.0734C58.7136 54.7718 59.4376 56.3353 60.0976 56.7454L63.9679 56.4891L66.2619 55.592V55.5856Z" fill="white"/>
<path d="M65.9033 56.0964C67.0695 54.6931 67.5821 51.4572 67.1464 49.5092C66.826 48.0611 66.1339 47.2665 65.2689 46.8948C65.2176 46.1708 63.8912 38.3277 62.6481 38.6545C61.3345 39.0005 62.5392 45.8568 62.7827 46.677C62.6994 46.3438 62.6033 46.0682 62.4495 45.7094C61.8087 44.2228 59.3225 44.8892 60.1811 47.2601C60.2324 47.4011 60.1811 47.5484 60.2196 47.683C59.6108 47.3498 58.9572 47.2985 58.5279 47.6574C58.1242 47.9906 58.0473 48.5865 58.2075 49.2081C57.8743 49.1632 57.5539 49.2081 57.3104 49.4003C56.7209 49.8873 56.8106 50.9638 57.5027 51.8032C57.6693 52.0083 57.7013 53.0912 58.3036 54.11C58.7201 54.8084 59.2712 56.2117 60.6168 57.0191" stroke="#121212" stroke-linecap="round" stroke-linejoin="round"/>
<path d="M57.9382 52.2191C59.2134 53.5199 60.5911 52.5523 60.2835 51.6424C60.0464 50.9312 59.5786 50.3545 59.0276 49.8867" stroke="#121212" stroke-miterlimit="10" stroke-linecap="round"/>
<path d="M60.3987 51.6949C60.8793 52.1563 61.8981 51.8103 62.2313 51.3617C62.4492 51.0734 62.3979 50.6633 62.2441 50.3172C61.943 49.638 61.1612 48.5359 60.5845 48.0938" stroke="#121212" stroke-miterlimit="10" stroke-linecap="round"/>
<path d="M67.2551 50.0438C67.191 48.2945 65.3968 46.0198 63.4168 46.6734C62.2955 47.045 60.6231 46.8528 60.7064 47.5C60.8794 48.8392 62.7312 48.8071 63.6027 48.7174C63.8398 48.6918 64.032 49.5953 64.0064 50.0951C64.0064 50.0951 63.167 50.8961 63.0837 53.2605" stroke="#121212" stroke-miterlimit="10" stroke-linecap="round"/>
<path d="M63.6028 48.7041C63.7758 48.5632 63.9488 48.5696 64.077 48.6144C64.2115 48.6593 64.3077 48.7618 64.3525 48.8772C64.4294 49.1142 64.3525 49.3962 63.936 49.5115L63.5451 49.3257C63.4618 49.2873 63.4234 49.268 63.417 49.236C63.4042 49.2104 63.417 49.1783 63.4682 49.1014C63.5003 49.0245 63.558 48.922 63.6028 48.7041Z" fill="#121212"/>
<path d="M63.7435 49.4375C63.7435 49.4375 63.4808 50.1359 62.4812 50.1744" stroke="#121212" stroke-miterlimit="10" stroke-linecap="round"/>
<path d="M100.127 24.6799L98.9606 24.6671C99.736 41.8912 87.8175 44.7106 84.6265 45.1848C81.4354 44.7106 69.5938 41.9361 70.3756 24.7184L69.0492 24.5582C69.1068 23.6611 67.9086 45.4539 84.5239 45.4539L84.6265 45.4347L84.729 45.4539C101.408 45.4539 100.12 24.6799 100.12 24.6799H100.127Z" fill="#E3E4E4" stroke="#121212" stroke-linecap="round" stroke-linejoin="round"/>
<path d="M42.3993 28.6331L41.2331 28.6203C42.0084 45.8443 30.09 48.6638 26.8989 49.1379C23.7078 48.6638 11.8663 45.8892 12.648 28.6715L11.3216 28.5113C11.3793 27.6142 10.181 49.4071 26.7964 49.4071L26.8989 49.3878L27.0014 49.4071C43.6809 49.4071 42.3929 28.6331 42.3929 28.6331H42.3993Z" fill="#E3E4E4" stroke="#121212" stroke-linecap="round" stroke-linejoin="round"/>
<path d="M44.61 25.4772C44.61 15.4939 40.2783 10.1306 33.7424 7.40089C32.2879 5.10691 29.571 4.95312 26.9694 4.95312C24.3678 4.95312 21.51 5.0941 20.0746 7.58672C13.8976 10.5215 9.45697 14.1931 9.45697 25.4516C7.63075 25.7656 7.92551 27.4892 7.92551 27.8865C7.92551 29.0527 15.5379 29.8793 26.7964 29.8793C38.0548 29.8793 45.9108 29.0527 45.9108 27.8865C45.9108 27.47 46.59 25.804 44.6036 25.4772H44.61Z" fill="white" stroke="#121212" stroke-linecap="round" stroke-linejoin="round"/>
<path d="M20.1963 7.58594C20.1963 7.58594 17.8831 16.6017 18.8955 24.5345" stroke="#121212" stroke-linecap="round" stroke-linejoin="round"/>
<path d="M33.7424 7.58594C33.7424 7.58594 36.0556 16.6017 35.0432 24.5345" stroke="#121212" stroke-linecap="round" stroke-linejoin="round"/>
<path d="M102.338 21.5241C102.338 11.5408 98.0059 6.17748 91.47 3.44777C90.0154 1.15379 87.2985 1 84.6969 1C82.0954 1 79.2375 1.14097 77.8022 3.63359C71.6251 6.56835 67.1845 10.24 67.1845 21.4985C65.3583 21.8124 65.6531 23.5361 65.6531 23.9334C65.6531 25.0996 73.2655 25.9262 84.5239 25.9262C95.7824 25.9262 103.638 25.0996 103.638 23.9334C103.638 23.5169 104.318 21.8509 102.331 21.5241H102.338Z" fill="white" stroke="#121212" stroke-linecap="round" stroke-linejoin="round"/>
<path d="M77.9238 3.64062C77.9238 3.64062 75.6106 12.6564 76.623 20.5892" stroke="#121212" stroke-linecap="round" stroke-linejoin="round"/>
<path d="M91.47 3.64062C91.47 3.64062 93.7832 12.6564 92.7707 20.5892" stroke="#121212" stroke-linecap="round" stroke-linejoin="round"/>
</svg>
