<svg width="15" height="18" viewBox="0 0 15 18" fill="none" xmlns="http://www.w3.org/2000/svg">
<path d="M10.4051 16.9999H4.67425C2.64817 16.9999 1 15.3516 1 13.3254V10.5007C1 8.47446 2.64817 6.82617 4.67425 6.82617H10.4051C12.431 6.82617 14.0791 8.47446 14.0791 10.5007V13.3256C14.0791 15.3516 12.4308 16.9999 10.4051 16.9999ZM4.67425 8.01527C3.30391 8.01527 2.18901 9.13024 2.18901 10.5007V13.3256C2.18901 14.696 3.30391 15.811 4.67425 15.811H10.4051C11.7754 15.811 12.8901 14.696 12.8901 13.3256V10.5007C12.8901 9.13024 11.7754 8.01527 10.4051 8.01527H4.67425Z" fill="#1464FF" stroke="#1464FF" stroke-width="0.9"/>
<path d="M11.9478 8.00575H10.7588V5.40837C10.7588 3.63325 9.3147 2.18909 7.5397 2.18909C5.7649 2.18909 4.32085 3.63325 4.32085 5.40837V8.00575H3.13184V5.40837C3.13184 2.97746 5.10936 1 7.5397 1C9.97044 1 11.9478 2.97766 11.9478 5.40837V8.00575Z" fill="#1464FF" stroke="#1464FF" stroke-width="0.9"/>
<path d="M7.44434 9.63867C8.31749 9.63879 9.02811 10.3486 9.02832 11.2217C9.02832 11.8456 8.66444 12.3845 8.13867 12.6426V13.6943H6.75V12.6426C6.22463 12.3845 5.86133 11.8455 5.86133 11.2217C5.86154 10.3487 6.57133 9.63881 7.44434 9.63867Z" fill="#1464FF"/>
</svg>
