<svg width="16" height="17" viewBox="0 0 16 17" fill="none" xmlns="http://www.w3.org/2000/svg">
<path d="M15.1466 0.5H0.639895C0.286551 0.5 0 0.786551 0 1.14008V12.7455C0 13.0988 0.286551 13.3854 0.639895 13.3854H5.22659V15.22H4.50824C4.15489 15.22 3.86834 15.5066 3.86834 15.8599C3.86834 16.2134 4.15489 16.5 4.50824 16.5H11.278C11.6314 16.5 11.9179 16.2134 11.9179 15.8599C11.9179 15.5066 11.6314 15.22 11.278 15.22H10.5599V13.3854H15.1466C15.4999 13.3854 15.7865 13.0988 15.7865 12.7455V1.13989C15.7866 0.786551 15.4999 0.5 15.1466 0.5ZM9.28007 15.22H6.50657V13.3854H9.28007V15.22ZM14.5067 10.0999H1.27979V1.77998H14.5067V10.0999Z" fill="#034EA1"/>
<path d="M8.95946 5.86547L9.8654 4.95934L6.0249 3.79395L7.1903 7.63444L8.09642 6.7285L9.65561 8.2877L10.5188 7.42466L8.95946 5.86547Z" fill="#034EA1"/>
</svg>
