<svg width="54" height="54" viewBox="0 0 54 54" fill="none" xmlns="http://www.w3.org/2000/svg">
<path d="M13.7357 23.9596C11.6329 20.3174 11.3939 16.1119 12.7209 12.4446C13.3908 10.5928 15.9339 10.3858 16.9185 12.0914L19.896 17.2488C20.8266 18.8609 22.888 19.4135 24.5001 18.4825L27.3455 16.8395C28.9579 15.9089 29.5098 13.8475 28.5792 12.2354L25.6017 7.07809C24.6052 5.35297 26.0949 3.27145 28.0547 3.62821C32.2332 4.38889 36.0298 7.07485 38.0213 11.3092C40.1453 15.8254 39.5524 21.0594 36.8146 24.9809L46.0875 41.0419C47.6416 43.734 46.9104 47.2447 44.2947 48.9241C41.5014 50.7166 37.8103 49.7978 36.1702 46.9564L26.8177 30.7567C21.673 31.2107 16.4886 28.727 13.7357 23.9596Z" fill="#B9D1FF" fill-opacity="0.5"/>
<path d="M41.2862 46.9533C42.7679 46.9533 43.969 45.7522 43.969 44.2706C43.969 42.789 42.7679 41.5879 41.2862 41.5879C39.8046 41.5879 38.6035 42.789 38.6035 44.2706C38.6035 45.7522 39.8046 46.9533 41.2862 46.9533Z" fill="#B9D1FF"/>
<path d="M12.7547 25.6006H26.5499L33.4475 37.5475L26.5499 49.4941H12.7547L5.85742 37.5475L12.7547 25.6006Z" fill="#B9D1FF"/>
<path d="M19.6525 42.7122C22.5046 42.7122 24.8167 40.4001 24.8167 37.548C24.8167 34.6959 22.5046 32.3838 19.6525 32.3838C16.8004 32.3838 14.4883 34.6959 14.4883 37.548C14.4883 40.4001 16.8004 42.7122 19.6525 42.7122Z" fill="white"/>
</svg>
