<svg width="46" height="50" viewBox="0 0 46 50" fill="none" xmlns="http://www.w3.org/2000/svg">
<path d="M44.1058 13.9263H32.7416C32.0147 13.9263 31.4255 13.3401 31.4255 12.6169V1.30969C31.4255 0.780375 31.7459 0.302321 32.2375 0.100068C32.7298 -0.1033 33.296 0.00924832 33.6723 0.383667L45.0365 11.6909C45.4128 12.0659 45.5254 12.6292 45.3215 13.1184C45.1177 13.6076 44.6383 13.9263 44.1058 13.9263ZM34.057 11.3081H40.9283L34.057 4.47108V11.3081Z" fill="#595656"/>
<path d="M44.1058 50H1.89414C1.16725 50 0.578125 49.4139 0.578125 48.6906V1.30935C0.578125 0.586146 1.16725 0 1.89414 0H32.7416C33.0904 0 33.4253 0.137621 33.6723 0.383334L45.0365 11.6906C45.2829 11.9363 45.4218 12.2695 45.4218 12.6166V48.6906C45.4212 49.4139 44.8321 50 44.1058 50ZM3.21016 47.3819H42.7898V13.1593L32.1961 2.61871H3.21016V47.3819Z" fill="#595656"/>
<path d="M15.1596 27.6666C14.8225 27.6666 14.4859 27.539 14.2289 27.2833L9.93586 23.012C9.42177 22.5005 9.42177 21.6714 9.93586 21.1599C10.4499 20.6496 11.2827 20.6496 11.7968 21.1599L15.159 24.5058L22.2549 17.4453C22.769 16.9349 23.6017 16.9349 24.1164 17.4453C24.6304 17.9568 24.6304 18.7858 24.1164 19.2973L16.0903 27.2833C15.8333 27.5384 15.4967 27.6666 15.1596 27.6666Z" fill="#034EA1"/>
<path d="M35.1329 22.2808H28.4128C27.6859 22.2808 27.0962 21.6947 27.0962 20.9715C27.0962 20.2483 27.6859 19.6621 28.4128 19.6621H35.1329C35.8597 19.6621 36.4494 20.2483 36.4494 20.9715C36.4494 21.6947 35.8597 22.2808 35.1329 22.2808Z" fill="#595656"/>
<path d="M35.1329 26.3668H23.9327C23.2058 26.3668 22.6167 25.7806 22.6167 25.0574C22.6167 24.3342 23.2058 23.748 23.9327 23.748H35.1329C35.8597 23.748 36.4494 24.3342 36.4494 25.0574C36.4494 25.7806 35.8597 26.3668 35.1329 26.3668Z" fill="#595656"/>
<path d="M15.1596 42.526C14.8225 42.526 14.4859 42.3984 14.2289 42.1426L9.93586 37.8714C9.42177 37.3599 9.42177 36.5308 9.93586 36.0193C10.4499 35.5089 11.2827 35.5089 11.7968 36.0193L15.159 39.3651L22.2549 32.3047C22.769 31.7943 23.6017 31.7943 24.1164 32.3047C24.6304 32.8161 24.6304 33.6452 24.1164 34.1567L16.0903 42.1426C15.8333 42.3978 15.4967 42.526 15.1596 42.526Z" fill="#034EA1"/>
<path d="M35.1329 37.1382H28.4128C27.6859 37.1382 27.0962 36.5521 27.0962 35.8289C27.0962 35.1057 27.6859 34.5195 28.4128 34.5195H35.1329C35.8597 34.5195 36.4494 35.1057 36.4494 35.8289C36.4494 36.5521 35.8597 37.1382 35.1329 37.1382Z" fill="#595656"/>
<path d="M35.1329 41.2242H23.9327C23.2058 41.2242 22.6167 40.638 22.6167 39.9148C22.6167 39.1916 23.2058 38.6055 23.9327 38.6055H35.1329C35.8597 38.6055 36.4494 39.1916 36.4494 39.9148C36.4494 40.638 35.8597 41.2242 35.1329 41.2242Z" fill="#595656"/>
</svg>
