<svg width="116" height="110" viewBox="0 0 116 110" fill="none" xmlns="http://www.w3.org/2000/svg">
<path d="M84.122 1.625H1.62207V100.592H84.122V1.625Z" fill="#E2ECF9"/>
<path d="M84.1224 102.212H1.62242L0 100.589V1.62241L1.62242 0H84.1224L85.7448 1.62241V100.589L84.1224 102.212ZM3.24484 98.9669H82.5V3.24482H3.24484V98.9669Z" fill="#1D76BC"/>
<path d="M77.6318 94.0619L77.6318 8.07422L8.11121 8.07422L8.11121 94.0619L77.6318 94.0619Z" fill="white"/>
<path d="M47.3743 36.4597C50.4156 33.4185 50.4156 28.4877 47.3743 25.4465C44.3331 22.4053 39.4023 22.4053 36.3611 25.4465C33.3199 28.4877 33.3199 33.4185 36.3611 36.4597C39.4023 39.5009 44.3331 39.5009 47.3743 36.4597Z" fill="white"/>
<path d="M41.8592 40.3199C36.6675 40.3199 32.4492 36.1017 32.4492 30.91C32.4492 25.7183 36.6675 21.5 41.8592 21.5C47.051 21.5 51.2693 25.7183 51.2693 30.91C51.1881 36.1017 46.9699 40.3199 41.8592 40.3199ZM41.8592 24.8259C38.4522 24.8259 35.6941 27.584 35.6941 30.9911C35.6941 34.3981 38.4522 37.1562 41.8592 37.1562C45.2663 37.1562 48.0244 34.3981 48.0244 30.9911C47.9433 27.584 45.1852 24.8259 41.8592 24.8259Z" fill="#1D76BC"/>
<path d="M50.2957 55.0826H33.4225C30.9889 55.0826 29.042 53.1357 29.042 50.702V48.1873C29.042 42.9956 33.2603 38.7773 38.452 38.7773H45.3473C50.539 38.7773 54.7573 42.9956 54.7573 48.1873V50.702C54.6762 53.1357 52.7293 55.0826 50.2957 55.0826Z" fill="white"/>
<path d="M50.296 56.7063H33.4229C30.0969 56.7063 27.4199 54.0293 27.4199 50.7034V48.1886C27.4199 42.1046 32.3683 37.1562 38.4524 37.1562H45.3476C51.4317 37.1562 56.3801 42.1046 56.3801 48.1886V50.7034C56.299 53.9482 53.622 56.7063 50.296 56.7063ZM38.3712 40.3199C34.0718 40.3199 30.5836 43.8081 30.5836 48.1075V50.6222C30.5836 52.1635 31.8004 53.3803 33.3417 53.3803H50.2149C51.7562 53.3803 52.973 52.1635 52.973 50.6222V48.1075C52.973 43.8081 49.4848 40.3199 45.1854 40.3199H38.3712Z" fill="#1D76BC"/>
<path d="M63.6803 61.6523H22.2275V64.8972H63.6803V61.6523Z" fill="#1D76BC"/>
<path d="M58.0019 77.3867H22.2275V80.6315H58.0019V77.3867Z" fill="#1D76BC"/>
<path d="M59.7051 69.5195H34.5576V72.7643H59.7051V69.5195Z" fill="#1D76BC"/>
<path d="M30.2585 69.5195H22.2275V72.7643H30.2585V69.5195Z" fill="#1D76BC"/>
<path d="M99.9405 108.379H78.6868C73.414 103.106 70.4125 100.105 65.1396 94.8319V73.5784C70.4125 68.3055 73.414 65.3041 78.6868 60.0312H99.9405C105.213 65.3041 108.215 68.3055 113.488 73.5784V94.8319C108.215 100.105 105.213 103.106 99.9405 108.379Z" fill="#8AC650"/>
<path d="M99.9409 109.999H78.6872L77.5515 109.512L64.0043 95.965L63.5176 94.8293V73.5758L64.0043 72.4401L77.5515 58.893L78.6872 58.4062H99.9409L101.077 58.893L114.624 72.4401L115.11 73.5758V94.8293L114.624 95.965L101.077 109.512L99.9409 109.999ZM79.3362 106.754H99.2919L111.866 94.1804V74.2247L99.2919 61.6511H79.3362L66.6813 74.2247V94.1804L79.3362 106.754Z" fill="#1D76BC"/>
<path d="M82.4997 86.1493L86.5557 90.2054L95.3168 81.4444L91.2608 77.3883L98.0749 70.5742L102.861 75.3603C102.861 78.8485 102.861 80.7954 102.861 84.2836L89.395 97.7496C85.9068 97.7496 83.9599 97.7496 80.4717 97.7496L75.6855 92.9635L82.4997 86.1493Z" fill="white"/>
<path d="M89.3949 99.3719H80.4716L79.3359 98.8851L74.5498 94.099V91.8277L81.364 85.0135H83.6353L86.5557 87.9339L92.9643 81.5254L90.0439 78.605V76.3337L96.8581 69.5195H99.1294L103.916 74.3056L104.402 75.4413V84.3646L103.916 85.5003L90.5306 98.8851L89.3949 99.3719ZM81.2017 96.1271H88.746L101.239 83.6345V76.0903L98.0749 72.9266L93.6132 77.3882L96.5336 80.3086V82.5799L87.7725 91.422H85.5011L82.5808 88.5017L78.1191 92.9633L81.2017 96.1271Z" fill="#1D76BC"/>
<path d="M69.8447 19.0664H65.0586V23.8525H69.8447V19.0664Z" fill="#E2ECF9"/>
<path d="M24.2912 18.4651L20.8496 15.0234L17.408 18.4651L20.8496 21.9067L24.2912 18.4651Z" fill="#A3C1E7"/>
</svg>
