<svg width="62" height="70" viewBox="0 0 62 70" fill="none" xmlns="http://www.w3.org/2000/svg">
<path d="M7.41054 0H42.3763L61.1628 18.7872V63.4257C61.1628 67.0412 58.2047 70 54.5891 70H7.41054C3.79567 70 0.836914 67.0419 0.836914 63.4257V6.57429C0.836914 2.9581 3.79501 0 7.41054 0Z" fill="white"/>
<path d="M42.376 0V12.2129C42.376 15.8284 45.3341 18.7872 48.9496 18.7872H61.1625L42.376 0Z" fill="#1464FF" fill-opacity="0.5"/>
<path d="M31.0203 57.178C22.3122 57.178 15.2275 50.0933 15.2275 41.3852C15.2275 39.7782 16.5299 38.4766 18.1362 38.4766C19.7425 38.4766 21.0448 39.7789 21.0448 41.3852C21.0448 46.886 25.5196 51.3607 31.0203 51.3607C33.3579 51.3607 35.6309 50.5365 37.4199 49.0383C38.651 48.007 40.4861 48.1685 41.5174 49.401C42.5487 50.6327 42.3859 52.4665 41.1548 53.4979C38.3213 55.8704 34.7222 57.178 31.0203 57.178Z" fill="#1464FF"/>
<path d="M43.8641 43.3528C42.2572 43.3528 40.9555 42.0505 40.9555 40.4442C40.9555 34.9434 36.4808 30.4687 30.98 30.4687C28.6008 30.4687 26.2969 31.3193 24.4927 32.8656C23.2728 33.9101 21.437 33.769 20.3912 32.5491C19.3461 31.3292 19.4878 29.4934 20.7077 28.4482C23.565 25.9992 27.2128 24.6514 30.9793 24.6514C39.6875 24.6514 46.7721 31.736 46.7721 40.4442C46.7728 42.0505 45.4711 43.3528 43.8641 43.3528Z" fill="#1464FF"/>
<path d="M18.5259 36.7697C18.1289 36.3872 17.5777 36.2138 17.0323 36.3022C16.4883 36.3912 16.0188 36.7308 15.7643 37.2194L11.6793 45.0729C11.3746 45.6592 11.4267 46.3667 11.8138 46.9015C12.1455 47.3584 12.6737 47.6235 13.2276 47.6235C13.3212 47.6235 13.4155 47.6156 13.5104 47.6011L23.9522 45.8886C24.603 45.7825 25.1391 45.3169 25.3356 44.6872C25.5328 44.0568 25.3567 43.3704 24.8826 42.9121L18.5259 36.7697Z" fill="#1464FF"/>
<path d="M50.187 34.9268C49.7992 34.392 49.1425 34.121 48.491 34.2278L38.0499 35.9396C37.3991 36.0465 36.863 36.512 36.6665 37.1417C36.4693 37.7715 36.6454 38.4586 37.1195 38.9169L43.4762 45.0579C43.8046 45.3751 44.2404 45.5485 44.6895 45.5485C44.7831 45.5485 44.8761 45.5406 44.9704 45.5254C45.5137 45.4371 45.9832 45.0975 46.2378 44.6089L50.3221 36.7553C50.6268 36.1698 50.574 35.4622 50.187 34.9268Z" fill="#1464FF"/>
</svg>
