<svg width="170" height="170" viewBox="0 0 170 170" fill="none" xmlns="http://www.w3.org/2000/svg">
<path d="M127.188 127.368C150.669 103.986 150.75 65.9968 127.368 42.5159C103.986 19.0349 65.9969 18.9543 42.516 42.3359C19.0351 65.7174 18.9545 103.707 42.336 127.188C65.7175 150.669 103.707 150.749 127.188 127.368Z" fill="#034EA1" fill-opacity="0.1"/>
<path d="M105.578 75.9788C107.596 64.5571 99.973 53.662 88.5513 51.644C77.1296 49.6259 66.2345 57.2491 64.2165 68.6708C62.1985 80.0925 69.8216 90.9875 81.2433 93.0056C92.665 95.0236 103.56 87.4005 105.578 75.9788Z" fill="#1464FF" fill-opacity="0.5"/>
<path d="M91.9582 93.2422H77.8582C61.4582 93.2422 48.1582 106.542 48.1582 122.942V132.142C58.3582 140.042 71.0582 144.742 84.9582 144.742C98.8582 144.742 111.658 140.042 121.758 132.142V123.042C121.658 106.642 108.358 93.2422 91.9582 93.2422Z" fill="#1464FF" fill-opacity="0.5"/>
<path d="M139.859 69.9445H132.259C118.759 69.9445 107.859 59.0445 107.859 45.5445V38.0445C107.859 24.5445 118.759 13.6445 132.259 13.6445H139.859C153.359 13.6445 164.259 24.5445 164.259 38.0445V45.6445C164.159 59.0445 153.259 69.9445 139.859 69.9445Z" fill="#FF0000"/>
<path d="M125.969 26.1799L120.453 31.6953L146.121 57.363L151.636 51.8477L125.969 26.1799Z" fill="white"/>
<path d="M146.121 26.2502L120.453 51.918L125.969 57.4334L151.636 31.7656L146.121 26.2502Z" fill="white"/>
</svg>
