<svg width="110" height="110" viewBox="0 0 110 110" fill="none" xmlns="http://www.w3.org/2000/svg">
<path d="M64.007 108.405H12.5141C8.28942 104.181 5.89811 101.789 1.59375 97.4851V12.514C5.8184 8.2894 8.20971 5.8981 12.5141 1.59375H64.007C68.2316 5.81839 70.6229 8.20969 74.9273 12.514V97.5648C70.6229 101.789 68.2316 104.181 64.007 108.405Z" fill="white"/>
<path d="M64.0074 110H12.5145L11.3986 109.522L0.478267 98.6015L0 97.4855V12.5145L0.478267 11.3986L11.3986 0.478266L12.5145 0H64.0074L65.1234 0.478266L76.0437 11.3986L76.5219 12.5145V97.5652L76.0437 98.6811L65.1234 109.601L64.0074 110ZM13.1522 106.812H63.3697L73.3335 96.8478V13.1522L63.3697 3.18841H13.1522L3.18841 13.1522V96.8478L13.1522 106.812Z" fill="#1D76BC"/>
<path d="M40.3332 9.40625H31.4854V12.5947H40.3332V9.40625Z" fill="#1D76BC"/>
<path d="M46.5517 12.5947H43.3633V9.40625H46.5517V12.5947Z" fill="#1D76BC"/>
<path d="M67.1955 18.8906H9.24609V92.8616H67.1955V18.8906Z" fill="#A3C1E7"/>
<path d="M86.007 54.2773C80.9853 60.8933 73.0939 65.2773 64.2461 65.5165V77.7121C64.2461 80.6614 64.6446 83.3715 65.2823 85.9223C69.6664 102.502 86.007 108.401 86.007 108.401C86.007 108.401 102.348 102.502 106.732 85.9223C107.369 83.3715 107.768 80.6614 107.768 77.7121C107.768 77.7121 107.768 69.9005 107.768 65.5165C98.9201 65.2773 91.0288 60.8933 86.007 54.2773Z" fill="#8AC650"/>
<path d="M85.4485 109.918C84.7311 109.679 68.2311 103.542 63.7673 86.3242C63.0499 83.4547 62.6514 80.5851 62.6514 77.7155V65.5199L64.1659 63.9257C72.2963 63.6865 79.7891 59.7807 84.7311 53.3242H87.2819C92.2239 59.8605 99.7167 63.6865 107.847 63.9257L109.362 65.5199V77.7155C109.362 80.5851 108.963 83.4547 108.246 86.3242C103.702 103.542 87.2022 109.679 86.5645 109.918H85.4485ZM65.8398 67.0344V77.7155C65.8398 80.346 66.1586 82.9764 66.876 85.5271C70.5427 99.3967 83.2166 105.534 86.0065 106.73C88.7964 105.534 101.55 99.4764 105.137 85.5271C105.775 82.9764 106.173 80.346 106.173 77.7155V67.0344C98.3616 66.3967 91.108 62.73 86.0065 56.8315C80.905 62.73 73.6514 66.3967 65.8398 67.0344Z" fill="#1D76BC"/>
<path d="M85.5292 90.6272L80.8263 90.5475L72.377 81.4605L77.2393 77.0764L83.377 83.6127L95.0944 72.0547L99.6379 76.6779L85.5292 90.6272Z" fill="white"/>
<path d="M85.5289 92.224L80.826 92.1443L79.71 91.666L71.2607 82.6588L71.3404 80.4269L76.1231 75.9631L78.355 76.0429L83.3767 81.3834L93.8985 70.9414H96.1304L100.754 75.5646V77.7965L86.6448 91.7458L85.5289 92.224ZM81.5434 88.9559L84.8912 89.0356L97.4057 76.6805L95.0941 74.2892L84.4927 84.7313L82.1811 84.6515L77.0796 79.2313L74.6086 81.4631L81.5434 88.9559Z" fill="#1D76BC"/>
<path d="M44.5589 69.1094H31.9647C27.0226 69.1094 23.0371 65.1239 23.0371 60.1819V47.5877C23.0371 42.6457 27.0226 38.6602 31.9647 38.6602H44.5589C49.5009 38.6602 53.4865 42.6457 53.4865 47.5877V60.1819C53.4865 65.1239 49.5009 69.1094 44.5589 69.1094Z" fill="white"/>
<path d="M44.5584 70.7041H31.9641C26.1453 70.7041 21.4424 66.0012 21.4424 60.1824V47.5881C21.4424 41.7693 26.1453 37.0664 31.9641 37.0664H44.5584C50.3772 37.0664 55.0801 41.7693 55.0801 47.5881V60.1824C55.0801 66.0012 50.3772 70.7041 44.5584 70.7041ZM31.9641 40.2548C27.8989 40.2548 24.6308 43.5229 24.6308 47.5881V60.1824C24.6308 64.2476 27.8989 67.5157 31.9641 67.5157H44.5584C48.6236 67.5157 51.8917 64.2476 51.8917 60.1824V47.5881C51.8917 43.5229 48.6236 40.2548 44.5584 40.2548H31.9641Z" fill="#1D76BC"/>
<path d="M61.1376 42.2469H57.9492V37.9426C57.9492 35.8701 56.2753 34.1962 54.2028 34.1962H49.8984V31.0078H54.2028C58.0289 31.0078 61.1376 34.1165 61.1376 37.9426V42.2469Z" fill="#1D76BC"/>
<path d="M18.4921 42.2469H15.3037V37.9426C15.3037 34.1165 18.4124 31.0078 22.2385 31.0078H26.5429V34.1962H22.2385C20.1661 34.1962 18.4921 35.8701 18.4921 37.9426V42.2469Z" fill="#1D76BC"/>
<path d="M26.5429 76.8407H22.2385C18.4124 76.8407 15.3037 73.732 15.3037 69.9059V65.6016H18.4921V69.9059C18.4921 71.9784 20.1661 73.6523 22.2385 73.6523H26.5429V76.8407Z" fill="#1D76BC"/>
<path d="M54.1227 76.8407H49.8184V73.6523H54.1227C56.1952 73.6523 57.8691 71.9784 57.8691 69.9059V65.6016H61.0575V69.9059C61.1372 73.6523 57.9488 76.8407 54.1227 76.8407Z" fill="#1D76BC"/>
<path d="M33.6376 46.6289H30.4492V51.2521H33.6376V46.6289Z" fill="#1D76BC"/>
<path d="M45.9921 46.6289H42.8037V51.2521H45.9921V46.6289Z" fill="#1D76BC"/>
<path d="M38.4998 61.214C34.3549 61.214 31.2462 59.6198 31.0071 59.5401L29.5723 58.8227L31.0071 55.9531L32.4418 56.6705C32.5215 56.7502 38.3404 59.6198 43.9201 56.6705L45.3549 55.9531L46.7897 58.8227L45.3549 59.5401C43.0433 60.7357 40.5723 61.214 38.4998 61.214Z" fill="#1D76BC"/>
</svg>
