<svg width="24" height="24" viewBox="0 0 24 24" fill="none" xmlns="http://www.w3.org/2000/svg">
<path d="M12 0C5.37258 0 0 5.37258 0 12C0 18.6274 5.37258 24 12 24H24V12C24 5.37258 18.6274 0 12 0Z" fill="#FF0000" fill-opacity="0.5"/>
<path d="M10.5469 14.6094H12.5469L12.75 6.6875H10.3438L10.5469 14.6094ZM11.5312 18.1406C11.7708 18.1406 11.9922 18.0807 12.1953 17.9609C12.3984 17.8411 12.5599 17.6823 12.6797 17.4844C12.7943 17.2812 12.849 17.0625 12.8438 16.8281C12.849 16.5938 12.7943 16.3776 12.6797 16.1797C12.5599 15.9818 12.3984 15.8255 12.1953 15.7109C11.9922 15.5911 11.7708 15.5312 11.5312 15.5312C11.3073 15.5312 11.0964 15.5911 10.8984 15.7109C10.6953 15.8255 10.5339 15.9818 10.4141 16.1797C10.2943 16.3776 10.2344 16.5938 10.2344 16.8281C10.2344 17.0625 10.2943 17.2812 10.4141 17.4844C10.5339 17.6823 10.6953 17.8411 10.8984 17.9609C11.0964 18.0807 11.3073 18.1406 11.5312 18.1406Z" fill="white"/>
</svg>
