<svg width="54" height="50" viewBox="0 0 54 50" fill="none" xmlns="http://www.w3.org/2000/svg">
<path d="M52.1115 42.4026H1.8879C1.12131 42.4026 0.5 41.7861 0.5 41.0255V1.37709C0.5 0.616466 1.12131 0 1.8879 0H52.1115C52.8781 0 53.5 0.616466 53.5 1.37709V41.0255C53.4994 41.7861 52.8781 42.4026 52.1115 42.4026ZM3.2758 39.649H50.723V2.75418H3.2758V39.649Z" fill="#595656"/>
<path d="M51.2303 34.5335H2.769C2.00241 34.5335 1.3811 33.917 1.3811 33.1564C1.3811 32.3958 2.00241 31.7793 2.769 31.7793H51.2309C51.9975 31.7793 52.6188 32.3958 52.6188 33.1564C52.6188 33.917 51.9969 34.5335 51.2303 34.5335Z" fill="#595656"/>
<path d="M42.2143 50.0003H11.7851C11.0185 50.0003 10.3972 49.3838 10.3972 48.6232C10.3972 47.8626 11.0185 47.2461 11.7851 47.2461H42.2138C42.9803 47.2461 43.6022 47.8626 43.6022 48.6232C43.6022 49.3838 42.9809 50.0003 42.2143 50.0003Z" fill="#595656"/>
<path d="M18.2209 48.3256C17.4543 48.3256 16.833 47.7091 16.833 46.9485V41.6154C16.833 40.8547 17.4543 40.2383 18.2209 40.2383C18.9875 40.2383 19.6088 40.8547 19.6088 41.6154V46.9485C19.6088 47.7097 18.9875 48.3256 18.2209 48.3256Z" fill="#595656"/>
<path d="M35.778 48.3256C35.0114 48.3256 34.3901 47.7091 34.3901 46.9485V41.6154C34.3901 40.8547 35.0114 40.2383 35.778 40.2383C36.5446 40.2383 37.1659 40.8547 37.1659 41.6154V46.9485C37.1659 47.7097 36.5446 48.3256 35.778 48.3256Z" fill="#595656"/>
<path d="M33.6886 18.7069H19.2341C18.4942 18.7069 17.894 18.1114 17.894 17.3779C17.894 16.6432 18.4942 16.0488 19.2341 16.0488H33.6886C34.4284 16.0488 35.0286 16.6432 35.0286 17.3779C35.0286 18.1114 34.4284 18.7069 33.6886 18.7069Z" fill="#034EA1"/>
<path d="M26.4611 25.8789C25.7212 25.8789 25.1216 25.2834 25.1216 24.5499V10.208C25.1216 9.4733 25.7212 8.87891 26.4611 8.87891C27.2009 8.87891 27.8011 9.4733 27.8011 10.208V24.5499C27.8011 25.2834 27.2009 25.8789 26.4611 25.8789Z" fill="#034EA1"/>
</svg>
