<svg width="62" height="62" viewBox="0 0 62 62" fill="none" xmlns="http://www.w3.org/2000/svg">
<path d="M43.3019 39.3761L41.4617 41.2174L39.1497 38.9065L40.991 37.0653C40.3929 36.1969 39.9582 35.2153 39.6945 34.1628C39.4341 33.9689 39.1639 33.7847 38.8893 33.6071H36.9544V32.5427C36.3431 32.2627 35.7178 32.0066 35.0586 31.8029L33.7795 31.4085C33.5987 31.3529 33.4363 31.2647 33.2838 31.1634C32.5876 32.6854 30.4685 33.8032 27.9288 33.8032C25.2214 33.8032 22.9628 32.5405 22.4322 30.8594C22.2078 31.1034 21.9332 31.3061 21.6009 31.4085L20.3218 31.8029C16.1196 33.0994 12.8783 36.0084 11.0294 39.7237L10.0771 41.846C10.0771 41.846 13.8904 40.6541 17.524 41.4146C21.407 42.2263 23.3365 44.1002 26.0135 44.365C29.2221 44.682 34.4746 43.9488 37.181 45.0002C38.922 45.6779 40.0638 48.0672 39.6771 50.3573L45.5332 49.2678L44.4883 40.0516C44.0765 39.8533 43.6767 39.6343 43.3019 39.3761Z" fill="#8AC650"/>
<path d="M48.9381 35.7854C51.345 35.7854 53.2962 33.8343 53.2962 31.4274C53.2962 29.0205 51.345 27.0693 48.9381 27.0693C46.5312 27.0693 44.5801 29.0205 44.5801 31.4274C44.5801 33.8343 46.5312 35.7854 48.9381 35.7854Z" stroke="#8AC650" stroke-width="2" stroke-miterlimit="10"/>
<path d="M60.9234 33.607V29.249H58.3162C58.083 27.9841 57.5895 26.8106 56.8857 25.7909L58.7269 23.9496L56.4161 21.6376L54.5748 23.4789C53.5539 22.7762 52.3816 22.2826 51.1167 22.0495V19.4434H46.7586V22.0506C45.4937 22.2837 44.3214 22.7773 43.3005 23.48L41.4603 21.6387L39.1484 23.9507L40.9897 25.792C40.2858 26.8117 39.7923 27.9851 39.5591 29.2501H36.9541V33.6081H39.5613C39.7945 34.8731 40.288 36.0454 40.9918 37.0662L39.1506 38.9075L41.4625 41.2184L43.3027 39.3771C44.3236 40.0809 45.4959 40.5745 46.7608 40.8076V43.4127H51.1189V40.8055C52.3838 40.5723 53.5561 40.0788 54.577 39.3749L56.4183 41.2162L58.7291 38.9053L56.8878 37.0641C57.5917 36.0432 58.0852 34.8709 58.3184 33.606L60.9234 33.607Z" stroke="#262728" stroke-width="2" stroke-miterlimit="10" stroke-linejoin="round"/>
<path d="M31.3652 29.5811C28.1817 33.1252 23.4052 33.1252 20.2217 29.5811" stroke="#262728" stroke-width="2" stroke-miterlimit="10" stroke-linejoin="round"/>
<path d="M16.2877 13.9957C16.2877 13.9957 14.6643 9.07653 16.2397 6.25469C17.7258 3.593 19.5322 3.89589 19.5322 3.89589C19.5322 3.89589 22.2996 0.840891 26.6424 1.0065C37.567 1.42378 34.8094 13.9957 34.8094 13.9957" stroke="#262728" stroke-width="2" stroke-miterlimit="10" stroke-linejoin="round"/>
<path d="M35.0215 13.9958C35.5914 13.9958 36.0195 14.5176 35.9084 15.0765L35.3212 18.0073C35.1556 18.8419 34.4212 19.4433 33.5703 19.4433H32.8556L32.7412 20.1363C32.179 23.5083 29.2613 25.9804 25.8424 25.9804H25.4807C22.0618 25.9804 19.1451 23.5083 18.5819 20.1363L18.4664 19.4433H17.9478C16.9825 19.4433 16.1512 18.7624 15.9616 17.8145L15.443 15.2215C15.3166 14.5874 15.8014 13.9958 16.4475 13.9958H17.3769C18.3727 11.0105 21.7349 9.6377 21.7349 9.6377C22.3756 12.1991 24.6766 13.9958 27.3165 13.9958H35.0215Z" stroke="#262728" stroke-width="2" stroke-miterlimit="10" stroke-linejoin="round"/>
<path d="M8.4502 37.9645C10.3361 34.1762 13.6406 31.2106 17.9268 29.8879L19.2309 29.4848C20.0513 29.232 20.6113 28.4737 20.6113 27.6152V23.8008" stroke="#262728" stroke-width="2" stroke-miterlimit="10" stroke-linejoin="round"/>
<path d="M33.1016 29.8879L31.7974 29.4848C30.977 29.232 30.417 28.4737 30.417 27.6152V23.8008" stroke="#262728" stroke-width="2" stroke-miterlimit="10" stroke-linejoin="round"/>
<path d="M6.44757 41.2334H1V58.6656H6.44757V41.2334Z" fill="#8AC650"/>
<path d="M39.4926 50.2225L52.9012 48.3606C54.712 48.1089 56.3255 49.5547 56.2482 51.4014C56.2209 52.0747 55.7525 52.6543 55.1162 52.8766L32.5905 60.7505C31.7309 61.0076 30.8244 61.0676 29.9386 60.9227L7.84653 57.5757H7.53711" stroke="#262728" stroke-width="2" stroke-miterlimit="10" stroke-linejoin="round"/>
<path d="M24.9696 51.0397H37.7072C38.582 51.0397 39.4199 50.3304 39.4809 49.4566C39.6672 46.7535 37.5307 44.5026 34.8679 44.5026H27.8895C25.3292 44.5026 23.5282 43.8707 21.3939 42.7986C19.2595 41.7254 16.9628 41.1316 13.3445 41.234C9.53233 41.343 7.35221 43.9578 6.2627 43.9578" stroke="#262728" stroke-width="2" stroke-miterlimit="10" stroke-linejoin="round"/>
<path d="M6.44757 41.2334H1V58.6656H6.44757V41.2334Z" stroke="#262728" stroke-width="2" stroke-miterlimit="10" stroke-linejoin="round"/>
</svg>
