<svg width="66" height="73" viewBox="0 0 66 73" fill="none" xmlns="http://www.w3.org/2000/svg">
<path d="M52.1825 18.4432L60.2688 13.3665V4.10499L10.5786 1.5L9.62305 9.19714L52.2497 9.27548L52.1825 18.4432Z" fill="#8AC650" fill-opacity="0.3"/>
<path d="M52.25 27.4472L52.2741 61.6291H57.2089L59.7356 20.5391L52.25 27.4472Z" fill="#8AC650" fill-opacity="0.3"/>
<path d="M62.1452 16.907L33.7617 45.2904L29.6387 41.3981L58.1375 12.9042C59.2441 11.7976 61.0379 11.7976 62.1446 12.9042C63.2469 14.0059 63.2469 15.8003 62.1452 16.907Z" fill="#8AC650"/>
<path d="M51.6328 27.7031V61.6303" stroke="#10075E" stroke-width="2" stroke-miterlimit="10"/>
<path d="M9.68678 71.4998H55.2583C60.6102 71.4998 64.9485 67.4693 64.9485 61.6301H20.4577C20.4577 67.4693 16.1194 71.4998 10.7675 71.4998C5.41566 71.4998 1.05078 67.5803 1.05078 62.247V9.19727H51.633V16.5995" stroke="#10075E" stroke-width="2" stroke-miterlimit="10"/>
<path d="M59.4423 19.9883L57.1846 61.6304" stroke="#10075E" stroke-width="2" stroke-miterlimit="10"/>
<path d="M9.46289 9.211L9.85891 1.66992L60.2913 4.31932L59.8953 11.6272" stroke="#10075E" stroke-width="2" stroke-miterlimit="10"/>
<path d="M21.2188 52.0078C22.6344 52.0078 22.6344 55.8558 24.0495 55.8558C25.464 55.8558 25.464 52.0078 26.8784 52.0078C28.2941 52.0078 28.2941 55.8558 29.7104 55.8558C31.1273 55.8558 31.1273 52.0078 32.5442 52.0078C33.9612 52.0078 33.744 56.0778 36.8283 56.0778" stroke="#10075E" stroke-width="2" stroke-miterlimit="10"/>
<path d="M11.8616 39.3242C13.2286 39.7597 13.9707 41.2186 14.4092 42.5849C15.5874 46.2571 15.6232 50.287 14.511 53.9801C14.1662 55.1238 13.7042 56.2539 12.9535 57.1828C12.5174 57.722 11.9381 58.2093 11.2479 58.2722C10.1474 58.3728 9.24616 57.3722 8.82608 56.3501C8.07845 54.5285 8.24993 52.4115 9.01977 50.5997C9.78961 48.7874 11.114 47.2551 12.6117 45.977C13.7023 45.0462 14.9132 44.2245 16.274 43.773C17.079 43.5053 17.9667 43.3739 18.7717 43.6422C19.6044 43.9192 20.2589 44.6039 20.6463 45.391C21.0337 46.1787 21.178 47.0645 21.2298 47.9405C21.4081 50.9662 20.4933 54.0455 18.6927 56.4846" stroke="#10075E" stroke-width="2" stroke-miterlimit="10"/>
<path d="M62.1438 12.9037C63.2498 14.0098 63.2498 15.803 62.1438 16.9084L33.3427 45.7094L28.1963 47.1849L29.3381 41.7042L58.1391 12.9037C59.2452 11.7977 61.0378 11.7977 62.1438 12.9037Z" stroke="#10075E" stroke-width="2" stroke-miterlimit="10" stroke-linejoin="round"/>
<path d="M58.4188 21.533L56.0809 18.7978C53.6381 16.3557 49.6792 15.7389 47.237 18.181L39.9131 25.2341" stroke="#10075E" stroke-width="2" stroke-miterlimit="10"/>
<path d="M40.4505 37.5989L37.1133 34.2617" stroke="#10075E" stroke-width="2" stroke-miterlimit="10"/>
<path d="M33.4417 44.6073L30.1045 41.2695" stroke="#10075E" stroke-width="2" stroke-miterlimit="10"/>
<path d="M9.07031 20.3008H34.9783" stroke="#10075E" stroke-width="2" stroke-miterlimit="10"/>
<path d="M9.68652 30.1699H26.3417" stroke="#10075E" stroke-width="2" stroke-miterlimit="10"/>
</svg>
