<svg width="92" height="80" viewBox="0 0 92 80" fill="none" xmlns="http://www.w3.org/2000/svg">
<path d="M88.204 54.6386C91.257 59.5406 91.41 65.7186 88.61 70.7596C85.808 75.8066 80.485 78.9436 74.712 78.9436H17.285C11.514 78.9436 6.18899 75.8066 3.38899 70.7596C0.588994 65.7166 0.742993 59.5406 3.79599 54.6386L32.507 8.54959C35.429 3.85859 40.472 1.05859 46.002 1.05859C51.524 1.05859 56.571 3.85859 59.494 8.54959L88.204 54.6386Z" fill="white"/>
<path d="M80.124 59.6739C82.771 63.9199 79.717 69.4239 74.712 69.4239H17.285C12.283 69.4239 9.23005 63.9199 11.876 59.6739L40.5861 13.5819C43.083 9.57687 48.915 9.57687 51.41 13.5819L80.124 59.6739Z" fill="#B9D1FF"/>
<path d="M48.99 55.8513C49.757 56.6173 50.23 57.6753 50.23 58.8433C50.23 60.0113 49.756 61.0703 48.99 61.8353C48.224 62.6013 47.169 63.0733 46.002 63.0733C43.662 63.0733 41.77 61.1783 41.77 58.8433C41.77 57.6753 42.241 56.6163 43.01 55.8513C43.773 55.0853 44.833 54.6133 46.003 54.6133C47.169 54.6123 48.224 55.0853 48.99 55.8513Z" fill="white"/>
<path d="M50.23 27.1089V45.0929C50.23 47.4289 48.337 49.3249 46.001 49.3249C43.661 49.3249 41.769 47.4289 41.769 45.0929V27.1089C41.769 24.7719 43.662 22.8779 46.001 22.8779C47.168 22.8779 48.224 23.3519 48.989 24.1169C49.756 24.8829 50.23 25.9419 50.23 27.1089Z" fill="white"/>
<path d="M74.7119 80H17.2849C11.1319 80 5.45094 76.656 2.46494 71.273C-0.522063 65.892 -0.358063 59.304 2.89794 54.078L31.6079 7.99C34.7269 2.987 40.1069 0 46.0019 0C51.8929 0 57.2729 2.986 60.3919 7.99L89.1029 54.078C92.3569 59.305 92.5219 65.892 89.5359 71.275C86.5459 76.656 80.8699 80 74.7119 80ZM46.0019 2.116C40.8419 2.116 36.1339 4.731 33.4039 9.108L4.69194 55.203C1.84494 59.771 1.69794 65.539 4.31394 70.25C6.92794 74.957 11.9009 77.885 17.2849 77.885H74.7119C80.1009 77.885 85.0699 74.957 87.6859 70.25C90.3009 65.539 90.1559 59.771 87.3069 55.203L58.5929 9.11C55.8659 4.731 51.1549 2.116 46.0019 2.116Z" fill="#034EA1"/>
<path d="M74.712 70.4795H17.285C14.546 70.4795 12.117 69.0475 10.79 66.6555C9.45702 64.2605 9.52901 61.4425 10.977 59.1165L39.689 13.0245C41.057 10.8315 43.413 9.52148 46.002 9.52148C48.584 9.52148 50.943 10.8315 52.308 13.0225L81.023 59.1155C82.469 61.4415 82.541 64.2605 81.211 66.6545C79.88 69.0475 77.452 70.4795 74.712 70.4795ZM46.002 11.6365C44.152 11.6365 42.463 12.5725 41.485 14.1415L12.772 60.2325C11.737 61.8965 11.686 63.9165 12.639 65.6255C13.588 67.3425 15.328 68.3615 17.285 68.3615H74.712C76.674 68.3615 78.411 67.3415 79.363 65.6255C80.314 63.9165 80.262 61.8965 79.223 60.2325L50.514 14.1425C49.536 12.5725 47.847 11.6365 46.002 11.6365Z" fill="#034EA1"/>
<path d="M46.002 50.3793C43.083 50.3793 40.709 48.0103 40.709 45.0943V27.1093C40.709 24.1923 43.084 21.8203 46.002 21.8203C47.41 21.8203 48.74 22.3703 49.737 23.3693C50.739 24.3683 51.288 25.6963 51.288 27.1093V45.0933C51.288 48.0103 48.915 50.3793 46.002 50.3793ZM46.002 23.9363C44.25 23.9363 42.825 25.3603 42.825 27.1103V45.0943C42.825 46.8423 44.25 48.2643 46.002 48.2643C47.749 48.2643 49.173 46.8423 49.173 45.0943V27.1093C49.173 26.2613 48.844 25.4653 48.242 24.8663C47.642 24.2673 46.847 23.9363 46.002 23.9363Z" fill="#034EA1"/>
<path d="M46.002 64.1307C43.083 64.1307 40.709 61.7577 40.709 58.8437C40.709 57.4297 41.263 56.1037 42.262 55.1057C43.261 54.1057 44.587 53.5547 46.002 53.5547C47.41 53.5547 48.74 54.1057 49.741 55.1057C50.739 56.1037 51.288 57.4297 51.288 58.8437C51.288 60.2557 50.739 61.5837 49.741 62.5837C48.74 63.5817 47.41 64.1307 46.002 64.1307ZM46.002 55.6697C45.153 55.6697 44.356 55.9997 43.757 56.5997C43.158 57.1997 42.825 57.9977 42.825 58.8437C42.825 60.5937 44.25 62.0177 46.002 62.0177C46.848 62.0177 47.643 61.6877 48.242 61.0857C48.842 60.4877 49.173 59.6897 49.173 58.8437C49.173 57.9977 48.844 57.1987 48.242 56.5997C47.642 55.9997 46.847 55.6697 46.002 55.6697Z" fill="#034EA1"/>
</svg>
