<svg width="103" height="110" viewBox="0 0 103 110" fill="none" xmlns="http://www.w3.org/2000/svg">
<path d="M59.3214 100.543H11.5984C7.68301 96.6272 5.46677 94.4109 1.47754 90.4217V11.5974C5.3929 7.68203 7.60914 5.4658 11.5984 1.47656H59.3214C63.2368 5.39192 65.453 7.60816 69.4423 11.5974V90.4217C65.453 94.4109 63.2368 96.5533 59.3214 100.543Z" fill="#E2ECF9"/>
<path d="M59.3214 102.021H11.5983L10.5641 101.578L0.443241 91.4569L0 90.4226V11.5983L0.443241 10.5641L10.5641 0.443253L11.5983 0H59.3214L60.3556 0.443253L70.4765 10.5641L70.9197 11.5983V90.4226L70.4765 91.4569L60.3556 101.578L59.3214 102.021ZM12.1893 99.066H58.7304L67.9647 89.8316V12.2632L58.7304 3.02887H12.1893L2.95499 12.2632V89.8316L12.1893 99.066Z" fill="#1D76BC"/>
<path d="M36.6415 8.71875H28.4414V11.6737H36.6415V8.71875Z" fill="#1D76BC"/>
<path d="M42.4039 11.6737H39.4489L39.375 8.71875H42.4039V11.6737Z" fill="#1D76BC"/>
<path d="M62.2762 17.582H8.56934V86.1378H62.2762V17.582Z" fill="white"/>
<path d="M26.8162 75.4258H23.418V78.824H26.8162V75.4258Z" fill="#A3C1E7"/>
<path d="M21.3744 28.1811L18.2402 25.0469L15.106 28.1811L18.2402 31.3153L21.3744 28.1811Z" fill="#E2ECF9"/>
<path d="M69.2214 54.1523H57.623V65.6768V93.4537V108.524H101.283V54.1523H69.2214Z" fill="white"/>
<path d="M101.282 109.999H57.6962L56.2188 108.521V54.1494L57.6962 52.6719H101.282L102.76 54.1494V108.521L101.282 109.999ZM59.0999 107.044H99.731V55.6269H59.0999V107.044Z" fill="#1D76BC"/>
<path d="M80.8193 73.5075L87.6158 69.4444L94.4123 73.5075V54.1523H80.8193V73.5075Z" fill="#8AC650"/>
<path d="M93.6002 74.8343L87.5425 71.2144L81.4848 74.8343L79.2686 73.5784V54.1494L80.746 52.6719H94.339L95.8165 54.1494V73.5784L93.6002 74.8343ZM86.8038 68.1856H88.3552L92.9354 70.9189V55.6269H82.2974V70.9189L86.8038 68.1856Z" fill="#1D76BC"/>
<path d="M74.2448 77.7891H65.3799V80.7441H74.2448V77.7891Z" fill="#1D76BC"/>
<path d="M93.452 85.5469H87.7637V88.5019H93.452V85.5469Z" fill="#1D76BC"/>
<path d="M84.9567 85.5469H65.3799V88.5019H84.9567V85.5469Z" fill="#1D76BC"/>
<path d="M93.4523 93.3047H65.3799V96.2597H93.4523V93.3047Z" fill="#1D76BC"/>
<path d="M35.9762 31.9141C32.3564 36.642 26.7419 39.7448 20.3887 39.9664V48.6836C20.3887 50.7521 20.6842 52.7467 21.1274 54.5936C24.2302 66.4874 35.9762 70.6983 35.9762 70.6983C35.9762 70.6983 47.7223 66.4874 50.825 54.5936C51.3422 52.7467 51.5638 50.826 51.5638 48.6836C51.5638 48.6836 51.5638 43.0691 51.5638 39.9664C45.2106 39.7448 39.5961 36.642 35.9762 31.9141Z" fill="#A3C1E7"/>
<path d="M35.4597 72.1017C34.9426 71.9539 22.9749 67.4476 19.6505 54.9627C19.1334 52.8943 18.8379 50.8258 18.8379 48.6834V39.9662L20.2415 38.4887C26.0037 38.3409 31.2488 35.6076 34.721 31.0273H37.0849C40.5571 35.6076 45.8021 38.3409 51.5644 38.4887L52.968 39.9662V48.6834C52.968 50.7519 52.6725 52.8943 52.1554 54.9627C48.831 67.4476 36.8633 71.9539 36.3462 72.1017H35.4597ZM21.8667 41.3698V48.7573C21.8667 50.6041 22.0884 52.451 22.6055 54.2979C25.1172 63.9755 33.8344 68.2602 36.0507 69.2206C38.2669 68.2602 46.9103 63.9016 49.4959 54.2979C49.9391 52.451 50.2346 50.6041 50.2346 48.7573V41.3698C44.7679 40.8527 39.7444 38.3409 36.1246 34.2778C32.357 38.3409 27.3335 40.8527 21.8667 41.3698Z" fill="#1D76BC"/>
<path d="M36.6417 58.1365L32.5047 58.0626L26.5947 51.6355L30.8056 47.7201L34.7209 52.0049L41.3697 45.5039L45.3589 49.567L36.6417 58.1365Z" fill="white"/>
<path d="M36.6418 59.617L32.5048 59.5431L31.4705 59.0998L25.5605 52.5989L25.6344 50.5304L29.8453 46.615L31.9138 46.6889L34.7949 49.8655L40.3355 44.4727H42.404L46.4671 48.5358V50.6043L37.7499 59.1737L36.6418 59.617ZM33.1696 56.5881L36.0508 56.662L43.2905 49.57L41.2959 47.5754L35.7553 53.0421L33.6129 52.9682L30.6579 49.7916L28.5894 51.7124L33.1696 56.5881Z" fill="#1D76BC"/>
</svg>
