<svg width="50" height="50" viewBox="0 0 50 50" fill="none" xmlns="http://www.w3.org/2000/svg">
<path d="M38.1039 8.18555H32.3245V41.8136H38.1039V8.18555Z" fill="#034EA1"/>
<path d="M48.6901 43.1237H1.30934C0.586139 43.1237 0 42.5376 0 41.8144V8.18631C0 7.4631 0.586139 6.87695 1.30934 6.87695H48.6901C49.4133 6.87695 50 7.4631 50 8.18631V41.8144C49.9994 42.5376 49.4133 43.1237 48.6901 43.1237ZM2.61868 40.5056H47.3802V9.49566H2.61868V40.5056Z" fill="#595656"/>
<path d="M37.0449 50C36.6448 50 36.2665 49.8172 36.018 49.503L30.9105 43.0487C30.7272 42.8175 30.628 42.5311 30.628 42.2364L30.6274 1.30935C30.6274 0.962236 30.7651 0.629046 31.0108 0.383334C31.2559 0.138178 31.5897 0 31.9368 0H42.1518C42.8745 0 43.4612 0.586146 43.4612 1.30935V42.2364C43.4612 42.5311 43.3615 42.8175 43.1781 43.0487L38.0712 49.503C37.8238 49.8172 37.4449 50 37.0449 50ZM33.2467 41.7812L37.0449 46.5806L40.8425 41.7812V2.61871H33.2467V41.7812Z" fill="#595656"/>
<path d="M24.3177 19.2046H20.4903C19.8693 19.2046 19.366 18.6185 19.366 17.8953C19.366 17.1721 19.8693 16.5859 20.4903 16.5859H24.3177C24.9387 16.5859 25.442 17.1721 25.442 17.8953C25.442 18.6185 24.9387 19.2046 24.3177 19.2046Z" fill="#595656"/>
<path d="M24.3177 26.3082H20.4903C19.8693 26.3082 19.366 25.722 19.366 24.9988C19.366 24.2756 19.8693 23.6895 20.4903 23.6895H24.3177C24.9387 23.6895 25.442 24.2756 25.442 24.9988C25.442 25.722 24.9387 26.3082 24.3177 26.3082Z" fill="#595656"/>
<path d="M24.3177 33.4117H20.4903C19.8693 33.4117 19.366 32.8255 19.366 32.1023C19.366 31.3791 19.8693 30.793 20.4903 30.793H24.3177C24.9387 30.793 25.442 31.3791 25.442 32.1023C25.442 32.8255 24.9387 33.4117 24.3177 33.4117Z" fill="#595656"/>
<path d="M13.9517 19.2046H10.1243C9.5033 19.2046 9 18.6185 9 17.8953C9 17.1721 9.5033 16.5859 10.1243 16.5859H13.9517C14.5727 16.5859 15.076 17.1721 15.076 17.8953C15.076 18.6185 14.5727 19.2046 13.9517 19.2046Z" fill="#595656"/>
<path d="M13.9517 26.3082H10.1243C9.5033 26.3082 9 25.722 9 24.9988C9 24.2756 9.5033 23.6895 10.1243 23.6895H13.9517C14.5727 23.6895 15.076 24.2756 15.076 24.9988C15.076 25.722 14.5727 26.3082 13.9517 26.3082Z" fill="#595656"/>
<path d="M13.9517 33.4117H10.1243C9.5033 33.4117 9 32.8255 9 32.1023C9 31.3791 9.5033 30.793 10.1243 30.793H13.9517C14.5727 30.793 15.076 31.3791 15.076 32.1023C15.076 32.8255 14.5727 33.4117 13.9517 33.4117Z" fill="#595656"/>
</svg>
