<svg width="170" height="170" viewBox="0 0 170 170" fill="none" xmlns="http://www.w3.org/2000/svg">
<path d="M127.188 127.368C150.669 103.986 150.75 65.9968 127.368 42.5159C103.986 19.0349 65.9969 18.9543 42.516 42.3359C19.0351 65.7174 18.9545 103.707 42.336 127.188C65.7175 150.669 103.707 150.749 127.188 127.368Z" fill="#034EA1" fill-opacity="0.1"/>
<path d="M105.56 76.0022C107.578 64.5805 99.9544 53.6854 88.5327 51.6674C77.1111 49.6494 66.216 57.2725 64.1979 68.6942C62.1799 80.1159 69.8031 91.011 81.2247 93.029C92.6464 95.047 103.541 87.4239 105.56 76.0022Z" fill="#1464FF" fill-opacity="0.5"/>
<path d="M91.9895 93.3281H77.8895C61.4895 93.3281 48.1895 106.628 48.1895 123.028V132.228C58.3895 140.128 71.0895 144.828 84.9895 144.828C98.8895 144.828 111.689 140.128 121.789 132.228V123.028C121.689 106.628 108.389 93.3281 91.9895 93.3281Z" fill="#1464FF" fill-opacity="0.5"/>
<path d="M139.89 70.0328H132.29C118.79 70.0328 107.89 59.1328 107.89 45.6328V38.0328C107.89 24.5328 118.79 13.6328 132.29 13.6328H139.89C153.39 13.6328 164.29 24.5328 164.29 38.0328V45.6328C164.19 59.1328 153.29 70.0328 139.89 70.0328Z" fill="#1464FF"/>
<path d="M134.889 53.5328H129.189L119.489 43.8328L125.089 38.1328L132.089 45.0328L146.989 30.1328L152.689 35.7328L134.889 53.5328Z" fill="white"/>
</svg>
