<svg width="54" height="54" viewBox="0 0 54 54" fill="none" xmlns="http://www.w3.org/2000/svg">
<path d="M24.2173 4.84473L10.3955 42.397H43.657L29.8351 4.84473C27.0516 4.84473 27.0012 4.84473 24.2173 4.84473Z" fill="#B9D1FF" fill-opacity="0.5"/>
<path d="M30.9782 7.9502L21.5542 12.0808L16.8047 24.985L34.408 17.2692L30.9782 7.9502Z" fill="#B9D1FF" fill-opacity="0.8"/>
<path d="M12.7665 35.9564L10.3955 42.3975H22.7622L40.7543 34.511L37.3242 25.1924L12.7665 35.9564Z" fill="#B9D1FF" fill-opacity="0.8"/>
<path d="M34.6578 27.1268L30.6924 16.2129L27.3087 17.4423L31.2742 28.3562L34.6578 27.1268Z" fill="white"/>
<path d="M47.1015 49.3201H6.95215V44.4756C6.95215 42.7015 8.38999 41.2637 10.1637 41.2637H43.8899C45.664 41.2637 47.1019 42.7015 47.1019 44.4756L47.1015 49.3201Z" fill="#B9D1FF"/>
</svg>
