<svg width="148" height="131" viewBox="0 0 148 131" fill="none" xmlns="http://www.w3.org/2000/svg">
<path d="M103.866 100.014C92.0913 81.6191 93.9921 51.2422 93.9921 51.2422H113.74C113.74 51.2422 115.641 81.6191 103.866 100.014Z" fill="white"/>
<path d="M103.866 100.333C103.755 100.333 103.652 100.274 103.6 100.185C91.9064 81.9162 93.6593 51.5245 93.6741 51.2212C93.6815 51.0511 93.822 50.918 93.9922 50.918H113.74C113.911 50.918 114.051 51.0511 114.059 51.2212C114.081 51.5245 115.826 81.9162 104.133 100.185C104.073 100.274 103.97 100.333 103.866 100.333ZM94.2954 51.5615C94.1475 54.7419 93.1933 82.2564 103.866 99.416C114.539 82.2564 113.585 54.7419 113.437 51.5615H94.2954Z" fill="black"/>
<path d="M95.2642 60.4128C98.0822 51.9588 97.4313 39.7695 97.4313 39.7695H110.804C110.804 39.7695 109.82 51.3745 112.831 60.4128H95.2642Z" fill="white"/>
<path d="M112.831 60.7325H95.2643C95.1608 60.7325 95.0646 60.6807 95.0055 60.5994C94.9463 60.518 94.9315 60.4071 94.9611 60.3109C97.7273 52.0122 97.1208 39.9043 97.1134 39.786C97.1134 39.6972 97.143 39.6158 97.2022 39.5493C97.2614 39.4827 97.3501 39.4531 97.4315 39.4531H110.804C110.893 39.4531 110.982 39.4901 111.041 39.5567C111.1 39.6232 111.13 39.712 111.122 39.8008C111.115 39.9191 110.175 51.4427 113.134 60.3183C113.164 60.4145 113.149 60.5254 113.09 60.6068C113.03 60.6881 112.934 60.7399 112.831 60.7399V60.7325ZM95.7007 60.0964H112.387C109.835 52.0418 110.331 42.064 110.456 40.0966H97.7643C97.8383 42.0936 98.0971 52.5003 95.7007 60.0964Z" fill="black"/>
<path d="M101.921 65.9336H105.745L107.387 71.7989L108.896 115.83L103.763 123.034L98.8367 115.83L100.346 71.7989L101.921 65.9336Z" fill="#8AC650" stroke="black" stroke-linecap="round" stroke-linejoin="round"/>
<path d="M103.763 123.349C103.659 123.349 103.563 123.297 103.504 123.208L98.5704 116.004C98.5334 115.945 98.5112 115.879 98.5112 115.812L100.02 71.7814C100.02 71.7814 100.02 71.7297 100.027 71.7075L101.603 65.8422C101.64 65.7016 101.766 65.6055 101.914 65.6055H105.737C105.878 65.6055 106.004 65.7016 106.048 65.8422L107.69 71.7075C107.69 71.7075 107.698 71.7593 107.705 71.7814L109.214 115.812C109.214 115.886 109.199 115.953 109.155 116.012L104.029 123.216C103.97 123.297 103.874 123.349 103.77 123.349H103.763ZM99.1547 115.738L103.77 122.476L108.57 115.738L107.069 71.848L105.501 66.2563H102.165L100.664 71.848L99.1621 115.738H99.1547Z" fill="black"/>
<path d="M99.362 60.5744C99.3398 58.5848 102.076 58.4664 103.948 58.4442C105.819 58.4221 108.615 58.4812 108.637 60.4709C108.659 62.4605 106.588 66.6764 104.014 66.6764C101.418 66.6764 99.3841 62.564 99.362 60.5818V60.5744Z" fill="#8AC650" stroke="black" stroke-linecap="round" stroke-linejoin="round"/>
<path d="M104.014 66.9964C101.233 66.9964 99.0662 62.7213 99.044 60.5837C99.0292 59.5556 99.6431 58.8456 100.849 58.4683C101.758 58.1873 102.875 58.1355 103.94 58.1281C105.013 58.1133 106.137 58.1429 107.069 58.4018C108.312 58.7494 108.94 59.4447 108.955 60.4728C108.97 61.8411 108.068 64.2449 106.573 65.7538C105.767 66.5748 104.88 67.0038 104.007 67.0038L104.014 66.9964ZM104.347 58.7642C104.214 58.7642 104.081 58.7642 103.948 58.7642C102.927 58.779 101.869 58.8234 101.034 59.0822C99.8058 59.4595 99.6727 60.1177 99.6801 60.5763C99.7022 62.529 101.677 66.3529 104.014 66.3603C104.887 66.3603 105.642 65.7834 106.122 65.3026C107.454 63.9565 108.334 61.7228 108.319 60.4802C108.319 60.0216 108.164 59.3707 106.899 59.0231C106.159 58.816 105.25 58.7716 104.355 58.7716L104.347 58.7642Z" fill="black"/>
<path d="M77.8309 101.092L76.4404 59.1023C76.4404 59.1023 93.8959 50.6926 93.9772 51.95C94.3101 57.5343 91.0113 58.444 104.118 84.0281C117.121 60.4114 113.622 57.5047 113.955 51.9204C114.029 50.663 131.943 59.1245 131.943 59.1245L130.397 101.092L131.943 124.116L130.412 130.292H77.9345L76.4404 122.637L77.8309 101.099V101.092Z" fill="#0080C5"/>
<path d="M130.493 130.08C130.493 130.08 130.442 130.08 130.412 130.072C130.242 130.028 130.138 129.858 130.183 129.68L131.625 123.948L130.086 100.975L131.618 59.1852C124.051 55.6128 115.634 51.9811 114.266 51.9663C114.221 52.8983 114.288 53.7711 114.354 54.6956C114.672 59.1334 115.072 64.6585 104.399 84.0444C104.34 84.148 104.251 84.2294 104.11 84.2072C103.992 84.2072 103.881 84.1406 103.829 84.0297C93.0306 62.95 93.3339 58.4604 93.6001 54.5033C93.6519 53.6823 93.7111 52.8983 93.6667 51.9885C92.3132 52.0107 84.1328 55.6128 76.7734 59.1556L78.1565 100.938L76.9805 123.526L78.2305 129.68C78.2674 129.85 78.1565 130.02 77.979 130.057C77.8015 130.094 77.6387 129.983 77.6018 129.806L76.3444 123.608C76.3444 123.608 76.3444 123.556 76.3444 123.526L77.5204 100.923L76.1299 58.9559C76.1299 58.8302 76.1964 58.7118 76.3074 58.6601C81.2778 56.2636 92.9566 50.7755 94.0809 51.4264C94.2066 51.5004 94.288 51.6261 94.2954 51.774C94.3546 52.7947 94.2954 53.6823 94.2362 54.5329C93.9774 58.379 93.6889 62.7281 104.125 83.1865C114.414 64.3923 114.022 59.0373 113.711 54.7178C113.637 53.7193 113.57 52.7799 113.637 51.7371C113.644 51.5891 113.726 51.4634 113.851 51.3894C114.976 50.709 126.98 56.2562 132.084 58.6675C132.202 58.7192 132.268 58.8376 132.268 58.9707L130.723 100.938L132.261 123.926C132.261 123.926 132.261 123.992 132.254 124.022L130.804 129.806C130.767 129.954 130.634 130.05 130.493 130.05V130.08Z" fill="black"/>
<path d="M104.118 129.416C103.948 129.416 103.8 129.275 103.8 129.105C103.326 109.327 103.8 84.283 103.8 84.0315C103.8 83.854 103.918 83.6987 104.125 83.7209C104.303 83.7209 104.443 83.8688 104.436 84.0463C104.436 84.2978 103.962 109.327 104.436 129.098C104.436 129.275 104.303 129.423 104.125 129.423H104.118V129.416Z" fill="black"/>
<path d="M87.3798 80.4651C87.3798 80.4651 87.3132 80.4651 87.2836 80.4503L81.8547 78.7565C81.7216 78.7121 81.6328 78.5938 81.6328 78.4533V76.2048C81.6328 76.0272 81.7733 75.8867 81.9509 75.8867H93.3117C93.4892 75.8867 93.6297 76.0272 93.6297 76.2048C93.6297 76.3823 93.4892 76.5228 93.3117 76.5228H82.2689V78.2092L87.3872 79.8068L92.9937 78.3497V77.5361C92.9937 77.3586 93.1342 77.2181 93.3117 77.2181C93.4892 77.2181 93.6297 77.3586 93.6297 77.5361V78.5938C93.6297 78.7417 93.5336 78.8675 93.3931 78.9044L87.4612 80.4429C87.4612 80.4429 87.4094 80.4503 87.3798 80.4503V80.4651Z" fill="black"/>
<path d="M91.8547 88.907H83.8222C83.09 88.907 82.4761 88.3375 82.4243 87.6126L81.6403 78.4855C81.6255 78.308 81.7586 78.1526 81.9287 78.1378C82.0989 78.123 82.2616 78.2562 82.2764 78.4263L83.0604 87.5608C83.09 87.9602 83.4228 88.2709 83.8222 88.2709H91.8547C92.2615 88.2709 92.5943 87.9528 92.6165 87.5534L92.9937 78.9071C93.0011 78.7296 93.1416 78.6038 93.3266 78.6038C93.5041 78.6112 93.6372 78.7591 93.6298 78.9367L93.2526 87.5904C93.2082 88.3375 92.5943 88.9218 91.8473 88.9218L91.8547 88.907Z" fill="black"/>
<path d="M120.53 80.4647C120.53 80.4647 120.471 80.4647 120.441 80.4499L114.761 78.7561C114.628 78.7191 114.532 78.5934 114.532 78.4455V76.197C114.532 76.0194 114.672 75.8789 114.85 75.8789H126.211C126.388 75.8789 126.529 76.0194 126.529 76.197C126.529 76.3745 126.388 76.515 126.211 76.515H115.168V78.2014L120.53 79.799L125.885 78.3419V77.5283C125.885 77.3508 126.026 77.2103 126.203 77.2103C126.381 77.2103 126.521 77.3508 126.521 77.5283V78.586C126.521 78.7339 126.425 78.8596 126.285 78.8966L120.604 80.4351C120.604 80.4351 120.545 80.4499 120.523 80.4499L120.53 80.4647Z" fill="black"/>
<path d="M124.746 88.9031H116.714C115.982 88.9031 115.368 88.3336 115.316 87.6088L114.532 78.4816C114.517 78.3041 114.65 78.1488 114.82 78.134C114.99 78.1192 115.153 78.2449 115.168 78.4225L115.952 87.557C115.982 87.9564 116.314 88.267 116.714 88.267H124.746C125.153 88.267 125.486 87.949 125.508 87.5496L125.885 78.9032C125.893 78.7257 126.048 78.5926 126.218 78.6C126.396 78.6074 126.529 78.7553 126.521 78.9328L126.144 87.5866C126.1 88.3336 125.486 88.9179 124.739 88.9179L124.746 88.9031Z" fill="black"/>
<path d="M113.541 53.9563C113.607 53.7787 110.974 49.3853 111.004 49.6738C111.255 52.0258 110.02 54.1782 104.384 57.9725C103.948 58.2684 106.159 59.5923 108.637 62.4103C110.471 64.4887 111.803 68.0538 111.803 68.0538C114.931 60.4133 113.541 53.9563 113.541 53.9563Z" fill="white"/>
<path d="M111.803 68.3692C111.669 68.3692 111.551 68.2878 111.507 68.1621C111.492 68.1251 110.168 64.6266 108.4 62.6222C107.209 61.2687 106.093 60.2776 105.279 59.5527C104.362 58.7391 103.985 58.3989 104.007 58.0438C104.014 57.9107 104.088 57.7924 104.199 57.711C109.894 53.8797 110.9 51.8087 110.686 49.7155C110.671 49.5824 110.745 49.4419 110.863 49.3827C110.982 49.3235 111.144 49.3531 111.24 49.4345C111.27 49.464 113.6 52.9847 113.837 53.8945H113.859C113.874 53.9536 115.234 60.5364 112.106 68.1769C112.054 68.2952 111.936 68.3766 111.81 68.3766L111.803 68.3692ZM104.709 58.1326C104.88 58.3323 105.294 58.7095 105.701 59.0719C106.529 59.8116 107.661 60.8175 108.874 62.2006C110.227 63.7317 111.3 66.0171 111.795 67.1858C114.473 60.0483 113.237 54.0794 113.223 54.0202C113.223 54.0054 113.223 53.9906 113.223 53.9758C113.104 53.643 112.024 51.7791 111.337 50.6844C111.152 52.6667 109.665 54.782 104.717 58.1326H104.709Z" fill="black"/>
<path d="M94.1178 52.8616C94.0513 52.6841 97.2687 49.2522 97.2391 49.5406C96.9876 51.8927 98.4077 54.4075 104.044 58.2018C104.451 58.4755 101.085 59.8068 99.2213 62.5361C97.5275 65.0213 96.211 68.0612 96.211 68.0612C93.1711 60.2062 94.1104 52.869 94.1104 52.869L94.1178 52.8616Z" fill="white"/>
<path d="M96.211 68.3726C96.0779 68.3726 95.9669 68.2913 95.9152 68.1655C92.8826 60.3254 93.7924 52.8846 93.7998 52.8106H93.822C94.0587 52.0266 96.7436 49.4749 96.7731 49.4527C96.958 49.29 97.1504 49.1199 97.3796 49.2308C97.498 49.29 97.5719 49.4305 97.5572 49.5636C97.3648 51.3536 98.0157 53.7426 104.229 57.9216C104.34 57.9955 104.406 58.1139 104.406 58.247C104.406 58.5428 104.125 58.7352 103.371 59.2307C102.343 59.9112 100.627 61.0502 99.5024 62.6996C97.8456 65.133 96.5291 68.136 96.5217 68.1655C96.4699 68.2839 96.3516 68.3578 96.2258 68.3578L96.211 68.3726ZM94.4285 52.929C94.3767 53.4098 93.6741 60.0443 96.2406 67.2188C96.7362 66.1611 97.7569 64.1123 98.9551 62.352C100.153 60.599 101.936 59.4156 103.001 58.7056C103.215 58.565 103.452 58.4097 103.607 58.2914C99.0586 55.1923 96.9876 52.7219 96.8915 50.2145C96.1075 50.9837 94.6356 52.5814 94.4285 52.9216V52.929Z" fill="black"/>
<path d="M97.0319 49.5973C97.0319 49.5973 94.4432 48.5692 92.2168 51.794C92.2168 51.794 85.6193 60.1519 85.9521 68.0512C85.9521 68.0512 99.3322 73.0438 101.019 77.7997C101.019 77.7997 90.3678 57.8738 97.0393 49.6047L97.0319 49.5973Z" fill="#0080C5"/>
<path d="M101.011 78.1204C100.893 78.1204 100.782 78.0612 100.73 77.9503C100.678 77.8541 100.501 77.5139 100.227 76.9665C97.3649 72.6914 85.9596 68.3941 85.8339 68.3498C85.7156 68.3054 85.6342 68.1944 85.6268 68.0613C85.294 60.1324 91.6918 51.9372 91.9655 51.5896C94.2954 48.2168 97.1208 49.2893 97.1504 49.2967C97.2465 49.3337 97.3131 49.415 97.3427 49.5112C97.3723 49.6073 97.3427 49.7109 97.2835 49.7922C91.6327 56.804 98.8589 72.6988 100.826 76.7077C101.033 77.0331 101.204 77.3586 101.315 77.6766C101.374 77.8319 101.292 78.0094 101.144 78.076C101.1 78.0982 101.056 78.1056 101.019 78.1056L101.011 78.1204ZM86.2629 67.832C87.6608 68.3646 95.3826 71.4193 99.2657 74.9473C96.6178 69.1338 91.7584 56.3972 96.4773 49.7996C95.7007 49.6813 94.0143 49.7553 92.4758 51.9816C92.4019 52.0777 86.0632 60.2064 86.2555 67.832H86.2629Z" fill="black"/>
<path d="M111.181 49.6012C111.181 49.6012 113.77 48.5731 115.996 51.7979C115.996 51.7979 122.594 60.1558 122.261 68.0551C122.261 68.0551 109.095 73.0477 107.417 77.8036C107.417 77.8036 117.845 57.8777 111.181 49.6086V49.6012Z" fill="#0080C5"/>
<path d="M107.417 78.1236C107.372 78.1236 107.328 78.1162 107.291 78.094C107.136 78.0274 107.062 77.8499 107.113 77.6946C107.224 77.3839 107.38 77.0807 107.572 76.77C109.465 72.8426 116.603 56.8442 110.93 49.8102C110.863 49.7289 110.841 49.6253 110.871 49.5292C110.893 49.433 110.967 49.3516 111.063 49.3147C111.093 49.2999 113.918 48.2348 116.263 51.6223C116.522 51.9478 122.912 60.143 122.587 68.0719C122.587 68.1976 122.498 68.316 122.379 68.3603C122.261 68.4047 110.959 72.7316 108.171 77.0215C107.92 77.5393 107.749 77.8647 107.705 77.9534C107.646 78.0644 107.535 78.1236 107.424 78.1236H107.417ZM111.729 49.8028C116.462 56.4152 111.706 69.1665 109.118 74.9727C112.949 71.4298 120.567 68.3751 121.943 67.8352C122.143 60.2021 115.804 52.0809 115.738 51.9996C114.184 49.7584 112.498 49.6845 111.721 49.8028H111.729Z" fill="black"/>
<path d="M131.403 58.8004C131.403 58.8004 135.235 59.6583 139.576 66.071C141.595 69.0517 142.365 75.0132 143.977 80.6789C144.769 83.4599 147.409 103.297 147.409 103.297C147.409 103.297 137.187 104.821 134.147 105.538C134.147 105.538 128.859 96.9657 130.397 83.6966L131.396 58.793L131.403 58.8004Z" fill="#0080C5"/>
<path d="M134.155 105.862C134.044 105.862 133.94 105.803 133.881 105.707C133.829 105.618 128.556 96.8827 130.087 83.658L131.085 58.7765C131.085 58.6804 131.137 58.5916 131.211 58.5325C131.285 58.4733 131.381 58.4511 131.477 58.4733C131.64 58.5103 135.486 59.4274 139.85 65.8771C141.255 67.9554 142.069 71.4539 142.934 75.1521C143.348 76.9273 143.777 78.7616 144.295 80.5737C145.086 83.3473 147.631 102.43 147.734 103.244C147.757 103.414 147.638 103.576 147.461 103.599C147.357 103.613 137.217 105.13 134.229 105.84C134.206 105.84 134.177 105.847 134.155 105.847V105.862ZM131.706 59.2351L130.723 83.7171C129.34 95.6401 133.555 103.828 134.31 105.181C137.254 104.523 145.36 103.288 147.054 103.036C146.714 100.492 144.399 83.3103 143.674 80.7734C143.149 78.9465 142.72 77.1048 142.305 75.3148C141.455 71.6684 140.649 68.2291 139.31 66.2543C135.878 61.1804 132.749 59.6419 131.699 59.2425L131.706 59.2351Z" fill="black"/>
<path d="M127.283 77.1953L130.382 114.037L103.4 123.829L100.072 86.8624L127.283 77.1953Z" fill="#7D7D7C"/>
<path d="M103.4 124.148C103.341 124.148 103.282 124.133 103.23 124.096C103.149 124.044 103.09 123.955 103.082 123.852L99.7538 86.8848C99.739 86.7369 99.8278 86.6038 99.9683 86.552L127.187 76.8923C127.276 76.8627 127.387 76.8701 127.468 76.9219C127.549 76.9737 127.609 77.0624 127.616 77.166L130.708 114C130.722 114.148 130.634 114.281 130.501 114.325L103.519 124.118C103.519 124.118 103.445 124.14 103.408 124.14L103.4 124.148ZM100.412 87.0771L103.681 123.386L130.042 113.815L127.002 77.6393L100.412 87.0771Z" fill="black"/>
<path d="M110.73 87.2116C111.322 87.2116 111.802 86.748 111.802 86.1761C111.802 85.6042 111.322 85.1406 110.73 85.1406C110.138 85.1406 109.657 85.6042 109.657 86.1761C109.657 86.748 110.138 87.2116 110.73 87.2116Z" fill="black"/>
<path d="M118.822 84.4069C119.414 84.4069 119.894 83.9433 119.894 83.3714C119.894 82.7995 119.414 82.3359 118.822 82.3359C118.229 82.3359 117.749 82.7995 117.749 83.3714C117.749 83.9433 118.229 84.4069 118.822 84.4069Z" fill="black"/>
<path d="M121.196 107.293L117.535 106.457L115.272 104.675C114.51 103.787 112.609 101.657 111.573 101.295C110.264 100.836 107.424 100.341 107.424 100.341L105.153 99.5195C105.153 99.5195 102.905 101.147 105.834 102.781C105.834 102.781 108.903 103.817 108.992 103.832C109.029 103.839 110.116 104.771 110.116 104.771L108.275 106.147L104.665 106.642C104.665 106.642 103.948 106.487 103.304 106.265C102.661 106.043 101.884 105.163 101.884 105.163L101.211 103.218L100.568 102.619C100.568 102.619 99.3249 102.877 99.3545 105.163C99.3545 105.392 99.0069 106.679 99.5468 107.116C101.048 108.336 103.704 109.978 100.005 107.478C99.4137 107.079 99.2066 107.951 99.2954 109.113C99.3767 110.096 100.323 110.57 100.323 110.57L99.5912 109.978L100.124 112.448L101.573 114.053L102.084 114.963L104.17 116.457C104.17 116.457 107.735 116.96 109.295 116.613C110.856 116.265 113.4 115.917 113.4 115.917L118.556 115.814C118.556 115.814 124.007 111.953 121.203 107.301L121.196 107.293Z" fill="white"/>
<path d="M107.772 117.05C106.13 117.05 104.229 116.783 104.118 116.768C104.066 116.761 104.014 116.739 103.977 116.709L101.891 115.215C101.854 115.186 101.825 115.149 101.795 115.112L101.307 114.232L99.8796 112.656C99.8426 112.612 99.813 112.567 99.8056 112.508L99.2731 110.038C99.2731 110.038 99.2731 110.023 99.2731 110.008C99.1251 109.772 99.0068 109.476 98.9772 109.128C98.9254 108.477 98.9402 107.671 99.2657 107.279C98.7849 106.791 98.9328 105.859 99.0068 105.356C99.0216 105.267 99.0364 105.193 99.0364 105.156C98.9994 102.641 100.442 102.309 100.508 102.301C100.612 102.279 100.715 102.309 100.789 102.383L101.433 102.982C101.47 103.019 101.499 103.063 101.514 103.107L102.165 104.986C102.402 105.245 102.971 105.8 103.408 105.955C103.925 106.132 104.502 106.273 104.672 106.31L108.141 105.837L109.598 104.749C109.258 104.461 108.948 104.202 108.844 104.121C108.482 104.002 106.78 103.433 105.73 103.078C104.613 102.464 104.051 101.783 104.014 101.036C103.955 100.001 104.931 99.2834 104.968 99.2539C105.057 99.1947 105.168 99.1725 105.264 99.2095L107.535 100.03C107.601 100.03 110.368 100.519 111.684 100.985C112.742 101.354 114.539 103.322 115.516 104.461L117.683 106.155L121.277 106.976C121.366 106.998 121.433 107.05 121.477 107.124C124.399 111.968 118.799 116.021 118.74 116.058C118.689 116.095 118.629 116.118 118.563 116.118L113.408 116.221C113.408 116.221 110.893 116.561 109.362 116.909C108.933 117.005 108.371 117.042 107.772 117.042V117.05ZM104.28 116.14C104.806 116.206 107.853 116.591 109.214 116.288C110.767 115.94 113.319 115.592 113.348 115.585L118.437 115.482C119.095 114.986 123.304 111.613 120.989 107.567L117.461 106.761C117.416 106.754 117.372 106.732 117.335 106.702L115.072 104.919C113.459 103.048 112.128 101.82 111.47 101.591C110.205 101.147 107.402 100.659 107.372 100.652L105.22 99.8752C105.013 100.067 104.621 100.489 104.65 100.999C104.68 101.502 105.146 102.02 105.989 102.493C107.135 102.871 108.955 103.485 109.073 103.514C109.162 103.536 109.177 103.536 110.323 104.513C110.397 104.579 110.442 104.668 110.434 104.764C110.427 104.86 110.382 104.949 110.308 105.008L108.467 106.384C108.422 106.414 108.371 106.436 108.319 106.443L104.709 106.939C104.709 106.939 104.635 106.939 104.598 106.939C104.569 106.939 103.851 106.776 103.201 106.547C102.498 106.303 101.736 105.445 101.647 105.348C101.618 105.319 101.596 105.282 101.588 105.245L100.937 103.381L100.501 102.974C100.227 103.122 99.6577 103.61 99.6799 105.141C99.6799 105.201 99.6651 105.304 99.6429 105.445C99.5911 105.792 99.4654 106.613 99.7538 106.85C99.9091 106.976 100.072 107.101 100.235 107.227C101.561 108.125 102.217 108.647 102.202 108.795C102.187 108.914 102.113 109.017 102.01 109.061C101.943 109.091 101.832 109.061 101.677 108.988L101.662 109.002C101.662 109.002 101.633 108.98 101.596 108.951C101.1 108.699 100.316 108.115 99.813 107.723C99.7612 107.686 99.7316 107.686 99.7316 107.686C99.6799 107.738 99.5393 108.159 99.6133 109.076C99.6429 109.394 99.7834 109.653 99.9461 109.838L100.523 110.304C100.649 110.408 100.678 110.585 100.59 110.726C100.501 110.866 100.323 110.911 100.175 110.844C100.175 110.844 100.138 110.822 100.087 110.8L100.405 112.286L101.795 113.825C101.795 113.825 101.825 113.862 101.84 113.884L102.313 114.734L104.273 116.14H104.28Z" fill="black"/>
<path d="M105.39 110.169C105.331 110.169 105.257 110.169 105.183 110.169H104.828C103.578 110.169 101.137 108.697 101.034 108.638C100.886 108.549 100.834 108.349 100.923 108.201C101.011 108.053 101.211 108.002 101.359 108.09C102.025 108.49 103.933 109.525 104.821 109.525H105.183C105.804 109.54 105.804 109.533 107.335 109.082L107.979 108.889C108.149 108.837 108.326 108.934 108.378 109.104C108.43 109.274 108.334 109.451 108.164 109.503L107.52 109.695C106.093 110.117 105.923 110.169 105.383 110.169H105.39Z" fill="black"/>
<path d="M105.7 113.143C105.582 113.143 105.464 113.143 105.338 113.129C103.585 112.966 102.771 112.862 102.734 112.855C102.675 112.848 102.624 112.825 102.579 112.788L99.3839 110.222C99.2434 110.111 99.2212 109.911 99.3322 109.771C99.4431 109.63 99.6428 109.608 99.7834 109.719L102.912 112.226C103.163 112.256 103.977 112.359 105.397 112.485C106.211 112.559 106.729 112.337 107.668 111.945L107.764 111.908C107.927 111.842 108.112 111.908 108.186 112.078C108.252 112.241 108.186 112.426 108.016 112.5L107.919 112.537C107.076 112.892 106.484 113.143 105.7 113.143Z" fill="black"/>
<path d="M105.797 115.317C104.517 115.317 102.128 114.925 102.024 114.91C101.847 114.881 101.729 114.718 101.758 114.54C101.788 114.363 101.95 114.244 102.128 114.274C102.15 114.274 104.576 114.673 105.797 114.673C106.943 114.673 107.55 114.318 107.557 114.318C107.705 114.23 107.905 114.281 107.993 114.429C108.082 114.577 108.038 114.777 107.89 114.866C107.86 114.881 107.143 115.317 105.797 115.317Z" fill="black"/>
<path d="M138.252 100.516L125.427 105.582L118.555 106.758C118.555 106.758 118.711 106.632 119.325 110.553C119.739 113.208 117.816 115.057 116.78 116.255C116.78 116.255 118.888 116.078 122.165 116.351C124.813 116.573 129.428 116.669 133.193 116.255C136.884 115.848 143.489 112.365 144.975 111.337C148.673 108.785 146.654 101.374 146.654 101.374L138.252 100.516Z" fill="#0080C5"/>
<path d="M124.813 115.117C124.761 115.117 124.702 115.102 124.65 115.072C124.495 114.983 124.443 114.791 124.532 114.636C126.381 111.411 124.746 107.424 124.732 107.387C124.665 107.225 124.739 107.04 124.902 106.966C125.064 106.899 125.249 106.973 125.323 107.136C125.397 107.313 127.098 111.455 125.087 114.954C125.027 115.057 124.916 115.117 124.805 115.117H124.813Z" fill="black"/>
<path d="M126.758 116.794C124.976 116.794 123.319 116.75 122.15 116.676C118.659 116.446 116.795 116.38 116.773 116.38C116.64 116.38 116.522 116.284 116.477 116.158C116.44 116.032 116.477 115.892 116.588 115.803C118.319 114.479 119.399 113.081 119.007 110.603C118.474 107.208 117.727 106.898 117.72 106.898C117.557 106.89 117.446 106.757 117.439 106.594C117.431 106.432 117.579 106.291 117.742 106.269L125.346 105.278L134.021 101.572C134.184 101.506 134.369 101.572 134.443 101.742C134.517 101.913 134.443 102.09 134.273 102.164L125.553 105.892C125.553 105.892 125.501 105.914 125.471 105.914L118.519 106.824C118.888 107.364 119.317 108.429 119.643 110.515C120.042 113.074 118.999 114.597 117.638 115.788C118.511 115.833 120.042 115.907 122.187 116.047C124.769 116.217 129.695 116.225 133.163 115.951C136.662 115.67 141.521 113.303 144.791 111.084C147.875 108.983 146.995 102.09 146.987 102.024C146.965 101.846 147.083 101.683 147.261 101.661C147.431 101.631 147.594 101.757 147.623 101.935C147.66 102.231 148.57 109.294 145.153 111.617C142.061 113.717 137.076 116.284 133.215 116.594C131.292 116.75 128.925 116.816 126.751 116.816L126.758 116.794Z" fill="black"/>
<path d="M134.155 102.174C134.073 102.174 133.999 102.145 133.94 102.085C133.844 101.997 133.807 101.856 133.859 101.73C133.94 101.531 135.833 96.8709 140.412 96.3606C140.582 96.3458 140.745 96.4715 140.767 96.6416C140.789 96.8117 140.656 96.9745 140.486 96.9966C137.387 97.3369 135.582 99.8664 134.842 101.183C137.786 99.933 140.93 99.5484 141.078 99.5336C141.248 99.5114 141.41 99.6372 141.433 99.8147C141.455 99.9922 141.329 100.148 141.151 100.17C141.115 100.17 137.342 100.636 134.295 102.137C134.251 102.159 134.199 102.167 134.155 102.167V102.174Z" fill="black"/>
<path d="M124.073 22.5255C124.073 24.7149 113.74 25.9057 102.727 25.9057C91.714 25.9057 83.9922 25.2252 83.9922 22.5625C83.9922 21.3717 92.9196 20.4102 103.933 20.4102C114.946 20.4102 124.073 21.3347 124.073 22.5181V22.5255Z" fill="white"/>
<path d="M102.727 26.2293C89.1918 26.2293 83.6667 25.1716 83.6667 22.568C83.6667 20.6154 96.9211 20.0977 103.925 20.0977C104.761 20.0977 124.391 20.1272 124.391 22.5237C124.391 26.1257 104.946 26.2293 102.727 26.2293ZM103.925 20.7411C91.8693 20.7411 84.6727 21.8358 84.3028 22.5976C84.3028 25.2825 94.8205 25.5932 102.727 25.5932C115.834 25.5932 123.689 24.0473 123.748 22.5459C123.311 21.8062 116.041 20.7411 103.925 20.7411Z" fill="black"/>
<path d="M92.5793 30.2435C93.3042 32.4107 94.8204 36.1828 92.816 36.8485C90.8116 37.5142 88.6519 36.6858 86.7214 32.4772C85.7673 30.3988 86.5809 27.64 88.5853 26.9743C90.5897 26.3086 91.8545 28.0764 92.5793 30.2435Z" fill="white"/>
<path d="M91.6032 37.3831C89.6284 37.3831 87.8976 35.7855 86.4405 32.6199C85.8784 31.3995 85.8636 29.935 86.4036 28.6924C86.8325 27.6939 87.5796 26.9764 88.4893 26.6732C90.368 26.0519 91.9287 27.2797 92.8902 30.1495L93.1047 30.7782C93.7482 32.6569 94.5544 35.0015 93.9035 36.3181C93.7038 36.7249 93.371 37.0133 92.9272 37.1613C92.476 37.3092 92.0396 37.3831 91.6106 37.3831H91.6032ZM89.4065 27.1539C89.1846 27.1539 88.9479 27.1909 88.689 27.2797C87.9494 27.5238 87.3429 28.1155 86.9879 28.9439C86.5293 30.0016 86.5441 31.3033 87.0175 32.3462C88.6299 35.8521 90.5455 37.2722 92.7127 36.5474C92.9937 36.4512 93.186 36.2885 93.3118 36.0296C93.8443 34.9497 93.0603 32.6495 92.4834 30.9779L92.2689 30.3492C91.7659 28.8329 90.871 27.1539 89.3991 27.1539H89.4065Z" fill="black"/>
<path d="M115.279 30.2435C114.554 32.4107 113.038 36.1828 115.042 36.8485C117.047 37.5142 119.207 36.6858 121.137 32.4772C122.091 30.3988 121.277 27.64 119.273 26.9743C117.269 26.3086 116.004 28.0764 115.279 30.2435Z" fill="white"/>
<path d="M116.262 37.3815C115.833 37.3815 115.397 37.3075 114.946 37.1596C114.502 37.0116 114.177 36.7306 113.97 36.3164C113.319 34.9924 114.118 32.6552 114.768 30.7765L114.983 30.1478C115.404 28.883 115.944 27.9289 116.58 27.315C117.379 26.5458 118.348 26.3239 119.376 26.6715C120.293 26.9747 121.033 27.6922 121.462 28.6907C122.002 29.9259 121.987 31.3978 121.425 32.6182C119.968 35.7838 118.237 37.3815 116.262 37.3815ZM118.444 27.1523C117.927 27.1523 117.461 27.3594 117.024 27.781C116.462 28.3209 115.981 29.1863 115.589 30.3475L115.375 30.9762C114.798 32.6478 114.014 34.9406 114.546 36.0279C114.672 36.2794 114.872 36.4495 115.146 36.5457C117.313 37.2705 119.236 35.8578 120.841 32.3445C121.322 31.3016 121.329 29.9999 120.87 28.9422C120.508 28.1138 119.909 27.5221 119.169 27.278C118.918 27.1966 118.674 27.1523 118.444 27.1523Z" fill="black"/>
<path d="M117.305 23.2021C117.106 35.1251 114.554 47.906 103.829 47.906C92.4166 47.906 90.353 33.4757 90.353 23.2021C90.353 12.9286 96.7509 5.6875 104.192 5.6875C111.632 5.6875 117.476 12.9286 117.305 23.2021Z" fill="white"/>
<path d="M103.43 48.018C103.43 48.018 103.415 48.018 103.408 48.018C91.8176 47.2192 90.5898 32.5596 90.5824 32.4117C90.5676 32.2342 90.7008 32.0788 90.8783 32.0714C91.0558 32.0566 91.2111 32.1898 91.2185 32.3673C91.2259 32.5078 92.4167 46.6275 103.452 47.3819C103.63 47.3967 103.763 47.5447 103.748 47.7222C103.733 47.8923 103.593 48.018 103.43 48.018Z" fill="black"/>
<path d="M104.65 48.0202C104.48 48.0202 104.34 47.8944 104.332 47.7243C104.317 47.5468 104.451 47.3915 104.628 47.3841C115.656 46.6297 116.669 32.362 116.677 32.2215C116.692 32.044 116.825 31.9109 117.017 31.9183C117.194 31.9257 117.328 32.081 117.32 32.2585C117.313 32.4064 116.263 47.2214 104.672 48.0202C104.665 48.0202 104.658 48.0202 104.65 48.0202Z" fill="black"/>
<path d="M110.959 27.1599C110.959 27.8921 110.412 28.4838 109.746 28.4838C109.081 28.4838 108.533 27.8921 108.533 27.1599C108.533 26.4276 109.081 25.8359 109.746 25.8359C110.412 25.8359 110.959 26.4276 110.959 27.1599Z" fill="black"/>
<path d="M97.9195 28.4838C98.5895 28.4838 99.1326 27.8911 99.1326 27.1599C99.1326 26.4287 98.5895 25.8359 97.9195 25.8359C97.2496 25.8359 96.7065 26.4287 96.7065 27.1599C96.7065 27.8911 97.2496 28.4838 97.9195 28.4838Z" fill="black"/>
<path d="M94.9538 25.0224C94.8725 25.0224 94.7985 24.9928 94.7319 24.9336C94.6062 24.8153 94.5988 24.6082 94.7171 24.4824C94.7467 24.4528 97.402 21.6644 100.346 23.8537C100.486 23.9573 100.516 24.157 100.412 24.3049C100.309 24.4455 100.109 24.475 99.9612 24.3715C97.476 22.5224 95.2793 24.8227 95.1831 24.9188C95.1165 24.9854 95.0352 25.0224 94.9464 25.0224H94.9538Z" fill="black"/>
<path d="M112.727 25.0224C112.638 25.0224 112.557 24.9854 112.49 24.9188C112.394 24.8227 110.198 22.5224 107.712 24.3715C107.572 24.475 107.372 24.4455 107.261 24.3049C107.158 24.1644 107.187 23.9647 107.328 23.8537C110.272 21.6644 112.927 24.4528 112.956 24.4824C113.075 24.6082 113.067 24.8153 112.942 24.9336C112.882 24.9928 112.801 25.0224 112.72 25.0224H112.727Z" fill="black"/>
<path d="M103.829 34.5793C103.652 34.5793 103.511 34.4387 103.511 34.2612V33.529C103.511 33.3515 103.652 33.2109 103.829 33.2109C104.007 33.2109 104.147 33.3515 104.147 33.529V34.2612C104.147 34.4387 104.007 34.5793 103.829 34.5793Z" fill="black"/>
<path d="M107.136 37.6353C103.681 43.8557 100.523 37.6723 100.523 37.6723C100.523 37.6723 102.121 37.406 103.948 37.3912C105.767 37.3764 107.136 37.6353 107.136 37.6353Z" fill="white"/>
<path d="M103.874 40.7845C103.874 40.7845 103.844 40.7845 103.829 40.7845C101.692 40.7475 100.242 37.9591 100.183 37.8407C100.131 37.7298 100.131 37.604 100.183 37.5005C100.235 37.3969 100.338 37.3156 100.457 37.3008C100.523 37.2934 102.106 37.0345 103.94 37.0123C105.775 36.9975 107.15 37.2564 107.202 37.2638C107.32 37.286 107.424 37.3674 107.476 37.4783C107.527 37.5892 107.52 37.715 107.461 37.8185C106.366 39.786 105.161 40.7845 103.874 40.7845ZM101.137 37.9665C101.603 38.6913 102.624 40.0079 103.844 40.0301C104.732 40.0522 105.649 39.3348 106.522 37.9221C105.967 37.8481 105.035 37.752 103.94 37.7668C102.801 37.7742 101.744 37.8851 101.13 37.9665H101.137Z" fill="black"/>
<path d="M118.001 23.5901C118.001 25.0398 117.298 30.8608 117.298 30.8608C117.298 30.8608 119.976 27.3623 120.308 24.5813C120.479 23.139 119.983 20.957 119.273 20.957C118.563 20.957 117.993 22.1331 117.993 23.5901H118.001Z" fill="#4F4A4E"/>
<path d="M117.305 31.1844C117.268 31.1844 117.224 31.177 117.187 31.1622C117.054 31.1104 116.973 30.9699 116.987 30.8293C116.987 30.7702 117.683 25.0158 117.683 23.5957C117.683 21.9093 118.37 20.6445 119.28 20.6445C119.428 20.6445 119.657 20.6963 119.879 20.9478C120.478 21.6282 120.774 23.4478 120.634 24.6238C120.294 27.4566 117.668 30.9107 117.557 31.0586C117.498 31.14 117.402 31.1844 117.305 31.1844ZM119.28 21.2806C118.829 21.2806 118.319 22.2717 118.319 23.5883C118.319 24.6312 117.971 27.8264 117.764 29.6311C118.57 28.4033 119.783 26.3028 119.99 24.5424C120.123 23.4256 119.828 21.8575 119.399 21.3694C119.332 21.2954 119.295 21.2806 119.28 21.2806Z" fill="black"/>
<path d="M89.9905 23.4847C89.9905 24.9344 90.6192 30.9624 90.6192 30.9624C90.6192 30.9624 88.0083 27.2568 87.6755 24.4758C87.5053 23.0335 88.0009 20.8516 88.711 20.8516C89.421 20.8516 89.9905 22.0276 89.9905 23.4847Z" fill="#4F4A4E"/>
<path d="M90.6193 31.2864C90.5157 31.2864 90.4196 31.2346 90.3604 31.1533C90.2495 30.998 87.6977 27.3441 87.3649 24.5261C87.2243 23.3501 87.5128 21.5232 88.1193 20.8501C88.3412 20.5986 88.5705 20.5469 88.7184 20.5469C89.6282 20.5469 90.316 21.8191 90.316 23.498C90.316 24.9181 90.9373 30.8796 90.9447 30.9388C90.9595 31.0867 90.8781 31.2198 90.7376 31.2716C90.7006 31.2864 90.6637 31.2938 90.6267 31.2938L90.6193 31.2864ZM88.711 21.1756C88.711 21.1756 88.6518 21.1978 88.5927 21.2643C88.1563 21.7525 87.8678 23.3279 88.001 24.4374C88.2081 26.1903 89.3841 28.3722 90.1681 29.6666C89.9832 27.8027 89.6725 24.5261 89.6725 23.4832C89.6725 22.1593 89.1696 21.1756 88.711 21.1756Z" fill="black"/>
<path d="M121.299 20.3984C121.299 10.6352 117.054 5.39116 110.641 2.72106C109.214 0.479959 106.551 0.332031 103.999 0.332031C101.448 0.332031 98.6444 0.472562 97.2317 2.90597C91.174 5.77577 86.8176 9.37041 86.8176 20.3836C85.0276 20.6943 83.6667 22.9724 83.9921 22.7653C85.538 21.8037 92.964 20.1173 104.007 20.1173C115.05 20.1173 121.529 22.0774 123.992 22.7653C124.384 22.8762 123.245 20.7239 121.299 20.4058V20.3984Z" fill="white"/>
<path d="M83.9551 23.0767C83.8812 23.0767 83.8146 23.0619 83.7628 23.0249C83.6593 22.951 83.6001 22.7735 83.6297 22.6477C83.7258 22.2113 84.9389 20.5398 86.4921 20.1108C86.5513 9.68926 90.3974 5.79137 96.995 2.6479C98.4668 0.207099 101.144 0 103.985 0C106.632 0 109.34 0.192307 110.841 2.4556C118.015 5.48072 121.536 11.2647 121.61 20.1329C123.089 20.5028 124.125 21.8193 124.339 22.4554C124.413 22.6699 124.391 22.8474 124.28 22.9658C124.199 23.0545 124.014 23.0915 123.903 23.0619L123.555 22.9658C120.848 22.2039 114.517 20.4288 104.007 20.4288C92.9269 20.4288 85.6119 22.1226 84.1622 23.0249C84.1031 23.0619 84.0291 23.0767 83.9551 23.0767ZM104.007 19.7853C114.376 19.7853 120.723 21.5013 123.548 22.2927C123.193 21.7528 122.372 20.8948 121.248 20.7099C121.092 20.6877 120.981 20.5471 120.981 20.3918C120.981 11.6271 117.557 5.9393 110.516 3.01033C110.456 2.98814 110.405 2.94376 110.368 2.88459C109.051 0.813602 106.603 0.643486 103.992 0.643486C101.211 0.643486 98.7997 0.828394 97.5053 3.0547C97.4757 3.11388 97.4239 3.15826 97.3648 3.18044C90.8855 6.24994 87.1356 10.0443 87.1356 20.3622C87.1356 20.5176 87.0246 20.6507 86.8693 20.6803C86.0261 20.8282 85.2643 21.4791 84.7835 22.0338C87.5794 20.9983 94.5763 19.7779 104.007 19.7779V19.7853Z" fill="black"/>
<path d="M96.2627 15.9952C96.0999 15.9952 95.9594 15.8695 95.9446 15.7068C95.205 7.84443 96.9727 2.98501 97.0541 2.78531C97.1132 2.62259 97.2982 2.53383 97.4683 2.6004C97.631 2.65957 97.7197 2.84448 97.6532 3.0146C97.6384 3.06637 95.8559 7.95538 96.5807 15.655C96.5955 15.8325 96.4698 15.9878 96.2923 16.0026C96.2849 16.0026 96.2701 16.0026 96.2627 16.0026V15.9952Z" fill="black"/>
<path d="M111.729 15.9974C111.729 15.9974 111.699 15.9974 111.684 15.9974C111.507 15.9752 111.381 15.8124 111.411 15.6423C112.379 8.06844 110.368 3.07588 110.345 3.0241C110.279 2.86138 110.353 2.67648 110.516 2.60251C110.678 2.53594 110.863 2.60991 110.937 2.77263C111.026 2.97973 113.038 7.95749 112.047 15.7163C112.024 15.879 111.891 15.9974 111.729 15.9974Z" fill="black"/>
<path d="M118.578 21.6403L117.217 21.2187C117.942 41.3516 109.488 46.0409 103.815 46.7732C98.4004 46.2036 90.0129 41.2111 90.7378 21.0781L89.3842 21.3148C89.3842 21.3148 88.0159 48.8294 103.837 48.1415H104.029C119.85 48.8294 118.585 21.6329 118.585 21.6329L118.578 21.6403Z" fill="#CCCDCD"/>
<path d="M103.23 48.6608C100.109 48.6608 97.4166 47.5513 95.2421 45.3694C88.1268 38.2097 88.8442 21.9894 88.8812 21.3016C88.896 21.0723 89.0661 20.8726 89.2954 20.8356L90.649 20.5989C90.7969 20.5693 90.9522 20.6137 91.0632 20.7098C91.1741 20.806 91.2407 20.9539 91.2333 21.1019C90.4493 43.0173 100.582 45.9093 103.807 46.2717C108.97 45.5839 117.439 41.4049 116.721 21.2424C116.721 21.0797 116.788 20.9243 116.914 20.8282C117.039 20.732 117.209 20.7025 117.365 20.7468L118.726 21.1684C118.925 21.2276 119.066 21.4125 119.073 21.6196C119.103 22.2927 119.761 38.2467 112.668 45.3546C110.338 47.6918 107.424 48.8087 103.992 48.6534H103.822C103.622 48.6608 103.423 48.6682 103.23 48.6682V48.6608ZM89.8649 21.7453C89.7984 24.2897 89.7392 38.4168 95.9522 44.6667C98.0601 46.7821 100.693 47.788 103.807 47.6549H104.022C107.172 47.788 109.843 46.7821 111.965 44.6519C118.186 38.4168 118.141 24.408 118.09 22.019L117.735 21.9081C118.26 42.3369 109.303 46.575 103.874 47.2703C103.837 47.2703 103.792 47.2703 103.755 47.2703C100.405 46.9152 89.6061 44.0232 90.2126 21.6788L89.8575 21.7379L89.8649 21.7453Z" fill="black"/>
<path d="M76.544 58.7578C73.2895 59.4975 68.9183 62.6927 67.3724 68.5802C66.5736 71.6201 67.4168 77.7665 67.2097 82.3153C66.5219 97.1672 69.2659 100.148 75.1239 102.345C76.2407 102.766 79.2067 101.501 80.3901 101.028C80.3901 101.028 78.5854 72.2784 78.4226 69.9411C77.7422 60.422 76.5514 58.7578 76.5514 58.7578H76.544Z" fill="#0080C5"/>
<path d="M75.6934 102.742C75.4346 102.742 75.2053 102.713 75.013 102.639C68.7335 100.287 66.2187 96.9361 66.8918 82.2987C66.9731 80.5161 66.8917 78.4673 66.8178 76.4851C66.692 73.349 66.5737 70.3831 67.0693 68.497C68.5929 62.6761 72.8976 59.2515 76.4775 58.4379C76.6032 58.4084 76.7363 58.4601 76.8103 58.5637C76.8621 58.6376 78.0677 60.4128 78.7408 69.9097C78.9035 72.2174 80.6934 100.708 80.7082 100.997C80.7156 101.137 80.6342 101.263 80.5085 101.315L80.2126 101.433C78.6076 102.077 76.8547 102.735 75.6934 102.735V102.742ZM76.3813 59.1258C73.0381 59.9912 69.1107 63.2308 67.6906 68.6597C67.2172 70.4571 67.3355 73.3712 67.4613 76.4555C67.5426 78.4525 67.624 80.5161 67.5352 82.3209C66.877 96.5589 69.266 99.7911 75.2423 102.032C76.1594 102.372 78.8369 101.3 79.976 100.834L80.0573 100.797C79.8872 98.0604 78.26 72.136 78.1047 69.9467C77.5573 62.3062 76.6698 59.7619 76.3813 59.111V59.1258Z" fill="black"/>
<path d="M68.2824 89.044C68.2824 89.044 68.2306 89.044 68.201 89.0366C68.0309 88.9923 67.9273 88.8221 67.9717 88.6446C68.948 84.7393 72.8015 81.9139 74.3104 80.9302C72.9199 80.7379 70.5604 81.5589 69.6433 81.9509C69.4806 82.0175 69.2957 81.9509 69.2217 81.7808C69.1477 81.6107 69.2217 81.4331 69.3918 81.3592C69.8134 81.1817 73.5782 79.621 75.235 80.5604C75.3385 80.6195 75.3977 80.7231 75.3977 80.8414C75.3977 80.9598 75.3385 81.0633 75.235 81.1225C75.1832 81.1521 69.7246 84.2956 68.593 88.8073C68.556 88.9553 68.4229 89.0514 68.2824 89.0514V89.044Z" fill="black"/>
<path d="M95.4048 61.7378C98.1415 63.72 100.257 66.6638 99.2361 68.0765C98.2154 69.4892 95.1681 68.8531 92.4241 66.8709C89.68 64.8886 88.6667 61.1904 90.2569 60.473C90.893 60.1845 92.6682 59.7555 95.4048 61.7378Z" fill="#8FABB2"/>
<path d="M97.387 69.1543C95.9521 69.1543 94.0734 68.4517 92.2391 67.1203C90.0646 65.5449 89.0513 63.1115 89.1992 61.6248C89.2658 60.9222 89.5986 60.4118 90.1237 60.1677C90.8042 59.8571 92.6977 59.3689 95.5971 61.4695C98.4373 63.5257 100.678 66.6248 99.5023 68.252C99.066 68.8585 98.3189 69.147 97.3944 69.147L97.387 69.1543ZM91.529 60.545C90.9595 60.545 90.5749 60.6781 90.39 60.7595C90.072 60.9074 89.8871 61.218 89.8353 61.6914C89.7021 63.0228 90.7007 65.2195 92.6163 66.6026C95.2568 68.5109 98.1044 69.0878 98.9772 67.8822C99.776 66.7727 98.0231 64.0213 95.2198 61.9947C93.6148 60.8334 92.3648 60.545 91.529 60.545Z" fill="black"/>
<path d="M110.819 43.5358L99.976 49.0979C99.6875 47.2044 99.51 46.1024 99.51 46.1024C99.2807 44.4752 98.6224 43.1808 98.0751 42.7222C96.9656 41.7977 95.9745 43.055 95.9745 43.055C97.3429 45.9618 96.3 49.268 96.3 49.268C96.3 49.268 95.1979 50.7991 93.9997 52.6703C92.979 54.2606 91.655 59.7265 91.2926 61.2723L88.4006 66.006L89.8651 71.1317L95.1683 72.2412L98.334 65.4587C98.334 65.4587 102.15 63.3137 104.133 61.5978C106.411 59.6303 110.087 54.3937 110.087 54.3937C110.353 53.1363 109.436 52.7147 109.133 52.6112L109.436 52.3671C109.754 50.8656 108.386 50.555 108.386 50.555L107.927 50.8508L109.576 49.5269C109.828 48.3213 109.007 47.8923 108.674 47.7665L111.988 45.3923C113.689 42.9367 110.841 43.5284 110.841 43.5284L110.819 43.5358Z" fill="white"/>
<path d="M96.7584 69.1198C96.714 69.1198 96.6622 69.1124 96.6179 69.0902C96.4625 69.0088 96.396 68.8239 96.4699 68.6612L98.3042 64.926C98.3338 64.8373 98.356 64.8225 98.6962 64.645C101.07 63.4024 102.823 62.3003 103.911 61.3536C106.004 59.5415 109.369 54.83 109.769 54.2679C109.931 53.3729 109.369 53.0401 109.014 52.9217C108.903 52.8847 108.822 52.7886 108.8 52.6702C108.778 52.5519 108.822 52.441 108.918 52.367L109.125 52.1969C109.258 51.3315 108.681 51.0134 108.415 50.9099L108.082 51.1244C107.942 51.2132 107.749 51.1762 107.653 51.043C107.557 50.9025 107.579 50.7102 107.712 50.6066L109.266 49.3567C109.391 48.5652 108.948 48.2176 108.541 48.0697C108.43 48.0253 108.349 47.9292 108.334 47.8108C108.319 47.6925 108.371 47.5741 108.467 47.5076L111.729 45.1703C112.291 44.3419 112.187 44.0535 112.143 43.9869C111.995 43.765 111.351 43.7576 110.922 43.839L100.116 49.3862C100.028 49.4306 99.9166 49.4306 99.8205 49.3862C99.7317 49.3419 99.6652 49.2531 99.6504 49.1496C99.3619 47.2561 99.1844 46.1614 99.1844 46.1614C98.9699 44.6156 98.356 43.3878 97.8604 42.9736C97.6164 42.7739 97.3797 42.6851 97.1282 42.7147C96.7954 42.7517 96.5069 42.9736 96.3442 43.1289C97.6164 46.0653 96.6326 49.2383 96.5957 49.3788C96.5883 49.4084 96.5735 49.438 96.5513 49.4676C96.5439 49.4824 95.4418 51.0134 94.2584 52.8551C93.3782 54.2309 92.3945 58.543 91.9729 60.3847L91.8324 60.9986C91.825 61.0355 91.8102 61.0725 91.788 61.1095L89.865 63.9275C89.7614 64.0755 89.5691 64.1124 89.4212 64.0089C89.2732 63.9127 89.2363 63.713 89.3398 63.5651L91.2333 60.7989L91.359 60.2441C91.825 58.2101 92.7865 53.9794 93.7259 52.5075C94.8057 50.8285 95.8116 49.401 96.004 49.1348C96.1223 48.7354 96.8989 45.7768 95.6859 43.2029C95.6341 43.0919 95.6489 42.9662 95.7229 42.87C95.7451 42.8404 96.285 42.16 97.069 42.0786C97.498 42.0342 97.9048 42.1674 98.282 42.4854C98.859 42.9662 99.5838 44.2901 99.8279 46.0653C99.8279 46.0653 99.9758 46.9972 100.227 48.617L110.678 43.2546C110.678 43.2546 110.73 43.2325 110.76 43.2251C110.908 43.1955 112.232 42.944 112.69 43.6393C112.986 44.083 112.838 44.7191 112.239 45.5845C112.217 45.6141 112.195 45.6437 112.165 45.6659L109.266 47.7442C109.672 48.0401 110.094 48.6096 109.887 49.6081C109.872 49.6821 109.835 49.7487 109.776 49.793L108.94 50.4661C109.458 50.762 109.968 51.3907 109.746 52.4631C109.739 52.5001 109.724 52.5371 109.702 52.5667C110.22 52.9143 110.597 53.543 110.397 54.4824C110.39 54.5267 110.368 54.5637 110.346 54.6007C110.198 54.8152 106.625 59.8891 104.34 61.8639C102.646 63.3284 99.9018 64.7633 99.0069 65.2367C98.9403 65.2737 98.8885 65.2959 98.8516 65.3181L97.0616 68.9645C97.0025 69.0754 96.8915 69.142 96.7732 69.142L96.7584 69.1198Z" fill="black"/>
<path d="M103.718 50.9704C103.578 50.9704 103.452 50.8742 103.408 50.7337C103.363 50.5636 103.46 50.386 103.63 50.3417C105.146 49.9201 108.556 47.5458 108.585 47.5236C108.733 47.4201 108.933 47.4571 109.029 47.605C109.133 47.7529 109.096 47.9526 108.948 48.0488C108.807 48.1523 105.412 50.5118 103.792 50.963C103.763 50.9704 103.733 50.9777 103.704 50.9777L103.718 50.9704Z" fill="black"/>
<path d="M105.693 52.6844C105.59 52.6844 105.494 52.64 105.434 52.5513C105.331 52.4033 105.368 52.2036 105.508 52.1075L107.831 50.4655C107.979 50.3619 108.179 50.3989 108.275 50.5394C108.378 50.6874 108.341 50.8871 108.201 50.9832L105.878 52.6252C105.819 52.6622 105.76 52.6844 105.693 52.6844Z" fill="black"/>
<path d="M107.261 54.8572C107.18 54.8572 107.098 54.8276 107.039 54.7685C106.913 54.6427 106.906 54.443 107.039 54.3173L108.829 52.4682C108.955 52.3425 109.155 52.3351 109.28 52.4682C109.406 52.6013 109.413 52.7936 109.28 52.9194L107.49 54.7685C107.424 54.835 107.342 54.8646 107.261 54.8646V54.8572Z" fill="black"/>
<path d="M89.5024 61.082C89.5024 61.082 86.4182 65.2018 83.2007 70.0982C78.0233 77.9754 70.0352 85.9561 69.4361 90.8451C69.4361 90.8451 67.1802 99.2252 73.7703 102.376C77.1061 103.966 80.8339 101.488 83.2821 98.7148C88.1489 93.2119 91.8323 84.1513 95.9225 74.2328C96.8544 71.9695 98.3115 70.3645 99.2361 68.079C99.2361 68.079 94.2953 67.0065 93.2672 66.3926C91.4181 65.2832 89.5024 61.082 89.5024 61.082Z" fill="#0080C5"/>
<path d="M75.9968 103.186C75.2202 103.186 74.4288 103.03 73.6374 102.646C66.8771 99.4208 69.1034 90.8336 69.133 90.7448C69.525 87.5496 72.9199 83.1931 76.8474 78.1562C78.948 75.4639 81.1151 72.6829 82.942 69.9092C86.1299 65.0646 89.2216 60.9226 89.2585 60.8783C89.3251 60.7895 89.436 60.7377 89.547 60.7525C89.6579 60.7673 89.7541 60.8339 89.8059 60.9374C89.8281 60.9818 91.6993 65.0572 93.4375 66.1075C94.2437 66.5883 97.9493 67.461 99.3102 67.7569C99.399 67.7791 99.4803 67.8382 99.5247 67.9196C99.5691 68.001 99.5765 68.1045 99.5395 68.1933C99.0587 69.3693 98.4448 70.3752 97.8457 71.3515C97.2688 72.2835 96.6771 73.2524 96.2259 74.3471L96.0188 74.85C92.0766 84.4209 88.3488 93.4593 83.5337 98.9104C82.5278 100.049 79.4435 103.186 76.0042 103.186H75.9968ZM89.4434 61.6919C88.5781 62.8679 86.0485 66.3368 83.4672 70.2643C81.6255 73.0675 79.4509 75.8559 77.343 78.5556C73.63 83.3115 70.1315 87.8011 69.7469 90.8706C69.7173 90.9963 67.6315 99.0806 73.9037 102.069C77.8015 103.925 81.877 99.798 83.0382 98.4888C87.7867 93.1191 91.4922 84.1251 95.4123 74.6059L95.6194 74.103C96.0928 72.9565 96.6993 71.9728 97.2836 71.0187C97.8088 70.1681 98.3487 69.2879 98.7851 68.3042C97.5943 68.0379 93.9996 67.2022 93.0973 66.6622C91.5514 65.7377 90.013 62.8531 89.4434 61.6992V61.6919Z" fill="black"/>
<path d="M93.5113 72.824C88.3782 72.824 87.0986 67.506 87.0912 67.4468C87.0542 67.2767 87.1578 67.1065 87.3353 67.0622C87.5054 67.0252 87.6829 67.1287 87.7199 67.2989C87.7717 67.5207 89.0586 72.8092 94.4654 72.1139C94.6429 72.0917 94.7982 72.2174 94.8204 72.3876C94.8426 72.5651 94.7169 72.7204 94.5468 72.7426C94.1843 72.787 93.8441 72.8092 93.5187 72.8092L93.5113 72.824Z" fill="black"/>
<path d="M48.1937 107.626L49.8653 130.289H60.8489C60.5457 126.909 60.1093 122.471 59.4658 116.524C58.3712 106.376 57.7499 98.4549 57.6685 93.9357C57.5058 85.3633 55.7528 77.1829 55.7528 77.1829C54.0813 66.399 42.2249 62.9375 42.2249 62.9375L47.5576 83.2332L48.1937 107.612V107.626Z" fill="#8AC650"/>
<path d="M60.7971 130.109C60.6344 130.109 60.4939 129.983 60.4791 129.813C60.161 126.226 59.7468 122.143 59.1477 116.559C58.0679 106.596 57.4318 98.5632 57.343 93.9405C57.1877 85.5012 55.4495 77.3356 55.4347 77.2543C53.8075 66.7884 42.247 63.2825 42.1287 63.2529C41.9585 63.2011 41.8624 63.0236 41.9142 62.8535C41.9659 62.6834 42.1435 62.5872 42.3136 62.639C42.4319 62.676 54.3845 66.2854 56.0708 77.1433C56.0856 77.2099 57.8386 85.4347 57.9939 93.9331C58.0826 98.541 58.7187 106.551 59.7912 116.492C60.3977 122.076 60.8045 126.167 61.13 129.761C61.1448 129.939 61.019 130.094 60.8415 130.109C60.8341 130.109 60.8193 130.109 60.8119 130.109H60.7971Z" fill="black"/>
<path d="M15.8717 108.533C15.6867 113.637 14.7696 122.697 13.9264 130.293H55.3979C54.4512 119.702 53.2234 105.552 53.2973 104.095C53.645 96.9725 54.8358 90.9001 54.6139 85.9963C54.4142 81.6102 51.8033 68.2967 46.2338 64.7687L37.3064 61.0039L22.9796 61.285C22.9796 61.285 13.2016 62.6089 7.83179 67.0763C7.83179 67.0763 11.0788 82.6161 13.7341 95.7447C14.9841 101.921 15.9974 105.323 15.8864 108.54L15.8717 108.533Z" fill="#8AC650"/>
<path d="M13.7119 130.282C13.7119 130.282 13.6897 130.282 13.675 130.282C13.4974 130.26 13.3717 130.104 13.3939 129.927C14.0448 124.084 15.169 113.44 15.3687 107.856L14.7696 100.068C14.7548 99.89 14.888 99.7347 15.0655 99.7199C15.243 99.7051 15.3983 99.8382 15.4057 100.016L16.0048 107.834C15.8051 113.477 14.6809 124.135 14.03 129.993C14.0152 130.156 13.8747 130.274 13.7119 130.274V130.282Z" fill="black"/>
<path d="M55.1834 130.28C55.0207 130.28 54.8801 130.155 54.8653 129.992C53.8668 118.816 52.6908 105.192 52.7648 103.75C52.9127 100.71 53.2085 97.9139 53.4896 95.2142C53.8742 91.5974 54.1997 88.4761 54.0739 85.6877C53.8594 80.917 51.1819 68.0991 45.8417 64.7115L37.0253 60.9911L22.765 61.2722C22.7059 61.2796 13.2311 62.6109 7.96488 66.8639C8.3421 68.6834 11.3598 83.1433 13.8228 95.3399C13.8598 95.5101 13.7489 95.6802 13.5713 95.7171C13.3938 95.7541 13.2311 95.6432 13.1941 95.4657C10.5758 82.4924 7.32879 66.96 7.29921 66.8047C7.27702 66.6864 7.314 66.568 7.41015 66.494C12.7873 62.0192 22.3213 60.6879 22.7207 60.6361L37.0844 60.3477C37.0844 60.3477 37.1732 60.3551 37.2176 60.3698L46.145 64.1346C51.7293 67.6701 54.4955 80.7765 54.7174 85.6433C54.8431 88.4835 54.5177 91.627 54.1331 95.266C53.852 97.9583 53.5562 100.739 53.4082 103.764C53.3565 104.881 54.0813 113.927 55.5088 129.918C55.5236 130.096 55.3979 130.251 55.2204 130.266C55.213 130.266 55.1982 130.266 55.1908 130.266L55.1834 130.28Z" fill="black"/>
<path d="M19.2444 121.577C29.3035 121.184 31.7147 122.287 31.7147 122.287L31.6407 125.704C27.4618 125.667 18.6453 125.171 18.6453 125.171L19.2444 121.577Z" fill="#8AC650"/>
<path d="M31.6333 126.018C27.4913 125.981 18.7118 125.493 18.623 125.485C18.5343 125.485 18.4455 125.433 18.3938 125.367C18.3346 125.293 18.3124 125.204 18.3272 125.115L18.9263 121.521C18.9485 121.373 19.0816 121.262 19.2296 121.255C29.2516 120.87 31.7442 121.95 31.8404 121.994C31.9587 122.046 32.0327 122.164 32.0253 122.29L31.9513 125.707C31.9513 125.885 31.8034 126.018 31.6333 126.018ZM19.0151 124.864C20.6644 124.953 27.5875 125.323 31.3226 125.374L31.3892 122.505C30.657 122.283 27.6466 121.58 19.518 121.883L19.0151 124.864Z" fill="black"/>
<path d="M23.4084 61.499C23.4084 61.499 26.0268 67.993 31.6258 77.6896C37.2471 87.4233 48.0014 102.919 48.0014 102.919C48.0014 102.919 49.0443 99.0652 48.6597 90.8996C48.2751 82.734 46.3668 68.6217 42.9497 64.6128C42.9497 64.6128 32.8684 60.7667 23.4158 61.499H23.4084Z" fill="#FFCC00"/>
<path d="M48.0015 103.239C47.898 103.239 47.8018 103.187 47.7353 103.098C47.6243 102.943 36.9144 87.4771 31.3449 77.847C25.7976 68.2465 23.1349 61.686 23.1127 61.6194C23.0757 61.5232 23.0831 61.4197 23.1349 61.3309C23.1867 61.2422 23.2828 61.1904 23.379 61.183C32.7946 60.4508 42.9498 64.2747 43.0534 64.3117C43.1051 64.3339 43.1495 64.3634 43.1865 64.4004C46.6924 68.5128 48.5932 82.8248 48.9779 90.8795C49.3551 99.0007 48.3492 102.839 48.3122 103.002C48.2826 103.12 48.179 103.217 48.0607 103.231C48.0459 103.231 48.0237 103.231 48.0089 103.231L48.0015 103.239ZM23.8745 61.7895C24.5402 63.3575 27.1585 69.3264 31.8996 77.529C36.8182 86.0496 45.79 99.156 47.8388 102.129C48.1051 100.672 48.6228 96.9815 48.3344 90.9165C47.9646 82.9875 46.1229 68.9566 42.7501 64.8886C41.8182 64.5484 32.5875 61.257 23.8745 61.7969V61.7895Z" fill="black"/>
<path d="M23.453 58.8984C23.453 58.8984 21.1231 59.3792 19.6956 60.3185C17.2844 61.9014 16.2563 62.8999 16.2563 62.8999C16.2563 62.8999 16.101 63.8022 17.987 65.3777C19.8731 66.9531 21.0122 67.7889 21.0122 67.7889L18.7932 71.0877C18.7932 71.0877 31.1156 88.447 47.9424 103.21C47.9424 103.21 28.268 74.3865 23.4751 62.1898C23.1719 61.4206 23.6896 59.5271 23.453 58.9132V58.8984Z" fill="#8AC650"/>
<path d="M47.9424 103.521C47.8684 103.521 47.7945 103.491 47.7279 103.44C31.0639 88.8245 18.6527 71.4356 18.5344 71.2655C18.4604 71.1545 18.453 71.014 18.5344 70.903L20.5832 67.8557C20.1468 67.5229 19.1631 66.7611 17.7873 65.622C15.8125 63.98 15.9235 62.9593 15.9456 62.8484C15.9604 62.7818 15.99 62.7226 16.0418 62.6709C16.0862 62.6265 17.1217 61.6354 19.5255 60.0525C20.99 59.091 23.2977 58.6102 23.3938 58.5881C23.5417 58.5585 23.6971 58.6398 23.7562 58.7878C23.8968 59.1502 23.8376 59.7271 23.771 60.4002C23.7119 61.0215 23.6453 61.7241 23.771 62.0644C28.4973 74.0909 48.009 102.737 48.2087 103.026C48.2974 103.159 48.2752 103.336 48.1569 103.447C48.0977 103.499 48.0238 103.528 47.9424 103.528V103.521ZM19.1853 71.0731C20.487 72.8779 31.5002 87.8851 46.2412 101.258C41.6185 94.357 27.166 72.4637 23.1719 62.301C22.9796 61.8203 23.0536 61.0658 23.1275 60.341C23.1645 59.9712 23.2015 59.5718 23.1941 59.2907C22.5136 59.4534 20.9234 59.8972 19.8657 60.5851C17.9279 61.8573 16.885 62.7596 16.5743 63.0407C16.6113 63.2774 16.8406 64.0096 18.1868 65.1339C20.0432 66.6797 21.1897 67.5229 21.1971 67.5303C21.3376 67.6338 21.3672 67.8261 21.271 67.9667L19.1779 71.0806L19.1853 71.0731Z" fill="black"/>
<path d="M36.6998 60.2808L43.4305 63.7275L45.0059 66.6565L48.5858 70.3251C48.5858 70.3251 52.4763 82.6179 47.9941 102.973C47.9941 102.973 47.676 94.4595 46.3077 81.1238C45.6864 75.0588 43.8077 70.8946 42.787 68.158C42.2027 66.6047 38.9409 62.9287 36.6924 60.2734L36.6998 60.2808Z" fill="#8AC650"/>
<path d="M47.9941 103.3C47.9941 103.3 47.9719 103.3 47.9645 103.3C47.8018 103.285 47.6761 103.152 47.6761 102.989C47.6761 102.9 47.3432 94.3278 45.9971 81.1623C45.4646 75.9404 44.0075 72.183 42.9424 69.4464C42.7797 69.0322 42.6318 68.6476 42.4986 68.2778C42.0179 66.9982 39.5031 64.0544 37.4765 61.6876C37.1214 61.2734 36.7812 60.874 36.4558 60.4894C36.3596 60.371 36.3522 60.2009 36.4558 60.0826C36.5519 59.9642 36.7146 59.9272 36.8552 59.9938L43.5859 63.4405C43.6451 63.4701 43.6894 63.5145 43.719 63.5737L45.2797 66.4582L48.8299 70.0973C48.8299 70.0973 48.8891 70.1786 48.9039 70.223C48.9409 70.3487 52.7648 82.8338 48.3196 103.033C48.29 103.181 48.1568 103.285 48.0089 103.285L47.9941 103.3ZM37.9868 61.303C40.1392 63.8251 42.5726 66.6727 43.0903 68.0485C43.2235 68.4109 43.3714 68.7955 43.5341 69.2097C44.614 71.9833 46.0859 75.7851 46.6332 81.0957C47.5577 90.1045 48.0015 96.9757 48.1938 100.445C51.6405 82.6415 48.5932 71.4804 48.3048 70.4967L44.7767 66.8798C44.7767 66.8798 44.7397 66.8355 44.7249 66.8059L43.1939 63.9657L37.9868 61.303Z" fill="black"/>
<path d="M49.9247 108.828C49.9025 110.004 49.0371 110.943 47.9795 110.928C46.9218 110.914 46.086 109.945 46.1008 108.769C46.123 107.593 46.9883 106.653 48.046 106.668C49.1037 106.683 49.9395 107.652 49.9247 108.828Z" fill="black"/>
<path d="M50.3241 124.048C50.3093 125.172 49.4366 126.067 48.3789 126.053C47.3212 126.038 46.4854 125.113 46.5002 123.989C46.515 122.865 47.3878 121.97 48.4454 121.985C49.5031 121.999 50.3389 122.924 50.3241 124.048Z" fill="black"/>
<path d="M37.6095 47.5581C37.2915 50.5906 36.108 54.2592 36.1376 57.2104C36.1524 58.9781 36.5592 60.3243 37.6391 61.589C38.9926 63.1645 41.2633 64.7251 42.4024 67.4248C43.5488 70.1245 43.8446 70.9159 43.8446 70.9159C43.8446 70.9159 41.4334 72.225 38.253 72.5283C34.9986 72.8389 28.2605 71.8552 28.2605 71.8552C28.2605 71.8552 27.7353 71.6999 25.6422 67.5283C23.6525 63.5787 23.4084 61.5003 23.4084 61.5003C23.6525 60.8864 24.651 51.0566 25.2649 46.5078L37.6021 47.5581H37.6095Z" fill="white"/>
<path d="M36.7441 72.9062C33.3121 72.9062 28.4527 72.2035 28.216 72.1739C27.5947 71.989 26.1598 69.2746 25.3536 67.6769C23.364 63.7273 23.1051 61.6267 23.0903 61.5453C23.0903 61.4936 23.0903 61.4418 23.1125 61.39C23.2383 61.0424 23.6599 57.3516 24.0371 54.1046C24.3551 51.3162 24.6879 48.4316 24.9542 46.4715C24.9764 46.3014 25.1243 46.1757 25.3018 46.1979L37.639 47.2481C37.7278 47.2481 37.8017 47.2999 37.8609 47.3665C37.9127 47.4331 37.9423 47.5218 37.9349 47.6032C37.8017 48.8606 37.5207 50.2437 37.247 51.5824C36.855 53.5129 36.4482 55.5099 36.463 57.2259C36.4778 59.001 36.9068 60.251 37.8905 61.3974C38.2751 61.8412 38.7337 62.2924 39.2218 62.7658C40.4644 63.9714 41.8697 65.3397 42.7055 67.3145C43.8372 69.992 44.1404 70.7834 44.1552 70.813C44.2144 70.9609 44.1552 71.1311 44.0073 71.205C43.9037 71.2568 41.5073 72.5512 38.2973 72.8544C37.8387 72.8988 37.321 72.9136 36.7588 72.9136L36.7441 72.9062ZM28.3861 71.5527C28.9039 71.6192 35.1686 72.492 38.2233 72.2035C40.7159 71.9668 42.7499 71.0867 43.4378 70.7612C43.2677 70.3396 42.883 69.3855 42.1064 67.5512C41.315 65.6873 39.9615 64.3708 38.7633 63.2095C38.2603 62.7214 37.7943 62.2628 37.3949 61.7968C36.3003 60.5246 35.8269 59.1489 35.8121 57.2111C35.7973 55.4285 36.2115 53.4019 36.6109 51.4345C36.8698 50.1697 37.1139 48.9715 37.247 47.8472L25.5385 46.8487C25.2797 48.7866 24.969 51.5159 24.6658 54.1638C24.185 58.3945 23.8891 60.9167 23.7338 61.5232C23.793 61.893 24.1776 63.9122 25.9231 67.3811C27.6095 70.7317 28.253 71.4269 28.3861 71.5527Z" fill="black"/>
<path d="M48.2309 30.5062C48.4823 32.3183 41.33 35.3804 32.2769 36.623C23.2163 37.873 13.6676 37.8138 13.4235 36.0091C13.1794 34.2044 22.3213 31.3198 31.3819 30.0698C40.4425 28.8198 47.9942 28.6941 48.2383 30.5062H48.2309Z" fill="white"/>
<path d="M20.6867 37.7954C16.5151 37.7954 13.2755 37.322 13.098 36.0498C12.9501 34.9921 14.8731 33.8013 18.8006 32.5218C22.3435 31.3679 26.9071 30.362 31.3227 29.7555C36.3744 29.0602 48.1643 27.7363 48.5415 30.4656C48.8447 32.6475 41.1081 35.7318 32.3138 36.9448C28.6822 37.4477 24.3331 37.8028 20.6867 37.8028V37.7954ZM42.617 29.4597C39.8877 29.4597 36.1377 29.7333 31.4115 30.3842C27.0328 30.9907 22.5062 31.9892 19.0003 33.1283C14.7252 34.5188 13.6749 35.5617 13.7341 35.9611C13.9116 37.248 22.203 37.6844 32.2325 36.3013C41.6111 35.0069 48.1125 31.967 47.9128 30.5469C47.824 29.8886 46.0193 29.4597 42.6244 29.4597H42.617Z" fill="black"/>
<path d="M16.3599 34.0813C16.3599 34.0813 15.3836 37.7425 16.8333 41.7884C17.0995 42.528 17.2992 44.3845 18.5566 45.9377C19.3998 46.988 20.7386 47.5575 22.2104 48.3711L22.2844 46.4407C22.2844 46.4407 17.6395 40.9452 18.0685 33.6523L16.3599 34.0813Z" fill="#CCCDCD"/>
<path d="M22.2103 48.6952C22.1585 48.6952 22.1067 48.6804 22.0549 48.6583C21.7813 48.5029 21.5076 48.3624 21.2413 48.2219C20.0579 47.5932 19.0298 47.0532 18.305 46.1435C17.2991 44.8935 16.944 43.4808 16.7074 42.5488C16.6408 42.29 16.589 42.0681 16.5298 41.898C15.0654 37.8004 16.0121 34.154 16.0491 33.9986C16.0787 33.8877 16.1674 33.7989 16.2784 33.7693L17.9869 33.3404C18.0831 33.3182 18.194 33.3403 18.268 33.4069C18.342 33.4735 18.3863 33.5696 18.3863 33.6732C17.9647 40.7515 22.4765 46.1805 22.5283 46.2322C22.5801 46.2914 22.6097 46.3728 22.6023 46.4541L22.5283 48.3846C22.5283 48.4955 22.4617 48.5991 22.3656 48.6509C22.3138 48.6804 22.262 48.6952 22.2103 48.6952ZM16.626 34.3463C16.4633 35.1229 15.916 38.2811 17.129 41.6835C17.1955 41.861 17.2547 42.1051 17.3287 42.3935C17.5506 43.2737 17.8834 44.605 18.8005 45.7441C19.444 46.5429 20.4203 47.0606 21.5446 47.6523C21.6629 47.7189 21.7887 47.7781 21.907 47.8447L21.9588 46.5429C21.3523 45.7737 17.5136 40.6554 17.7281 34.0652L16.626 34.3389V34.3463Z" fill="black"/>
<path d="M16.7074 56.6659C17.3509 58.6851 19.5476 64.0771 22.3805 64.6022C21.8109 63.086 20.9678 62.7087 21.7518 61.444C27.765 51.7695 20.5905 43.2415 19.5107 44.1438C18.9559 44.6098 14.5181 49.8021 16.7074 56.6659Z" fill="#635B5E"/>
<path d="M22.3731 64.9185C22.3731 64.9185 22.3362 64.9185 22.314 64.9185C18.8229 64.275 16.493 57.0709 16.3969 56.7676C14.2297 49.9556 18.3865 44.6598 19.2962 43.8979C19.5403 43.6982 19.9989 43.6021 20.8347 44.3269C23.2607 46.4349 26.9293 53.7129 22.0181 61.6049C21.5669 62.3371 21.7223 62.6256 22.1143 63.3282C22.2844 63.6315 22.4915 64.0013 22.669 64.4821C22.706 64.593 22.6912 64.7114 22.6172 64.8001C22.558 64.8741 22.4619 64.9185 22.3731 64.9185ZM19.7178 44.3935C19.7178 44.3935 19.703 44.3935 19.6957 44.3935C18.9042 45.0592 14.9768 50.1775 17.0108 56.5679C17.7282 58.8238 19.5773 63.0028 21.7888 64.0679C21.7149 63.9125 21.6335 63.7794 21.5595 63.6463C21.1453 62.9066 20.8273 62.3223 21.4782 61.272C25.2355 55.2292 23.8154 49.2677 21.456 45.9911C20.5684 44.7559 19.888 44.4009 19.7178 44.4009V44.3935Z" fill="black"/>
<path d="M22.7945 40.5344C23.3418 42.561 23.7264 46.666 21.8256 47.1542C19.9247 47.6424 17.9573 46.7548 16.404 42.7903C15.6348 40.8303 16.5594 38.3599 18.4676 37.8717C20.3759 37.3836 22.2546 38.5004 22.8019 40.527L22.7945 40.5344Z" fill="white"/>
<path d="M20.8863 47.5962C18.9337 47.5962 17.3287 46.0282 16.1009 42.9069C15.6497 41.7605 15.7236 40.4218 16.2858 39.3197C16.7517 38.4099 17.4988 37.7886 18.3789 37.5594C20.4795 37.0194 22.5135 38.262 23.0978 40.4439C23.5416 42.0933 23.8892 45.0815 23.0165 46.5681C22.7428 47.0415 22.3656 47.3374 21.8996 47.4631C21.552 47.5519 21.2118 47.5962 20.8789 47.5962H20.8863ZM19.3553 38.0771C19.089 38.0771 18.8153 38.1141 18.5417 38.1807C17.8316 38.3582 17.2399 38.8685 16.8553 39.6156C16.3745 40.5549 16.3153 41.7013 16.7 42.6777C17.9943 45.969 19.6881 47.3744 21.7443 46.8418C22.0401 46.7679 22.2842 46.5681 22.4691 46.2501C23.231 44.9409 22.8833 42.1007 22.4839 40.6141C22.0697 39.0682 20.7976 38.0771 19.3553 38.0771Z" fill="black"/>
<path d="M42.8387 52.1529C42.7647 52.1529 42.6908 52.1307 42.6316 52.0716C42.4984 51.9532 42.4837 51.7535 42.602 51.6204C44.0813 49.9118 42.5872 47.6929 42.528 47.6041C42.4245 47.4562 42.4615 47.2565 42.6094 47.1604C42.7573 47.0568 42.957 47.0938 43.0532 47.2417C43.0754 47.2713 44.8949 49.9562 43.0902 52.042C43.0236 52.1159 42.9348 52.1529 42.8461 52.1529H42.8387Z" fill="black"/>
<path d="M43.778 30.8782C43.778 30.8782 47.417 52.8529 34.4364 56.4771C34.4364 56.4771 26.3225 59.2286 21.8699 48.526C21.8699 48.526 19.2516 39.5912 19.1185 32.18C19.0445 28.1268 20.4054 19.976 31.5961 19.7985C36.707 19.7171 42.099 22.7496 43.778 30.8782Z" fill="white"/>
<path d="M26.1748 54.6572C26.1082 54.6572 26.0417 54.635 25.9825 54.5907C21.9737 51.5803 21.3154 47.1203 21.2932 46.9354C21.271 46.7579 21.3893 46.5952 21.5669 46.573C21.737 46.5508 21.9071 46.6691 21.9293 46.8466C21.9293 46.891 22.5802 51.2327 26.3671 54.0729C26.5076 54.1765 26.5372 54.3836 26.4337 54.5241C26.3671 54.6055 26.271 54.6498 26.1748 54.6498V54.6572Z" fill="black"/>
<path d="M33.3122 56.4567C32.0844 56.4567 30.6495 56.2348 28.9927 55.6652C28.8226 55.6061 28.7338 55.4286 28.793 55.2584C28.8522 55.0883 29.0297 54.9996 29.1998 55.0587C35.79 57.3368 38.6228 53.7422 38.7411 53.5869C38.8373 53.4907 44.4289 48.1727 43.9186 37.6698C43.9112 37.4923 44.0443 37.3444 44.2218 37.337C44.3919 37.3222 44.5473 37.4627 44.5547 37.6403C45.0798 48.4538 39.2663 53.9641 39.2071 54.0158C39.1405 54.112 37.3136 56.4567 33.2974 56.4567H33.3122Z" fill="black"/>
<path d="M26.9735 37.5286C27.0105 38.3422 27.6022 38.9709 28.2901 38.9413C28.9779 38.9117 29.5105 38.2312 29.4735 37.4176C29.4365 36.604 28.8448 35.9753 28.1569 36.0049C27.4691 36.0345 26.9365 36.715 26.9735 37.5286Z" fill="black"/>
<path d="M37.8685 37.0247C37.9055 37.8383 38.4972 38.467 39.1851 38.4374C39.8729 38.4078 40.4055 37.7273 40.3685 36.9137C40.3315 36.1001 39.7398 35.4714 39.0519 35.501C38.3641 35.5306 37.8315 36.2111 37.8685 37.0247Z" fill="black"/>
<path d="M41.855 35.2778C41.7662 35.2778 41.6774 35.2408 41.6183 35.1743C41.6035 35.1595 40.4127 33.8503 39.0591 33.8207C38.46 33.8207 37.8757 34.0722 37.3728 34.5973C37.247 34.7231 37.0473 34.7305 36.9216 34.6047C36.7958 34.479 36.7884 34.2793 36.9142 34.1536C37.5503 33.4953 38.2825 33.1624 39.0739 33.1846C40.7159 33.2142 42.0399 34.6861 42.099 34.7527C42.2174 34.8858 42.2026 35.0855 42.0768 35.2038C42.0177 35.2556 41.9363 35.2852 41.8624 35.2852L41.855 35.2778Z" fill="black"/>
<path d="M24.8803 35.7445C24.8063 35.7445 24.725 35.715 24.6658 35.6632C24.5326 35.5448 24.5253 35.3451 24.6436 35.212C24.6732 35.1824 27.2915 32.357 30.0873 34.4132C30.2279 34.5167 30.2574 34.7164 30.1539 34.8644C30.0504 35.0049 29.8506 35.0345 29.7027 34.9309C27.3729 33.215 25.2057 35.5448 25.1096 35.641C25.043 35.7076 24.9616 35.7445 24.8729 35.7445H24.8803Z" fill="black"/>
<path d="M35.7975 44.5103C35.7383 44.5103 35.6791 44.4955 35.6274 44.4585C35.4794 44.3624 35.4351 44.1627 35.5312 44.0148L35.8788 43.46L35.0652 41.5518C34.9987 41.389 35.0652 41.2041 35.2354 41.1302C35.3981 41.0562 35.583 41.1302 35.657 41.3003L36.5371 43.3639C36.5815 43.46 36.5667 43.571 36.5149 43.6597L36.0711 44.355C36.012 44.4511 35.9084 44.5029 35.7975 44.5029V44.5103Z" fill="black"/>
<path d="M37.3358 47.2727C36.3521 48.8851 35.5459 49.61 34.7175 49.5952C33.1051 49.573 31.8181 47.3023 31.8181 47.3023C31.8181 47.3023 33.3196 47.1766 34.7841 47.1692C36.2485 47.1544 37.3358 47.2801 37.3358 47.2801V47.2727Z" fill="white"/>
<path d="M34.7322 49.9678C34.7322 49.9678 34.7174 49.9678 34.7101 49.9678C32.8979 49.9456 31.5444 47.5788 31.4852 47.4826C31.4187 47.3717 31.4187 47.2311 31.4852 47.1202C31.5444 47.0093 31.6627 46.9279 31.7885 46.9205C31.8033 46.9205 33.3195 46.7948 34.784 46.78C36.2485 46.7578 37.3358 46.8835 37.3801 46.8909C37.5059 46.9057 37.6242 46.9871 37.676 47.098C37.7352 47.2164 37.7278 47.3495 37.6612 47.4604C36.6035 49.1912 35.7012 49.9678 34.7396 49.9678H34.7322ZM32.4911 47.6232C32.9867 48.3036 33.8447 49.1986 34.7248 49.206H34.7396C35.3166 49.206 35.9378 48.6882 36.6849 47.5862C36.2337 47.5566 35.568 47.527 34.7988 47.5344C33.9482 47.5418 33.0681 47.5862 32.4985 47.6232H32.4911Z" fill="black"/>
<path d="M23.2458 19.8008C13.4974 26.8791 18.7858 38.1808 18.7858 38.1808C21.6186 37.6705 25.5461 31.9161 28.1718 24.9857C32.9721 31.2652 41.0859 32.6853 43.8226 34.7489C43.8226 34.7489 47.5356 24.9635 38.2605 19.5271C34.2443 17.1677 28.2532 16.1618 23.2532 19.8008H23.2458Z" fill="#635B5E"/>
<path d="M44.4438 29.8086C44.9394 30.8589 45.5385 31.8426 45.5829 33.7361C45.6125 34.9935 44.6805 35.2375 44.2737 37.9076L43.5933 29.9417L44.4364 29.816L44.4438 29.8086Z" fill="#CCCDCD"/>
<path d="M44.2737 38.2238C44.2737 38.2238 44.2737 38.2238 44.2663 38.2238C44.1036 38.2238 43.9704 38.0907 43.9556 37.928L43.2752 29.9621C43.2604 29.792 43.3787 29.644 43.5488 29.6218L44.392 29.4961C44.5326 29.4739 44.6731 29.5479 44.7323 29.6736L44.9172 30.0656C45.3757 31.0198 45.8565 32.0035 45.9009 33.7342C45.9157 34.3851 45.7012 34.8141 45.4497 35.3023C45.1612 35.8644 44.8062 36.5596 44.5917 37.9576C44.5695 38.1129 44.4364 38.2312 44.2737 38.2312V38.2238ZM43.9482 30.2062L44.4364 35.9753C44.5917 35.5685 44.7471 35.2653 44.8802 34.999C45.1169 34.533 45.2722 34.2298 45.2648 33.7416C45.2278 32.1514 44.7766 31.2342 44.3476 30.3393L44.2589 30.1618L43.9482 30.2062Z" fill="black"/>
<path d="M18.6599 38.2543C18.5341 38.2543 18.4232 38.1804 18.3714 38.0694C18.3196 37.9585 13.2087 26.716 23.0533 19.5637C24.2811 18.6687 26.1154 17.8773 27.3876 17.4927C27.5577 17.4409 27.7352 17.5371 27.787 17.7072C27.8388 17.8773 27.7426 18.0548 27.5725 18.1066C26.3521 18.4764 24.5992 19.2308 23.4305 20.0814C14.5993 26.5015 18.2161 36.0798 18.867 37.6034C21.5371 37.3668 24.9616 32.5369 27.8684 24.8743C27.9053 24.7707 28.0015 24.6894 28.1124 24.6746C28.2234 24.6524 28.3343 24.6967 28.4083 24.7855C31.9142 28.8905 36.4112 30.821 39.6952 32.2337C41.241 32.8993 42.6094 33.4837 43.5635 34.1567C43.7928 31.9748 44.1922 23.8166 38.0754 19.8225C36.7736 18.972 33.2825 17.0785 28.926 17.7515C28.7485 17.7811 28.5858 17.6554 28.5636 17.4853C28.534 17.3078 28.6598 17.145 28.8299 17.1229C33.4009 16.4128 37.0621 18.4024 38.423 19.29C45.849 24.1272 44.1404 34.7041 44.1256 34.815C44.1034 34.9259 44.0295 35.0221 43.9185 35.0665C43.8076 35.1035 43.6892 35.0813 43.6005 35.0073C42.7425 34.2455 41.2114 33.5872 39.4437 32.8328C36.2041 31.4422 31.8106 29.5636 28.2678 25.6139C26.6406 29.7929 22.8314 38.2691 18.6599 38.2691V38.2543Z" fill="black"/>
<path d="M22.972 32.6875C20.7161 33.2644 16.9809 36.0011 16.9809 36.0011L16.759 33.9819C18.2605 33.1239 22.972 32.6875 22.972 32.6875Z" fill="#CCCDCD"/>
<path d="M17.3509 36.3234C17.2547 36.3234 17.1512 36.279 17.092 36.1903C16.9885 36.0497 17.018 35.85 17.166 35.7465C17.2843 35.6577 19.4367 34.1119 21.2044 33.0468C19.7399 33.2761 17.7651 33.6681 16.9145 34.1489C16.7592 34.2376 16.5669 34.1858 16.4781 34.0305C16.3893 33.8752 16.4411 33.6829 16.5964 33.5941C18.1349 32.714 22.6985 32.1814 22.8982 32.1592C23.0535 32.1371 23.2014 32.2406 23.2458 32.3959C23.2828 32.5512 23.2088 32.714 23.0609 32.7731C21.515 33.4166 17.5876 36.2346 17.5506 36.2642C17.4914 36.3012 17.4322 36.3234 17.3657 36.3234H17.3509Z" fill="black"/>
<path d="M20.8714 52.4179C20.7678 52.4179 20.6643 52.3661 20.6051 52.2774C19.0963 49.9993 21.2486 46.952 21.3374 46.8189C21.4409 46.6709 21.6406 46.6413 21.7812 46.7449C21.9217 46.8484 21.9587 47.0481 21.8551 47.1887C21.8329 47.2183 19.8729 50.0067 21.1377 51.9224C21.2338 52.0703 21.1968 52.27 21.0489 52.3661C20.9971 52.4031 20.9306 52.4179 20.8714 52.4179Z" fill="black"/>
<path d="M22.2844 32.648C22.2844 32.648 23.808 44.7485 22.2844 49.4748L20.7311 47.9955C20.7311 47.9955 20.9012 37.0341 19.6882 33.3359L22.2844 32.6406V32.648Z" fill="#CCCDCD"/>
<path d="M22.2843 49.801C22.203 49.801 22.1216 49.7714 22.0624 49.7122L20.5092 48.2329C20.4426 48.1738 20.4056 48.085 20.413 47.9962C20.413 47.8853 20.5684 37.0496 19.3849 33.4402C19.3554 33.3588 19.3627 33.2627 19.4071 33.1887C19.4515 33.1147 19.5181 33.0556 19.6068 33.0334L22.203 32.3381C22.2917 32.3159 22.3879 32.3307 22.4618 32.3825C22.5358 32.4343 22.5876 32.5156 22.6024 32.6118C22.6615 33.1073 24.1186 44.838 22.5876 49.5791C22.5506 49.6826 22.4692 49.764 22.3583 49.7936C22.3287 49.7936 22.3065 49.801 22.2769 49.801H22.2843ZM21.0491 47.8705L22.1142 48.8838C23.2311 44.4756 22.2325 35.0304 22.0033 33.0556L20.0876 33.5659C21.1453 37.3233 21.0639 46.554 21.0491 47.8631V47.8705Z" fill="black"/>
<path d="M39.1185 53.9881C39.1185 53.9881 38.9706 56.4067 33.9188 56.8135C29.9174 57.1315 24.3627 56.2514 19.3923 46.9023L20.7681 47.4275C20.7681 47.4275 21.3302 47.531 22.4322 48.7736C23.7932 50.3121 25.8568 52.3387 28.268 53.7144C31.2413 55.4156 33.6304 55.5709 39.1185 53.9955V53.9881Z" fill="#CCCDCD"/>
<path d="M32.617 57.1819C28.8004 57.1819 23.7043 55.6878 19.1112 47.0415C19.052 46.9231 19.0668 46.7826 19.1556 46.679C19.2443 46.5755 19.3849 46.5459 19.5106 46.5903L20.8863 47.1154C20.9455 47.1154 21.5594 47.2855 22.6762 48.5429C23.978 50.0074 26.0342 52.0488 28.4306 53.4171C31.4114 55.1183 33.793 55.1775 39.0296 53.6686C39.1258 53.639 39.2367 53.6686 39.3181 53.7278C39.3995 53.7944 39.4438 53.8905 39.4364 53.9941C39.4364 54.105 39.2072 56.6937 33.9409 57.1153C33.5193 57.1523 33.0756 57.1745 32.6096 57.1745L32.617 57.1819ZM20.0949 47.5C24.9617 56.139 30.2797 56.7825 33.9039 56.4866C37.1436 56.2278 38.2456 55.1183 38.6228 54.46C33.5859 55.8506 31.1673 55.7248 28.12 53.9793C25.6422 52.5666 23.5342 50.4734 22.2029 48.9719C21.2266 47.8699 20.7162 47.7293 20.7088 47.7293L20.0949 47.5Z" fill="black"/>
<path d="M31.3818 57.1612C31.2116 57.1612 31.0637 56.991 31.0637 56.8209C31.0637 56.7396 31.0637 56.636 31.6184 55.46C31.6924 55.2973 31.8847 55.2307 32.0474 55.3121C32.2102 55.386 32.2767 55.5783 32.1954 55.7411C31.9809 56.1996 31.7294 56.7544 31.6998 56.8653C31.6998 57.0428 31.5667 57.1612 31.3892 57.1686L31.3818 57.1612Z" fill="black"/>
<path d="M29.0075 55.9386C28.8374 55.9386 28.6895 55.7759 28.6895 55.6058C28.6895 55.5392 28.6895 55.4283 29.1258 54.3336C29.1924 54.1709 29.3773 54.0895 29.54 54.1561C29.7028 54.2227 29.7841 54.4076 29.7175 54.5703C29.54 54.9993 29.3403 55.5244 29.3255 55.628C29.3255 55.8055 29.1924 55.9312 29.0149 55.9312C29.0149 55.9312 29.0149 55.9312 29.0075 55.9312V55.9386Z" fill="black"/>
<path d="M14.6956 24.7468C16.2414 14.7025 26.4632 13.9555 26.4632 13.9555C26.907 13.741 27.4839 12.062 27.4839 12.062L33.438 11.6552C34.1481 11.5591 34.6732 12.4984 35.6791 13.7632C38.6155 14.9022 39.8581 16.4629 39.8581 16.4629C44.577 19.8726 46.0489 29.0811 46.0489 29.0811L48.2382 30.087C49.0814 30.5086 48.6006 31.0707 43.9335 30.9228C43.9335 30.9228 29.5253 30.8636 21.0121 33.5485C19.6512 33.9775 13.7267 36.0928 13.5344 35.7526C13.1867 35.1461 13.4234 34.9834 13.4234 34.9834L14.7991 33.0012C14.7991 33.0012 13.6453 31.4849 14.6882 24.7394L14.6956 24.7468Z" fill="white"/>
<path d="M14.6808 32.5794C14.5254 32.5794 14.3923 32.4685 14.3627 32.3132C14.3405 32.2022 14.3183 32.0765 14.2814 31.9359C14.0669 30.967 13.6675 29.1623 14.2814 25.1609C15.4944 17.2985 22.3582 14.6506 25.2502 13.8814C25.4203 13.837 25.5978 13.9405 25.6422 14.1107C25.6866 14.2808 25.583 14.4583 25.4129 14.5027C22.6393 15.2423 16.0639 17.7719 14.9101 25.2644C14.3109 29.1475 14.6808 30.8117 14.8953 31.8102C14.9248 31.9581 14.9544 32.0913 14.9766 32.2096C15.0062 32.3871 14.8953 32.5498 14.7177 32.5794C14.6956 32.5794 14.6808 32.5794 14.6586 32.5794H14.6808Z" fill="black"/>
<path d="M13.5047 36.3517C13.2902 36.3517 13.2088 36.2778 13.1423 36.1668C12.2843 34.7393 14.2887 33.0752 14.3775 33.0086C14.518 32.8976 14.7177 32.9198 14.8286 33.053C14.9396 33.1935 14.9174 33.3932 14.7843 33.5041C14.7695 33.5189 13.2754 34.7763 13.6304 35.7009C14.2443 35.6121 16.478 34.8059 17.9869 34.2586C19.2887 33.7852 20.4129 33.3784 20.938 33.2453C29.5031 31.0338 43.3417 30.6122 43.4822 30.6122C44.8284 30.6122 45.8047 30.6565 46.5221 30.6861C47.2914 30.7231 47.8979 30.7527 48.0162 30.6417C48.0606 30.6048 48.0754 30.4716 48.0828 30.3459L45.9304 29.377C45.8343 29.3326 45.7603 29.2438 45.7455 29.1329C45.7307 29.0441 44.2367 20.0131 39.6805 16.7218C39.6287 16.6774 38.4823 15.5679 35.4793 14.3253C35.4128 14.2957 35.3536 14.244 35.3166 14.1774C34.4808 12.565 33.4157 12.0029 33.2013 11.9955L27.6688 12.3653C27.4691 12.6463 26.9883 13.3416 26.6185 13.8446C26.5149 13.9851 26.3152 14.0221 26.1747 13.9185C26.0342 13.815 25.9972 13.6153 26.1007 13.4747C26.5667 12.8313 27.2324 11.8771 27.2324 11.8771C27.2841 11.7958 27.3803 11.744 27.4764 11.744L33.1865 11.3594H33.1939C33.756 11.3594 34.9542 12.1286 35.8418 13.778C38.9039 15.0576 40.0577 16.1892 40.1095 16.2336C44.5473 19.4288 46.1301 27.5353 46.3668 28.8592L48.5561 29.8429C48.6671 29.8947 48.741 30.0057 48.7484 30.1314C48.7484 30.4864 48.7337 30.8562 48.4822 31.1003C48.1641 31.4036 47.6834 31.3814 46.5147 31.3222C45.8047 31.2852 44.8358 31.2408 43.5192 31.2482C43.3861 31.2482 29.614 31.6698 21.123 33.8666C20.6274 33.9923 19.4588 34.4139 18.231 34.8651C15.1467 35.9819 14.015 36.3517 13.5343 36.3517H13.5047Z" fill="black"/>
<path d="M29.9764 27.7144C29.8063 27.7144 29.6657 27.5813 29.6583 27.4112C29.2811 19.4527 27.2397 13.2101 27.2175 13.1509C27.1584 12.9808 27.2545 12.8033 27.4172 12.7441C27.5873 12.685 27.7649 12.7811 27.824 12.9438C27.8462 13.0104 29.9172 19.3343 30.2944 27.3742C30.3018 27.5517 30.1687 27.6996 29.9912 27.707C29.9912 27.707 29.9838 27.707 29.9764 27.707V27.7144Z" fill="black"/>
<path d="M38.8298 26.9441C38.667 26.9441 38.5265 26.8258 38.5117 26.6556C38.5043 26.5595 37.4023 16.7371 35.1981 13.9708C35.0872 13.8303 35.1094 13.6306 35.2499 13.5197C35.3904 13.4087 35.5901 13.4309 35.7011 13.5714C38.0236 16.4782 39.1034 26.1749 39.1478 26.5891C39.17 26.7666 39.0369 26.9219 38.8667 26.9441C38.852 26.9441 38.8446 26.9441 38.8298 26.9441Z" fill="black"/>
<path d="M9.96936 64.0855C5.56112 65.084 2.15879 70.7792 1.60406 82.6874C0.990157 95.9343 0.117383 103.198 6.6262 104.418C7.66909 104.61 11.7001 105.779 13.6602 100.032L9.96936 64.0781V64.0855Z" fill="#808597"/>
<path d="M8.41601 104.976C7.71336 104.976 7.12904 104.858 6.75183 104.776L6.57431 104.739C0.265201 103.556 0.575849 97.1358 1.15277 85.4939C1.19715 84.5915 1.24152 83.6522 1.2859 82.6833C1.79625 71.6331 4.85096 64.9171 9.89529 63.7781C9.98405 63.7559 10.0802 63.7781 10.1542 63.8299C10.2281 63.8816 10.2799 63.963 10.2873 64.0592L13.9781 100.013C13.9781 100.057 13.9781 100.102 13.9633 100.146C12.5728 104.222 10.1542 104.976 8.41601 104.976ZM9.68819 64.4882C5.1616 65.7973 2.41015 72.2396 1.92199 82.7054C1.87761 83.6744 1.83323 84.6137 1.78886 85.5235C1.23413 96.8103 0.923479 103.031 6.68526 104.111L6.87757 104.148C8.15714 104.414 11.5595 105.109 13.3346 100.006L9.68819 64.4955V64.4882Z" fill="black"/>
<path d="M9.2664 68.0023C12.9128 68.4682 15.827 70.3469 15.5903 72.2182C15.3536 74.0969 12.0548 75.2581 8.40842 74.7995C4.76201 74.3336 1.99576 72.4401 2.23984 70.5614C2.48392 68.6827 5.62739 67.5363 9.2738 68.0023H9.2664Z" fill="#8AC650"/>
<path d="M10.021 75.2202C9.48843 75.2202 8.93371 75.1832 8.36418 75.1166C4.48108 74.6211 1.64827 72.6019 1.91454 70.5235C2.04768 69.488 2.91305 68.63 4.36274 68.1049C5.73847 67.6019 7.49141 67.454 9.31092 67.6833C13.2088 68.1788 16.1674 70.2276 15.9085 72.2616C15.6866 74.0294 13.1792 75.2202 10.021 75.2276V75.2202ZM7.65413 68.2158C6.52249 68.2158 5.45741 68.3785 4.57724 68.704C3.36423 69.1478 2.64678 69.8208 2.54323 70.5975C2.32874 72.269 5.02842 74.0442 8.43815 74.4732C11.8627 74.9095 15.0505 73.8297 15.265 72.1729C15.4721 70.5235 12.7059 68.7558 9.22217 68.312C8.68963 68.2454 8.16448 68.2084 7.65413 68.2084V68.2158Z" fill="black"/>
<path d="M13.4086 74.5471L14.0669 67.1063C15.9826 65.3829 16.3154 62.6685 16.1083 59.8578C15.953 57.7721 15.1468 56.5221 14.0151 55.8268C14.0891 54.8061 13.808 43.2899 12.0033 43.4749C9.73261 43.7041 10.4131 53.8298 10.5832 55.028C10.5314 54.5472 10.4575 54.1404 10.3095 53.6079C9.71042 51.4038 5.69419 51.8698 6.82583 55.3091C6.8924 55.5088 6.77406 55.7085 6.79625 55.9082C6.01223 55.3165 5.10987 55.1168 4.4368 55.5236C3.80811 55.9082 3.57143 56.7218 3.68237 57.6241C3.2238 57.4984 2.76522 57.4836 2.3954 57.7129C1.47825 58.275 1.3821 59.7913 2.18091 61.1078C2.37321 61.4259 2.1957 62.9495 2.83919 64.4954C3.27557 65.5605 4.47379 67.0767 5.30958 67.7868L4.89538 72.698C4.89538 72.698 6.87021 74.5545 10.2356 74.9169C13.6009 75.2793 13.416 74.5545 13.416 74.5545L13.4086 74.5471Z" fill="white"/>
<path d="M11.8331 75.3298C11.3746 75.3298 10.8272 75.2928 10.1911 75.2262C6.75922 74.8564 4.74741 72.9999 4.66605 72.9259C4.59208 72.8594 4.5551 72.7632 4.56989 72.6671L4.9693 67.9186C4.12611 67.1567 2.98707 65.7071 2.53589 64.6198C2.1069 63.5917 2.03293 62.5784 1.98116 61.9053C1.95897 61.6538 1.93678 61.3506 1.8998 61.2692C1.01223 59.8121 1.15276 58.0888 2.22524 57.4379C2.53589 57.2456 2.9131 57.179 3.3347 57.2234C3.3347 56.3284 3.66014 55.6184 4.26664 55.2486C4.88794 54.8714 5.69414 54.9083 6.49295 55.3373C6.01958 53.8285 6.52254 52.9853 6.87017 52.6155C7.39531 52.0533 8.24589 51.8167 9.0447 52.009C9.4515 52.1125 9.80653 52.3122 10.0802 52.5859C9.94706 49.6717 9.97665 45.1229 11.1083 43.6732C11.3524 43.3626 11.6408 43.1925 11.9663 43.1555C12.129 43.1407 12.3805 43.1703 12.6246 43.4144C14.1704 44.9232 14.3553 54.1169 14.3405 55.6554C15.5831 56.4912 16.2858 57.8965 16.4337 59.8343C16.6926 63.3328 16.0417 65.6923 14.3849 67.2529L13.734 74.5457C13.734 74.6345 13.7192 74.7676 13.6009 74.9082C13.3568 75.1892 12.7725 75.3298 11.8405 75.3298H11.8331ZM5.22077 72.5561C5.67935 72.9333 7.49886 74.2943 10.2651 74.5901C12.4692 74.8268 12.9944 74.5753 13.0979 74.5014L13.7562 67.068C13.7562 66.9866 13.8006 66.9127 13.8597 66.8609C15.4278 65.4482 16.0417 63.2293 15.7976 59.8787C15.6645 58.074 15.0136 56.8018 13.8524 56.0918C13.7488 56.0326 13.6896 55.9143 13.697 55.7959C13.7784 54.6643 13.4603 45.1081 12.1808 43.8655C12.092 43.7842 12.0476 43.7842 12.0328 43.7916C11.8849 43.8064 11.7518 43.8951 11.6186 44.0652C10.3095 45.7442 10.6793 52.9187 10.8716 54.716C10.8864 54.8048 10.8938 54.8936 10.9012 54.9823C10.9234 55.1524 10.7976 55.3151 10.6201 55.3373C10.4426 55.3521 10.2873 55.2412 10.2651 55.0637C10.2651 55.0193 10.2503 54.9453 10.2429 54.8566C10.1911 54.4646 10.1172 54.1169 9.99884 53.6805C9.85091 53.148 9.4515 52.756 8.89677 52.6229C8.31986 52.4823 7.71335 52.6451 7.34354 53.0445C6.90715 53.5178 6.82579 54.287 7.12904 55.2042C7.18821 55.3965 7.15863 55.5666 7.12904 55.7072C7.11425 55.7737 7.10685 55.8329 7.10685 55.8699C7.12164 55.9956 7.05508 56.1213 6.94413 56.1805C6.83318 56.2397 6.69265 56.2323 6.5965 56.1583C5.86426 55.611 5.11722 55.4779 4.59948 55.7959C4.11871 56.0918 3.89682 56.7426 3.99297 57.5858C4.00777 57.6894 3.96339 57.8003 3.88203 57.8669C3.80067 57.9335 3.68972 57.963 3.58617 57.9335C3.15718 57.8151 2.80955 57.8299 2.55068 57.9926C1.78146 58.4586 1.73708 59.79 2.43973 60.9512C2.55068 61.1361 2.57287 61.4098 2.60985 61.8609C2.66163 62.4896 2.73559 63.4438 3.1202 64.3831C3.54919 65.426 4.72522 66.8905 5.50184 67.5488C5.5832 67.6153 5.62018 67.7189 5.61278 67.8224L5.21338 72.5709L5.22077 72.5561Z" fill="black"/>
<path d="M4.65117 63.2615C3.9633 63.2615 3.14231 62.9286 2.44705 61.9671C2.3435 61.8266 2.37308 61.6269 2.52101 61.5159C2.66154 61.4124 2.86124 61.442 2.97219 61.5899C3.73401 62.6402 4.61419 62.7585 5.17631 62.5144C5.62009 62.3221 5.87157 61.9153 5.79761 61.5011C5.63489 60.621 5.1911 59.763 4.47365 58.9494C4.35531 58.8163 4.37011 58.6166 4.50324 58.4982C4.63637 58.3799 4.83608 58.3947 4.95442 58.5278C5.75323 59.4228 6.24879 60.3917 6.4263 61.3902C6.55943 62.1076 6.15263 62.8029 5.42779 63.1136C5.2059 63.2097 4.94702 63.2689 4.65856 63.2689L4.65117 63.2615Z" fill="black"/>
<path d="M7.35093 62.3037C7.29916 62.3037 7.23999 62.3037 7.18821 62.3037C6.66307 62.2668 6.24887 62.0744 5.99 61.7416C5.87905 61.6011 5.90864 61.4014 6.04917 61.2904C6.1897 61.1795 6.3894 61.2091 6.50035 61.3496C6.68526 61.5863 7.0033 61.6529 7.23259 61.6676C7.74294 61.7046 8.36424 61.5049 8.6527 61.2239C8.88198 60.9946 8.93376 60.573 8.80062 60.0848C8.53435 59.1381 7.69856 57.4887 7.0107 56.786C6.88496 56.6603 6.89236 56.4532 7.0107 56.3349C7.12904 56.2165 7.34354 56.2165 7.46188 56.3349C8.22371 57.1189 9.11867 58.8718 9.40713 59.9147C9.60683 60.6395 9.49588 61.283 9.09648 61.6824C8.70447 62.067 8.00921 62.3185 7.34354 62.3185L7.35093 62.3037Z" fill="black"/>
<path d="M9.67359 64.5673C9.67359 64.5673 9.63661 64.5673 9.61442 64.5673C9.43691 64.5377 9.32596 64.3676 9.35555 64.1975C9.87329 61.3351 10.9606 60.1665 11.3082 59.8484C11.397 59.2863 11.323 58.5541 11.2194 58.3322C8.6381 58.2138 7.17362 57.2597 7.19581 55.7212C7.19581 55.5142 7.27716 55.3366 7.4177 55.2035C7.79491 54.8411 8.54934 54.8559 9.51087 54.8781C10.1322 54.8929 10.8274 54.9076 11.4117 54.8041C12.5582 54.6044 13.6676 54.9594 14.607 55.8396C15.8792 57.023 16.641 58.9978 16.4635 60.6398C16.4413 60.8174 16.286 60.9431 16.1084 60.9209C15.9309 60.8987 15.8052 60.7434 15.8274 60.5659C15.9827 59.131 15.28 57.3411 14.1706 56.2982C13.6233 55.7878 12.7135 55.2183 11.5227 55.4254C10.8792 55.5437 10.1396 55.5215 9.49608 55.5068C8.85259 55.492 8.04639 55.4698 7.86148 55.6473C7.85408 55.6547 7.83929 55.6695 7.83929 55.7139C7.8171 57.3558 10.2727 57.6369 11.3304 57.6739C11.4709 57.6739 11.5967 57.7479 11.6928 57.8736C12.033 58.31 12.0182 59.5304 11.9147 60.0555L11.8925 60.1813L11.789 60.2552C11.789 60.2552 10.5464 61.202 9.98424 64.2863C9.95466 64.4416 9.82152 64.5525 9.6662 64.5525L9.67359 64.5673Z" fill="black"/>
<path d="M11.3227 58.0064C11.5446 57.9102 11.7369 57.9694 11.87 58.0581C12.0179 58.1469 12.1067 58.2948 12.1437 58.4501C12.1955 58.7534 12.0771 59.0936 11.6333 59.2046C11.4484 59.0492 11.3597 58.9531 11.2857 58.8643C11.2117 58.783 11.1674 58.7238 11.16 58.6646C11.1452 58.6055 11.16 58.5463 11.1969 58.4501C11.2265 58.354 11.2783 58.2356 11.3301 58.0064H11.3227Z" fill="black"/>
<path d="M9.77698 60.1664C9.66604 60.1664 9.5477 60.1664 9.42935 60.1442C9.25184 60.122 9.1261 59.9667 9.14829 59.7891C9.17048 59.6116 9.3258 59.4859 9.50332 59.5081C10.6793 59.6412 11.0935 58.909 11.0935 58.9016C11.1823 58.7463 11.3746 58.6871 11.5299 58.7758C11.6853 58.8572 11.7444 59.0569 11.6557 59.2122C11.6335 59.2566 11.1157 60.1664 9.77698 60.1664Z" fill="black"/>
<path d="M2.25477 70.191C2.25477 70.191 -1.32508 92.5207 1.28584 99.5176C1.28584 99.5176 2.67636 105.605 9.18518 105.25C12.4766 105.065 13.6822 100.472 14.6215 96.3372C16.404 88.4822 16.5594 80.5163 15.5904 72.1658C15.5904 72.1658 15.1762 74.3626 11.7591 74.3108C5.90118 74.222 2.25477 70.1836 2.25477 70.1836V70.191Z" fill="#8AC650"/>
<path d="M8.64523 105.588C2.41747 105.588 0.989972 99.6558 0.975179 99.5966C-1.62835 92.644 1.78878 71.0614 1.93671 70.1442C1.9589 70.0259 2.04026 69.9223 2.1586 69.8853C2.27694 69.8483 2.40268 69.8853 2.48404 69.9741C2.52102 70.0111 6.11566 73.909 11.7591 73.9903C14.8878 74.0421 15.265 72.1264 15.2724 72.1042C15.302 71.9489 15.4351 71.838 15.5978 71.8454C15.7531 71.8454 15.8863 71.9711 15.9085 72.1264C16.944 81.0243 16.6259 88.9606 14.9322 96.4014C14.1259 99.9664 12.8981 105.358 9.19995 105.558C9.00765 105.565 8.82274 105.573 8.63783 105.573L8.64523 105.588ZM2.47664 70.8617C1.92931 74.5155 -0.725989 93.2209 1.58908 99.4117C1.65565 99.6927 3.01658 105.284 9.17037 104.937C12.1363 104.774 13.3345 100.566 14.3109 96.2756C15.9159 89.2047 16.2709 81.6678 15.3907 73.2729C14.8582 73.9385 13.8079 74.6708 11.7517 74.6412C6.95146 74.5672 3.63788 71.9489 2.46925 70.869L2.47664 70.8617Z" fill="black"/>
</svg>
