<svg width="68" height="73" viewBox="0 0 68 73" fill="none" xmlns="http://www.w3.org/2000/svg">
<path d="M66.1186 17.168V29.848C66.1186 31.1659 65.0507 32.2338 63.7327 32.2338H51.0527V17.168H66.1186Z" fill="#8AC650" fill-opacity="0.3"/>
<path d="M34.7812 39.4659V3.88583C34.7812 2.56787 35.8491 1.5 37.1671 1.5H64.335C65.653 1.5 66.7208 2.56787 66.7208 3.88583V46.2359C66.7208 47.3218 66.0019 48.2366 65.016 48.5265" stroke="#10075E" stroke-width="2" stroke-miterlimit="10"/>
<path d="M51.0527 17.7715V49.1084" stroke="#10075E" stroke-width="2" stroke-miterlimit="10"/>
<path d="M35.9873 32.8379H66.119" stroke="#10075E" stroke-width="2" stroke-miterlimit="10"/>
<path d="M35.9873 16.5664H66.119" stroke="#10075E" stroke-width="2" stroke-miterlimit="10"/>
<path d="M43.2188 21.3867V28.6183" stroke="#10075E" stroke-width="2" stroke-miterlimit="10"/>
<path d="M39.6025 25.002H46.8341" stroke="#10075E" stroke-width="2" stroke-miterlimit="10"/>
<path d="M45.3965 38.3477L40.5303 43.2145" stroke="#10075E" stroke-width="2" stroke-miterlimit="10"/>
<path d="M40.5303 38.3477L45.3965 43.2145" stroke="#10075E" stroke-width="2" stroke-miterlimit="10"/>
<path d="M55.874 25.002H62.503" stroke="#10075E" stroke-width="2" stroke-miterlimit="10"/>
<path d="M55.874 38.2598H62.503" stroke="#10075E" stroke-width="2" stroke-miterlimit="10"/>
<path d="M55.874 43.082H62.503" stroke="#10075E" stroke-width="2" stroke-miterlimit="10"/>
<path d="M61.2973 6.32031H39.6025V12.3466H61.2973V6.32031Z" fill="#8AC650" fill-opacity="0.3"/>
<path d="M10.2907 71.4996L16.0259 70.4371L10.8541 45.4941L4.64941 47.3002" stroke="#10075E" stroke-width="2" stroke-miterlimit="10"/>
<path d="M64.932 51.9772C56.9923 49.222 47.082 59.3257 41.624 55.7792C43.3795 56.7007 45.5706 56.0185 46.4921 54.2624C47.4135 52.5069 46.7313 50.3158 44.9752 49.3943C39.6112 46.5782 30.8236 41.4854 28.9361 41.3841C27.0282 41.2817 25.4939 41.3902 22.8122 41.9428C20.8753 42.3417 15.301 46.1064 11.1777 47.4044L14.7749 64.4692C14.7749 64.4692 21.1296 63.6135 23.3455 63.5231C26.0447 63.4128 31.1026 64.6777 37.5689 66.1409C44.4268 67.6921 46.2034 67.2865 47.7648 66.6742C48.685 66.3133 56.6374 61.2319 60.9107 58.4682C63.8853 56.5452 66.1765 56.0799 66.6459 54.7674C67.1232 53.4344 66.112 52.3864 64.932 51.9772Z" stroke="#10075E" stroke-width="2" stroke-miterlimit="10"/>
<path d="M42.0128 56.0052L35.3838 52.1797" stroke="#10075E" stroke-width="2" stroke-miterlimit="10"/>
<path d="M17.9082 38.2612V23.1953" stroke="#10075E" stroke-width="2" stroke-miterlimit="10"/>
<path d="M17.9082 28.0156H30.5635" stroke="#10075E" stroke-width="2" stroke-miterlimit="10"/>
<path d="M17.9082 33.4395H30.5635" stroke="#10075E" stroke-width="2" stroke-miterlimit="10"/>
<path d="M17.9082 22.5918H30.5635" stroke="#10075E" stroke-width="2" stroke-miterlimit="10"/>
<path d="M13.4056 27.196C20.1287 27.196 25.5788 21.7459 25.5788 15.0228C25.5788 8.29974 20.1287 2.84961 13.4056 2.84961C6.68255 2.84961 1.23242 8.29974 1.23242 15.0228C1.23242 21.7459 6.68255 27.196 13.4056 27.196Z" fill="#8AC650"/>
<path d="M13.4056 27.196C20.1287 27.196 25.5788 21.7459 25.5788 15.0228C25.5788 8.29974 20.1287 2.84961 13.4056 2.84961C6.68255 2.84961 1.23242 8.29974 1.23242 15.0228C1.23242 21.7459 6.68255 27.196 13.4056 27.196Z" stroke="#10075E" stroke-width="2" stroke-miterlimit="10"/>
<path d="M8.18652 10.8027L10.9032 19.2396L13.6205 10.9438L15.9087 19.2396L18.3397 11.089" stroke="white" stroke-width="2" stroke-miterlimit="10" stroke-linecap="round" stroke-linejoin="round"/>
<path d="M19.0542 14.8066H7.75781" stroke="white" stroke-width="2" stroke-miterlimit="10" stroke-linecap="round" stroke-linejoin="round"/>
</svg>
