<svg width="42" height="50" viewBox="0 0 42 50" fill="none" xmlns="http://www.w3.org/2000/svg">
<path d="M20.9999 10.9657C17.9921 10.9657 15.5454 8.53144 15.5454 5.53886V1.30936C15.5454 0.586147 16.1345 0 16.8614 0H25.1389C25.8658 0 26.4549 0.586147 26.4549 1.30936V5.53886C26.4544 8.53144 24.0077 10.9657 20.9999 10.9657ZM18.1769 2.61871V5.53886C18.1769 7.08724 19.4436 8.34757 20.9999 8.34757C22.5562 8.34757 23.8229 7.08724 23.8229 5.53886V2.61871H18.1769Z" fill="#595656"/>
<path d="M36.0323 49.9993H5.96764C3.18272 49.9993 0.91748 47.7455 0.91748 44.9747V7.88591C0.91748 5.11509 3.18272 2.86133 5.96764 2.86133H16.3009C17.0278 2.86133 17.6169 3.44747 17.6169 4.17068C17.6169 4.89389 17.0278 5.48004 16.3009 5.48004H5.96764C4.63426 5.48004 3.54952 6.55984 3.54952 7.88591V44.9747C3.54952 46.3013 4.63482 47.3806 5.96764 47.3806H36.0323C37.3656 47.3806 38.4504 46.3008 38.4504 44.9747V7.88591C38.4504 6.55928 37.3651 5.48004 36.0323 5.48004H25.699C24.9721 5.48004 24.383 4.89389 24.383 4.17068C24.383 3.44747 24.9721 2.86133 25.699 2.86133H36.0323C38.8172 2.86133 41.0824 5.11509 41.0824 7.88591V44.9747C41.0819 47.7455 38.8172 49.9993 36.0323 49.9993Z" fill="#595656"/>
<path d="M21.0005 24.0652C23.4661 24.0652 25.4649 22.0766 25.4649 19.6234C25.4649 17.1703 23.4661 15.1816 21.0005 15.1816C18.5349 15.1816 16.5361 17.1703 16.5361 19.6234C16.5361 22.0766 18.5349 24.0652 21.0005 24.0652Z" fill="#034EA1"/>
<path d="M21 25.5449C15.3837 25.5449 10.8308 29.9271 10.8308 35.3333H31.1692C31.1692 29.9276 26.6163 25.5449 21 25.5449Z" fill="#034EA1"/>
<path d="M31.9203 41.7496H10.0799C9.35304 41.7496 8.76392 41.1634 8.76392 40.4402C8.76392 39.717 9.35304 39.1309 10.0799 39.1309H31.9203C32.6472 39.1309 33.2363 39.717 33.2363 40.4402C33.2363 41.1634 32.6472 41.7496 31.9203 41.7496Z" fill="#595656"/>
</svg>
