<svg width="48" height="50" viewBox="0 0 48 50" fill="none" xmlns="http://www.w3.org/2000/svg">
<path d="M38.7609 50.0007H1.54453C0.817642 50.0007 0.228516 49.4145 0.228516 48.6913V8.23123C0.228516 7.50802 0.817642 6.92188 1.54453 6.92188H38.7603C39.4872 6.92188 40.0764 7.50802 40.0764 8.23123V48.6913C40.0764 49.4145 39.4872 50.0007 38.7609 50.0007ZM2.86055 47.3825H37.4449V9.54058H2.86055V47.3825Z" fill="#595656"/>
<path d="M42.9026 16.915L46.4564 13.3792L42.9026 9.84446V4.8444H37.8771L34.3244 1.30859L30.7706 4.8444H25.7451V9.84446L22.1919 13.3792L25.7451 16.915V21.915H30.7706L34.3244 25.4503L37.8771 21.915H42.9026V16.915Z" fill="#034EA1"/>
<path d="M34.3245 26.7604C33.9757 26.7604 33.6408 26.6228 33.3938 26.3771L30.2259 23.2246H25.7458C25.0189 23.2246 24.4298 22.6384 24.4298 21.9152V17.4579L21.2613 14.3059C21.0149 14.0602 20.876 13.727 20.876 13.3799C20.876 13.0328 21.0143 12.6996 21.2613 12.4539L24.4292 9.30253V4.84516C24.4292 4.12195 25.0183 3.53581 25.7452 3.53581H30.2253L33.3932 0.383334C33.6402 0.138178 33.9751 0 34.324 0C34.6729 0 35.0078 0.137621 35.2547 0.383334L38.4221 3.53525H42.9022C43.6291 3.53525 44.2182 4.1214 44.2182 4.8446V9.30198L47.3861 12.4533C47.6331 12.6991 47.7714 13.0322 47.7714 13.3794C47.7714 13.7265 47.6331 14.0597 47.3861 14.3054L44.2176 17.4573V21.9147C44.2176 22.6379 43.6285 23.224 42.9016 23.224H38.4216L35.2542 26.3759C35.0078 26.6228 34.6734 26.7604 34.3245 26.7604ZM27.0613 20.6064H30.7707C31.1196 20.6064 31.4545 20.744 31.7015 20.9898L34.3245 23.6001L36.9471 20.9903C37.194 20.7446 37.5289 20.607 37.8778 20.607H41.5873V16.9163C41.5873 16.5692 41.7256 16.236 41.9726 15.9903L44.5962 13.3805L41.9731 10.7712C41.7262 10.5255 41.5878 10.1923 41.5878 9.84522V6.15452H37.8772C37.5283 6.15452 37.1935 6.01689 36.9465 5.77118L34.324 3.16139L31.7009 5.77174C31.4539 6.01689 31.1191 6.15507 30.7702 6.15507H27.0607V9.84578C27.0607 10.1929 26.9224 10.5261 26.6754 10.7718L24.0523 13.381L26.676 15.9908C26.9224 16.2365 27.0613 16.5697 27.0613 16.9168V20.6064Z" fill="#034EA1"/>
<path d="M32.2283 19.7163C31.8794 19.7163 31.5445 19.5787 31.2976 19.3329L27.4783 15.5325C26.9648 15.0216 26.9648 14.1925 27.4789 13.681C27.9919 13.1706 28.8257 13.1701 29.3398 13.6816L32.2283 16.556L39.3085 9.51168C39.8226 9.00131 40.6559 9.00131 41.1699 9.51168C41.6835 10.0232 41.6835 10.8522 41.1699 11.3637L33.1596 19.3335C32.9121 19.5787 32.5778 19.7163 32.2283 19.7163Z" fill="white"/>
<path d="M25.6977 43.3785H7.95274C7.22585 43.3785 6.63672 42.7923 6.63672 42.0691C6.63672 41.3459 7.22585 40.7598 7.95274 40.7598H25.6982C26.4251 40.7598 27.0142 41.3459 27.0142 42.0691C27.0142 42.7923 26.4246 43.3785 25.6977 43.3785Z" fill="#595656"/>
<path d="M15.3465 37.9859H7.95274C7.22585 37.9859 6.63672 37.3997 6.63672 36.6765C6.63672 35.9533 7.22585 35.3672 7.95274 35.3672H15.3465C16.0734 35.3672 16.6625 35.9533 16.6625 36.6765C16.6625 37.3997 16.0734 37.9859 15.3465 37.9859Z" fill="#595656"/>
<path d="M18.7973 32.5914H7.95274C7.22585 32.5914 6.63672 32.0052 6.63672 31.282C6.63672 30.5588 7.22585 29.9727 7.95274 29.9727H18.7973C19.5242 29.9727 20.1133 30.5588 20.1133 31.282C20.1133 32.0052 19.5242 32.5914 18.7973 32.5914Z" fill="#595656"/>
</svg>
