<svg width="18" height="18" viewBox="0 0 18 18" fill="none" xmlns="http://www.w3.org/2000/svg">
<path d="M1.02458 18L0 16.9754L0.474876 10.2506L0.75347 9.63989L7.98252 2.41064H9.33923L15.5894 8.66097V10.0175L8.36012 17.2467L7.74921 17.5253L1.02458 18ZM2.36344 10.7433L1.9916 16.0082L7.25668 15.6364L13.5542 9.33904L8.66078 4.44599L2.36344 10.7433Z" fill="white"/>
<path d="M1.0242 17.9999L0 16.9757L0.470847 10.2766L2.10615 9.66553L8.3346 15.894L7.7235 17.5291L1.0242 17.9999ZM2.23719 12.5102L1.99141 16.0087L5.48995 15.7629L2.23719 12.5102Z" fill="white"/>
<path d="M14.2326 10.0175L7.98242 3.76754V2.41103L10.3936 0H11.7502L18.0001 6.24994L18.0003 7.60646L15.5895 10.0175H14.2326ZM10.0176 3.08928L14.911 7.98252L15.9651 6.9282L11.0719 2.03477L10.0176 3.08928Z" fill="white"/>
</svg>
