<svg width="54" height="54" viewBox="0 0 54 54" fill="none" xmlns="http://www.w3.org/2000/svg">
<path d="M45.3813 47.6118C52.9686 38.3061 52.4257 24.5818 43.753 15.9087C34.5006 6.65673 19.4998 6.65673 10.2478 15.9087C1.57466 24.5822 1.03178 38.3065 8.61914 47.6118H45.3813Z" fill="#B9D1FF" fill-opacity="0.5"/>
<path d="M28.8002 15.1523H25.2002V19.6667H28.8002V15.1523Z" fill="#B9D1FF"/>
<path d="M41.1996 21.8383L38.6543 19.293L35.4622 22.4851L38.0075 25.0304L41.1996 21.8383Z" fill="#B9D1FF"/>
<path d="M44.9949 31.001H40.4805V34.601H44.9949V31.001Z" fill="#B9D1FF"/>
<path d="M27.7473 31.8748C29.6697 33.3598 30.024 36.1217 28.539 38.0442C27.054 39.9666 24.2917 40.3204 22.3696 38.8354C20.4476 37.3504 9.94531 23.6787 9.94531 23.6787C9.94531 23.6787 25.8253 30.3898 27.7473 31.8748Z" fill="#B9D1FF"/>
<path d="M26.3992 41.1665C29.0369 41.1665 31.1753 39.0282 31.1753 36.3904C31.1753 33.7526 29.0369 31.6143 26.3992 31.6143C23.7614 31.6143 21.623 33.7526 21.623 36.3904C21.623 39.0282 23.7614 41.1665 26.3992 41.1665Z" fill="white"/>
</svg>
