<svg width="16" height="17" viewBox="0 0 16 17" fill="none" xmlns="http://www.w3.org/2000/svg">
<g clip-path="url(#clip0_1437_236)">
<path d="M15.5655 13.9693L13.1086 11.5119C14.9033 8.74857 14.5921 5.00698 12.1713 2.58622C9.39057 -0.195022 4.86618 -0.195535 2.08545 2.58545C-0.695279 5.36644 -0.695022 9.89057 2.08545 12.6708C4.50672 15.0923 8.24857 15.4033 11.0116 13.6083L13.4685 16.0663C14.0479 16.6446 14.9867 16.6446 15.5655 16.0663C16.1453 15.4867 16.1448 14.5486 15.5655 13.9693ZM10.861 11.3615C8.80251 13.4187 5.45399 13.4187 3.39577 11.3615C1.33754 9.30251 1.33754 5.95399 3.39577 3.89576C5.45347 1.83857 8.802 1.83857 10.8605 3.89576C12.9187 5.95501 12.9187 9.30302 10.861 11.3615Z" fill="#034EA1"/>
<path d="M7.79472 10.3905C7.86681 10.6045 8.06771 10.7487 8.29375 10.7487C8.51979 10.7487 8.72043 10.6043 8.79253 10.3905L9.32902 8.80004H10.1929C10.4839 8.80004 10.7194 8.56399 10.7194 8.2733C10.7194 7.9826 10.4839 7.74655 10.1929 7.74655H9.68411L10.3109 5.8882C10.4035 5.61238 10.2555 5.31373 9.97994 5.2206C9.7049 5.12772 9.40548 5.27576 9.3126 5.55132L8.29349 8.574L7.62692 6.59685C7.55457 6.38287 7.35393 6.23868 7.12789 6.23868C6.90185 6.23868 6.70095 6.38287 6.62885 6.59685L5.96228 8.574L4.94343 5.55132C4.85055 5.27576 4.55165 5.12772 4.27609 5.2206C4.00053 5.31348 3.85249 5.61213 3.94536 5.8882L4.57191 7.74655H4.06287C3.77192 7.74655 3.53613 7.9826 3.53613 8.2733C3.53613 8.56399 3.77192 8.80004 4.06287 8.80004H4.92701L5.46325 10.3905C5.5356 10.6045 5.73624 10.7487 5.96228 10.7487C6.18832 10.7487 6.38922 10.6043 6.46131 10.3905L7.12789 8.41364L7.79472 10.3905Z" fill="#034EA1"/>
</g>
<defs>
<clipPath id="clip0_1437_236">
<rect width="16" height="16" fill="white" transform="translate(0 0.5)"/>
</clipPath>
</defs>
</svg>
