<svg width="159" height="123" viewBox="0 0 159 123" fill="none" xmlns="http://www.w3.org/2000/svg">
<circle cx="79" cy="58" r="54" fill="#F1F3F8"/>
<path d="M57.2252 46.874H32.832V69.8058H57.2252V46.874Z" fill="#262728" stroke="#262728" stroke-linecap="round" stroke-linejoin="round"/>
<path d="M57.8026 86.5072L45.3403 88.4802L33.3164 86.5072V63.3828H57.8026V86.5072Z" fill="white"/>
<path d="M26.1813 91.9158L25.8159 101.063C25.8159 101.063 25.4571 108.716 25.0718 113.227C24.846 115.877 24.268 118.913 23.8296 122.328H67.388C66.9496 118.913 66.8964 115.877 66.6705 113.227C66.2852 108.716 65.9265 101.063 65.9265 101.063L65.5612 91.9158L66.0793 84.3759L67.9261 65.7223L63.9403 64.2475L55.9952 62.2015C55.6896 61.8428 52.4876 59.9495 52.5541 60.0226C53.0191 60.5208 53.6568 61.6368 53.9757 62.1417C54.0288 62.5071 45.9841 79.8255 45.8778 79.8255C45.7715 79.8255 37.7268 62.5137 37.78 62.1417C38.0988 61.6368 38.7366 60.5142 39.2016 60.0226C39.268 59.9495 36.0727 61.8428 35.7671 62.2015L27.8221 64.2475L23.8362 65.7223L25.683 84.3759L26.2012 91.9158H26.1813Z" fill="#0080C5"/>
<path d="M24.0753 121.989C24.0753 121.989 24.6798 117.737 25.0651 113.227C25.4504 108.716 25.8091 101.063 25.8091 101.063L26.1745 91.9158L25.6563 84.3759L23.8096 65.7223L27.7954 64.2475L35.7404 62.2015C36.046 61.8428 39.248 59.9495 39.1749 60.0226C38.7099 60.5208 38.0722 61.6368 37.7533 62.1417C37.7002 62.5071 45.7449 79.8255 45.8512 79.8255C45.9575 79.8255 54.0022 62.5137 53.949 62.1417C53.6302 61.6368 52.9924 60.5142 52.5274 60.0226C52.461 59.9495 55.6563 61.8428 55.9618 62.2015L63.9069 64.2475L67.8928 65.7223L66.046 84.3759L65.5278 91.9158L65.8932 101.063C65.8932 101.063 66.2519 108.716 66.6372 113.227C67.0225 117.737 67.3148 121.989 67.3148 121.989" stroke="#121212" stroke-linecap="round" stroke-linejoin="round"/>
<path d="M34.8511 64.6387C34.8511 64.6387 40.5508 79.0208 45.1743 82.8605" stroke="#121212" stroke-linecap="round" stroke-linejoin="round"/>
<path d="M56.6068 64.6387C56.6068 64.6387 50.9868 79.0208 46.3633 82.8605" stroke="#121212" stroke-linecap="round" stroke-linejoin="round"/>
<path d="M49.9375 116.688C49.9375 116.688 41.8396 118.329 36.0801 114.968C36.0801 114.968 39.4348 113.001 53.5912 114.476" stroke="#121212" stroke-linecap="round" stroke-linejoin="round"/>
<path d="M51.9759 61.3317L45.7647 63.3844L39.5601 61.3317L40.0251 52.5098H51.6371L51.9759 61.3317Z" fill="white" stroke="#121212" stroke-linecap="round" stroke-linejoin="round"/>
<path d="M39.1214 57.9834C39.1214 57.9834 40.1643 60.3417 41.7255 61.3514C43.2866 62.3612 45.8907 63.3842 45.8907 63.3842L44.3628 65.2974L44.0439 70.1534L41.008 67.9945L37.7197 63.5702V61.3049L39.128 57.9834H39.1214Z" fill="white" stroke="#121212" stroke-linecap="round" stroke-linejoin="round"/>
<path d="M52.4148 57.9834C52.4148 57.9834 51.3718 60.3417 49.8107 61.3514C48.2496 62.3612 45.6455 63.3842 45.6455 63.3842L47.1734 65.2974L47.4923 70.1534L50.5281 67.9945L53.8164 63.5702V61.3049L52.4081 57.9834H52.4148Z" fill="white" stroke="#121212" stroke-linecap="round" stroke-linejoin="round"/>
<path d="M45.3532 64.9258H44.556C44.4962 65.0055 44.4165 65.0653 44.3235 65.145C43.8651 65.5369 43.3935 65.9089 42.9285 66.2942C42.304 66.8058 41.6862 67.3173 41.1216 67.9019C40.0653 68.998 39.2615 70.3399 38.7699 71.7947C38.6902 72.0338 38.4976 72.5321 38.4976 72.5321C38.4976 72.5321 41.5201 72.7778 44.1508 74.6645C44.2571 74.7375 45.0277 72.253 45.0874 72.0272C45.3266 71.0972 45.486 70.1472 45.5658 69.1906C45.6388 68.234 45.6388 67.2708 45.5458 66.3142C45.4993 65.8492 45.4395 65.3842 45.3532 64.9258Z" fill="#8AC650" stroke="#121212" stroke-linecap="round" stroke-linejoin="round"/>
<path d="M46.1572 64.9258H46.9544C47.0141 65.0055 47.0939 65.0653 47.1869 65.145C47.6453 65.5369 48.1169 65.9089 48.5819 66.2942C49.2064 66.8058 49.8242 67.3173 50.3888 67.9019C51.4451 68.998 52.2489 70.3399 52.7405 71.7947C52.8202 72.0338 53.0128 72.5321 53.0128 72.5321C53.0128 72.5321 49.9903 72.7778 47.3596 74.6645C47.2533 74.7375 46.4827 72.253 46.4229 72.0272C46.1838 71.0972 46.0244 70.1472 45.9446 69.1906C45.8716 68.234 45.8715 67.2708 45.9645 66.3142C46.011 65.8492 46.0709 65.3842 46.1572 64.9258Z" fill="#8AC650" stroke="#121212" stroke-linecap="round" stroke-linejoin="round"/>
<path d="M36.6242 62.5934C36.5046 63.3905 36.3851 64.1943 36.3784 65.0048C36.3784 65.8152 36.5047 66.6323 36.8501 67.3564C39.6003 67.7417 42.4701 67.1771 44.8217 65.6757C44.8084 65.0513 44.8417 64.8454 44.8284 64.2209C43.1876 62.9521 43.1145 62.3874 41.0684 61.7896C40.5967 61.6501 36.8766 61.5039 36.8766 61.5039C36.8766 61.5039 36.6906 62.0951 36.6109 62.5867L36.6242 62.5934Z" fill="#8AC650" stroke="#121212" stroke-linecap="round" stroke-linejoin="round"/>
<path d="M54.9925 62.5934C55.1121 63.3905 55.2317 64.1943 55.2383 65.0048C55.2383 65.8152 55.1121 66.6323 54.7667 67.3564C52.0164 67.7417 49.1466 67.1771 46.795 65.6757C46.8083 65.0513 46.7751 64.8454 46.7884 64.2209C48.4292 62.9521 48.5023 62.3874 50.5483 61.7896C51.02 61.6501 54.7401 61.5039 54.7401 61.5039C54.7401 61.5039 54.9261 62.0951 55.0058 62.5867L54.9925 62.5934Z" fill="#8AC650" stroke="#121212" stroke-linecap="round" stroke-linejoin="round"/>
<path d="M45.7655 63.8477C45.0082 63.8477 44.583 64.1665 44.583 64.4389V65.3091C44.583 65.5815 45.048 65.9004 45.7655 65.9004C46.5228 65.9004 46.948 65.5815 46.948 65.3091V64.4389C46.948 64.1665 46.4829 63.8477 45.7655 63.8477Z" fill="#8AC650" stroke="#121212" stroke-linecap="round" stroke-linejoin="round"/>
<path d="M62.6673 56.8195C62.9529 61.443 61.0397 65.3093 59.5849 66.1264C59.6912 65.0701 59.9237 62.6122 59.8174 62.4993C59.751 62.4262 58.5486 65.6547 57.778 66.877C57.5588 64.8908 57.685 64.1401 57.3196 62.6056C57.1469 62.9776 56.6487 64.8775 56.4693 65.2561C55.5326 62.5724 55.7917 53.2588 56.0043 51.9767C56.9277 46.4364 56.2302 40.7168 56.8015 35.1167C56.8612 34.5321 59.5783 28.3806 59.9835 28.5799C62.1425 29.6694 61.6775 36.0534 61.9698 38.0728C62.6673 42.8625 62.448 53.3717 62.6606 56.8128L62.6673 56.8195Z" fill="#262728"/>
<path d="M59.6113 41.4062C59.6113 41.4062 61.8434 55.8549 59.9899 60.691" stroke="#121212" stroke-linecap="round" stroke-linejoin="round"/>
<path d="M55.7515 54.8061C55.7515 54.8061 55.6652 56.4868 55.8047 58.7986C55.9442 61.1104 56.4756 65.5612 56.4756 65.5612C56.6483 65.1892 57.1466 63.2893 57.3259 62.9106C57.6913 64.4452 57.5651 65.1959 57.7843 67.1821C58.5549 65.9598 59.7639 62.7313 59.8237 62.8044C59.93 62.9173 59.6908 65.3752 59.5912 66.4315C61.046 65.6144 62.9592 61.7415 62.6736 57.1246C62.461 53.6768 62.3215 38.9226 61.624 34.1396" stroke="#121212" stroke-linecap="round" stroke-linejoin="round"/>
<path d="M28.6023 56.8189C28.3167 61.4425 30.2299 65.3087 31.6847 66.1258C31.5784 65.0696 31.3459 62.6116 31.4456 62.4987C31.512 62.4256 32.7144 65.6541 33.485 66.8765C33.7042 64.8902 33.578 64.1395 33.9434 62.605C34.1161 62.977 34.6143 64.8769 34.7937 65.2556C35.7303 62.5718 35.4713 53.2582 35.2587 51.9761C34.3353 46.4358 35.0328 40.7162 34.4615 35.1161C34.4017 34.5315 33.3388 23.0856 33.0598 23.4376C29.4194 28.0479 29.6719 36.5776 29.3796 38.6037C28.6821 43.3933 28.8149 53.3712 28.6023 56.8189Z" fill="#262728"/>
<path d="M31.6506 41.4082C31.6506 41.4082 29.4186 55.8568 31.272 60.6929" stroke="#121212" stroke-linecap="round" stroke-linejoin="round"/>
<path d="M29.6519 34.1406C29.2534 38.7376 28.8083 53.6844 28.6023 57.1255C28.3167 61.7491 30.2299 65.6153 31.6847 66.4324C31.5784 65.3762 31.3459 62.9183 31.4456 62.8053C31.512 62.7323 32.7144 65.9608 33.485 67.1831C33.7042 65.1968 33.578 64.4462 33.9434 62.9116C34.1161 63.2836 34.6143 65.1835 34.7937 65.5622C34.7937 65.5622 35.3251 61.1114 35.4646 58.7996C35.6041 56.4878 35.5178 54.475 35.5178 54.475" stroke="#121212" stroke-linecap="round" stroke-linejoin="round"/>
<path d="M56.8205 42.3297C56.5082 44.3891 55.7044 48.0029 57.8236 48.2819C59.9427 48.5609 61.9422 47.4715 63.0782 43.4059C63.6362 41.3931 62.3076 39.0481 60.1885 38.7691C58.0694 38.4901 57.1327 40.277 56.8205 42.3297Z" fill="white" stroke="#121212" stroke-linecap="round" stroke-linejoin="round"/>
<path d="M35.045 42.3297C35.3572 44.3891 36.161 48.0029 34.0419 48.2819C31.9227 48.5609 29.9232 47.4715 28.7872 43.4059C28.2292 41.3931 29.5578 39.0481 31.677 38.7691C33.7961 38.4901 34.7328 40.277 35.045 42.3297Z" fill="white" stroke="#121212" stroke-linecap="round" stroke-linejoin="round"/>
<path d="M59.2059 32.3936C58.7408 21.9508 52.9216 17.0615 45.6408 16.922C38.2737 16.7825 33.1054 21.4393 32.6736 32.2608C32.3215 40.9631 33.9357 50.0641 39.2302 54.8404C44.0863 59.2248 49.879 56.9596 51.5199 55.91C58.1363 51.6717 59.631 41.8533 59.2059 32.3936Z" fill="white"/>
<path d="M52.0713 43.3283C52.8234 43.3283 53.4331 42.5997 53.4331 41.7008C53.4331 40.8019 52.8234 40.0732 52.0713 40.0732C51.3192 40.0732 50.7095 40.8019 50.7095 41.7008C50.7095 42.5997 51.3192 43.3283 52.0713 43.3283Z" fill="#121212"/>
<path d="M41.1709 41.7008C41.1709 42.6042 40.5598 43.3283 39.8091 43.3283C39.0585 43.3283 38.4473 42.5976 38.4473 41.7008C38.4473 40.804 39.0585 40.0732 39.8091 40.0732C40.5598 40.0732 41.1709 40.804 41.1709 41.7008Z" fill="#121212"/>
<path d="M33.0518 41.4082C33.0518 41.4082 34.1678 55.8635 44.9428 57.3914" stroke="#121212" stroke-linecap="round" stroke-linejoin="round"/>
<path d="M58.7871 41.6064C58.7871 41.6064 57.9634 56.0218 46.6968 57.3903" stroke="#121212" stroke-linecap="round" stroke-linejoin="round"/>
<path d="M45.9404 46.7422V47.5061" stroke="#121212" stroke-linecap="round" stroke-linejoin="round"/>
<path d="M43.7075 50.6611C43.7075 50.6611 45.6672 52.9397 48.0587 50.7541" stroke="#121212" stroke-linecap="round" stroke-linejoin="round"/>
<path d="M37.1714 38.2514C37.1714 38.2514 39.3835 36.4578 42.1005 38.2182" stroke="#121212" stroke-linecap="round" stroke-linejoin="round"/>
<path d="M54.7954 38.2514C54.7954 38.2514 52.5832 36.4578 49.8662 38.2182" stroke="#121212" stroke-linecap="round" stroke-linejoin="round"/>
<path d="M51.8405 17.7438C65.7178 24.0481 58.8422 38.7358 58.8422 38.7358C56.4375 33.242 56.4574 32.5777 51.9136 25.5959C49.5619 30.4387 42.8856 35.6269 32.6288 38.5963C32.6288 38.5963 26.9557 24.6061 37.5513 18.2819C41.8826 15.6978 47.2568 15.6579 51.8471 17.7505L51.8405 17.7438Z" fill="#262728"/>
<path d="M29.6523 34.14C29.8118 28.5797 31.4526 22.2091 37.4181 18.5952C38.5208 17.9309 40.4938 16.9876 41.7095 16.6289" stroke="#121212" stroke-linecap="round" stroke-linejoin="round"/>
<path d="M59.0205 39.1549C58.3562 34.9698 54.6826 29.8414 51.9058 25.5898C50.3181 30.4326 40.978 36.0261 32.6211 38.7896" stroke="#121212" stroke-linecap="round" stroke-linejoin="round"/>
<path d="M52.072 25.8418C52.072 25.8418 50.5109 33.9264 46.5317 35.0557" stroke="#121212" stroke-linecap="round" stroke-linejoin="round"/>
<path d="M43.6143 16.3365C46.6966 15.9247 49.9185 16.8879 51.8383 17.7382C59.2653 21.0464 61.3844 28.5796 61.6302 33.914" stroke="#121212" stroke-linecap="round" stroke-linejoin="round"/>
<path d="M35.9362 26.1211C35.9362 26.1211 31.4521 29.8811 31.4521 36.4178" stroke="#121212" stroke-linecap="round" stroke-linejoin="round"/>
<path d="M56.8887 27.377C56.8887 27.377 59.0277 29.33 59.2602 33.0302" stroke="#121212" stroke-linecap="round" stroke-linejoin="round"/>
<path d="M43.675 26.1211C43.675 26.1211 38.5864 29.4692 35.8628 34.1326" stroke="#121212" stroke-linecap="round" stroke-linejoin="round"/>
<path d="M9.42034 90.8853C12.1174 94.7383 15.8575 97.7741 16.7476 96.5385C17.5448 95.4424 18.3552 88.9788 15.6648 85.1258C12.9677 81.2728 7.30786 80.7812 6.19183 81.5585C5.08245 82.3357 6.72327 87.0323 9.42034 90.8853Z" fill="white" stroke="#121212" stroke-linecap="round" stroke-linejoin="round"/>
<path d="M1.424 90.0883C2.49353 87.9625 6.51922 84.1029 9.14986 81.3926C11.9134 83.7442 12.478 84.1229 15.2548 89.1849C14.8429 89.6299 12.777 91.4103 10.9501 92.6193C11.827 94.207 13.9395 99.9798 15.6135 104.371C16.5369 106.782 18.1312 109.141 19.1543 109.785L15.381 116.056C15.381 116.056 7.08388 106.271 3.38371 99.0697C1.33101 95.0772 0.387691 92.1477 1.424 90.095V90.0883Z" fill="white" stroke="#121212" stroke-linecap="round" stroke-linejoin="round"/>
<path d="M9.14941 90.8848C9.14941 90.8848 10.2787 91.848 11.0493 92.8179" stroke="#121212" stroke-linecap="round" stroke-linejoin="round"/>
<path d="M23.7509 66.0596C23.7509 66.0596 22.9803 66.126 21.2996 67.6871C19.785 69.0954 17.5596 71.4604 15.6265 73.5064C12.5773 76.7283 8.2992 80.3487 6.19336 81.5644C6.19336 81.5644 13.979 87.7956 16.7492 96.5445L22.3891 88.2739L25.9365 85.4772C26.3816 82.0892 26.7536 70.816 23.7509 66.0662V66.0596Z" fill="white" stroke="#121212" stroke-linecap="round" stroke-linejoin="round"/>
<path d="M22.1362 77.3066C22.1362 77.3066 25.099 80.9802 25.9361 85.4709" stroke="#121212" stroke-linecap="round" stroke-linejoin="round"/>
<path d="M17.9379 109.871L19.8644 109.857L23.3453 108.515L25.398 108.21C26.534 107.705 28.5933 108.004 29.2178 108.004C29.7293 108.004 31.1907 108.642 32.3865 109.16C33.4029 109.598 34.4657 109.844 34.4657 109.844C34.4657 109.844 35.7014 110.349 35.6017 110.92C35.5087 111.498 34.1801 111.545 34.1801 111.545C34.1801 111.545 32.7385 111.093 31.8417 110.801C30.9449 110.508 29.8621 110.223 29.8621 110.223C29.8621 110.223 29.1779 110.342 28.0286 110.721C29.045 110.794 30.3737 111.007 30.7523 111.106C31.1642 111.212 32.5459 111.93 33.4029 112.647C34.2266 113.332 35.429 113.75 35.429 113.75C35.429 113.75 36.3059 114.202 36.0534 114.733C35.801 115.265 34.6983 115.165 34.6983 115.165C34.6983 115.165 32.7518 114.62 32.0676 114.175C31.39 113.73 30.3537 113.086 30.3537 113.086L28.0353 112.92L28.9454 113.179L32.805 115.55C32.805 115.55 34.2465 116.48 33.9941 117.012C33.7417 117.543 32.9578 117.457 32.506 117.391C32.3267 117.364 30.9383 116.607 30.2474 116.261C29.231 115.75 28.5667 115.663 28.5667 115.663L26.7067 114.953C26.6535 115.019 26.7598 114.886 26.7067 114.953L29.2975 116.72L30.3404 117.683C30.3404 117.683 31.5029 118.374 31.2239 118.799C30.9449 119.224 30.4467 119.363 30.4467 119.363L26.9259 117.915L24.7337 117.072C22.5747 118.081 20.9671 118.174 19.5322 117.909C15.4268 117.145 15.0415 114.454 15.0415 114.454L17.9312 109.884L17.9379 109.871Z" fill="white"/>
<path d="M18.901 109.598L19.6716 109.93L23.3518 108.509L25.4045 108.203C26.5405 107.698 28.5998 107.997 29.2243 107.997C29.7358 107.997 31.1972 108.635 32.393 109.153C33.4094 109.591 34.4723 109.837 34.4723 109.837C34.4723 109.837 35.7079 110.342 35.6082 110.913C35.5152 111.491 34.1866 111.538 34.1866 111.538C34.1866 111.538 32.7451 111.086 31.8483 110.794C30.9515 110.501 29.8686 110.216 29.8686 110.216C29.8686 110.216 29.1844 110.335 28.0352 110.714C29.0515 110.787 30.3801 111 30.7588 111.099C31.1707 111.206 32.5524 111.923 33.4094 112.641C34.2331 113.325 35.4355 113.743 35.4355 113.743C35.4355 113.743 36.3124 114.195 36.06 114.726C35.8075 115.258 34.7048 115.158 34.7048 115.158C34.7048 115.158 32.7584 114.614 32.0741 114.168C31.3966 113.723 30.3602 113.079 30.3602 113.079L28.0418 112.913L28.9519 113.172L32.8115 115.544C32.8115 115.544 34.253 116.474 34.0006 117.005C33.7482 117.536 32.9643 117.45 32.5126 117.384C32.3332 117.357 30.9448 116.6 30.254 116.254C29.2376 115.743 28.5732 115.656 28.5732 115.656L26.7132 114.946M26.7132 114.946C26.6601 115.012 26.7663 114.879 26.7132 114.946ZM26.7132 114.946L29.304 116.713L30.5662 117.649C30.5662 117.649 31.5095 118.367 31.2238 118.799C30.9448 119.224 30.4466 119.363 30.4466 119.363L26.9258 117.915L24.7336 117.071C22.5746 118.081 21.7309 118.048 20.2761 117.902C17.0742 117.596 15.3735 116.055 15.3735 116.055" stroke="#121212" stroke-linecap="round" stroke-linejoin="round"/>
<path d="M81.9238 90.6392C79.2268 94.4922 75.4868 97.528 74.5966 96.2924C73.7994 95.1963 72.989 88.7327 75.6794 84.8797C78.3698 81.0267 84.0363 80.5352 85.1523 81.3124C86.2617 82.0896 84.6209 86.7862 81.9238 90.6392Z" fill="white" stroke="#121212" stroke-linecap="round" stroke-linejoin="round"/>
<path d="M75.8719 115.658C75.8719 115.658 84.2555 106.026 87.9556 98.8179C90.0083 94.8255 90.9516 91.8959 89.9153 89.8432C88.8458 87.7174 84.8201 83.8578 82.1895 81.1475C79.426 83.4991 78.8613 83.8777 76.0845 88.9397C76.4964 89.3848 78.5624 91.1652 80.3892 92.3742C79.5123 93.9619 77.3998 99.7347 75.7258 104.126C74.8024 106.537 73.2081 108.895 72.1851 109.54" fill="white"/>
<path d="M75.8719 115.658C75.8719 115.658 84.2555 106.026 87.9556 98.8179C90.0083 94.8255 90.9516 91.8959 89.9153 89.8432C88.8458 87.7174 84.8201 83.8578 82.1895 81.1475C79.426 83.4991 78.8613 83.8777 76.0845 88.9397C76.4964 89.3848 78.5624 91.1652 80.3892 92.3742C79.5123 93.9619 77.3998 99.7347 75.7258 104.126C74.8024 106.537 73.2081 108.895 72.1851 109.54" stroke="#121212" stroke-linecap="round" stroke-linejoin="round"/>
<path d="M82.1963 90.6396C82.1963 90.6396 81.067 91.6029 80.2964 92.5728" stroke="#121212" stroke-linecap="round" stroke-linejoin="round"/>
<path d="M67.5954 65.8164C67.5954 65.8164 68.366 65.8828 70.0467 67.444C71.5613 68.8523 73.7867 71.2172 75.7198 73.2633C78.769 76.4851 83.0471 80.1056 85.1529 81.3213C85.1529 81.3213 77.3673 87.5524 74.5972 96.3013L68.9572 88.0307L65.4098 85.234C64.9648 81.8461 64.5927 70.5728 67.5954 65.8231V65.8164Z" fill="white" stroke="#121212" stroke-linecap="round" stroke-linejoin="round"/>
<path d="M69.2095 77.0625C69.2095 77.0625 66.2467 80.7361 65.4097 85.2268" stroke="#121212" stroke-linecap="round" stroke-linejoin="round"/>
<path d="M109.458 81.8396L123.369 84.0451L136.781 81.8396V56.038L123.123 52.4707L109.458 56.038V81.8396Z" fill="white"/>
<path d="M124.225 61.2529L126.437 70.6462V77.2361H119.336V70.8388L121.475 61.2529H124.225Z" fill="#FFCC00" stroke="#121212" stroke-linecap="round" stroke-linejoin="round"/>
<path d="M144.62 97.6701L144.208 87.4597L144.142 79.3287L146.301 58.3566L142.893 56.8752L134.496 54.6564C134.151 54.2578 129.813 51.7933 129.886 51.873C130.404 52.4244 130.391 54.0652 130.743 54.6298C130.803 55.0351 132.151 59.7251 122.877 73.8083C113.61 59.7251 114.952 55.0351 115.012 54.6298C115.364 54.0652 115.358 52.4244 115.869 51.873C115.949 51.7933 111.604 54.2578 111.259 54.6564L102.862 56.8752L99.4541 58.3566L101.613 79.3287L101.547 87.4597L101.135 97.6701C101.135 97.6701 101.135 106.206 100.703 111.242C100.271 116.277 99.6467 122.741 99.6467 122.741H146.088C146.088 122.741 145.464 116.277 145.032 111.242C144.6 106.206 144.6 97.6701 144.6 97.6701H144.62Z" fill="#0080C5"/>
<path d="M146.108 122.328C146.108 122.328 145.484 116.283 145.052 111.248C144.62 106.212 144.62 97.6759 144.62 97.6759L144.208 87.4656L144.142 79.3345L146.301 58.3624L142.893 56.8811L134.496 54.6623C134.151 54.2637 129.813 51.7991 129.886 51.8788C130.404 52.4302 130.391 54.071 130.743 54.6357C130.803 55.0409 132.151 59.7309 122.877 73.8142C113.61 59.7309 114.952 55.0409 115.012 54.6357C115.364 54.071 115.358 52.4302 115.869 51.8788C115.949 51.7991 111.604 54.2637 111.259 54.6623L102.862 56.8811L99.4541 58.3624L101.613 79.3345L101.547 87.4656L101.135 97.6759C101.135 97.6759 101.135 106.212 100.703 111.248C100.271 116.283 99.6467 122.328 99.6467 122.328" stroke="#121212" stroke-linecap="round" stroke-linejoin="round"/>
<path d="M134.682 99.8168C134.682 99.8168 114.76 101.916 108.522 99.1923C108.522 99.1923 116.009 96.8606 127.421 97.9501" stroke="#121212" stroke-linecap="round" stroke-linejoin="round"/>
<path d="M129.155 45.0244H116.619V55.5736H129.155V45.0244Z" fill="white" stroke="#121212" stroke-linecap="round" stroke-linejoin="round"/>
<path d="M127.149 57.2341C127.149 54.836 125.522 55.9985 123.163 55.9985C120.805 55.9985 118.62 54.836 118.62 57.2341C118.62 59.6322 121.377 62.6283 122.884 62.6283C124.293 62.6283 127.149 59.6322 127.149 57.2341Z" fill="#FFCC00" stroke="#121212" stroke-linecap="round" stroke-linejoin="round"/>
<path d="M116.56 48.1924C116.56 48.1924 116.175 50.5174 117.656 51.8726C119.303 53.3806 122.552 55.9448 122.552 55.9448L118.759 58.2167L114.906 63.2322L113.424 57.2535V53.1215L114.673 51.4342L116.553 48.1924H116.56Z" fill="white" stroke="#121212" stroke-linecap="round" stroke-linejoin="round"/>
<path d="M129.214 48.1924C129.214 48.1924 129.599 50.5174 128.118 51.8726C126.471 53.3806 123.222 55.9448 123.222 55.9448L127.015 58.2167L130.868 63.2322L132.35 57.2535V53.1215L131.101 51.4342L129.221 48.1924H129.214Z" fill="white" stroke="#121212" stroke-linecap="round" stroke-linejoin="round"/>
<path d="M122.148 77.3151C122.148 77.3151 116.255 72.1203 110.888 56.084" stroke="#121212" stroke-linecap="round" stroke-linejoin="round"/>
<path d="M123.561 77.3151C123.561 77.3151 129.513 72.1203 134.887 56.084" stroke="#121212" stroke-linecap="round" stroke-linejoin="round"/>
<path d="M111.406 33.7492C111.891 35.9281 112.847 39.595 110.708 39.9803C108.576 40.3723 106.616 39.4422 105.128 35.1575C104.391 33.0383 105.553 30.4874 107.686 30.0955C109.818 29.7035 110.914 31.5636 111.399 33.7425L111.406 33.7492Z" fill="white" stroke="#121212" stroke-linecap="round" stroke-linejoin="round"/>
<path d="M133.674 33.7492C133.189 35.9281 132.232 39.595 134.371 39.9803C136.504 40.3723 138.463 39.4422 139.951 35.1575C140.689 33.0383 139.526 30.4874 137.394 30.0955C135.261 29.7035 134.165 31.5636 133.68 33.7425L133.674 33.7492Z" fill="white" stroke="#121212" stroke-linecap="round" stroke-linejoin="round"/>
<path d="M136.595 26.8671C136.39 39.2032 132.397 49.4999 122.652 49.5796C112.727 49.6593 108.708 37.4959 108.708 26.8671C108.708 16.2382 115.324 10.5186 123.03 10.5186C130.736 10.5186 136.775 16.2382 136.595 26.8671Z" fill="white"/>
<path d="M135.818 33.3115C135.818 33.3115 134.091 49.2747 123.549 49.66" stroke="#121212" stroke-linecap="round" stroke-linejoin="round"/>
<path d="M109.652 33.3115C109.652 33.3115 111.087 49.1884 121.922 49.66" stroke="#121212" stroke-linecap="round" stroke-linejoin="round"/>
<path d="M129.934 32.9257C129.934 33.7428 129.349 34.4071 128.625 34.4071C127.901 34.4071 127.316 33.7428 127.316 32.9257C127.316 32.1086 127.901 31.4443 128.625 31.4443C129.349 31.4443 129.934 32.1086 129.934 32.9257Z" fill="#121212"/>
<path d="M118.009 32.9257C118.009 33.7428 117.424 34.4071 116.7 34.4071C115.976 34.4071 115.392 33.7428 115.392 32.9257C115.392 32.1086 115.976 31.4443 116.7 31.4443C117.424 31.4443 118.009 32.1086 118.009 32.9257Z" fill="#121212"/>
<path d="M119.987 42.167C119.987 42.167 122.471 45.1298 125.374 42.1338" stroke="#121212" stroke-linecap="round" stroke-linejoin="round"/>
<path d="M114.202 29.3191C114.202 29.3191 115.684 28.2496 118.547 29.6778" stroke="#121212" stroke-linecap="round" stroke-linejoin="round"/>
<path d="M131.155 29.3263C131.155 29.3263 129.68 28.2502 126.817 29.6651" stroke="#121212" stroke-linecap="round" stroke-linejoin="round"/>
<path d="M122.679 38.0674V38.8247" stroke="#121212" stroke-linecap="round" stroke-linejoin="round"/>
<path d="M138.695 20.1911C139.087 20.4037 139.844 20.6096 140.203 20.8886C140.116 19.0419 136.549 13.7075 135.745 13.4019C136.383 13.4418 136.788 13.5614 137.353 13.6677C135.891 10.8776 131.029 8.84481 130.776 8.78503C131.374 8.4728 132.005 8.21372 132.67 8.04101C131.029 6.88512 129.029 6.14774 127.03 6.33374C126.066 6.4201 125.123 6.7589 124.313 7.27706C123.263 5.38379 120.825 5.02507 118.985 4.8457C119.616 5.76244 119.755 6.20088 120.034 7.25713C119.098 6.6659 117.975 6.33374 116.866 6.38025C115.019 6.45996 113.285 7.3767 111.93 8.63224C112.627 8.7186 113.551 9.26332 113.372 9.34304C111.558 10.2 107.566 13.5879 106.775 15.4347C107.207 15.3151 107.785 14.89 108.296 14.7704C108.296 14.7704 105.579 18.8227 105.4 20.2376C105.878 19.9254 106.164 19.9785 106.675 19.766C105.533 26.3293 109.213 30.9927 109.213 30.9927C109.233 30.1756 110.017 28.2226 110.342 25.5521C110.621 23.2071 110.548 21.2009 110.588 20.6296C111.797 21.7722 113.019 23.5857 114.826 25.2797L115.843 20.0649L120.965 25.2996C121.37 23.9112 122.061 21.0348 122.346 19.8988C122.346 19.8855 127.309 25.3262 127.309 25.3262C127.309 25.3262 128.411 20.9883 128.352 19.746C130.311 22.1973 133.267 25.6783 133.267 25.6783C134.011 23.8647 134.184 21.6194 134.377 20.7093C134.377 20.7093 134.516 22.2837 134.822 24.2965C135.234 26.9936 136.044 30.169 136.064 31.0259C136.064 31.0259 139.837 26.2097 138.695 20.1845V20.1911Z" fill="#262728" stroke="#121212" stroke-linecap="round" stroke-linejoin="round"/>
<path d="M138.695 24.9675C139.087 25.1801 139.844 25.386 140.203 25.665C140.116 23.8182 136.549 18.4839 135.745 18.1783C136.383 18.2182 136.788 18.3377 137.353 18.444C135.891 15.6539 131.029 13.6212 130.776 13.5614C131.374 13.2492 132.005 12.9901 132.67 12.8174C131.029 11.6615 129.029 10.9241 127.03 11.1101C126.066 11.1965 125.123 11.5353 124.313 12.0534C123.263 10.1602 120.825 9.80143 118.985 9.62207C119.616 10.5388 119.755 10.9772 120.034 12.0335C119.098 11.4423 117.975 11.1101 116.866 11.1566C115.019 11.2363 113.285 12.1531 111.93 13.4086C112.627 13.495 113.551 14.0397 113.372 14.1194C111.558 14.9764 107.566 18.3643 106.775 20.2111C107.207 20.0915 107.785 19.6663 108.296 19.5468C108.296 19.5468 105.579 23.599 105.4 25.014C105.878 24.7018 106.164 24.7549 106.675 24.5423C105.533 31.1057 109.213 35.7691 109.213 35.7691C109.233 34.952 110.017 32.9989 110.342 30.3284C110.621 27.9834 110.548 25.9772 110.588 25.4059C111.797 26.5485 113.019 28.3621 114.826 30.0561L115.843 24.8413L120.965 30.076C121.37 28.6876 122.061 25.8112 122.346 24.6752C122.346 24.6619 127.309 30.1026 127.309 30.1026C127.309 30.1026 128.411 25.7647 128.352 24.5224C130.311 26.9737 133.267 30.4546 133.267 30.4546C134.011 28.6411 134.184 26.3957 134.377 25.4856C134.377 25.4856 134.516 27.06 134.822 29.0729C135.234 31.77 136.044 34.9453 136.064 35.8023C136.064 35.8023 139.837 30.9861 138.695 24.9608V24.9675Z" fill="#262728" stroke="#121212" stroke-linecap="round" stroke-linejoin="round"/>
<path d="M135.818 17.7012C135.818 17.7012 136.489 18.7508 136.489 21.0559" stroke="#121212" stroke-linecap="round" stroke-linejoin="round"/>
<path d="M130.923 17.1553C130.923 17.1553 131.913 17.9325 132.225 20.9219" stroke="#121212" stroke-linecap="round" stroke-linejoin="round"/>
<path d="M109.878 17.7012C109.878 17.7012 108.875 18.3522 108.815 21.0559" stroke="#121212" stroke-linecap="round" stroke-linejoin="round"/>
<path d="M118.851 17.5156C118.851 17.5156 118.725 19.1631 120.041 21.2424" stroke="#121212" stroke-linecap="round" stroke-linejoin="round"/>
<path d="M104.157 87.4328C103.686 89.0537 100.304 92.3354 94.9302 92.4616C89.5559 92.5812 87.3903 90.4886 87.3704 89.7911C87.3372 88.2898 90.4793 81.9324 95.8536 81.8128C101.228 81.6933 104.908 84.8753 104.157 87.4395V87.4328Z" fill="white" stroke="#121212" stroke-linecap="round" stroke-linejoin="round"/>
<path d="M139.578 87.168C140.123 88.7623 143.896 92.9408 149.27 92.8212C154.645 92.7016 157.388 91.1604 157.561 90.2769C157.8 89.0147 152.997 81.0497 147.616 81.1693C142.242 81.2889 138.715 84.637 139.578 87.168Z" fill="white" stroke="#121212" stroke-linecap="round" stroke-linejoin="round"/>
<path d="M142.467 73.9609C142.368 78.7107 141.126 80.9096 140.601 85.8121C140.255 89.0606 129.334 85.088 117.543 83.7063L113.77 90.615C113.77 90.615 130.789 99.6562 146.52 98.4073C146.52 98.4073 149.662 98.1217 150.871 92.3821C152.545 86.4432 152.651 82.8958 152.485 75.5885C152.399 71.7023 142.494 72.1939 142.461 73.9543L142.467 73.9609Z" fill="white"/>
<path d="M142.022 78.5386C141.697 82.4181 141.623 82.717 140.6 85.8193C139.571 88.9216 129.334 85.1019 117.542 83.7135L113.49 90.6223C113.49 90.6223 130.609 99.1718 146.519 98.4145C146.519 98.4145 149.163 98.1422 150.871 92.3893C152.545 86.4504 152.166 82.903 152.485 75.5957" stroke="#121212" stroke-linecap="round" stroke-linejoin="round"/>
<path d="M140.062 87.0342C140.062 87.0342 142.341 87.0342 143.185 87.9908" stroke="#121212" stroke-linecap="round" stroke-linejoin="round"/>
<path d="M128.259 81.9179C128.259 81.9179 138.668 77.1017 140.98 79.4201C140.98 79.4201 141.08 80.111 141.126 80.9148C141.146 81.2004 140.867 82.0972 140.887 82.6353C140.98 86.196 140.229 86.94 140.229 86.94C140.229 86.94 137.333 89.2252 131.746 87.5711C131.746 87.5711 128.026 84.4688 128.259 81.9245V81.9179Z" fill="white" stroke="#121212" stroke-linecap="round" stroke-linejoin="round"/>
<path d="M131.375 83.6864C130.372 82.0522 129.92 81.3281 129.92 81.3281C129.92 81.3281 122.812 83.155 118.979 83.6465C112.595 84.4703 108.955 84.7626 103.581 86.224C103.521 82.7564 102.438 78.7373 101.986 74.2267C101.774 72.1142 91.7628 72.9845 91.7827 74.5721C91.8957 84.0717 92.2079 93.631 96.7119 97.6368C98.4523 98.7262 101.216 98.5535 104.497 97.7165C111.765 95.8697 132.206 89.147 133.541 87.9844C133.541 87.9844 133.255 86.7754 131.362 83.6864H131.375Z" fill="white"/>
<path d="M129.629 81.4476C129.629 81.4476 122.262 83.3209 118.422 83.7128C109.142 84.6694 108.949 84.2708 103.575 85.7323C103.515 82.2646 102.439 78.7372 101.994 74.2266" stroke="#121212" stroke-linecap="round" stroke-linejoin="round"/>
<path d="M91.7904 74.5713C91.5446 85.9309 92.9197 94.0287 96.4671 97.3968C98.2209 98.3467 99.875 98.6922 102.532 98.1674C107.993 97.0845 130.36 90.4083 133.549 87.9902" stroke="#121212" stroke-linecap="round" stroke-linejoin="round"/>
<path d="M102.173 86.1445C102.173 86.1445 101.256 86.3704 99.4224 87.0878" stroke="#121212" stroke-linecap="round" stroke-linejoin="round"/>
<path d="M99.7461 58.0516C99.7461 58.0516 92.0402 58.6561 90.5455 72.9253C90.5455 72.9253 89.8015 77.3894 88.7319 82.3451C88.0278 85.5936 87.6757 88.4235 87.3701 89.3469C87.3701 89.3469 95.8068 81.9864 102.483 86.0387C102.483 86.0387 102.523 76.0077 101.912 71.0055C101.301 66.0099 99.7395 58.0449 99.7395 58.0449L99.7461 58.0516Z" fill="white" stroke="#121212" stroke-linecap="round" stroke-linejoin="round"/>
<path d="M98.7505 66.9385C98.7505 66.9385 101.474 72.9704 101.939 76.1922" stroke="#121212" stroke-linecap="round" stroke-linejoin="round"/>
<path d="M117.543 83.713C117.543 83.713 116.653 82.4707 115.165 81.3015C114.488 80.7701 111.711 78.9366 110.821 78.724C109.406 78.3852 108.516 78.465 107.233 78.2325C106.41 78.0863 105.4 77.515 104.423 77.0899C102.411 76.2196 99.7933 75.4955 98.7437 75.655C98.7437 75.655 97.4549 76.2263 98.5576 77.3423C98.5576 77.3423 100.876 78.0996 103.002 78.9765C104.244 79.488 105.759 80.3383 106.403 80.9096C105.42 80.5974 98.6108 78.6775 98.3451 78.7108C98.3451 78.7108 96.1529 79.2688 97.8601 80.5708C97.8601 80.5708 103.5 82.1054 104.988 82.8029C105.028 82.6501 98.3982 80.6638 98.2986 80.697C98.2986 80.697 96.7109 81.0956 97.8668 82.5305C97.9531 82.6434 101.746 83.9521 104.57 84.8888C104.57 84.8888 101.633 83.9255 101.002 83.6731C98.2787 82.9689 98.3517 83.8724 98.9961 84.8821C99.1755 85.1612 99.6073 85.3472 101.952 86.1908C101.952 86.1908 107.36 84.6164 110.196 84.4105C113.504 84.1713 117.55 83.7063 117.55 83.7063L117.543 83.713Z" fill="white" stroke="#121212" stroke-linecap="round" stroke-linejoin="round"/>
<path d="M107.228 78.2256C107.228 78.2256 109.267 79.1689 109.818 79.5675" stroke="#121212" stroke-linecap="round" stroke-linejoin="round"/>
<path d="M144.985 58.0901C144.985 58.0901 152.013 57.4723 153.966 71.3761C153.966 71.3761 156.185 86.5488 157.567 89.7906C157.567 89.7906 148.712 83.5528 140.973 85.4793C140.973 85.4793 142.8 73.2694 143.643 68.0546C144.487 62.8398 144.985 58.0901 144.985 58.0901Z" fill="white" stroke="#121212" stroke-linecap="round" stroke-linejoin="round"/>
<path d="M145.419 68.4277C145.419 68.4277 142.782 74.2271 142.25 77.821" stroke="#121212" stroke-linecap="round" stroke-linejoin="round"/>
<path d="M136.65 25.5779L135.588 25.5646C136.298 46.364 125.397 49.7652 122.481 50.3365C119.565 49.7652 108.736 46.4171 109.447 25.6177L108.232 25.4251C108.285 24.3423 107.189 50.662 122.381 50.662L122.474 50.6354L122.567 50.662C137.82 50.662 136.644 25.5779 136.644 25.5779H136.65Z" fill="#E3E4E4" stroke="#121212" stroke-linecap="round" stroke-linejoin="round"/>
<path d="M140.842 22.2777C140.842 11.9278 136.351 6.36758 129.575 3.53764C128.067 1.15943 125.251 1 122.554 1C119.857 1 116.894 1.14615 115.406 3.73029C109.002 6.7728 104.398 10.5793 104.398 22.2511C102.505 22.5766 102.811 24.3636 102.811 24.7754C102.811 25.9845 110.703 26.8414 122.374 26.8414C134.046 26.8414 142.191 25.9845 142.191 24.7754C142.191 24.3436 142.895 22.6164 140.835 22.2777H140.842Z" fill="white" stroke="#121212" stroke-linecap="round" stroke-linejoin="round"/>
<path d="M115.531 3.73047C115.531 3.73047 113.133 13.0772 114.183 21.3013" stroke="#121212" stroke-linecap="round" stroke-linejoin="round"/>
<path d="M129.574 3.73047C129.574 3.73047 131.972 13.0772 130.923 21.3013" stroke="#121212" stroke-linecap="round" stroke-linejoin="round"/>
<path d="M43.408 95.549C45.0621 105.427 50.237 110.018 57.1657 111.638C58.9859 113.665 61.7029 113.366 64.2738 112.934C66.9642 112.482 69.6546 111.891 70.6644 109.187C76.2977 105.261 80.0776 100.89 78.2175 89.7496C79.5063 88.4609 78.4833 86.4746 78.4168 86.0827C78.2242 84.9268 73.9992 80.0641 58.7734 82.4556C42.6109 84.9932 42.0993 90.6597 42.1458 92.1278C42.179 93.2771 42.0395 94.2138 43.4014 95.5556L43.408 95.549Z" fill="white" stroke="#191919" stroke-linecap="round" stroke-linejoin="round"/>
<path d="M74.0512 88.8592C74.0512 88.8592 60.2868 86.2352 46.8745 93.1307" stroke="#191919" stroke-linecap="round" stroke-linejoin="round"/>
<path d="M70.5437 109.207C70.5437 109.207 71.3409 99.8999 69.0225 92.2139" stroke="#191919" stroke-linecap="round" stroke-linejoin="round"/>
<path d="M57.1319 111.452C57.1319 111.452 53.3521 102.915 53.0332 94.8906" stroke="#191919" stroke-linecap="round" stroke-linejoin="round"/>
<path d="M73.666 108.449C73.666 108.449 72.5899 108.701 72.3839 108.575C71.1815 107.804 71.4273 108.163 70.2183 107.246C69.2484 106.509 67.0894 105.871 66.1993 105.997C66.1395 106.004 61.197 106.183 61.1705 107.545C61.1439 108.555 65.3091 108.123 65.2161 108.137C64.5651 108.024 63.8875 108.243 62.6386 108.276C59.4898 108.356 55.2183 108.708 55.4508 109.89C55.5837 110.555 59.9083 110.488 63.1966 110.428C63.17 110.535 64.1333 110.528 64.1532 110.581C63.3295 110.661 61.124 110.548 60.1674 110.462C56.0952 110.096 55.1917 110.209 55.3578 111.485C55.4707 112.388 63.7413 112.953 63.748 113.019C63.4623 113.066 62.2134 112.694 61.9012 112.68C59.1709 112.607 55.7497 111.657 56.2679 112.8C56.7661 113.909 64.1598 114.999 64.2529 115.152C63.9606 115.225 57.6962 113.996 57.9619 114.361C58.2409 114.746 65.0168 117.49 65.5549 117.344C68.0327 118.075 71.527 117.53 71.9787 117.404L75.8782 115.716" fill="white"/>
<path d="M73.666 108.449C73.666 108.449 72.5899 108.701 72.3839 108.575C71.1815 107.804 71.4273 108.163 70.2183 107.246C69.2484 106.509 67.0894 105.871 66.1993 105.997C66.1395 106.004 61.197 106.183 61.1705 107.545C61.1439 108.555 65.3091 108.123 65.2161 108.137C64.5651 108.024 63.8875 108.243 62.6386 108.276C59.4898 108.356 55.2183 108.708 55.4508 109.89C55.5837 110.555 59.9083 110.488 63.1966 110.428C63.17 110.535 64.1333 110.528 64.1532 110.581C63.3295 110.661 61.124 110.548 60.1674 110.462C56.0952 110.096 55.1917 110.209 55.3578 111.485C55.4707 112.388 63.7413 112.953 63.748 113.019C63.4623 113.066 62.2134 112.694 61.9012 112.68C59.1709 112.607 55.7497 111.657 56.2679 112.8C56.7661 113.909 64.1598 114.999 64.2529 115.152C63.9606 115.225 57.6962 113.996 57.9619 114.361C58.2409 114.746 65.0168 117.49 65.5549 117.344C68.0327 118.075 71.527 117.53 71.9787 117.404L75.8782 115.716" stroke="#191919" stroke-linecap="round" stroke-linejoin="round"/>
<path d="M65.0498 108.15C65.0498 108.15 66.9497 107.931 67.9794 108.336" stroke="#191919" stroke-linecap="round" stroke-linejoin="round"/>
</svg>
