<svg width="239" height="58" viewBox="0 0 239 58" fill="none" xmlns="http://www.w3.org/2000/svg">
<g clip-path="url(#clip0_837_976)">
<path d="M51.0069 36.0492L58.0639 29L29.032 0V58L39.4835 47.5511V24.5295L51.0069 36.0492Z" fill="#0080C5"/>
<path d="M39.4834 36.0492H51.0068L39.4834 24.5295V36.0492Z" fill="#034EA1"/>
<path d="M7.057 21.9508L0 29L29.032 58V0L18.5805 10.4489V33.4705L7.057 21.9508Z" fill="#8AC650"/>
<path d="M18.5803 21.9508H7.05688L18.5803 33.4705V21.9508Z" fill="#008B44"/>
<path d="M82.0667 16.7977H78.7258V14.9685H85.5416V12.6663H83.9605V9.106C83.9605 7.77646 82.8796 6.70569 81.5486 6.70569H70.5075V9.01677H81.1823V12.6663H69.6768V14.9685H75.9387V16.7977H70.5075V19.1088H81.7005V23.0885H84.4786V19.1891C84.4786 17.8595 83.3977 16.7888 82.0667 16.7888V16.7977Z" fill="#034EA1"/>
<path d="M176.845 6.46477H174.067V23.0795H176.845V6.46477Z" fill="#034EA1"/>
<path d="M109.241 15.3611C106.73 15.3611 104.685 13.3355 104.685 10.8371C104.685 8.33862 106.722 6.31308 109.241 6.31308C111.76 6.31308 113.796 8.33862 113.796 10.8371C113.796 13.3355 111.76 15.3611 109.241 15.3611ZM109.241 12.8448C110.357 12.8448 111.259 11.9435 111.259 10.8371C111.259 9.73062 110.348 8.82939 109.241 8.82939C108.133 8.82939 107.222 9.73062 107.222 10.8371C107.222 11.9435 108.133 12.8448 109.241 12.8448Z" fill="#034EA1"/>
<path d="M120.335 6.46477H117.557V16.2802H120.335V12.1042H122.568V9.802H120.335V6.46477Z" fill="#034EA1"/>
<path d="M157.148 6.46477H154.37V13.9066H152.315V9.01677C152.27 7.79431 151.065 6.77708 149.573 6.69677H142.123V9.04354H149.537V13.9066H147.188V11.6402H144.41V13.9066H141.265V16.2088H154.37V18.502H157.148V12.1131H159.381V9.81092H157.148V6.46477Z" fill="#034EA1"/>
<path d="M111.251 16.6371H108.472V20.8398C108.472 22.1694 109.553 23.2402 110.884 23.2402H120.443V20.938H111.251V16.6371Z" fill="#034EA1"/>
<path d="M192.031 6.46477V12.4432H188.208C188.529 11.8365 188.717 11.1405 188.717 10.3998C188.717 7.98169 186.743 6.00969 184.304 6.00969C181.865 6.00969 179.882 7.97277 179.882 10.3998C179.882 11.1315 180.07 11.8365 180.391 12.4432H178.578V14.5669H182.321V17.0118H185.099V14.5669H192.022V16.0035H189.11V18.1272H192.022V19.5638H194.8V6.46477H192.022H192.031ZM184.304 12.354C183.223 12.354 182.348 11.4795 182.348 10.4088C182.348 9.338 183.232 8.46354 184.304 8.46354C185.376 8.46354 186.26 9.338 186.26 10.4088C186.26 11.4795 185.376 12.354 184.304 12.354Z" fill="#034EA1"/>
<path d="M128.929 16.6371H126.151V20.8398C126.151 22.1694 127.232 23.2402 128.563 23.2402H138.978V20.938H128.929V16.6371Z" fill="#034EA1"/>
<path d="M136.084 16.2802H138.862V6.47369H136.084V9.84662H133.922V12.1488H136.084V16.2802Z" fill="#034EA1"/>
<path d="M125.883 14.7722L128.25 9.77523L130.626 14.7722H133.368L130.635 9.02569H133.002V6.71462H123.506V9.02569H125.865L123.122 14.7722H125.883Z" fill="#034EA1"/>
<path d="M96.9668 16.9315H102.434V14.6205H91.473V12.9429H102.076V10.6318H91.473V9.00785H102.434V6.69677H88.6949V14.5223C88.6949 15.8518 89.7758 16.9226 91.1068 16.9226H94.1797V18.6269H87.7212V20.9291H103.398V18.6269H96.9489V16.9226H96.9668V16.9315Z" fill="#034EA1"/>
<path d="M147.179 17.6454H144.401V20.8398C144.401 22.1694 145.482 23.2402 146.813 23.2402H157.255V20.938H147.17V17.6454H147.179Z" fill="#034EA1"/>
<path d="M185.108 18.2789H182.33V20.6882C182.33 22.0177 183.41 23.0885 184.741 23.0885H194.8V20.7863H185.099V18.2789H185.108Z" fill="#034EA1"/>
<path d="M163.41 13.514H171.173V6.69677H160.81V9.01677H168.403V11.2118H160.641V15.9768C160.641 17.3063 161.722 18.3771 163.053 18.3771H171.539V16.0749H163.419V13.514H163.41Z" fill="#034EA1"/>
<path d="M86.4437 43.2635H81.9236V40.7829H91.1513V37.6688H89.0164V32.8503C89.0164 31.0657 87.5514 29.6023 85.7469 29.6023H70.8111V32.7254H85.2556V37.6688H69.6855V40.7829H78.1629V43.2635H70.8022V46.3866H85.9434V51.7762H89.7042V46.5115C89.7042 44.7269 88.2392 43.2725 86.4348 43.2725H86.4437V43.2635Z" fill="#034EA1"/>
<path d="M123.203 41.3272C119.799 41.3272 117.039 38.5789 117.039 35.1971C117.039 31.8152 119.799 29.0669 123.203 29.0669C126.606 29.0669 129.366 31.8152 129.366 35.1971C129.366 38.5789 126.606 41.3272 123.203 41.3272ZM123.203 37.9186C124.712 37.9186 125.936 36.6962 125.936 35.1971C125.936 33.698 124.703 32.4755 123.203 32.4755C121.702 32.4755 120.469 33.698 120.469 35.1971C120.469 36.6962 121.702 37.9186 123.203 37.9186Z" fill="#034EA1"/>
<path d="M138.21 29.2989H134.458V42.5765H138.21V36.9192H141.238V33.8051H138.21V29.2989Z" fill="#034EA1"/>
<path d="M125.927 43.0494H122.175V48.7423C122.175 50.5358 123.64 51.9903 125.445 51.9903H138.38V48.8762H125.936V43.0494H125.927Z" fill="#034EA1"/>
<path d="M235.221 29.2989V37.3832H230.049C230.487 36.5623 230.737 35.6254 230.737 34.6171C230.737 31.3423 228.057 28.6743 224.77 28.6743C221.482 28.6743 218.794 31.3423 218.794 34.6171C218.794 35.6165 219.044 36.5534 219.49 37.3832H217.043V40.2565H222.108V43.558H225.868V40.2565H235.239V42.1928H231.3V45.066H235.239V47.0023H239V29.29H235.221V29.2989ZM224.77 37.2494C223.305 37.2494 222.126 36.0715 222.126 34.6171C222.126 33.1626 223.314 31.9848 224.77 31.9848C226.226 31.9848 227.414 33.1626 227.414 34.6171C227.414 36.0715 226.226 37.2494 224.77 37.2494Z" fill="#034EA1"/>
<path d="M214.032 40.7829V37.6688H208.798C209.244 36.8211 209.504 35.8574 209.504 34.8312C209.504 31.4405 206.725 28.6832 203.313 28.6832C199.901 28.6832 197.122 31.4494 197.122 34.8312C197.122 35.8574 197.382 36.8122 197.828 37.6688H192.594V40.7829H198.704V43.2635H193.862V46.3866H209.003V51.7762H212.764V46.5115C212.764 44.7269 211.299 43.2725 209.495 43.2725H207.922V40.7918H214.041H214.032V40.7829ZM203.295 32.1008C204.814 32.1008 206.038 33.3232 206.038 34.8312C206.038 36.3392 204.805 37.5617 203.295 37.5617C201.785 37.5617 200.553 36.3392 200.553 34.8312C200.553 33.3232 201.785 32.1008 203.295 32.1008ZM204.162 43.2635H202.438V40.7829H204.162V43.2635Z" fill="#034EA1"/>
<path d="M149.841 43.0494H146.08V48.7423C146.08 50.5358 147.545 51.9903 149.349 51.9903H163.445V48.8762H149.841V43.0494Z" fill="#034EA1"/>
<path d="M159.524 42.5765H163.285V29.3078H159.524V33.8586H156.603V36.9817H159.524V42.5765Z" fill="#034EA1"/>
<path d="M145.722 40.5331L148.929 33.7694L152.145 40.5331H155.861L152.154 32.7522H155.352V29.6202H142.516V32.7522H145.705L141.989 40.5331H145.722Z" fill="#034EA1"/>
<path d="M106.596 43.4509H114.002V40.3278H99.173V38.0435H113.519V34.9205H99.173V32.7343H114.002V29.6112H95.4123V40.2029C95.4123 41.9875 96.8773 43.4509 98.6817 43.4509H102.836V45.762H94.0991V48.8762H115.324V45.762H106.605V43.4509H106.596Z" fill="#034EA1"/>
<path d="M183.634 43.1029H187.394V32.8503C187.394 31.0657 185.929 29.6023 184.125 29.6023H169.189V32.7254H183.634V43.1029Z" fill="#034EA1"/>
<path d="M181.525 45.762V38.0078H177.765V45.762H176.05V38.0078H172.289V45.762H167.465V48.8762H188.69V45.762H181.525Z" fill="#034EA1"/>
<path d="M225.86 45.2623H222.099V48.5192C222.099 50.3038 223.564 51.7672 225.368 51.7672H238.982V48.6531H225.86V45.2623Z" fill="#034EA1"/>
</g>
<defs>
<clipPath id="clip0_837_976">
<rect width="239" height="58" fill="white"/>
</clipPath>
</defs>
</svg>
