<svg width="23" height="20" viewBox="0 0 23 20" fill="none" xmlns="http://www.w3.org/2000/svg">
<path d="M12.6344 19H11.2395V2.93689L5.36064 7.23241L4.94913 7.36679H2.67C2.51841 7.36679 2.39472 7.49002 2.39472 7.64183V12.2238C2.39472 12.3754 2.51818 12.4988 2.67 12.4988H4.94913L5.36087 12.6332L10.243 16.201L9.41997 17.3275L4.72152 13.8938H2.67023C1.74932 13.8938 1 13.1447 1 12.2238V7.64183C1 6.72093 1.74932 5.97184 2.67023 5.97184H4.72152L11.5257 1L12.6346 1.5631L12.6344 19Z" fill="#1464FF" stroke="#1464FF" stroke-width="0.5" stroke-miterlimit="10"/>
<path d="M19.5538 15.9859L18.4392 14.8711L18.9965 14.3138C20.1664 13.1435 20.8113 11.5876 20.8113 9.93254C20.8113 8.27766 20.1666 6.72159 18.9965 5.55099L18.4392 4.99371L19.5538 3.87891L20.1111 4.43619C21.579 5.90438 22.3879 7.85638 22.3879 9.93254C22.3879 12.0089 21.579 13.9605 20.1111 15.4286L19.5538 15.9859Z" fill="#1464FF" stroke="#1464FF" stroke-width="0.5" stroke-miterlimit="10" stroke-linecap="round" stroke-linejoin="round"/>
<path d="M16.4339 13.6544L15.3191 12.5396L15.8764 11.9823C17.0065 10.8524 17.0065 9.01316 15.8764 7.88302L15.3191 7.32574L16.4339 6.21094L16.9912 6.76822C18.736 8.51331 18.736 11.352 16.9912 13.0971L16.4339 13.6544Z" fill="#1464FF" stroke="#1464FF" stroke-width="0.5" stroke-miterlimit="10" stroke-linecap="round" stroke-linejoin="round"/>
</svg>
