<svg width="57" height="56" viewBox="0 0 57 56" fill="none" xmlns="http://www.w3.org/2000/svg">
<path d="M39.6978 43.4353L43.7148 42.2943L43.6238 38.8073C45.0578 38.2213 46.3618 37.4123 47.5028 36.4253L50.5328 38.1113L53.8458 33.5333L51.3358 31.1253C51.9198 29.7293 52.2848 28.2283 52.3998 26.6713L55.7188 25.7043L54.8448 20.0973L51.3858 20.1793C50.8008 18.7323 49.9948 17.4143 49.0138 16.2623L50.6768 13.2103L46.1268 9.85729L43.7458 12.3813C42.3588 11.7883 40.8698 11.4163 39.3258 11.2963L38.3588 7.94629L32.7998 8.81329" stroke="#262728" stroke-width="2" stroke-miterlimit="10" stroke-linejoin="round"/>
<path d="M30.352 31.9875C32.069 33.7485 34.467 34.8415 37.121 34.8415C42.342 34.8415 46.574 30.6095 46.574 25.3885C46.574 20.1675 42.342 15.9355 37.121 15.9355" stroke="#8AC650" stroke-width="1.5" stroke-miterlimit="10"/>
<path d="M29.15 38.3489L28.457 38.1229C28.186 38.0349 27.945 37.8919 27.737 37.7139C26.195 38.5949 24.115 39.1379 21.819 39.1379C19.523 39.1379 17.443 38.5949 15.902 37.7139C15.693 37.8919 15.453 38.0349 15.181 38.1229L14.488 38.3489C7.07399 40.7589 2.05299 47.6689 2.05299 55.4659H41.584C41.585 47.6689 36.565 40.7589 29.15 38.3489Z" fill="#8AC650"/>
<path d="M23.538 53.4661H16.663L18.382 42.2941L17.522 39.7161L20.101 37.9971L22.679 39.7161L21.819 42.2941L23.538 53.4661Z" fill="white"/>
<path d="M14.085 35.6855C17.523 38.2635 22.679 38.2635 26.116 35.6855" stroke="#262728" stroke-width="2" stroke-miterlimit="10" stroke-linejoin="round"/>
<path d="M12.366 37.4033L14.944 41.7003L20.101 38.2633" stroke="#262728" stroke-width="2" stroke-miterlimit="10" stroke-linejoin="round"/>
<path d="M27.835 37.4033L25.257 41.7003L20.101 38.2633" stroke="#262728" stroke-width="2" stroke-miterlimit="10" stroke-linejoin="round"/>
<path d="M28.69 20.2168L27.512 26.1948C27.133 30.1818 23.783 33.2268 19.779 33.2268C15.775 33.2268 12.425 30.1818 12.046 26.1948L11.339 22.8098" stroke="#262728" stroke-width="2" stroke-miterlimit="10" stroke-linejoin="round"/>
<path d="M17.522 40.2097L18.382 42.4657H21.819L22.679 39.8877" stroke="#262728" stroke-width="2" stroke-miterlimit="10" stroke-linejoin="round"/>
<path d="M18.382 42.5605L16.663 53.7325" stroke="#262728" stroke-width="2" stroke-miterlimit="10" stroke-linejoin="round"/>
<path d="M21.819 42.5605L23.538 53.7325" stroke="#262728" stroke-width="2" stroke-miterlimit="10" stroke-linejoin="round"/>
<path d="M8.16699 50.4658V53.4658" stroke="#262728" stroke-width="2" stroke-miterlimit="10" stroke-linejoin="round"/>
<path d="M31.167 50.4658V53.4658" stroke="#262728" stroke-width="2" stroke-miterlimit="10" stroke-linejoin="round"/>
<path d="M25.167 31.4658V34.0988C25.167 35.0208 25.756 35.8388 26.63 36.1318L27.276 36.3488C34.465 38.7588 39.334 45.6688 39.334 53.4658H1C1 45.6688 5.868 38.7588 13.058 36.3488L13.704 36.1318C14.578 35.8388 15.167 35.0208 15.167 34.0988V31.4658" stroke="#262728" stroke-width="2" stroke-miterlimit="10" stroke-linejoin="round"/>
<path d="M31.24 20.4658H9.09399C8.02999 20.4658 7.16699 19.6028 7.16699 18.5388V18.3928C7.16699 17.3298 8.02999 16.4658 9.09399 16.4658H31.24C32.303 16.4658 33.167 17.3288 33.167 18.3928V18.5388C33.167 19.6028 32.304 20.4658 31.24 20.4658Z" stroke="#262728" stroke-width="2" stroke-miterlimit="10" stroke-linejoin="round"/>
<path d="M17.739 2.48828C12.823 3.66028 9.16699 8.08128 9.16699 13.3573V15.4663" stroke="#262728" stroke-width="2" stroke-miterlimit="10" stroke-linejoin="round"/>
<path d="M31.167 15.4657V13.3567C31.167 8.0537 27.473 3.6147 22.518 2.4707" stroke="#262728" stroke-width="2" stroke-miterlimit="10" stroke-linejoin="round"/>
<path d="M22.167 12.466V3C22.167 1.896 21.271 1 20.167 1C19.063 1 18.167 1.896 18.167 3V15.466" stroke="#262728" stroke-width="2" stroke-miterlimit="10" stroke-linejoin="round"/>
</svg>
