<svg width="16" height="17" viewBox="0 0 16 17" fill="none" xmlns="http://www.w3.org/2000/svg">
<path d="M2.61016 12.6407C1.97105 13.2798 1.97105 14.3161 2.61042 14.9554C3.24978 15.5948 4.28606 15.5948 4.92517 14.9557L7.40131 12.4798L5.0863 10.1646L2.61016 12.6407Z" fill="#034EA1"/>
<path d="M14.9684 7.59402C15.9646 6.59777 16.2374 5.15509 15.795 3.91099L13.8982 5.8078C13.3071 6.39893 12.3491 6.39893 11.7579 5.8078C11.1668 5.21692 11.1668 4.25838 11.7579 3.66751L13.655 1.77045C12.4101 1.32787 10.968 1.60111 9.97198 2.59736C9.00985 3.55924 8.7207 4.93675 9.0999 6.15134L8.00025 7.25073L6.9006 6.15134C7.27955 4.93701 6.9904 3.55924 6.02853 2.59736C5.03228 1.60111 3.58985 1.32812 2.34524 1.77045L4.2423 3.66751C4.83318 4.25838 4.83318 5.21692 4.2423 5.8078C3.65117 6.39893 2.69289 6.39893 2.10202 5.8078L0.204954 3.91099C-0.237369 5.15534 0.0353624 6.59803 1.03187 7.59402C1.99374 8.55564 3.37151 8.84505 4.58559 8.46584L11.0747 14.9557C11.7138 15.5948 12.7501 15.5948 13.3895 14.9555C14.0286 14.3161 14.0286 13.2798 13.3897 12.6407L10.315 9.56575L11.4144 8.4661C12.6287 8.84505 14.0065 8.55564 14.9684 7.59402Z" fill="#034EA1"/>
</svg>
