<svg width="20" height="20" viewBox="0 0 20 20" fill="none" xmlns="http://www.w3.org/2000/svg">
<circle cx="10" cy="10" r="10" fill="white"/>
<path d="M8.64912 8.04546C8.64912 8.04546 8.19158 8.34615 8.34778 9.25984C8.34778 9.25984 9.41917 12.2554 10.7361 12.7182C10.7361 12.7182 10.9817 12.9495 11.6959 12.6024C12.41 12.2554 12.41 12.2554 12.41 12.2554C12.41 12.2554 13.2248 11.9779 13.7827 12.2786C14.3407 12.5793 14.8281 13.4507 14.9471 14.0058C15.0661 14.5611 14.9471 14.6998 14.9471 14.6998C14.9471 14.6998 13.9613 16.4772 11.7404 15.8758C11.7404 15.8758 9.64229 15.4709 7.52189 11.5152C5.40149 7.55956 6.11571 5.98661 6.11571 5.98661C6.11571 5.98661 7.07555 3.76588 8.63793 4.0203C8.63793 4.0203 9.6424 4.29793 10.0217 5.8246C10.0217 5.8246 10.5575 6.79628 8.64912 8.04546Z" fill="#1464FF"/>
</svg>
