<svg width="17" height="17" viewBox="0 0 17 17" fill="none" xmlns="http://www.w3.org/2000/svg">
<path d="M7.2293 8.7963C9.54889 8.7963 11.4293 6.93911 11.4293 4.64815C11.4293 2.35719 9.54889 0.5 7.2293 0.5C4.9097 0.5 3.0293 2.35719 3.0293 4.64815C3.0293 6.93911 4.9097 8.7963 7.2293 8.7963Z" fill="#034EA1"/>
<path d="M13 8.59863C10.7908 8.59863 9 10.3673 9 12.5493C9 14.7312 10.7908 16.4999 13 16.4999C15.2092 16.4999 17 14.7312 17 12.5493C17 10.3673 15.2092 8.59863 13 8.59863ZM15.0298 11.9511L13.2854 13.9264C13.1674 14.0602 13.001 14.1295 12.8328 14.1295C12.7124 14.1295 12.5912 14.0937 12.4864 14.0203L11.0752 13.0326C10.8048 12.8436 10.741 12.4736 10.9326 12.2065C11.1238 11.9397 11.4986 11.8763 11.769 12.0657L12.7376 12.7436L14.1254 11.1721C14.3434 10.9253 14.7226 10.9001 14.9718 11.115C15.2218 11.3301 15.2476 11.7044 15.0298 11.9511Z" fill="#034EA1"/>
<path d="M7.2 12.5493C7.2 10.9293 7.8854 9.46564 8.9834 8.42268C8.4216 8.28144 7.835 8.20361 7.2296 8.20361C3.4248 8.20361 0.3042 11.0415 0 14.7221H7.6346C7.3552 14.0515 7.2 13.3183 7.2 12.5493Z" fill="#034EA1"/>
</svg>
