<svg width="16" height="16" viewBox="0 0 16 16" fill="none" xmlns="http://www.w3.org/2000/svg">
<g clip-path="url(#clip0_595_3408)">
<path d="M6.58909 8.4703V7.05939C6.58909 6.79758 6.79758 6.58909 7.05939 6.58909H8.94061C9.20243 6.58909 9.41091 6.79758 9.41091 7.05939V8.4703H16V3.29212C16 3.0303 15.7915 2.82182 15.5297 2.82182H11.7673V1.41091C11.7673 0.630303 11.1321 0 10.3564 0H5.64848C4.86788 0 4.23758 0.635152 4.23758 1.41091V2.82182H0.470303C0.208485 2.82182 0 3.0303 0 3.29212V8.4703H6.58909ZM5.17818 1.41091C5.17818 1.14909 5.39152 0.940606 5.64848 0.940606H10.3564C10.6182 0.940606 10.8267 1.15394 10.8267 1.41091V2.82182H5.17818V1.41091Z" fill="white" fill-opacity="0.5"/>
<path d="M9.41091 9.41089V10.8218C9.41091 11.0836 9.20243 11.2921 8.94061 11.2921H7.05939C6.79758 11.2921 6.58909 11.0836 6.58909 10.8218V9.41089H0V15.5297C0 15.7915 0.208485 16 0.470303 16H15.5297C15.7915 16 16 15.7915 16 15.5297V9.41089H9.41091Z" fill="white" fill-opacity="0.5"/>
<path d="M8.47027 7.52972H7.52966V10.3515H8.47027V7.52972Z" fill="white" fill-opacity="0.5"/>
</g>
<defs>
<clipPath id="clip0_595_3408">
<rect width="16" height="16" fill="white"/>
</clipPath>
</defs>
</svg>
