<svg width="107" height="110" viewBox="0 0 107 110" fill="none" xmlns="http://www.w3.org/2000/svg">
<path d="M96.3734 79.1313H9.99531C6.74886 75.8849 4.92893 74.065 1.68164 70.8177V9.99336C4.92809 6.74691 6.74886 4.92698 9.99531 1.67969H96.3726C99.6182 4.92614 101.439 6.74607 104.686 9.99336V70.8168C101.44 74.0641 99.6191 75.884 96.3734 79.1313Z" fill="#E1ECFF"/>
<path d="M96.373 80.8141H9.9949L8.80627 80.3215L0.492599 72.0078L0 70.8192V9.9949L0.492599 8.80627L8.80627 0.492599L9.9949 0H96.3722L97.5608 0.492599L105.875 8.80627L106.367 9.9949V70.8184L105.875 72.007L97.5608 80.3207L96.373 80.8141ZM10.6918 77.4517H95.677L103.005 70.1232V10.6918L95.677 3.3633H10.6918L3.3633 10.6918V70.1232L10.6918 77.4517Z" fill="#1077C4"/>
<path d="M13.4784 70.7236L10.0898 67.3334V13.4753L13.4784 10.0859H92.892L96.2814 13.4745V67.3343L92.892 70.7236H13.4784Z" fill="white"/>
<path d="M82.4251 101.301L68.9736 94.6707V79.1328H37.396V94.6707L23.9453 101.301V108.318H82.4251V101.301Z" fill="#9FC4FF"/>
<path d="M82.4247 110.002H23.9449L22.2637 108.32V101.303L23.2018 99.795L35.7143 93.6265V79.1344L37.3956 77.4531H68.9724L70.6536 79.1344V93.6265L83.167 99.795L84.1051 101.303V108.32L82.4247 110.002ZM25.6261 106.639H80.7427V102.349L68.2293 96.1803L67.2912 94.6723V80.8156H39.0768V94.6723L38.1387 96.1803L25.6261 102.349V106.639Z" fill="#1077C4"/>
<path d="M70.6537 93.0508H47.1484V96.4132H70.6537V93.0508Z" fill="#1077C4"/>
<path d="M82.6354 99.9102H24.3145V103.273H82.6354V99.9102Z" fill="#1077C4"/>
<path d="M28.3677 48.3828H23.4492V51.7453H28.3677V48.3828Z" fill="#1077C4"/>
<path d="M41.4728 56.0781H23.4492V59.4406H41.4728V56.0781Z" fill="#1077C4"/>
<path d="M71.3067 56.0781H44.877V59.4406H71.3067V56.0781Z" fill="#1077C4"/>
<path d="M83.4763 56.0781H74.7012V59.4406H83.4763V56.0781Z" fill="#1077C4"/>
<path d="M50.2787 48.3828H31.3086V51.7453H50.2787V48.3828Z" fill="#1077C4"/>
<path d="M45.1881 21.0391H24.6797V36.7216H45.1881V21.0391Z" fill="#9FC4FF"/>
<path d="M45.1877 38.4004H24.6793L22.998 36.7192V21.0367L24.6793 19.3555H45.1877L46.869 21.0367V36.7192L45.1877 38.4004ZM26.3605 35.038H43.5065V22.7179H26.3605V35.038Z" fill="#1077C4"/>
<path d="M89.0858 47.8647L73.9228 39.0954L58.7598 47.8647V1.67969H89.0858V47.8647Z" fill="#8AC650"/>
<path d="M88.243 49.3222L73.9223 41.0388L59.6016 49.3222L57.0781 47.8671V1.68123L58.7594 0H89.0853L90.7666 1.68123V47.8662L88.243 49.3222ZM73.0809 37.641H74.7638L87.4041 44.9518V3.36246H60.4406V44.9527L73.0809 37.641Z" fill="#1077C4"/>
<path d="M73.9216 26.555L79.4192 29.445L78.3701 23.3228L82.8178 18.9878L76.6704 18.0942L73.9216 12.5234L71.172 18.0942L65.0254 18.9878L69.4731 23.3228L68.424 29.445L73.9216 26.555Z" fill="white"/>
<path d="M78.6382 30.9346L73.9224 28.4557L69.2065 30.9346L66.7679 29.1626L67.6682 23.9113L63.8535 20.1933L64.7849 17.3251L70.0564 16.5593L72.4143 11.7812H75.4304L77.7884 16.5593L83.0599 17.3251L83.9921 20.1933L80.1766 23.9113L81.0769 29.1626L78.6382 30.9346ZM73.1398 25.0672H74.7042L77.1865 26.3726L76.7132 23.6078L77.1966 22.1191L79.2048 20.1622L76.4299 19.7595L75.164 18.839L73.9215 16.3239L72.68 18.839L71.414 19.7595L68.6383 20.1622L70.6465 22.1191L71.1299 23.6078L70.6566 26.3726L73.1398 25.0672Z" fill="#1077C4"/>
</svg>
