<svg width="179" height="130" viewBox="0 0 179 130" fill="none" xmlns="http://www.w3.org/2000/svg">
<path d="M114 18L179 130H49L114 18Z" fill="#1464FF" fill-opacity="0.1"/>
<path d="M46.5 50L93 130H0L46.5 50Z" fill="#DFE3EB" fill-opacity="0.3"/>
<path d="M146 93.2398H156.357L151.175 82.333L146 93.2398Z" fill="#034EA1"/>
<path d="M146 76.6478H156.357L151.175 65.7344L146 76.6478Z" fill="#034EA1"/>
<path d="M146 60.9062H156.357L151.175 49.9961L146 60.9062Z" fill="#034EA1"/>
<path d="M146 44.3138H156.357L151.175 33.4004L146 44.3138Z" fill="#034EA1"/>
<path d="M146 27.7171H156.357L151.175 16.8037L146 27.7171Z" fill="#034EA1"/>
<path d="M151.175 0.210938L146 11.121H156.357L151.175 0.210938Z" fill="#034EA1"/>
<path d="M169.809 0.209961H159.45L164.632 11.1233L169.809 0.209961Z" fill="#8AC650"/>
<path d="M169.809 16.8027H159.45L164.632 27.7161L169.809 16.8027Z" fill="#8AC650"/>
<path d="M169.809 33.3984H159.45L164.632 44.3085L169.809 33.3984Z" fill="#8AC650"/>
<path d="M169.809 49.9912H159.45L164.632 60.9046L169.809 49.9912Z" fill="#8AC650"/>
</svg>
